<?xml version="1.0" encoding="utf-8"?>
<!-- Generator: Adobe Illustrator 25.3.1, SVG Export Plug-In . SVG Version: 6.00 Build 0)  -->
<svg version="1.1" id="Layer_1" xmlns="http://www.w3.org/2000/svg" xmlns:xlink="http://www.w3.org/1999/xlink" x="0px" y="0px"
	 viewBox="0 0 200 100" style="enable-background:new 0 0 200 100;" xml:space="preserve">
<g>
	<path d="M0.9,97.4c0.1,0,0.1,0,0.2,0C1,97.2,0.9,97,0.9,96.9c0,0,0,0,0,0C0.9,97,0.9,97.2,0.9,97.4z"/>
	<path d="M66.3,99.7C66.3,99.7,66.3,99.8,66.3,99.7C66.4,99.7,66.5,99.7,66.3,99.7z"/>
	<path d="M66.3,98.8c-0.1,0-0.1,0-0.2,0c0,0,0,0.1,0,0.1C66.3,98.9,66.5,98.8,66.3,98.8z"/>
	<path d="M66.2,99.2c0,0,0,0.1,0,0.1C66.5,99.3,66.4,99.2,66.2,99.2z"/>
	<path d="M0.3,88.2C0.3,88.2,0.3,88.2,0.3,88.2c0.1,0,0.1-0.1,0-0.3c-0.2-0.4-0.3-0.6-0.3-0.6v0.8c0.1,0,0.1,0,0.2,0
		C0.1,87.9,0.2,88.1,0.3,88.2z"/>
	<path d="M1.7,97.8c0.1,0.1,0.1,0.1,0.2,0.2c-0.1-0.5-0.2-0.9-0.4-1.3C1.7,97.3,1.7,97.6,1.7,97.8z"/>
	<path d="M0,85.2v0.7C0,85.7,0,85.5,0,85.2z"/>
	<path d="M0.8,87.9c0,0.1,0,0.2,0,0.4c0,0,0.1,0,0.1,0C0.9,88.2,0.9,88.1,0.8,87.9z"/>
	<path d="M1.4,87.8c-0.1-0.3-0.2-0.7-0.3-0.7c0,0.4,0.1,1,0.1,1.3c0.1,0,0.1,0.1,0.2,0.1C1.3,88.2,1.5,88.3,1.4,87.8z"/>
	<path d="M5.1,46.4c0-0.1,0-0.1,0-0.1C5,46.3,5.1,46.4,5.1,46.4C5.1,46.4,5.1,46.4,5.1,46.4z"/>
	<path d="M200,6.3V2.8c-1.5,0-2.8-1.2-2.8-2.8h-3.3c0.1,0.1,0.3,0.1,0.8,0.1c-0.2,0.1-0.6,0.1-1,0.1c0,0,0,0.1,0,0.1
		c0.4,0,0.9,0,0.8,0c-0.7,0-0.7,0.1-0.8,0.1c0,0,0,0,0,0c0,0.1,0,0.1,0,0.2c0.2,0,0.4,0,0.6,0c0.3,0.1-0.4,0.1-0.7,0.1
		c0,0,0,0,0,0.1c0,0,0,0,0.1,0c0,0,0,0-0.1,0c0,0,0,0.1,0,0.1c0.5,0-0.3,0.2,0,0.3c0,0-0.1,0-0.1,0c-0.4,0.9-1.4,1.6-2.5,1.6
		c-1.5,0-2.8-1.2-2.8-2.8h-3.5c0,1.5-1.2,2.8-2.8,2.8c-1.5,0-2.8-1.2-2.8-2.8h-3.5c0,1.5-1.2,2.8-2.8,2.8c-1.5,0-2.8-1.2-2.8-2.8
		h-3.5c0,1.5-1.2,2.8-2.8,2.8c-1.5,0-2.8-1.2-2.8-2.8h-3.5c0,1.5-1.2,2.8-2.8,2.8c-1.5,0-2.8-1.2-2.8-2.8h-3.5
		c0,1.5-1.2,2.8-2.8,2.8c-1.5,0-2.8-1.2-2.8-2.8h-3.5c0,1.5-1.2,2.8-2.8,2.8c-1.5,0-2.8-1.2-2.8-2.8h-3.5c0,1.5-1.2,2.8-2.8,2.8
		c-1.5,0-2.8-1.2-2.8-2.8h-1.6c0,0,0,0,0,0c-0.4,0-0.5,0-0.7,0h-1.2c0,1.5-1.2,2.8-2.8,2.8c-0.6,0-1.2-0.2-1.7-0.6
		c-1.5,0,0.3-0.4-1.1-0.4c0.3,0,0.5,0,0.6-0.1c-0.4-0.5-0.6-1.1-0.6-1.7H112c0,1.5-1.2,2.8-2.8,2.8c-1.5,0-2.8-1.2-2.8-2.8v1.1
		c-0.1-0.3-0.2-0.7-0.2-1.1h-3.5c0,1.5-1.2,2.8-2.8,2.8c-1.5,0-2.8-1.2-2.8-2.8h-3.5c0,1.5-1.2,2.8-2.8,2.8S88,1.5,88,0h-3.5
		c0,1.5-1.2,2.8-2.8,2.8c-1.5,0-2.8-1.2-2.8-2.8h-1.6c0,0,0,0,0,0c-0.4,0-0.5,0-0.7,0h-1.2c0,1.5-1.2,2.8-2.8,2.8
		c-0.6,0-1.2-0.2-1.7-0.6c-1.5,0,0.3-0.4-1.1-0.4c0.3,0,0.5,0,0.6-0.1c-0.4-0.5-0.6-1.1-0.6-1.7h-3.5c0,1.5-1.2,2.8-2.8,2.8
		S60.8,1.5,60.8,0h-3.5c0,0.1,0,0.1,0,0.2C58.1,0.2,59,0,60,0.1c-0.6,0.1-2.3,0.3-2.8,0.2c-0.1,0.6-0.3,1.1-0.7,1.6
		c1.1-0.1,1-0.1,1.9-0.2c0,0,0.1,0.1,0.1,0.1c-0.5,0-1.4-0.1-1.7,0.1c-0.2,0-0.3,0-0.4,0c-0.5,0.6-1.2,0.9-2,0.9
		c-1.5,0-2.8-1.2-2.8-2.8h-3.5c0,1.5-1.2,2.8-2.8,2.8c-1.5,0-2.8-1.2-2.8-2.8h-3.5c0,1.5-1.2,2.8-2.8,2.8c-1.5,0-2.8-1.2-2.8-2.8h-2
		c-0.3,0-0.6,0.1-0.6,0.1c-0.3,0-0.5,0-0.9,0c0,0.3-0.1,0.6-0.2,0.9C30,1,30.2,1,30.6,1.1c-0.4,0-0.6,0-0.7,0
		c-0.4,1-1.4,1.7-2.6,1.7c-1.5,0-2.8-1.2-2.8-2.8h-3.5c0,1.5-1.2,2.8-2.8,2.8c-1.5,0-2.8-1.2-2.8-2.8h-3.5c0,1.5-1.2,2.8-2.8,2.8
		S6.3,1.5,6.3,0H2.8c0,0,0,0,0,0.1c1.1,0-0.4,0.1,0.1,0.2c0,0-0.1,0-0.1,0C2.6,1.7,1.4,2.8,0,2.8v3.5c1.5,0,2.8,1.2,2.8,2.8
		c0,1.5-1.2,2.8-2.8,2.8v3.5c1.5,0,2.8,1.2,2.8,2.8C2.8,19.7,1.5,21,0,21v3.5c1.5,0,2.8,1.2,2.8,2.8c0,0.9-0.5,1.8-1.2,2.3
		c0,0,0,0,0,0.1c0.3,0,0.7,0,1,0.1c0-0.1-0.1-0.1-0.1-0.1c-0.1-0.6,0.1-0.3,0.2-0.2c0,0.1,0.1,0.3,0.1,0.4c0,0,0.1,0,0.1,0
		c0-0.1-0.1-0.3-0.1-0.4c0-0.3,0.2,0.2,0.4,0.4c0.3,0,0.5,0.1,0.6,0.1c1.2-0.2,1.4-0.2,0.9,0c0.4,0,0.8-0.1,1-0.1v-1.4
		c0,0-0.1-0.1-0.1-0.1c-0.2-0.6-0.1-0.7,0.1-0.5v-8.3c-0.4,0-0.5-0.1,0-0.2v-1c-0.5,0-0.8,0-0.9-0.1c0.1-0.1,0.2-0.2,0.9-0.2v-0.1
		c-1.9,0.1,0.2-0.5-1-0.6c0.5-0.1,0.5-0.2,1-0.3v-0.2c-0.8-0.3-0.9-0.8,0-1.2V6.7h61.1c0-0.1,0.5-0.2,0.3-0.2c1.3,0,0.7,0.1,0.3,0.2
		h0.5c0.2-0.1,0-0.2,1.1-0.3c0.5,0.1,0.1,0.2-0.3,0.3h4.3c0.2,0,0.4,0,0.7,0c0,0,0,0,0,0H79c0,0,0.1,0,0.1,0c0.2,0,0.4,0,0.5,0
		h114.3v61.3c0,0-74.6,0-95.5,0c-0.2,0-0.3,0-0.5,0c-1.2,1-3.1,0.3-4.3,0.3c0,0,0-0.7-0.2-0.3c-0.2,0-0.3,0-0.5,0
		c-0.7,0-1.4,0-2.1,0c-0.2,0-0.3,0-0.5,0c-3.5,1-7.9,1-11.7,0c-0.2,0-0.4,0-0.5,0c-6.3,0-12.7,0-19,0c-0.2,0-0.3,0-0.5,0
		c-1.8-0.3-4.3-0.3-5.9,0c-0.2,0-0.4,0-0.6,0c-9.8,0-18.9,0-26.5,0c-0.1,0-0.3,0-0.4,0c-4-0.3-8.4,1-12.1,0c-0.2,0-0.4,0-0.7,0
		c-4.2,0-6.6,0-6.6,0V49.7c-0.2-0.3-0.4-0.6-0.5-0.8c-0.2-1,0.3,0.4,0.2-0.3c-0.2-0.5-0.3-0.7-0.4-0.6c0-0.2-0.1-0.4-0.1-0.5
		c-0.8-1.9-1.1-2-1.2-1c-0.2-0.4,0-0.4-0.5-1.6c0.6,0.7,0.8,0.4,1.2,0.6c0-0.1-0.1-0.2-0.1-0.4c0,0,0.1,0.2,0.2,0.4c0,0,0,0,0.1,0.1
		c0-0.1-0.1-0.3-0.2-0.6c0.5,1.1,0.7,1,1.1,1.5V46c-0.1-0.4-0.2-0.8-0.2-1.1c0.1,0,0.1,0.4,0.1,0.4c0,0.1,0.1,0.2,0.1,0.3v-7.8
		c-0.2-0.8-0.1-1,0-0.8v-7c-0.1,0-0.2,0.1-0.3,0.1c0.5-0.2-0.7-0.3-2.1-0.3c0.2,0.6,0,0.5-0.3,0c0,0-0.1,0-0.1,0c0,0.2,0,0.4,0,0.5
		c-0.1-0.2-0.1-0.3-0.2-0.5c-0.3,0-0.7,0-1,0c0.3,1.6,0.1,2,0.6,3.8c-0.5-1.2-0.5-2.7-0.7-3.8c-0.1,0-0.1,0-0.2,0
		c-0.4,0.2-0.8,0.4-1.3,0.4v3.5c1.5,0,2.8,1.2,2.8,2.8c0,1.5-1.2,2.8-2.8,2.8v3.5c1.3,0,2.4,0.9,2.7,2.1c0.1,0,0.2,0,0.3,0
		c0.3,1,0,0.8-0.2,0.8c0,1.5-1.3,2.7-2.8,2.7v3.5c1.5,0,2.8,1.2,2.8,2.8c0,1.1-0.7,2.1-1.6,2.5c0.4,0.8,0.6,0.7,1,1.9
		c0,0.7-0.4,0.7-1.1-1.4c0.1-0.1,0.5,0.9,0.7,1.3c0-0.1-0.1-0.4,0-0.5c-0.2-0.7-0.4,0-0.6-1.4c-0.4,0.2-0.8,0.3-1.2,0.3v1.3
		c0.2,0.5,0.2,0.7,0.3,0.4c0.2,0.9,0,0.8-0.3,0.3v1.5c1.5,0,2.8,1.2,2.8,2.8c0,1.5-1.2,2.8-2.8,2.8v3.5c1.5,0,2.8,1.2,2.8,2.8
		c0,1.5-1.2,2.8-2.8,2.8V79c1.5,0,2.8,1.2,2.8,2.8c0,0.6-0.2,1.1-0.5,1.6c0.1,0.2,0.2,0.3,0.3,0.2c0.1,0.4,0,0.4,0,0.5
		c0,0.1,0.1,0.4,0.1,0.4c0.2,0.9-0.1,0.3-0.1,0.6c-0.2-0.5-0.3-0.9-0.5-1.4c-0.5,0.6-1.2,1-2.1,1v0.6c0.4,1-0.2,0.9,0.4,2.7
		c0.3,1-0.1-0.7,0.2,0.4c0.1,0,0.1,0,0.2,0.1c-0.2-0.9-0.2-1.4-0.3-2C0.6,87.1,1,88.4,1,87.7c0.1-0.2-0.3-1-0.4-1.6
		c0.3,0.6,0.3-0.5,0.1-1.1c-0.3-1.7,0.8,1.9,0.5,0.5c0.5,1.3,0.3,2,1,3.6c-0.2-0.1-0.3-0.3-0.4-0.3c0.6,0.5,1,1.3,1,2.1
		c0,1.5-1.2,2.8-2.8,2.8v2.9c0.2-0.1,0.5-0.1,0.9,0.3c0,0,0,0,0,0c0,0,0,0,0,0C1,97,1.1,97.2,1.3,97.4c-0.3-2.7,0.9-0.4,1-1.5
		c0.1,1.7-0.5,0.4-0.3,2.2c0.4,0.5,0.7,1.1,0.7,1.9h3.5c0-1,0.6-1.9,1.4-2.4c-0.1-0.1-0.2-0.7-0.4-1.1c-0.2-0.1,0.2,1.9-0.3,0.8
		c-0.3-2,0.3-1.7,0.7-1.2c0.3,1.2-0.5,0,0,1.5c0.3-0.2,0.7-0.3,1.1-0.3c0-0.1-0.1-0.3-0.1-0.6c0.1,0.2,0.2,0.4,0.3,0.5
		c0.1,0,0.1,0,0.2,0c1,0,1.8,0.5,2.3,1.3c-0.2-0.9,0.2-0.3,0.6,0.9c-0.1-0.3-0.2-0.3-0.3-0.3c0.1,0.3,0.1,0.6,0.1,0.9h3.5
		c0-1.5,1.2-2.8,2.8-2.8c1.5,0,2.8,1.2,2.8,2.8h3.5c0-1.5,1.2-2.8,2.8-2.8c1.5,0,2.8,1.2,2.8,2.8h3.5c0-1.5,1.2-2.8,2.8-2.8
		c1.5,0,2.8,1.2,2.8,2.8h3.5c0-1.5,1.2-2.8,2.8-2.8c1.5,0,2.8,1.2,2.8,2.8h3.5c0-1.5,1.2-2.8,2.8-2.8c1.5,0,2.8,1.2,2.8,2.8h3.5
		c0-1.5,1.2-2.8,2.8-2.8c0.3,0,0.6,0.1,0.9,0.2c0.1,0,0.1,0,0.2,0c0.1,0,0,0-0.1,0.1c0.4,0.2,0.8,0.4,1.1,0.8
		c1.3-0.4-0.1-0.5,1.8-1.1c-0.3,0-0.8,0.1-1.3,0.2c0.4-0.1,0.7-0.3,0.1-0.3c0.7-0.1,0.7-0.1,1.2-0.2c-1.2,0.1,0.8-0.4-1.5,0
		c0.1-0.1,1-0.3,0.1-0.2c1.3-0.3,2.2-0.4,2.6-0.6c-0.3,0-1.4,0.3-2.1,0.3c0.3-0.1,0.4-0.1,0.3-0.1c0.6-0.1,2.1-0.3,1.6-0.3
		c1-0.1,1,0,0.8,0.2c-2.1,0.3-0.1,0.2-2.3,0.5c0.4,0,1.5-0.2,2.1-0.3c0.3,0.5-1,1-1.9,1.6c0,0-0.5,0.1-0.8,0.2
		c-0.3,0-0.5,0.1-0.8,0.1c0,0.1,0.1,0.1,0.1,0.2c0.7-0.2,1.2-0.3,1.1-0.3c1.3-0.2,0.2,0.2-1.1,0.4c0.1,0.1,0.2,0.3,0.3,0.4
		c0.3,0,0.5-0.1,0.5-0.1c0.4-0.1,0.5,0,1.3-0.2c0.1,0-1.1,0.4,0.3,0.2c-0.3,0.1-1.6,0.3-2,0.3c0,0,0,0.1,0,0.1
		c0.2,0,0.6-0.1,1.2-0.2c-0.8,0.2,0.9,0.1-1.2,0.5c0,0.1,0,0.1,0,0.2c0.2-0.1,0.5-0.1,1.3-0.3c-0.8,0.3-0.3,0.3,0.5,0.3
		c-1.8,0.2-1.4,0.3-1.7,0.4c0,0,0,0,0,0h3.5c0-1.5,1.2-2.8,2.8-2.8c1,0,1.9,0.5,2.4,1.4c0,0,0.1,0,0.1,0c0,0-0.1,0-0.1,0
		c0.2,0.3,0.3,0.7,0.4,1.2c0,0,0.1,0,0.1,0c0,0-0.1,0-0.1,0c0,0,0,0.1,0,0.1c0.1,0,0.2,0,0.3,0c-0.1,0-0.2,0-0.3,0.1c0,0,0,0,0,0.1
		h0.9c0.3,0,0.6-0.1,0.9-0.1c0.2,0-0.1,0.1-0.4,0.1H77c0.6-0.1,0.7-0.1,0.4,0h0c1.5-0.2,0.9-0.2,1.5-0.3c0,0.1-0.4,0.2-0.9,0.3h0.8
		c0.1,0,0.1,0,0.2,0c0-0.5,0.1-0.9,0.4-1.3c-0.4,0.1-0.7,0.1-0.8,0.2c-0.6,0.1-0.1,0,0.8-0.2c0.5-0.8,1.4-1.4,2.4-1.4
		c1.5,0,2.8,1.2,2.8,2.8H88c0-1.5,1.2-2.8,2.8-2.8s2.8,1.2,2.8,2.8h3.5c0-1.5,1.2-2.8,2.8-2.8c1.5,0,2.8,1.2,2.8,2.8h3.5
		c0-0.4,0.1-0.8,0.2-1.1v1.1c0-1.5,1.2-2.8,2.8-2.8c0.3,0,0.6,0.1,0.9,0.2c0.1,0,0.1,0,0.2,0c0.1,0,0,0-0.1,0.1
		c0.4,0.2,0.8,0.4,1.1,0.8c1.3-0.4-0.1-0.5,1.8-1.1c-0.3,0-0.8,0.1-1.3,0.2c0.4-0.1,0.7-0.3,0.1-0.3c0.7-0.1,0.7-0.1,1.2-0.2
		c-1.2,0.1,0.8-0.4-1.5,0c0.1-0.1,1-0.3,0.1-0.2c1.3-0.3,2.2-0.4,2.6-0.6c-0.3,0-1.4,0.3-2.1,0.3c0.3-0.1,0.4-0.1,0.3-0.1
		c0.6-0.1,2.1-0.3,1.6-0.3c1-0.1,1,0,0.8,0.2c-2.1,0.3-0.1,0.2-2.3,0.5c0.4,0,1.5-0.2,2.1-0.3c0.3,0.5-1,1-1.9,1.6
		c0,0-0.5,0.1-0.8,0.2c-0.3,0-0.5,0.1-0.8,0.1c0,0.1,0.1,0.1,0.1,0.2c0.7-0.2,1.2-0.3,1.1-0.3c1.3-0.2,0.2,0.2-1.1,0.4
		c0.1,0.1,0.2,0.3,0.3,0.4c0.3,0,0.5-0.1,0.5-0.1c0.4-0.1,0.5,0,1.3-0.2c0.1,0-1.1,0.4,0.3,0.2c-0.3,0.1-1.6,0.3-2,0.3
		c0,0,0,0.1,0,0.1c0.2,0,0.6-0.1,1.2-0.2c-0.8,0.2,0.9,0.1-1.2,0.5c0,0.1,0,0.1,0,0.2c0.2-0.1,0.5-0.1,1.3-0.3
		c-0.8,0.3-0.3,0.3,0.5,0.3c-1.8,0.2-1.4,0.3-1.7,0.4c0,0,0,0,0,0h3.5c0-1.5,1.2-2.8,2.8-2.8c1,0,1.9,0.5,2.4,1.4c0,0,0.1,0,0.1,0
		c0,0-0.1,0-0.1,0c0.2,0.3,0.3,0.7,0.4,1.2c0,0,0.1,0,0.1,0c0,0-0.1,0-0.1,0c0,0,0,0.1,0,0.1c0.1,0,0.2,0,0.3,0
		c-0.1,0-0.2,0-0.3,0.1c0,0,0,0,0,0.1h0.9c0.3,0,0.6-0.1,0.9-0.1c0.2,0-0.1,0.1-0.4,0.1h0.3c0.6-0.1,0.7-0.1,0.4,0h0
		c1.5-0.2,0.9-0.2,1.5-0.3c0,0.1-0.4,0.2-0.9,0.3h0.8c0.1,0,0.1,0,0.2,0c0-0.5,0.1-0.9,0.4-1.3c-0.4,0.1-0.7,0.1-0.8,0.2
		c-0.6,0.1-0.1,0,0.8-0.2c0.5-0.8,1.4-1.4,2.4-1.4c1.5,0,2.8,1.2,2.8,2.8h3.5c0-1.5,1.2-2.8,2.8-2.8c1.5,0,2.8,1.2,2.8,2.8h3.5
		c0-1.5,1.2-2.8,2.8-2.8c1.5,0,2.8,1.2,2.8,2.8h3.5c0-1.5,1.2-2.8,2.8-2.8c1.4,0,2.5,1,2.7,2.3c0.2,0,0.4,0,0.9-0.1
		c-0.2,0.1,0,0.1,0.3,0.2c1.1-0.1,1.4-0.2,1.1-0.2c0.7,0,0.8,0.1-0.2,0.2c0.3,0,0.8-0.1,1.3-0.1c-0.1,0.1-1.2,0.1-0.7,0.2
		c-0.6,0.1-1.2,0.2-1.2,0.2c-1.3,0.1,1.1-0.3,0.6-0.3c-1.1,0.1-1.7,0.2-2,0.1c0,0.1,0,0.2,0,0.3h1.1c1.5-0.2,1.5-0.2,2.4-0.3
		c0.2-1.4,1.3-2.5,2.8-2.5c1.5,0,2.7,1.2,2.8,2.6c0.2,0,0.3,0,0.5-0.1c0.4,0,0.2,0.1,0.6,0.1c0.2,0-0.7,0.1-1,0.1c0,0,0,0,0,0h1.4
		c-0.3,0,1.2-0.3-0.7,0c1-0.2,1.1-0.3,0.9-0.4c1.6-0.1-1,0.5,1.2,0.2c-0.2,0.1-0.9,0.2-0.7,0.2c-0.4,0-0.6,0.1-0.7,0.1h2.1
		c0-1.5,1.2-2.8,2.8-2.8c1.2,0,2.2,0.8,2.6,1.8c0.3,0,0.7-0.1,0.9-0.1c-0.9,0-0.5-0.3-0.5-0.4c1.4-0.1,0.8,0.2,2,0.1
		c-1.3,0.3-0.4,0.4-0.2,0.6c-0.7,0.1-0.9,0.1-1.7,0.2c1.6-0.3-1.2,0,0.6-0.3c0.1-0.1-0.7,0.1-1.1,0.1c0.1,0.2,0.1,0.5,0.1,0.8h3.5
		c0,0,0,0,0,0c0,0,0,0-0.1-0.1c0,0,0,0,0.1,0c0-0.5,0.1-0.9,0.4-1.2c-0.4,0-0.6,0-0.7,0c0.3,0,0.5-0.1,0.8-0.1
		c0.5-0.8,1.4-1.3,2.3-1.3c0.7,0,1.3,0.3,1.8,0.7c0.6,0,0.9,0,0.9,0c-0.4,0-0.6,0.1-0.7,0.1c0.5,0.5,0.8,1.2,0.8,1.9h0.1
		c1-0.1,1.4,0,3.1-0.2c-0.3,0.1-0.8,0.1-1.4,0.2h1.7c0-0.1,0-0.3,0-0.4c0,0-0.1,0-0.1,0c-0.1,0,0,0,0.1,0c0.2-1.3,1.3-2.4,2.7-2.4
		c1.5,0,2.8,1.2,2.8,2.8h1.5l0,0c0,0,0,0,0,0h2c0-1.5,1.2-2.7,2.7-2.8c0-0.1,0-0.3,0.1-0.7c0,0,0,0,0,0.1v-2.9c0,0-0.1,0-0.1,0
		c0,0.1-0.1,0.3-0.1,0.6c-0.1,0-0.1,0.1-0.2,0.1c0.1-0.4,0.1-0.6,0.1-0.7c-0.6-0.1-1.1-0.3-1.5-0.6c0,0.4-0.1,0.7-0.2,1.1
		c0-0.3,0-0.4-0.1-0.3c0.1-0.4,0.1-0.7,0.2-0.9c-0.6-0.5-0.9-1.2-0.9-2.1c0-0.7,0.2-1.3,0.6-1.7c0.1-0.3,0.2-0.6,0.3-0.6
		c0,0.2-0.1,0.3-0.1,0.4c0.5-0.5,1.2-0.8,1.9-0.8v-3.5c-1.5,0-2.8-1.2-2.8-2.8c0-1.5,1.2-2.8,2.8-2.8v-3.5c-1.5,0-2.8-1.2-2.8-2.7
		c-0.1,0.2-0.1-0.1-0.1-0.1c0.1-0.5,0.2-0.7,0.3-0.8c0.1-0.4,0.3-0.7,0.6-0.9c0,0,0-0.1,0-0.2c0.1-0.6,0.3-1.6,0.4-1.3
		c-0.1,0.8-0.2,1.2-0.3,1.4c0.1-0.1,0.3-0.2,0.4-0.3c0.1-0.4,0.2-0.8,0.4-1.5c-0.1,0.5-0.2,1-0.3,1.4c0.4-0.3,0.9-0.4,1.5-0.4v-3.5
		c-1.5,0-2.8-1.2-2.8-2.8c0-0.9,0.5-1.7,1.2-2.3c0-0.5,0.1-1-0.2,0c0.1-0.5-0.2,0,0.2-1.8c0,0.8,0.1,0.4,0.4-0.3
		c-0.5,2-0.2,1.2-0.3,2c0.4-0.2,0.9-0.4,1.4-0.4v-3.5c-0.7,0-1.4-0.3-1.9-0.7c-0.2,0.7-0.1,0.2-0.2,0.4c0.1-0.2,0.1-0.4,0.1-0.5
		c-0.5-0.5-0.8-1.2-0.8-2c0-1.5,1.2-2.8,2.8-2.8v-3.5c-1.5,0-2.8-1.2-2.8-2.8c0-1.5,1.2-2.8,2.8-2.8v-3.5c-1.5,0-2.8-1.2-2.8-2.8
		c0-1.5,1.2-2.8,2.8-2.8v-3.5c-1.5,0-2.8-1.2-2.8-2.8c0-1.5,1.2-2.8,2.8-2.8V21c-1.5,0-2.8-1.2-2.8-2.8c0-1.5,1.2-2.8,2.8-2.8v-3.5
		c-1.5,0-2.8-1.2-2.8-2.8C197.2,7.6,198.5,6.3,200,6.3z M1.4,5.1C0.2,5.2,0.8,4.8,1.9,4.7C1.9,4.9,1.4,5,1.4,5.1z M4.2,2.6
		c1.2,0,0,0.2,0.3,0.3C3,3,4.3,2.7,4.2,2.6z M3.8,3.6c0.2-0.1,1.1,0,1.4,0.1C4.4,3.7,3.8,3.7,3.6,3.8C2.5,3.9,5.1,3.6,3.8,3.6z
		 M3.8,28.6c-0.5-1.7-0.2-1.2,0.1-0.6C4.1,28.9,3.8,28.3,3.8,28.6z M3.6,12.1c-0.2,0-1.2-0.1,0.2-0.2c0,0-0.4,0.1-0.3,0.1
		c0,0,0.5,0,0.8,0C4.6,12,3.5,12,3.6,12.1z M5.1,4C5.2,4,5,4,4.7,4.1c-0.3,0-0.5,0-0.8,0.1c0.6-0.1,0-0.2-0.6-0.2
		c0.3-0.1,1.1,0,2-0.1C6.2,3.9,3.6,4,5.1,4z M9.5,4c0.1-0.1-0.2-0.1-0.9,0c0.6-0.1,2.3-0.2,2.1,0C10.3,4,9.9,4,9.5,4z M63.5,4.3
		c0,0.1-0.6,0.2-1.9,0.3C61.7,4.4,62.8,4.4,63.5,4.3z M61.6,4.1c-0.4,0.2,0.1,0.2-0.1,0.4c-1.6,0.1-0.8-0.2-1.2-0.3
		C60.7,4.1,60.8,4.1,61.6,4.1z M57,1.5c0.7-0.1,0.8,0,0.9,0c1-0.1,0.8-0.1,2-0.2C59.9,1.4,56.8,1.6,57,1.5z M59.4,4.5
		c0.5-0.1,0.5,0.1,1.3,0.1c-1,0.2-2.1,0.1-2.8,0.3C56.1,4.8,60.4,4.6,59.4,4.5z M58.1,5.4c0.4,0,1,0,1.7-0.1
		c-0.1,0.1-1.1,0.1-0.7,0.2C58.4,5.5,58.2,5.5,58.1,5.4z M59.5,6.5c0.1-0.2,2.6-0.1,2.8-0.3C63.3,6.2,61.1,6.4,59.5,6.5z M67.7,5
		c-0.5,0-1.5,0.1-2.5,0.1c0.4-0.1,1-0.1,1.1-0.2c0.6-0.1,1.1,0.1,1.3,0C68.8,4.8,67.2,5,67.7,5z M67.5,5.2c-0.5,0-1.1,0-2.1,0.1
		c1.1-0.1,1.8-0.3,2.8-0.3C68,5.1,66.9,5.2,67.5,5.2z M70.2,4.5c0,0-0.4,0-0.4,0c-1,0.1-1.1,0.2-1.5,0.3c-1.2,0-1,0-2.5,0.2
		c1-0.2-0.6-0.1-2.2,0c-0.3-0.1,1-0.2,1.1-0.2c-1.3,0.1-1.7,0.2-1.3,0C62,4.8,62.6,4.9,62,5c0.2-0.2,3.5-1,4.4-1.3
		c1,0-0.4,0.2,0.2,0.2c0.6-0.1,0.8-0.1,0.7-0.2c1.3,0,0.7,0.2,0.7,0.2c1.3-0.1,0.8-0.3,1.4-0.4c1.3,0-0.7,0.2,1,0.1
		c-0.1,0.1-1.7,0.2-1.9,0.3c0.3,0,0.4,0,0.4,0c0.8-0.1,0.2-0.2,1.5-0.2c-1.3,0.2-1.1,0.5-2,0.7C68.8,4.5,69.8,4.4,70.2,4.5z
		 M69.7,3.5c-1,0.1-1.6,0.1-1.8,0c0.3-0.1,0.9-0.1,1.6-0.1c-0.1-0.1-0.7-0.1-1.8,0C70,3,70.2,2.8,69.3,2.5c0.4-0.1,0.4,0.1,1.6-0.1
		C69.8,2.8,70.6,3.1,69.7,3.5z M76,1.8c1.4-0.1,0.3,0,0.6,0.1C76.1,2,75.7,2,75.3,2C74.9,1.9,76.4,1.9,76,1.8z M73.3,3.2
		c1.2,0-0.4,0.2,0.3,0.3C71.3,3.6,73.2,3.3,73.3,3.2z M73.4,4.1C74.3,4,72,3.7,74.8,3.3c1.3-0.1-0.9,0.2,0.5,0.1
		c-1,0.2-2,0.7,0.6,0.6C75.2,4.2,74.2,4.1,73.4,4.1z M76.6,3c0.3,0-0.3,0.2,0.6,0.1C76.6,3.3,74,3.2,76.6,3z M77.6,5.9
		c-0.7,0-0.6-0.1-1-0.1C78.1,5.6,78.2,5.8,77.6,5.9z M86.9,3.3c1.2-0.1-0.5,0.1,0.2,0.2c-2.7,0.1-2.6-0.2-4.9-0.1
		C83.8,3.1,85.7,3.6,86.9,3.3z M84,3.9c-0.6,0-1.6,0.1-1.4,0C84.2,3.7,84.5,3.8,84,3.9z M85.6,4.7c-0.8,0-0.4-0.2,0.6-0.3
		C86.5,4.5,85.7,4.6,85.6,4.7z M86.2,4.4c-0.6,0-0.8,0-0.9-0.1c0.3,0,0.7-0.1,0.8-0.1C86.6,4.2,86.3,4.3,86.2,4.4z M87.1,5.4
		c-0.9,0.1-0.3-0.1-0.6-0.1C88.4,5.1,87.7,5.3,87.1,5.4z M109,4.3c0.1,0,0.1,0,0.2,0C109.2,4.3,109.1,4.3,109,4.3L109,4.3z M113.3,5
		c-0.5,0-1.5,0.1-2.5,0.1c0.4-0.1,1-0.1,1.1-0.2c0.6-0.1,1.1,0.1,1.3,0C114.4,4.8,112.9,5,113.3,5z M113.1,5.2c-0.5,0-1.1,0-2.1,0.1
		c1.1-0.1,1.8-0.3,2.8-0.3C113.7,5.1,112.5,5.2,113.1,5.2z M115.8,4.5c0,0-0.4,0-0.4,0c-1,0.1-1.1,0.2-1.5,0.3c-1.2,0-1,0-2.5,0.2
		c1-0.2-0.6-0.1-2.2,0c-0.3-0.1,1-0.2,1.1-0.2c-1,0.1-1.4,0.1-1.4,0.1v0c0,0,0.1,0,0.2-0.1c-0.1,0-0.1,0-0.2,0V4.5
		c1.1-0.3,2.5-0.7,3.1-0.9c1,0-0.4,0.2,0.2,0.2c0.6-0.1,0.8-0.1,0.7-0.2c1.3,0,0.7,0.2,0.7,0.2c1.3-0.1,0.8-0.3,1.4-0.4
		c1.3,0-0.7,0.2,1,0.1c-0.1,0.1-1.7,0.2-1.9,0.3c0.3,0,0.4,0,0.4,0c0.8-0.1,0.2-0.2,1.5-0.2c-1.3,0.2-1.1,0.5-2,0.7
		C114.4,4.5,115.4,4.4,115.8,4.5z M115.3,3.5c-1,0.1-1.6,0.1-1.8,0c0.3-0.1,0.9-0.1,1.6-0.1c-0.1-0.1-0.7-0.1-1.8,0
		c2.2-0.3,2.4-0.5,1.5-0.7c0.4-0.1,0.4,0.1,1.6-0.1C115.5,2.8,116.2,3.1,115.3,3.5z M121.6,1.8c1.4-0.1,0.3,0,0.6,0.1
		c-0.4,0-0.8,0.1-1.2,0.1C120.5,1.9,122,1.9,121.6,1.8z M119,3.2c1.2,0-0.4,0.2,0.3,0.3C117,3.6,118.9,3.3,119,3.2z M119,4.1
		c0.9-0.2-1.4-0.4,1.4-0.8c1.3-0.1-0.9,0.2,0.5,0.1c-1,0.2-2,0.7,0.6,0.6C120.8,4.2,119.8,4.1,119,4.1z M122.3,3
		c0.3,0-0.3,0.2,0.6,0.1C122.2,3.3,119.7,3.2,122.3,3z M123.2,5.9c-0.7,0-0.6-0.1-1-0.1C123.8,5.6,123.8,5.8,123.2,5.9z M132.5,3.3
		c1.2-0.1-0.5,0.1,0.2,0.2c-2.7,0.1-2.6-0.2-4.9-0.1C129.5,3.1,131.3,3.6,132.5,3.3z M129.7,3.9c-0.6,0-1.6,0.1-1.4,0
		C129.8,3.7,130.2,3.8,129.7,3.9z M131.2,4.7c-0.8,0-0.4-0.2,0.6-0.3C132.1,4.5,131.4,4.6,131.2,4.7z M131.8,4.4
		c-0.6,0-0.8,0-0.9-0.1c0.3,0,0.7-0.1,0.8-0.1C132.2,4.2,131.9,4.3,131.8,4.4z M132.8,5.4c-0.9,0.1-0.3-0.1-0.6-0.1
		C134,5.1,133.4,5.3,132.8,5.4z M3.8,42.3c-0.3-1.2,0.3,0.4,0.3-0.3C4.7,44.1,4,42.3,3.8,42.3z M3.7,40.3C4.1,41.2,5,42,4.4,39.5
		c0.4,0.6,0.4,1.6,0.7,2.4c-0.4-0.9-0.2,1.5-1.3-1.1C3.3,39.6,4.1,41.7,3.7,40.3z M1.5,40.1c-0.4-1.4,0-0.3,0.1-0.6
		c0.1,0.4,0.2,0.8,0.3,1.2C1.9,41.1,1.5,39.7,1.5,40.1z M1.2,60.1C1,59.5,0.9,59,0.8,58.9c-0.1-0.7,0.1-1,0.2-0.8
		C1.1,58.8,1.5,60.3,1.2,60.1z M1.9,75.7c-0.3-1.5,0.5,1.3,0.4,0.6c0.2,0.6-0.1,0.3,0.1,0.9C2.4,77.5,2,75.3,1.9,75.7z M67.5,99.9
		c-1.5,0.2-0.5,0-0.3-0.2C68.5,99.6,67.2,99.9,67.5,99.9z M68.3,98.2c-1.1,0.2-0.6,0.2-0.6,0.3c-1.8,0.3,0.2-0.2-1.5,0
		c-0.1,0,1.4-0.2,2-0.4c-0.2,0.1-0.9,0.2-0.7,0.2c0.7-0.2,1.8-0.3,1.8-0.2C68.7,98.2,68.4,98.3,68.3,98.2z M113.2,99.9
		c-1.5,0.2-0.5,0-0.3-0.2C114.2,99.6,112.9,99.9,113.2,99.9z M113.9,98.2c-1.1,0.2-0.6,0.2-0.6,0.3c-1.8,0.3,0.2-0.2-1.5,0
		c-0.1,0,1.4-0.2,2-0.4c-0.2,0.1-0.9,0.2-0.7,0.2c0.7-0.2,1.8-0.3,1.8-0.2C114.3,98.2,114.1,98.3,113.9,98.2z M4.9,57.2
		C5,57.7,5,58.6,5.3,58.8c0.1,0.7,0.2,1.1,0.1,1.4c-0.4-1.1-0.1-0.8-0.1-1c-0.3-1.1-0.4-1-0.6-1.9L4.9,57.2z M4.7,58.9
		c-0.2-0.7-0.2-0.8-0.2-0.9c-0.3-1-0.3-0.8-0.6-1.9C4.1,56.1,5,59,4.7,58.9z M4.3,84.4c0.4,1.4-0.2,0.3-0.5-0.5
		C3.9,83.5,4.1,84.3,4.3,84.4z M2.6,31.5c0.1,0.6,0.4,1.6,0.2,1.3C2.3,31.4,2.3,31.1,2.6,31.5z M2.9,39.1c0-0.3,0.3,0.2,0.1-0.6
		C3.3,39,3.6,41.6,2.9,39.1z M3.5,79.1c0.3,1.2-0.3-0.3-0.2,0.2c-0.1-0.3-0.1-0.7-0.3-1.2C3.1,78.2,3.4,79.4,3.5,79.1z M2.2,56.4
		c0.3,0.8,1,2.9,0.8,2.8C2.9,58.3,2.4,57.4,2.2,56.4z M2.5,85.7c0.2,1.1-0.5-0.8-0.6-0.4C1.7,84.3,2.1,84.5,2.5,85.7z M2.7,94.5
		c0.4,0.8,0.3,2.3-0.2,0.2C2.6,94.8,3,95.5,2.7,94.5z M3,98.3c-0.1-1.1,0-0.7-0.6-2.5c0-0.2,0.2,0.2,0.3,0.7c-0.1-0.5,0-0.6,0.2-0.2
		c0.2,1.2,0.4,1.6,0.7,2.8C3.2,98.3,3.2,98.3,3,98.3z M4.6,98.6c-0.4-0.1-0.4,1.9-1.3-1.1c0-0.3,0.2,0.5,0.4,1.1
		c-0.4-1.8-0.2-2.3-0.3-3.2c0.1,0.4,0.2,0.9,0.4,1.6c0-0.5,0-0.8,0.4,0.1c-0.1-1.3,0.4-0.9,0.7-0.7c-0.2,0,0,2.2-0.6,1.1
		C4.2,97.6,4.5,98.5,4.6,98.6z M5.1,97.2c-0.5-1.7-0.1-1.8,0.3-0.3L5.1,97.2z M5.9,98.4c0.1-0.6,0.2-0.5,0.2-1.2
		c0.1,0.5,0.1,0.7,0.2,1.3C6.3,98.9,6.1,98.3,5.9,98.4z M6,96.8c-0.4-1.5,0.6,0.6,0.1-1.1c0.1-0.2,0.4,0.5,0.4,0.1
		C6.6,96.8,6.5,97.7,6,96.8z M8.1,96.8c-0.4-1.5,0.2-0.8,0-2C8.5,96.6,8.1,96.4,8.1,96.8z M8.9,97c-0.1,0.3-0.2-1.2-0.4-1.1
		c-0.3-1.1,0-0.9,0.1-1.1c0.1,0.5,0.3,1.1,0.4,1.6C9,96.8,8.8,96.6,8.9,97z M45.4,96.5c-0.1-0.6,0.2-0.4,0.4-0.4
		C46,96.6,45.8,97.5,45.4,96.5z M56.5,95.5c-0.9,0.1-0.7,0-0.3-0.1C57.5,95.1,55.9,95.5,56.5,95.5z M63,97.2
		c0.3-0.1,0.3-0.1-0.2-0.1c0.4-0.1,0.8-0.1,1.2-0.2c-0.4,0.1-0.3,0.1,0.5,0C64.5,97,64,97.1,63,97.2z M68.4,95.3c-0.3,0-0.4,0-1.1,0
		c0.7-0.1,0.6,0,2.1-0.3C69.2,95.1,69.7,95.1,68.4,95.3z M67.3,94.9c0.5-0.1,0.7-0.1,0.8-0.2c0.9-0.1,1.5-0.2,1.8-0.2
		c-1.3,0.3-2.1,0.2-2,0.3C67.3,95,67.4,95,67.3,94.9z M69.8,97.9c0.7-0.1,1-0.1,1,0C69.3,98.1,70.1,97.9,69.8,97.9z M79.3,96.2
		c-1.2,0.1,0.2-0.2,0.1-0.3C80.8,95.8,78.9,96.2,79.3,96.2z M105.6,95.2c-2.4,0.4-0.1-0.3-1.2-0.2c1.1-0.2,0.9-0.1,1.7-0.2
		C105.1,95.1,105.8,95.1,105.6,95.2z M104.4,95.1c-0.3-0.1,0.6-0.2,0.1-0.3c0.9-0.1,0.8,0.1,1.4-0.1
		C106.9,94.6,105.3,94.9,104.4,95.1z M109,97.2V97c0.2,0,0.4-0.1,0.6-0.1c-0.4,0.1-0.3,0.1,0.5,0C110.1,96.9,109.7,97,109,97.2z
		 M114.1,95.3c-0.3,0-0.4,0-1.1,0c0.7-0.1,0.6,0,2.1-0.3C114.8,95.1,115.3,95.1,114.1,95.3z M112.9,94.9c0.5-0.1,0.7-0.1,0.8-0.2
		c0.9-0.1,1.5-0.2,1.8-0.2c-1.3,0.3-2.1,0.2-2,0.3C112.9,95,113.1,95,112.9,94.9z M115.4,97.9c0.7-0.1,1-0.1,1,0
		C115,98.1,115.7,97.9,115.4,97.9z M125,96.2c-1.2,0.1,0.2-0.2,0.1-0.3C126.4,95.8,124.6,96.2,125,96.2z M151.3,95.2
		c-2.4,0.4-0.1-0.3-1.2-0.2c1.1-0.2,0.9-0.1,1.7-0.2C150.7,95.1,151.4,95.1,151.3,95.2z M150,95.1c-0.3-0.1,0.6-0.2,0.1-0.3
		c0.9-0.1,0.8,0.1,1.4-0.1C152.6,94.6,150.9,94.9,150,95.1z M169.9,98.4c-1.5,0.2-0.7-0.1,0.6-0.3C170,98.3,170.4,98.3,169.9,98.4z
		 M175.6,95.5l1.2-0.2c-0.1,0.1,0.2,0.1,0.9,0C177.1,95.5,175.4,95.6,175.6,95.5z M175.7,99.9c1-0.1,0.9-0.1,2.1-0.2
		C177.8,99.8,175.4,100.1,175.7,99.9z M178.5,99.5c-1.3,0.2-1.4,0-1.9,0c0.9-0.1,1.5-0.2,1.6-0.3c-0.7,0-1,0.1-2.1,0.2l-0.2-0.1
		c1.2-0.1,1.3-0.1,2.4-0.3C179.6,99.1,178,99.4,178.5,99.5z M182.1,96.1c-1.2,0.1-0.1-0.2-0.3-0.2C183.3,95.6,182,96,182.1,96.1z
		 M182.5,95.2c-0.2,0.1-1.1,0.1-1.4,0c0.8-0.1,1.3-0.2,1.6-0.3C183.8,94.8,181.2,95.3,182.5,95.2z M180.9,95.1
		c-0.9,0,1.7-0.3,0.2-0.2c-0.1,0,0.1,0,0.4-0.1c0.3,0,0.5-0.1,0.8-0.1c-0.6,0.1,0,0.1,0.6,0.1C182.7,95,181.9,95,180.9,95.1z
		 M184.4,94.1c0-0.1,0.5-0.3,0.5-0.4C185.9,93.5,185.4,93.9,184.4,94.1z M193.9,93.3H32.7c0,0.3,0,0.5-0.2,0.1c0,0,0-0.1,0-0.1H5.6
		v-3.6c-0.2-1-0.2-0.2-0.5-1.7c-0.1,0,0,0.6,0,0.6c0.1,0.3,0.2,0.5,0.3,0.7c0.2,1.1-0.3-0.4-0.2,0.2C5.1,89.1,5.1,89,5,88.6
		c0,0.2,0,0.5,0,0.5c-0.2-0.6-0.1-0.7-0.3-1.2c-0.1,0.2-0.2,0.3,0.1,1.4c-0.4-0.9-0.5-0.2-0.4,0.9c-0.1-0.8-0.2-1-0.5-2
		c-0.6-0.6-0.7,0.9-1.4,0c0,0,0,0,0,0c0,0-0.1-0.1-0.1-0.1c0,0.1,0.1,0.1,0.1,0.1c-0.1-0.3-0.1-0.5-0.1-0.7c0-0.1-0.1-0.2-0.1-0.3
		c0.2,1.1,0,0.9-0.3,0.8c-0.4-1.3-0.1-2-0.5-2.5c-0.1-0.9,0.6,1.4,0.3-0.3c0.2,1,0.4,1.7,0.6,2.2c0.1-0.3,0.2-0.3,0.4,0.3
		c0-0.1-0.2-0.8-0.3-1.2c0.9,2.3,0.6-0.9,1.3,1.1c0.1-0.1-0.4-1.4-0.5-2c1.2,2.9,0.7-1.1,1.8,1c0.1,0.4,0,0.4,0,0.5
		c0.2,0.8,0.2-0.2-0.2-1.3c0.2,0.4,0.1-0.6,0.5,0.5c-0.3-1-0.1-1.3-0.1-1.4c0,0,0.1,0.2,0.2,0.4V71c0,0,2.4,0,6.6,0
		c0.2,0,0.4,0,0.6,0c3.8-0.3,7.6-0.3,11.4,0c0.1,0,0.3,0,0.4,0c7.9,0,17.6,0,28,0c0.2,0,0.4-0.1,0.5-0.1c1.6-0.3,2.9-0.3,4.9,0.1
		c0.2,0,0.4,0,0.5,0c6.3,0,12.7,0,19,0c0.2,0,0.4,0,0.5,0c4.1-0.3,8.5-0.3,12.8,0c0.2,0,0.4,0,0.5,0c0.2,0,0.3,0,0.5,0
		c0.2,0,0.4,0,0.5,0c1.6-0.3,4.1-0.3,6.1,0c0.2,0,0.3,0,0.5,0c20.5,0,94.7,0,94.7,0V93.3z M194.3,58.2c0.1-0.5,0.2-0.7,0.2-0.8
		c0.2-0.8,0.4-1.4,0.5-1.7c-0.3,1.3-0.7,2-0.5,2C194.4,58.3,194.4,58.1,194.3,58.2z M194.8,63.1c0-0.3,0-0.3-0.2,0.1
		c0.1-0.4,0.2-0.8,0.3-1.2c-0.1,0.4,0,0.3,0.1-0.4C195.1,61.6,195,62.1,194.8,63.1z M195,57.3c-0.1,0.3-0.2,0.3-0.4,1
		c0.2-0.7,0.2-0.6,0.5-2.1C195.1,56.5,195.3,56.1,195,57.3z M200,95.1c-0.1,0.8,0,0.8-0.2,1.9l-0.1,0.1
		C199.9,95.9,199.7,96.4,200,95.1z M198.9,59.8c-0.4,1.5-0.2,0.5-0.2,0.2C199,58.8,198.8,60.1,198.9,59.8z M196.8,61.6
		c0.2-1.1,0.3-1.9,0.2-1.8C197.3,58.2,197.2,60.1,196.8,61.6z M195.5,72.6c-0.2,0.9-0.3,0.5-0.2,0.2
		C195.5,71.9,195.5,72.2,195.5,72.6z M195.5,61.5c0.1-0.2,0,0.6,0.2,0.2C195.4,63,195.1,63.3,195.5,61.5z M196.2,73.4
		c0.2-0.9,0.1-0.3,0.2-0.5C196.1,74.6,196.1,74,196.2,73.4z M196.4,58.9c-0.1,0.3-0.2,0.8-0.3,1.2c0-0.4,0-0.8-0.2-0.2
		c0.2-0.7,0.1-0.7,0.2-1.2c-0.3,1.2-0.1-0.8-0.6,1.4c-0.1-0.1,0.1-1.1-0.1-0.2c0.2-1.3,0.4-2.2,0.4-2.7c-0.1,0.3-0.3,1.4-0.5,2
		c0-0.3,0-0.4,0-0.3c0.2-0.6,0.5-2,0.3-1.6c0.3-1,0.4-0.9,0.4-0.7c-0.6,2,0.1,0.1-0.4,2.3c0.1-0.4,0.4-1.5,0.6-2.1
		c0.6-0.1,0.6,1.3,0.8,2.3c0,0-0.1,0.5-0.1,0.8c-0.1,0.3-0.1,0.5-0.2,0.8C196.8,59.6,196.2,60.9,196.4,58.9z M196.5,93.9
		c0.3-1.7,0.3-0.6,0.3-0.6C196.7,94.2,196.6,93.6,196.5,93.9z M197.3,98.2l0.2-0.1c-0.2,1.3-0.2,0.4-0.4,1.3
		C197.1,99.2,197.2,98.9,197.3,98.2z M197.1,72.7c-0.1,0.3,0-0.5,0-0.7C197.3,71.2,197.3,71.6,197.1,72.7z M197.3,65.1
		c0,0.3-0.1,0.6-0.3,1.6c0-0.1-0.1,0,0.1-1.1c0-0.1,0,0,0,0.4C197.2,65.9,197.3,65.4,197.3,65.1z M198,60.9c0.1-1.1-0.6,1.6,0-1.3
		C197.9,60.4,198.4,58.7,198,60.9z M198.1,58.9c0,0.3-0.4,1.8-0.5,2c-0.1,0.3,0.1-0.6-0.1-0.2c-0.3,1.3-0.1,0.7-0.4,2
		c-0.3,0.7,0.5-2.2,0.4-2.3c0.1-0.4,0.2-0.5,0.3-1.2C197.9,58.9,197.8,60.2,198.1,58.9z M197.6,58.6c0,0.2-0.2,0.9-0.1,0.7
		c0.1-0.7,0.4-1.8,0.5-1.7C197.8,58.2,197.8,58.4,197.6,58.6c-0.2,1.1,0.1,0.6,0.1,0.6c-0.4,1.8-0.1-0.2-0.5,1.4
		C197.1,60.7,197.5,59.1,197.6,58.6z"/>
	<path d="M4.7,46.4c0,0.2,0.1,0.6,0.2,1c0-0.3,0.1-0.2,0.2-0.1c-0.1-0.2-0.2-0.4-0.3-0.7C4.8,46.5,4.8,46.4,4.7,46.4z"/>
	<path d="M5.8,27.9c0-0.1-0.1-0.2-0.2-0.3v0.7C5.8,28.6,6,28.6,5.8,27.9z"/>
	<path d="M5.8,29.7c0,0-0.1,0-0.1,0V30C6.1,29.9,6.5,29.7,5.8,29.7z"/>
	<path d="M4.9,47.4c0,0,0,0.1,0,0.1c0,0.1,0,0.1,0.1,0.2C5,47.6,5,47.5,4.9,47.4z"/>
	<path d="M4.9,45.8c-0.1-0.1-0.1-0.1-0.2-0.2C4.8,46,4.9,45.9,5,46.3C5,46.1,4.9,46,4.9,45.8z"/>
	<path d="M4.5,46.1c0.1,0.2,0.2,0.2,0.2,0.3c0-0.2,0-0.4,0-0.4c0.1,0.2,0.1,0.4,0.2,0.6c0.1,0.1,0.2,0.3,0.3,0.8c0,0,0,0-0.1,0
		c0,0.1,0,0.1,0.1,0.2c0.1-0.1,0-0.5-0.1-1c0,0,0,0.1,0.1,0.4C5,46.7,4.8,46,4.6,45.5c0,0-0.1,0-0.1-0.1C4.7,46.4,4.2,44.9,4.5,46.1
		z"/>
	<path d="M2.4,87.6C2.4,87.6,2.4,87.6,2.4,87.6c0.1,0.3,0.2,0.5,0.3,0.6C2.7,88.1,2.5,87.9,2.4,87.6z"/>
	<path d="M29.4,86c0,0-0.1,0-0.1,0c0,0-0.1,0-0.1,0c-0.1,0-0.1,0-0.2,0c0,0-0.1,0-0.2,0c-0.2,0-0.3-0.1-0.5-0.2
		c-0.1-0.2-0.3-0.5-0.4-0.9l-2.9-8.1c-0.2-0.6-0.6-0.8-1.3-0.8c-0.7,0-1.1,0.3-1.3,0.8l-3,8.2c-0.1,0.4-0.2,0.6-0.3,0.7
		c-0.1,0.2-0.2,0.2-0.4,0.2h-0.2c-0.1,0-0.1,0-0.1,0s-0.1,0-0.1,0c-0.6,0-0.9,0.3-0.9,0.8c0,0.5,0.3,0.8,0.9,0.8c0.1,0,0.2,0,0.3,0
		c0.1,0,0.3,0,0.4-0.1l0.7-0.1c0.1,0,0.2,0,0.3,0c0.1,0,0.3,0,0.5,0c0.1,0,0.3,0,0.4,0c0.1,0,0.2,0,0.3,0l0.8,0.1H22
		c0.1,0,0.1,0,0.2,0c0.1,0,0.1,0,0.2,0c0.7,0,1-0.3,1-0.8c0-0.5-0.3-0.8-1-0.8c-0.1,0-0.1,0-0.2,0c-0.1,0-0.2,0-0.3,0
		c-0.1,0-0.2,0-0.3,0c-0.1,0-0.1,0-0.2,0c-0.2,0-0.4-0.1-0.4-0.3c0-0.1,0-0.1,0.1-0.2l0.5-1.3c0.1-0.3,0.2-0.4,0.2-0.5
		c0.1-0.1,0.1-0.1,0.3-0.1H25c0.1,0,0.2,0,0.2,0c0,0,0.1,0.1,0.1,0.2l0.6,1.6v0l0.1,0.2c0,0.1,0,0.1,0.1,0.1c0,0,0,0.1,0,0.1
		c0,0.1-0.1,0.2-0.3,0.2c0,0-0.1,0-0.2,0c-0.1,0-0.2,0-0.2,0c-0.1,0-0.2,0-0.3,0c-0.1,0-0.1,0-0.2,0c-0.7,0-1,0.3-1,0.8
		s0.3,0.8,0.9,0.8c0,0,0.1,0,0.2,0c0.1,0,0.1,0,0.2,0c0,0,0,0,0.1,0c0,0,0.1,0,0.1,0c0.5,0,0.8-0.1,1.2-0.1c0.3,0,0.6,0,0.8,0
		c0.2,0,0.4,0,0.6,0c0.2,0,0.5,0,0.9,0.1c0,0,0,0,0.1,0c0,0,0,0,0.1,0c0.1,0,0.1,0,0.2,0c0.1,0,0.1,0,0.2,0c0.6,0,0.9-0.3,0.9-0.8
		C30.3,86.2,30,86,29.4,86z M22.3,82.2L22.3,82.2C22.3,82.2,22.3,82.2,22.3,82.2C22.3,82.2,22.3,82.2,22.3,82.2z M24.8,82.1h-2.4
		c0.2-0.6,0.4-1.2,0.6-1.8c0.2-0.6,0.4-1.2,0.6-1.8L24.8,82.1L24.8,82.1z"/>
	<path d="M43.1,76c-0.1,0-0.3,0-0.4,0.1L42,76.2c-0.2,0-0.4,0.1-0.7,0.1c-0.3,0-0.5,0-0.8-0.1l-1-0.1c0,0-0.1,0-0.1,0
		c0,0-0.1,0-0.2,0c-0.7,0-1,0.3-1,0.8c0,0.2,0.1,0.4,0.2,0.5c0.2,0.2,0.3,0.2,0.6,0.2c0.1,0,0.1,0,0.2,0c0.1,0,0.2,0,0.3,0
		c0,0,0,0,0.1,0c0,0,0,0,0.1,0c0.1,0,0.1,0,0.2,0c0.3,0,0.5,0.2,0.5,0.6c0,0.1,0,0.2,0,0.4c0,0.2,0,0.5,0,0.9c0,0.7,0,1.4,0,2.1
		c0,0.7,0,1.4,0,2.1c0,0.3,0,0.6-0.1,0.8c0,0.2-0.1,0.4-0.1,0.6c-0.1,0.3-0.4,0.6-0.7,0.8c-0.4,0.2-0.8,0.3-1.4,0.3
		c-0.2,0-0.4,0-0.6-0.1c-0.2-0.1-0.4-0.1-0.6-0.2c-0.4-0.2-0.7-0.4-0.8-0.7c-0.1-0.3-0.2-0.8-0.2-1.6v-2.5l0.1-1.3l0-1.1
		c0-0.2,0-0.4,0-0.6c0-0.2,0-0.3,0.1-0.3c0.1-0.2,0.2-0.4,0.4-0.4c0,0,0,0,0.1,0c0.1,0,0.2,0,0.3,0c0.1,0,0.2,0,0.2,0
		c0.1,0,0.1,0,0.2,0c0.6,0,0.9-0.3,0.9-0.8c0-0.5-0.3-0.8-1-0.8c-0.1,0-0.2,0-0.3,0c-0.1,0-0.2,0-0.2,0c-0.6,0.1-1.1,0.2-1.6,0.2
		c-0.2,0-0.4,0-0.7,0c-0.2,0-0.5-0.1-0.7-0.1c-0.2,0-0.4-0.1-0.6-0.1c-0.6,0-0.9,0.3-0.9,0.8c0,0.5,0.3,0.8,1,0.8c0.1,0,0.1,0,0.2,0
		c0.1,0,0.1,0,0.2,0h0.1c0.2,0,0.3,0.2,0.4,0.7c0,0.1,0,0.5,0,1.3v0.9c0,0.4,0,1-0.1,1.7c0,0.8-0.1,1.4-0.1,1.8c0,0.4,0,0.8,0.1,1.1
		c0,0.3,0.1,0.6,0.2,0.8h0c0.6,1.3,1.9,2,4,2c1.7,0,2.8-0.5,3.5-1.5c0.3-0.5,0.5-1,0.6-1.5c0-0.2,0-0.4,0-0.6c0-0.3,0-0.6,0-0.9
		v-2.9c0-1.4,0-2.2,0.1-2.5c0-0.2,0.2-0.3,0.3-0.3c0,0,0,0,0.1,0h0.3c0.6,0,0.9-0.3,0.9-0.8C44.1,76.3,43.8,76,43.1,76z"/>
	<path d="M56,82.7c-0.6,0-0.9,0.3-0.9,1c0,0.3,0,0.5,0,0.7c0,0.2-0.1,0.4-0.1,0.5c-0.2,0.4-0.5,0.8-0.9,1.1
		c-0.4,0.3-0.9,0.4-1.5,0.4c-1,0-1.8-0.4-2.4-1.2c-0.6-0.8-0.9-1.9-0.9-3.3c0-1.4,0.3-2.5,0.8-3.3c0.6-0.8,1.3-1.2,2.3-1.2
		c0.7,0,1.4,0.2,1.8,0.7c0.5,0.4,0.7,1,0.7,1.8c0,0.1,0,0.2,0,0.3c0,0.1,0,0.2,0,0.3c0,0.6,0.3,0.9,0.9,0.9c0.6,0,0.9-0.3,0.9-1
		v-0.2l-0.1-0.6c0-0.3-0.1-0.6-0.1-0.9c0-0.1,0-0.2,0-0.4c0-0.2,0-0.4,0.1-0.7v0c0-0.4,0.1-0.7,0.1-0.8c0-0.6-0.3-0.9-0.8-0.9
		c-0.3,0-0.5,0.1-0.6,0.2c-0.1,0.2-0.2,0.4-0.2,0.6c0-0.1-0.1-0.2-0.3-0.3c-0.2-0.1-0.4-0.2-0.6-0.3c-0.2-0.1-0.5-0.2-0.8-0.2
		c-0.3-0.1-0.6-0.1-0.8-0.1c-1.6,0-2.8,0.6-3.8,1.7c-0.5,0.6-0.8,1.2-1.1,2c-0.2,0.7-0.3,1.6-0.3,2.5c0,0.9,0.1,1.7,0.3,2.4
		c0.2,0.7,0.6,1.3,1,1.9c1,1.1,2.2,1.6,3.7,1.6c1.4,0,2.5-0.4,3.3-1.2c0.9-0.8,1.3-1.8,1.3-3C57,83,56.7,82.7,56,82.7z"/>
	<path d="M72.6,86c-0.1,0-0.3,0-0.6,0.1h-0.1h-0.1c-0.1,0-0.3-0.1-0.5-0.4c-0.2-0.2-0.5-0.6-0.8-0.9l-2.6-3.6l-0.2-0.4
		c-0.1-0.1-0.1-0.1-0.1-0.2c0,0,0-0.1,0.1-0.1l3.1-2.6c0.3-0.2,0.6-0.4,0.9-0.4c0.1,0,0.2,0,0.2,0H72c0,0,0.1,0,0.1,0
		c0,0,0.1,0,0.1,0c0.6,0,0.9-0.3,0.9-0.8c0-0.5-0.3-0.8-0.9-0.8c-0.2,0-0.4,0-0.7,0.1h0c-0.3,0-0.6,0.1-0.8,0.1c-0.2,0-0.4,0-0.6,0
		c-0.1,0-0.2,0-0.3,0c-0.1,0-0.3,0-0.5-0.1l-0.9-0.1c-0.1,0-0.2,0-0.3,0c-0.1,0-0.2,0-0.4,0c-0.7,0-1,0.3-1,0.8
		c0,0.5,0.3,0.8,0.9,0.8c0.1,0,0.2,0,0.4,0c0.2,0,0.4,0,0.6-0.1h0.1l0,0l0,0l-4.2,3.5l0-1.5c0-0.5,0-0.9,0-1.2
		c0-0.3,0.1-0.5,0.1-0.6c0.1-0.2,0.2-0.3,0.5-0.3c0.1,0,0.2,0,0.3,0c0.2,0,0.3,0.1,0.5,0.1c0.2,0,0.4-0.1,0.6-0.2
		c0.2-0.1,0.2-0.3,0.2-0.6c0-0.5-0.3-0.8-1-0.8c-0.1,0-0.5,0-1,0.1c-0.6,0.1-1,0.1-1.3,0.1c-0.1,0-0.3,0-0.4,0c-0.1,0-0.3,0-0.5-0.1
		l-0.8-0.1c0,0-0.1,0-0.1,0c-0.1,0-0.1,0-0.1,0c-0.7,0-1,0.3-1,0.8c0,0.5,0.3,0.8,0.8,0.8c0.1,0,0.2,0,0.2,0c0.1,0,0.1,0,0.2,0
		c0.1,0,0.3-0.1,0.4-0.1c0.4,0,0.5,0.3,0.5,1l0,1.1v4.3c0,0.2,0,0.3,0,0.5c0,0.1,0,0.2,0,0.3c0,0.1,0,0.1,0,0.2s0,0.1,0,0.2
		c0,0.7-0.2,1-0.5,1c0,0-0.1,0-0.1,0c0,0-0.1,0-0.2,0c-0.1,0-0.2,0-0.3,0c-0.1,0-0.2,0-0.2,0c-0.5,0-0.8,0.3-0.8,0.8
		c0,0.5,0.3,0.8,1,0.8h0.1c0,0,0.1,0,0.1,0l0.9-0.1c0.2,0,0.5-0.1,0.8-0.1c0.5,0,0.8,0,1,0.1l0.9,0.1c0,0,0.1,0,0.1,0h0.1
		c0.7,0,1-0.3,1-0.8c0-0.2-0.1-0.4-0.2-0.6C66.2,86.1,66,86,65.8,86c-0.1,0-0.2,0-0.3,0c-0.1,0-0.2,0-0.3,0c-0.1,0-0.1,0-0.2,0
		c0,0-0.1,0-0.1,0c-0.3,0-0.5-0.2-0.5-0.6c0-0.1,0-0.2,0-0.5c0-0.3,0-0.6,0-1.1c0-0.1,0-0.2,0-0.3c0-0.1,0-0.2,0-0.3
		c0.3-0.2,0.6-0.5,0.8-0.7c0.3-0.2,0.5-0.5,0.8-0.7l3,4.1l0.1,0.1c0,0-0.1,0-0.1,0c-0.1,0-0.3,0-0.7-0.1c0,0,0,0-0.1,0
		c0,0,0,0-0.1,0c-0.1,0-0.1,0-0.2,0s-0.2,0-0.2,0c-0.6,0-0.9,0.3-0.9,0.8c0,0.5,0.3,0.8,0.9,0.8c0,0,0.1,0,0.3,0
		c0.1,0,0.3,0,0.5-0.1c0.3,0,0.6-0.1,0.9-0.1c0.3,0,0.6,0,0.9,0c0.2,0,0.5,0,0.7,0c0.2,0,0.4,0,0.6,0.1c0.1,0,0.3,0,0.4,0.1
		c0.1,0,0.2,0,0.3,0c0.1,0,0.2,0,0.2,0c0.6,0,0.9-0.3,0.9-0.8C73.5,86.3,73.2,86,72.6,86z"/>
	<path d="M85.5,82.4c-0.6,0-0.9,0.3-0.9,1c0,0,0,0.1,0,0.1c0,0,0,0.1,0,0.2c0,0.1,0,0.1,0,0.2c0,0.1,0,0.2,0,0.3v0.6
		c0,0.5-0.1,0.9-0.3,1c-0.2,0.2-0.6,0.3-1.3,0.3h-1.4c-0.2,0-0.5,0-0.6,0s-0.3,0-0.4,0c-0.1,0-0.2-0.1-0.2-0.1c-0.1,0-0.1-0.4-0.1-1
		v-6.4c0-0.7,0.2-1,0.6-1c0.1,0,0.1,0,0.2,0c0,0,0.1,0,0.1,0c0.2,0,0.3,0.1,0.5,0.1c0.2,0,0.4-0.1,0.6-0.2c0.2-0.1,0.2-0.3,0.2-0.6
		c0-0.5-0.3-0.8-1-0.8c0,0-0.1,0-0.1,0c-0.1,0-0.1,0-0.1,0h0l-0.7,0.1c-0.2,0-0.4,0-0.6,0.1c-0.2,0-0.3,0-0.5,0c-0.1,0-0.2,0-0.4,0
		c-0.2,0-0.4,0-0.6-0.1l-0.9-0.1h0c-0.1,0-0.1,0-0.2,0c0,0-0.1,0-0.1,0c-0.7,0-1,0.3-1,0.8c0,0.2,0.1,0.4,0.2,0.6
		c0.2,0.1,0.3,0.2,0.6,0.2c0.2,0,0.3,0,0.5-0.1c0.1,0,0.2,0,0.3,0c0.4,0,0.6,0.3,0.6,1v6.6c0,0.7-0.2,1-0.6,1c0,0-0.1,0-0.1,0
		s-0.1,0-0.2,0c-0.1,0-0.2,0-0.3,0C77,86,77,86,77,86c-0.5,0-0.8,0.2-0.8,0.7c0,0.5,0.3,0.8,1,0.8c0.1,0,0.2,0,0.3,0
		c0.1,0,0.2,0,0.3,0c0.1,0,0.2,0,0.2,0c0.1,0,0.1,0,0.2,0c0.1,0,0.2,0,0.3,0c0.1,0,0.2,0,0.2,0c0.2,0,0.3,0,0.5,0c0.1,0,0.2,0,0.3,0
		h2.6l1.2,0c0.1,0,0.2,0,0.3,0s0.2,0,0.3,0c0.1,0,0.2,0,0.3,0c0.1,0,0.2,0,0.3,0c0.1,0,0.2,0,0.3,0c0.1,0,0.1,0,0.2,0
		c0.1,0,0.2,0,0.2,0c0,0,0.1,0,0.1,0c0.7,0,1.1-0.3,1.1-1c0-0.1,0-0.2,0-0.3c0-0.1,0-0.3,0-0.4c0,0,0-0.1,0-0.1c0,0,0-0.1,0-0.1
		c0-0.1,0-0.2,0-0.2c0-0.1,0-0.1,0-0.2c0-0.1,0-0.2,0-0.4c0-0.1,0-0.2,0-0.4l0.1-0.8c0-0.1,0-0.2,0-0.4
		C86.5,82.7,86.1,82.4,85.5,82.4z"/>
	<path d="M96,76c-0.7,0-1.1,0.3-1.3,0.8l-3,8.2c-0.1,0.4-0.2,0.6-0.3,0.7C91.3,85.9,91.1,86,91,86h-0.2c-0.1,0-0.1,0-0.1,0
		s-0.1,0-0.1,0c-0.6,0-0.9,0.3-0.9,0.8c0,0.5,0.3,0.8,0.9,0.8c0.1,0,0.2,0,0.3,0c0.1,0,0.3,0,0.4-0.1l0.7-0.1c0.1,0,0.2,0,0.3,0
		c0.1,0,0.3,0,0.5,0c0.1,0,0.3,0,0.4,0c0.1,0,0.2,0,0.3,0l0.8,0.1h0.1c0.1,0,0.1,0,0.2,0c0.1,0,0.1,0,0.2,0c0.7,0,1-0.3,1-0.8
		c0-0.5-0.3-0.8-1-0.8c-0.1,0-0.1,0-0.2,0c-0.1,0-0.2,0-0.3,0c-0.1,0-0.2,0-0.3,0c-0.1,0-0.1,0-0.2,0c-0.2,0-0.4-0.1-0.4-0.3
		c0-0.1,0-0.1,0.1-0.2l0.5-1.3c0.1-0.3,0.2-0.4,0.2-0.5c0.1-0.1,0.1-0.1,0.3-0.1h2.9c0.1,0,0.2,0,0.2,0c0,0,0.1,0.1,0.1,0.2l0.6,1.6
		v0l0.1,0.2c0,0.1,0,0.1,0.1,0.1c0,0,0,0.1,0,0.1c0,0.1-0.1,0.2-0.3,0.2c0,0-0.1,0-0.2,0c-0.1,0-0.2,0-0.2,0c-0.1,0-0.2,0-0.3,0
		c-0.1,0-0.1,0-0.2,0c-0.7,0-1,0.3-1,0.8s0.3,0.8,0.9,0.8c0,0,0.1,0,0.2,0c0.1,0,0.1,0,0.2,0c0,0,0,0,0.1,0c0,0,0.1,0,0.1,0
		c0.5,0,0.8-0.1,1.2-0.1c0.3,0,0.6,0,0.8,0c0.2,0,0.4,0,0.6,0c0.2,0,0.5,0,0.9,0.1c0,0,0,0,0.1,0c0,0,0,0,0.1,0c0.1,0,0.1,0,0.2,0
		c0.1,0,0.1,0,0.2,0c0.6,0,0.9-0.3,0.9-0.8c0-0.5-0.3-0.7-0.9-0.7c0,0-0.1,0-0.1,0c0,0-0.1,0-0.1,0c-0.1,0-0.1,0-0.2,0
		c0,0-0.1,0-0.2,0c-0.2,0-0.3-0.1-0.5-0.2c-0.1-0.2-0.3-0.5-0.4-0.9l-2.9-8.1C97.1,76.3,96.7,76,96,76z M94.7,82.2L94.7,82.2
		C94.7,82.2,94.7,82.2,94.7,82.2C94.7,82.2,94.7,82.2,94.7,82.2z M97.1,82.1h-2.4c0.2-0.6,0.4-1.2,0.6-1.8c0.2-0.6,0.4-1.2,0.6-1.8
		L97.1,82.1L97.1,82.1z"/>
	<path d="M106.1,77.6c0.1,0,0.1,0,0.2,0c0.1,0,0.2,0,0.3,0c0,0,0,0,0.1,0c0,0,0,0,0.1,0c0.1,0,0.1,0,0.2,0c0.4,0,0.6,0.3,0.6,1
		l0,2.6v1.4l0,1.4v1.1c0,0.7-0.2,1-0.5,1c-0.1,0-0.2,0-0.3-0.1h-0.3c0,0-0.1,0-0.1,0c0,0,0,0-0.1,0c-0.5,0-0.8,0.2-0.8,0.7
		c0,0.5,0.3,0.8,1,0.8h0.2c0,0,0.1,0,0.1,0l0.8-0.1c0.2,0,0.4,0,0.6-0.1c0.2,0,0.3,0,0.5,0c0.1,0,0.3,0,0.5,0c0.2,0,0.4,0,0.5,0.1h0
		l0.7,0.1c0,0,0,0,0.1,0c0,0,0.1,0,0.1,0h0.1c0.7,0,1-0.3,1-0.8c0-0.5-0.3-0.8-0.8-0.8c0,0,0,0-0.1,0c-0.1,0-0.2,0-0.3,0
		c-0.1,0-0.2,0-0.2,0s-0.1,0-0.1,0c-0.4,0-0.6-0.3-0.6-1v-6.4l3.8,7.8c0.4,0.9,1,1.3,1.6,1.3c0.5,0,0.9-0.2,1.1-0.5
		c0.2-0.3,0.3-0.9,0.3-1.8v-4.4l0-1.7c0-0.2,0-0.3,0-0.5c0-0.2,0-0.3,0-0.5c0-0.4,0.1-0.6,0.1-0.7c0.1-0.1,0.2-0.2,0.4-0.2h0.1
		c0,0,0.1,0,0.1,0s0.1,0,0.1,0c0.6,0,0.9-0.3,0.9-0.8c0-0.5-0.3-0.8-1-0.8h-0.1c0,0-0.1,0-0.1,0l-0.6,0.1c-0.5,0.1-0.8,0.1-1.1,0.1
		c-0.1,0-0.3,0-0.4,0c-0.2,0-0.3,0-0.5-0.1l-0.7-0.1c-0.1,0-0.1,0-0.1,0c0,0-0.1,0-0.1,0c-0.7,0-1,0.3-1,0.8c0,0.2,0.1,0.4,0.2,0.5
		c0.2,0.2,0.3,0.2,0.6,0.2c0.1,0,0.1,0,0.2,0c0.1,0,0.2,0,0.2,0c0.1,0,0.1,0,0.2,0c0.1,0,0.2,0,0.2,0c0.3,0,0.4,0.3,0.5,0.7
		c0,0.1,0,0.5,0,1.3v5.4c-0.4-0.8-0.7-1.5-1-2.1c-0.3-0.6-0.6-1.3-0.9-1.9c-0.3-0.6-0.6-1.3-0.9-1.9c-0.3-0.6-0.7-1.4-1-2.1l0,0
		l-0.2-0.4c-0.1-0.2-0.2-0.3-0.3-0.4c-0.1-0.1-0.3-0.1-0.6-0.1c-0.2,0-0.4,0-0.8,0.1c-0.3,0-0.6,0.1-0.7,0.1c-0.1,0-0.3,0-0.5,0
		c-0.2,0-0.4,0-0.7-0.1c-0.1,0-0.1,0-0.2,0c-0.1,0-0.1,0-0.1,0c-0.6,0-1,0.3-1,0.8C105.3,77.4,105.6,77.6,106.1,77.6z"/>
	<path d="M122.5,86.1c-0.1,0-0.1,0-0.2,0c0,0-0.1,0-0.1,0c-0.2,0-0.4-0.1-0.5-0.1c-0.2,0-0.4,0.1-0.6,0.2c-0.2,0.1-0.2,0.3-0.2,0.6
		c0,0.5,0.3,0.8,1,0.8h0.2c0,0,0.1,0,0.1,0l0.8-0.1c0.2,0,0.5-0.1,0.9-0.1c0.4,0,0.8,0,1.2,0.1l1.1,0.1c0.1,0,0.3,0,0.4,0
		c0.1,0,0.2,0,0.4,0c0.6,0,1.2-0.1,1.7-0.2c0.5-0.1,1-0.3,1.5-0.6c0.4-0.2,0.7-0.5,1-0.8c0.3-0.3,0.5-0.7,0.7-1.1
		c0.4-0.9,0.6-1.9,0.6-3c0-1.3-0.3-2.4-0.8-3.3c-0.5-0.9-1.3-1.6-2.2-2c-0.7-0.3-1.6-0.4-2.6-0.4c-0.2,0-0.3,0-0.5,0
		c-0.1,0-0.3,0-0.4,0l-1.1,0.1c-0.3,0-0.6,0.1-0.9,0.1c-0.2,0-0.4,0-0.5,0c-0.2,0-0.3,0-0.5-0.1l-0.9-0.1c0,0-0.1,0-0.1,0
		c-0.1,0-0.1,0-0.1,0c-0.7,0-1,0.3-1,0.8c0,0.5,0.3,0.7,0.8,0.7c0.1,0,0.3,0,0.5-0.1h0c0.1,0,0.1,0,0.2,0s0.1,0,0.1,0
		c0.4,0,0.5,0.4,0.5,1v6.6C123,85.7,122.8,86.1,122.5,86.1z M124.9,78.3c0-0.4,0-0.6,0.1-0.6v0c0.2-0.1,0.7-0.1,1.4-0.1
		c0.7,0,1.2,0.1,1.7,0.2c0.7,0.2,1.3,0.7,1.6,1.4c0.4,0.7,0.6,1.6,0.6,2.6c0,0.7-0.1,1.3-0.3,1.8c-0.2,0.5-0.4,1-0.7,1.4
		c-0.3,0.3-0.6,0.5-1.1,0.7c-0.4,0.2-1,0.3-1.5,0.3c-0.8,0-1.2,0-1.3-0.1c-0.4-0.1-0.5-0.3-0.5-0.7V78.3z"/>
	<path d="M144.3,86.2c1,1.1,2.2,1.6,3.7,1.6c1.4,0,2.5-0.4,3.3-1.2c0.9-0.8,1.3-1.8,1.3-3c0-0.6-0.3-1-1-1c-0.6,0-0.9,0.3-0.9,1
		c0,0.3,0,0.5,0,0.7c0,0.2-0.1,0.4-0.1,0.5c-0.2,0.4-0.5,0.8-0.9,1.1c-0.4,0.3-0.9,0.4-1.5,0.4c-1,0-1.8-0.4-2.4-1.2
		c-0.6-0.8-0.9-1.9-0.9-3.3c0-1.4,0.3-2.5,0.8-3.3c0.6-0.8,1.3-1.2,2.3-1.2c0.7,0,1.4,0.2,1.8,0.7c0.5,0.4,0.7,1,0.7,1.8
		c0,0.1,0,0.2,0,0.3c0,0.1,0,0.2,0,0.3c0,0.6,0.3,0.9,0.9,0.9c0.6,0,0.9-0.3,0.9-1v-0.2l0-0.6c0-0.3-0.1-0.6-0.1-0.9
		c0-0.1,0-0.2,0-0.4c0-0.2,0-0.4,0.1-0.7v0c0-0.4,0.1-0.7,0.1-0.8c0-0.6-0.3-0.9-0.8-0.9c-0.3,0-0.5,0.1-0.6,0.2
		c-0.1,0.2-0.2,0.4-0.2,0.6c0-0.1-0.1-0.2-0.3-0.3c-0.2-0.1-0.4-0.2-0.6-0.3c-0.3-0.1-0.5-0.2-0.8-0.2c-0.3-0.1-0.6-0.1-0.8-0.1
		c-1.6,0-2.8,0.6-3.8,1.7c-0.5,0.6-0.8,1.2-1.1,2c-0.2,0.7-0.3,1.6-0.3,2.5c0,0.9,0.1,1.7,0.3,2.4C143.5,85,143.8,85.7,144.3,86.2z"
		/>
	<path d="M157.6,86.1C157.6,86.1,157.6,86.1,157.6,86.1c-0.1,0-0.1,0-0.2,0h-0.1c-0.1,0-0.2,0-0.3,0c-0.1,0-0.2,0-0.2,0
		c-0.5,0-0.8,0.2-0.8,0.7c0,0.5,0.3,0.8,1,0.8h0.2c0,0,0,0,0,0c0,0,0,0,0,0h0l0.8-0.1c0.2,0,0.5-0.1,0.8-0.1c0.2,0,0.4,0,0.6,0
		c0.3,0,0.6,0,0.9,0.1c0.4,0,0.7,0,1,0.1c0.3,0,0.6,0,0.8,0c1.4,0,2.5-0.3,3.3-0.9c0.9-0.6,1.3-1.5,1.3-2.6c0-1.1-0.5-1.9-1.5-2.5h0
		c-0.1-0.1-0.4-0.2-0.6-0.3c0.5-0.3,0.9-0.6,1.2-1c0.2-0.4,0.4-0.8,0.4-1.4c0-0.9-0.3-1.6-1-2.1s-1.6-0.7-2.8-0.7
		c-0.3,0-0.6,0-0.9,0c-0.3,0-0.5,0-0.8,0.1h0c-0.8,0.1-1.4,0.1-1.8,0.1c-0.4,0-0.7,0-0.9-0.1l-0.8-0.1h-0.2c-0.7,0-1,0.3-1,0.8
		c0,0.5,0.3,0.7,0.8,0.7c0.1,0,0.3,0,0.5-0.1h0c0.1,0,0.1,0,0.2,0s0.1,0,0.1,0c0.4,0,0.5,0.3,0.5,1v6.6
		C158.1,85.7,158,86.1,157.6,86.1z M159.9,78.6c0-0.5,0.1-0.8,0.2-0.9h0c0.2-0.1,0.9-0.2,1.9-0.2c1.4,0,2.1,0.5,2.1,1.5
		c0,1.1-0.9,1.7-2.6,1.7h-0.9c-0.3,0-0.5,0-0.6-0.1c-0.1-0.1-0.1-0.5-0.1-0.9V78.6z M159.9,82.9c0-0.3,0-0.5,0-0.6
		c0.1-0.2,0.3-0.2,0.7-0.2h1.4c1.8,0,2.7,0.6,2.7,1.9c0,1.4-0.9,2.1-2.8,2.1c-0.5,0-0.9,0-1.2,0c-0.3,0-0.5-0.1-0.6-0.2
		c-0.1-0.1-0.2-0.5-0.2-1.1V82.9z"/>
	<path d="M171.9,86.1c-0.1,0-0.1,0-0.2,0c0,0-0.1,0-0.1,0c-0.2,0-0.4-0.1-0.5-0.1c-0.2,0-0.4,0.1-0.6,0.2c-0.2,0.1-0.2,0.3-0.2,0.6
		c0,0.5,0.3,0.8,1,0.8h0.2c0,0,0.1,0,0.1,0l0.8-0.1c0.2,0,0.5-0.1,0.9-0.1c0.4,0,0.8,0,1.2,0.1l1.1,0.1c0.1,0,0.3,0,0.4,0
		c0.1,0,0.2,0,0.4,0c0.6,0,1.2-0.1,1.7-0.2c0.5-0.1,1-0.3,1.5-0.6c0.4-0.2,0.7-0.5,1-0.8c0.3-0.3,0.5-0.7,0.7-1.1
		c0.4-0.9,0.6-1.9,0.6-3c0-1.3-0.3-2.4-0.8-3.3c-0.5-0.9-1.3-1.6-2.2-2c-0.7-0.3-1.6-0.4-2.6-0.4c-0.2,0-0.3,0-0.5,0
		c-0.1,0-0.3,0-0.4,0l-1.1,0.1c-0.3,0-0.6,0.1-0.9,0.1c-0.2,0-0.4,0-0.5,0c-0.2,0-0.3,0-0.5-0.1l-0.9-0.1c0,0-0.1,0-0.1,0
		c-0.1,0-0.1,0-0.1,0c-0.7,0-1,0.3-1,0.8c0,0.5,0.3,0.7,0.8,0.7c0.1,0,0.3,0,0.5-0.1h0c0.1,0,0.1,0,0.2,0c0.1,0,0.1,0,0.1,0
		c0.4,0,0.5,0.4,0.5,1v6.6C172.5,85.7,172.3,86.1,171.9,86.1z M174.4,78.3c0-0.4,0-0.6,0.1-0.6v0c0.2-0.1,0.7-0.1,1.4-0.1
		c0.7,0,1.2,0.1,1.7,0.2c0.7,0.2,1.3,0.7,1.6,1.4c0.4,0.7,0.6,1.6,0.6,2.6c0,0.7-0.1,1.3-0.3,1.8c-0.2,0.5-0.4,1-0.7,1.4
		c-0.3,0.3-0.6,0.5-1.1,0.7c-0.4,0.2-1,0.3-1.5,0.3c-0.8,0-1.2,0-1.3-0.1c-0.4-0.1-0.5-0.3-0.5-0.7V78.3z"/>
	<path d="M79.3,18.9c0.2,0,0.5,0,0.8-0.1h-0.1c0,0,0.1,0,0.1,0s0.1,0,0.1,0c0.1,0,0.2,0,0.2,0s0.1,0,0.1,0c0.6,0,0.9,0.5,0.9,1.6
		v10.4c0,1-0.3,1.6-0.9,1.6c-0.1,0-0.2,0-0.2,0c-0.1,0-0.1,0-0.2,0c-0.3-0.1-0.5-0.1-0.8-0.1c-0.3,0-0.6,0.1-0.9,0.3
		c-0.2,0.2-0.4,0.5-0.4,0.9c0,0.8,0.5,1.3,1.6,1.3h0.2c0.1,0,0.1,0,0.2,0l1.5-0.2c0.4-0.1,0.9-0.1,1.4-0.1c0.7,0,1.2,0,1.6,0.1
		l1.3,0.2c0,0,0.1,0,0.1,0c0,0,0.1,0,0.1,0c0,0,0.1,0,0.1,0c1.1,0,1.6-0.4,1.6-1.3c0-0.8-0.4-1.2-1.2-1.2c0,0-0.1,0-0.1,0
		c0,0-0.1,0-0.1,0c-0.1,0-0.1,0-0.2,0c-0.1,0-0.2,0-0.3,0c-0.1,0-0.2,0-0.2,0c-0.1,0-0.2,0-0.2,0c-0.4,0-0.7-0.1-0.7-0.4
		c-0.1-0.4-0.2-1.7-0.2-3.9v-0.5c0-0.2,0-0.3,0-0.3c0,0,0-0.1,0.1-0.1c0.1,0,0.2,0,0.4,0c0.2,0,0.4,0,0.7,0h1.9c2.3,0,4-0.5,5.2-1.4
		c1.2-0.9,1.8-2.3,1.8-4c0-0.6-0.1-1.2-0.3-1.7c-0.2-0.5-0.5-1-0.8-1.4c-0.4-0.4-0.8-0.8-1.3-1.1c-0.5-0.3-1-0.6-1.6-0.7
		c-0.8-0.2-1.8-0.3-2.9-0.3c-0.4,0-0.8,0-1.4,0c-0.5,0-1.2,0.1-1.9,0.1h0c-0.6,0.1-1.1,0.1-1.5,0.1c-0.6,0-1.1,0-1.5-0.1l-1.3-0.2h0
		c-0.1,0-0.1,0-0.2,0c-0.1,0-0.2,0-0.2,0c-1.1,0-1.6,0.4-1.6,1.3C78.1,18.5,78.5,18.9,79.3,18.9z M84.5,20.4c0-0.7,0-1.1,0.1-1.2
		c0.2-0.3,1.2-0.4,3.1-0.4c2.5,0,3.8,1,3.8,2.9c0,1.4-0.7,2.3-2,2.7c-0.4,0.1-0.9,0.2-1.4,0.2c-0.5,0-1,0.1-1.6,0.1
		c-0.2,0-0.4,0-0.6,0c-0.1,0-0.2,0-0.3,0s-0.2,0-0.2,0c-0.1,0-0.2,0-0.3,0c-0.4-0.1-0.6-0.2-0.6-0.4V20.4z"/>
	<path d="M101.8,32.3c-0.1,0-0.3,0-0.6-0.1c-0.1,0-0.2,0-0.3,0c-0.1,0-0.2,0-0.3,0c-0.3,0-0.6,0.1-0.9,0.4c-0.3,0.3-0.4,0.5-0.4,0.8
		c0,0.9,0.5,1.3,1.6,1.3c0.1,0,0.2,0,0.2,0c0,0,0.1,0,0.2,0l0.6-0.1c0.4-0.1,0.8-0.1,1.2-0.2c0.4,0,0.7-0.1,1.1-0.1
		c0.3,0,0.6,0,0.9,0.1c0.4,0,0.7,0.1,1.2,0.2c0.6,0.1,1,0.2,1.2,0.2c1.1,0,1.6-0.4,1.6-1.3c0-0.8-0.4-1.2-1.2-1.2l-0.7,0.1
		c-0.1,0-0.2,0-0.4,0c-0.1,0-0.2,0-0.2,0c-0.5,0-0.8-0.4-0.9-1.1c0-0.1,0-0.8,0-2.3v-2.6h7.4v2.6c0,1.4,0,2.2,0,2.3
		c-0.1,0.7-0.4,1.1-0.8,1.1c-0.1,0-0.1,0-0.2,0c-0.1,0-0.2,0-0.3,0c-0.1,0-0.3,0-0.5-0.1c-0.2,0-0.3,0-0.2,0c-0.8,0-1.3,0.4-1.3,1.2
		c0,0.9,0.5,1.3,1.6,1.3c0.1,0,0.2,0,0.4,0c0.2,0,0.5-0.1,0.9-0.1c0.6-0.1,1.4-0.2,2.3-0.2c0.7,0,1.3,0.1,1.9,0.2
		c0.5,0.1,0.9,0.2,1.1,0.2c1.1,0,1.6-0.4,1.6-1.3c0-0.8-0.4-1.2-1.3-1.2l-0.7,0.1c-0.1,0-0.2,0-0.4,0c-0.1,0-0.2,0-0.2,0
		c-0.6,0-0.8-0.5-0.8-1.6V20.4c0-1,0.3-1.6,0.8-1.6c0,0,0.1,0,0.2,0c0.2,0,0.3,0,0.4,0c0.1,0,0.2,0,0.3,0c0.1,0,0.2,0,0.3,0
		c0.8,0,1.3-0.4,1.3-1.2c0-0.8-0.5-1.3-1.6-1.3c-0.1,0-0.2,0-0.4,0c-0.2,0-0.4,0-0.6,0.1c-0.4,0.1-0.8,0.1-1.3,0.1
		c-0.4,0-0.8,0-1.2,0c-0.3,0-0.5,0-0.8,0c-0.3,0-0.6-0.1-0.9-0.1c-0.6-0.1-1.1-0.2-1.4-0.2c-1,0-1.5,0.4-1.5,1.3
		c0,0.8,0.4,1.2,1.3,1.2c0.1,0,0.3,0,0.4,0c0.2,0,0.3,0,0.4-0.1h0c0.1,0,0.2,0,0.3,0c0.1,0,0.1,0,0.1,0c0.6,0,0.9,0.5,0.9,1.6v3.5
		h-7.4l0-3.5c0-0.5,0.1-0.9,0.2-1.2c0.1-0.3,0.3-0.4,0.6-0.4c0,0,0.1,0,0.1,0c0,0,0.1,0,0.1,0c0,0,0.1,0,0.1,0
		c0.1,0,0.3,0.1,0.4,0.1c0.2,0,0.3,0,0.4,0c0.3,0,0.6-0.1,0.9-0.3c0.2-0.2,0.4-0.5,0.4-0.9c0-0.9-0.5-1.3-1.6-1.3
		c-0.4,0-0.9,0.1-1.6,0.2c-0.7,0.1-1.2,0.2-1.6,0.2c-0.9,0-1.7-0.1-2.3-0.2c0,0-0.1,0-0.1,0c0,0,0,0-0.1,0c-0.2,0-0.4-0.1-0.5-0.1
		c-0.2,0-0.3,0-0.4,0c-1.1,0-1.6,0.4-1.6,1.3c0,0.3,0.1,0.6,0.4,0.8c0.3,0.3,0.5,0.4,0.9,0.4c0.1,0,0.2,0,0.4,0c0.2,0,0.3,0,0.5-0.1
		c0.1,0,0.2,0,0.2,0c0.1,0,0.1,0,0.2,0c0.6,0,0.9,0.5,0.9,1.6v10.4C102.7,31.8,102.4,32.3,101.8,32.3z"/>
	<path d="M132.8,35.1c2.5,0,4.5-0.9,5.8-2.7c1.4-1.8,2.2-4.2,2.2-7.2c0-2.8-0.7-5-2.1-6.7c-1.4-1.7-3.3-2.5-5.7-2.5
		c-2.5,0-4.5,0.9-5.9,2.6c-1.4,1.7-2.1,4-2.1,7c0,2.9,0.7,5.2,2.1,7C128.5,34.2,130.4,35.1,132.8,35.1z M129.4,20.4
		c0.8-1.2,2-1.8,3.5-1.8c1.5,0,2.7,0.6,3.5,1.8c0.8,1.2,1.2,2.9,1.2,5.1c0,2.3-0.4,4-1.3,5.3c-0.9,1.2-2,1.8-3.4,1.8
		c-1.5,0-2.7-0.6-3.5-1.8c-0.8-1.2-1.2-2.9-1.2-5.2C128.1,23.3,128.5,21.6,129.4,20.4z"/>
	<path d="M146.4,18.1c0,0,0,0.1,0,0.2l0.1,0.8c0,0.3,0,0.5,0,0.7c0,0.2,0,0.4,0,0.6c0,0.2,0,0.8-0.1,1.6c0,0.1,0,0.2,0,0.3
		c0,0.1,0,0.1,0,0.2c0,0.1,0,0.3,0,0.4c0,0.1,0,0.3,0,0.3c0,1,0.5,1.5,1.4,1.5c1,0,1.5-0.7,1.5-2c0-0.1,0-0.3,0-0.4
		c0-0.1,0-0.2,0-0.3l-0.1-0.9c0-0.1,0-0.2,0-0.3c0-0.1,0-0.3,0-0.5c0-1,0.5-1.5,1.4-1.5h0.8c1,0,1.5,0.5,1.5,1.5l0,4.2v2.2l0,2.3
		v1.8c0,1-0.3,1.6-0.9,1.6c0,0-0.1,0-0.2,0c-0.1,0-0.2,0-0.4,0c-0.1,0-0.3,0-0.4,0c-0.2,0-0.3,0-0.2,0c-0.8,0-1.3,0.4-1.3,1.2
		c0,0.8,0.5,1.3,1.6,1.3h0.2c0,0,0.1,0,0.2,0l1.3-0.2c0.3,0,0.5-0.1,0.8-0.1c0.3,0,0.6,0,0.9,0c0.3,0,0.5,0,0.8,0
		c0.3,0,0.5,0,0.8,0.1l1.3,0.2c0.1,0,0.1,0,0.2,0h0.2c1.1,0,1.6-0.4,1.6-1.3c0-0.3-0.1-0.6-0.4-0.8c-0.3-0.2-0.5-0.4-0.9-0.4
		c0,0,0,0-0.2,0c-0.2,0-0.3,0-0.5,0c-0.1,0-0.2,0-0.3,0c-0.1,0-0.2,0-0.2,0c-0.6,0-0.9-0.5-0.9-1.6l0-8.8l0.1-1.8
		c0-0.5,0.2-0.8,0.4-1.1c0.2-0.2,0.6-0.4,1-0.4h0.7c1.1,0,1.6,0.5,1.6,1.4c0,0.1,0,0.3,0,0.6c0,0.2,0,0.5,0,0.8
		c-0.1,0.6-0.1,1.1-0.1,1.4c0,1.1,0.5,1.6,1.4,1.6c1,0,1.5-0.5,1.5-1.4c0-0.1,0-0.3,0-0.5c0-0.2,0-0.5-0.1-0.9
		c0-0.3-0.1-0.5-0.1-0.7c0-0.2,0-0.4,0-0.5v-0.3c0-0.5,0.1-1,0.1-1.5c0-0.5,0.1-0.8,0.1-1c0-1-0.6-1.5-1.7-1.5c-0.2,0-0.5,0-0.8,0
		c-0.3,0-0.6,0-0.9,0.1c-0.8,0.1-1.4,0.1-1.7,0.1c-0.4,0-0.7,0-1,0c-0.3,0-0.5,0-0.8,0c-0.3,0-0.5,0-0.6,0c-0.2,0-0.3,0-0.4,0
		c-0.5,0-1,0-1.5,0c-0.5,0-1,0-1.5,0c-0.5,0-0.9,0-1.2,0c-0.3,0-0.6,0-0.7,0h-0.2c-0.4,0-0.8-0.1-1.1-0.1c-0.3,0-0.5,0-0.6,0
		c-1,0-1.4,0.5-1.4,1.5C146.4,18,146.4,18.1,146.4,18.1z"/>
	<path d="M175.7,35.1c2.5,0,4.5-0.9,5.8-2.7c1.4-1.8,2.2-4.2,2.2-7.2c0-2.8-0.7-5-2.1-6.7c-1.4-1.7-3.3-2.5-5.7-2.5
		c-2.5,0-4.5,0.9-5.9,2.6c-1.4,1.7-2.1,4-2.1,7c0,2.9,0.7,5.2,2.1,7C171.4,34.2,173.3,35.1,175.7,35.1z M172.3,20.4
		c0.8-1.2,2-1.8,3.5-1.8c1.5,0,2.7,0.6,3.5,1.8c0.8,1.2,1.2,2.9,1.2,5.1c0,2.3-0.4,4-1.3,5.3c-0.9,1.2-2,1.8-3.4,1.8
		c-1.5,0-2.7-0.6-3.5-1.8c-0.8-1.2-1.2-2.9-1.2-5.2C171,23.3,171.4,21.6,172.3,20.4z"/>
	<path d="M80.4,56.8c-0.1,0-0.2,0-0.2,0c-0.1,0-0.2,0-0.2,0c-0.1,0-0.2,0-0.3,0c-0.1,0-0.2,0-0.2,0c-0.1,0-0.1,0-0.1,0
		c0,0-0.1,0-0.1,0c-0.8,0-1.2,0.4-1.2,1.1c0,0.8,0.5,1.2,1.5,1.2h0.3c0,0,0.1,0,0.2,0l1.1-0.2c0.3,0,0.6-0.1,0.8-0.1
		c0.3,0,0.6,0,0.9,0c0.2,0,0.4,0,0.6,0c0.2,0,0.4,0,0.7,0.1l1.3,0.2c0.1,0,0.1,0,0.2,0h0.2c1,0,1.5-0.4,1.5-1.2
		c0-0.7-0.4-1.1-1.2-1.1c-0.2,0-0.4,0-0.7,0.1h-0.2c-0.1,0-0.1,0-0.2,0s-0.1,0-0.1,0c-0.5,0-0.8-0.5-0.8-1.5v-9.8
		c0-1,0.3-1.5,0.8-1.5c0.1,0,0.3,0,0.5,0.1c0.3,0,0.5,0.1,0.7,0.1c0.3,0,0.6-0.1,0.8-0.3c0.2-0.2,0.4-0.5,0.4-0.8
		c0-0.8-0.5-1.2-1.5-1.2c-0.1,0-0.1,0-0.2,0c-0.1,0-0.1,0-0.2,0l-1.1,0.2c-0.3,0-0.6,0.1-0.9,0.1c-0.3,0-0.5,0-0.8,0
		c-0.2,0-0.5,0-0.7,0s-0.5,0-0.7-0.1L80,41.8c-0.1,0-0.1,0-0.2,0c-0.1,0-0.2,0-0.2,0c-1,0-1.5,0.4-1.5,1.2c0,0.3,0.1,0.6,0.3,0.8
		c0.2,0.2,0.5,0.3,0.8,0.3c0.2,0,0.5,0,0.7-0.1c0.1,0,0.3-0.1,0.4-0.1c0.6,0,0.8,0.5,0.8,1.5v9.8C81.2,56.3,80.9,56.8,80.4,56.8z"/>
	<path d="M94.2,41.7c-0.1,0-0.1,0-0.2,0c-1,0-1.5,0.4-1.5,1.2c0,0.8,0.4,1.1,1.2,1.1c0.1,0,0.2,0,0.3,0c0.1,0,0.2,0,0.3,0
		c0.1,0,0.2,0,0.4,0c0.2,0,0.2,0,0.2,0c0.5,0.1,0.8,0.6,0.8,1.5v9.9c0,1-0.3,1.5-0.8,1.5c0,0-0.1,0-0.1,0c-0.1,0-0.2,0-0.3,0
		c-0.1,0-0.3,0-0.4-0.1c-0.2,0-0.3,0-0.4,0c-0.3,0-0.6,0.1-0.8,0.3c-0.2,0.2-0.4,0.5-0.4,0.8c0,0.8,0.5,1.2,1.6,1.2h0.2
		c0,0,0.1,0,0.1,0l1-0.2c0.3-0.1,0.8-0.1,1.7-0.1c0.4,0,0.8,0,1.2,0.1l1.2,0.2c0.1,0,0.1,0,0.2,0h0c0.1,0,0.2,0,0.2,0
		c0.1,0,0.1,0,0.2,0c0.9,0,1.4-0.4,1.4-1.2s-0.5-1.2-1.4-1.2h-0.4c-0.3,0.1-0.5,0.1-0.6,0.1c-0.4,0-0.5-0.5-0.6-1.5l-0.1-9.5
		c0.6,2,1.3,4.1,1.9,6.1s1.3,4.1,2,6.1c0.1,0.4,0.3,0.8,0.6,0.9c0.3,0.2,0.7,0.3,1.2,0.3c0.4,0,0.8-0.1,1.1-0.3
		c0.3-0.2,0.5-0.5,0.7-0.9l4-12.3v2.5c0,0.3,0,0.7,0,1.1c0,0.4,0,0.8,0,1.1c0,0.5,0,1,0,1.4c0,0.4,0,0.7,0,1c0,0.6,0,1.2,0,1.6
		c0,0.4,0,0.7,0,0.9c-0.1,1-0.3,1.5-0.7,1.5h-0.2c0,0-0.1,0-0.2,0s-0.1,0-0.2,0c-0.1,0-0.1,0-0.2,0c-0.1,0-0.1,0-0.2,0
		c-0.9,0-1.4,0.4-1.4,1.2c0,0.8,0.5,1.1,1.4,1.1c0.3,0,0.6,0,0.9-0.1c0.4-0.1,0.7-0.1,1.1-0.1c0.3,0,0.7,0,1.1,0
		c0.3,0,0.6,0,0.8,0.1c0.3,0,0.6,0.1,1,0.1c0.2,0.1,0.4,0.1,0.6,0.1c0.2,0,0.4,0,0.8,0c0.4,0.1,0.8,0,1.1-0.3c0.3-0.3,0.4-0.6,0.4-1
		c0-0.7-0.4-1.1-1.2-1.1c0,0,0,0-0.1,0c0,0-0.1,0-0.1,0c0,0-0.1,0-0.2,0c-0.1,0-0.2,0-0.4,0.1c-0.1,0-0.1,0-0.2,0
		c-0.1,0-0.1,0-0.2,0c-0.5,0-0.8-0.5-0.8-1.5l0-3.9v-2.1l0-2.2v-1.7c0-1,0.3-1.5,0.8-1.5c0,0,0,0,0.2,0c0.1,0,0.3,0,0.4,0
		c0.1,0,0.2,0,0.3,0c0.1,0,0.2,0,0.3,0c0.8,0,1.2-0.4,1.2-1.1c0-0.8-0.5-1.2-1.6-1.2c-0.3,0-0.4,0-0.5,0.1l-0.7,0.1
		c-0.3,0.1-0.6,0.1-1.1,0.1c-0.2,0-0.4,0-0.6,0c-0.2,0-0.3,0-0.5,0c-0.1,0-0.3,0-0.6-0.1c-0.3,0-0.5-0.1-0.7-0.1h-0.1
		c-0.7,0-1.2,0.4-1.5,1.3l-3.7,11.9l-3.4-11.1v0l-0.2-0.7c-0.3-1-0.8-1.5-1.7-1.5c-0.1,0-0.3,0-0.5,0c-0.2,0-0.4,0-0.7,0.1
		c-0.3,0-0.5,0.1-0.7,0.1c-0.2,0-0.4,0-0.5,0c-0.4,0-0.7,0-1.1-0.1l-0.8-0.1C94.4,41.7,94.3,41.7,94.2,41.7z"/>
	<path d="M122,59c0.1,0,0.3,0,0.5,0c0.2,0,0.4,0,0.6-0.1l1-0.2c0.1,0,0.3,0,0.5,0c0.2,0,0.4,0,0.7,0c0.2,0,0.4,0,0.6,0
		c0.2,0,0.4,0,0.5,0l1.2,0.2h0.1c0.1,0,0.2,0,0.3,0c0.1,0,0.2,0,0.2,0c1,0,1.5-0.4,1.5-1.2c0-0.8-0.5-1.2-1.4-1.2
		c-0.1,0-0.2,0-0.3,0c-0.1,0-0.2,0-0.4,0c-0.1,0-0.3,0-0.4,0c-0.1,0-0.2,0-0.3,0c-0.4,0-0.5-0.2-0.5-0.5c0-0.1,0-0.2,0.1-0.4
		l0.7-1.9c0.2-0.4,0.3-0.7,0.3-0.8c0.1-0.1,0.2-0.1,0.4-0.1h4.4c0.2,0,0.3,0,0.4,0.1c0.1,0,0.1,0.1,0.2,0.3l0.9,2.4v0l0.1,0.2
		c0,0.1,0.1,0.2,0.1,0.2c0,0.1,0,0.1,0,0.1c0,0.2-0.1,0.3-0.4,0.3c-0.1,0-0.1,0-0.3,0c-0.1,0-0.2,0-0.4,0c-0.1,0-0.3,0-0.4,0
		c-0.1,0-0.2,0-0.3,0c-1,0-1.5,0.4-1.5,1.2c0,0.8,0.5,1.2,1.4,1.2c0.1,0,0.2,0,0.3,0s0.2,0,0.3,0c0,0,0.1,0,0.1,0s0.1,0,0.1,0
		c0.7-0.1,1.3-0.1,1.7-0.2c0.5,0,0.9-0.1,1.2-0.1c0.2,0,0.5,0,0.9,0c0.4,0,0.8,0.1,1.3,0.1c0,0,0,0,0.1,0c0,0,0.1,0,0.1,0
		c0.1,0,0.2,0,0.3,0s0.2,0,0.3,0c0.9,0,1.4-0.4,1.4-1.2c0-0.7-0.5-1.1-1.4-1.1c0,0-0.1,0-0.2,0s-0.1,0-0.2,0c-0.1,0-0.2,0-0.3,0
		c-0.1,0-0.1,0-0.3,0c-0.3,0-0.5-0.1-0.7-0.3c-0.2-0.2-0.4-0.7-0.6-1.3L132,42.9c-0.3-0.8-0.9-1.3-1.9-1.3c-1,0-1.6,0.4-1.9,1.3
		l-4.6,12.3c-0.2,0.6-0.4,1-0.5,1.1c-0.2,0.2-0.4,0.4-0.6,0.4h-0.2c-0.1,0-0.1,0-0.2,0c0,0-0.1,0-0.2,0c-0.9,0-1.4,0.4-1.4,1.2
		C120.6,58.6,121,59,122,59z M129.1,48c0.3-0.9,0.6-1.8,1-2.8l1.8,5.5v0h-3.7C128.5,49.9,128.8,49,129.1,48z M128.1,51
		C128.1,51,128.1,50.9,128.1,51C128.1,51,128.1,51,128.1,51L128.1,51z"/>
	<path d="M146.7,56.9c1.4,1.7,3.2,2.5,5.4,2.5c1.8,0,3.2-0.5,4.2-1.4l0.1-0.1c0,0,0,0,0,0.1v0c0,0.8,0.4,1.3,1.3,1.3
		c0.9,0,1.3-0.4,1.3-1.3c0-0.1,0-0.2,0-0.3c0-0.1,0-0.2,0-0.3c0-0.2,0-0.4-0.1-0.6c0-0.2,0-0.5,0-0.7v-2c0-1.4,0.2-2.1,0.7-2.1h0.2
		c0,0,0.1,0,0.1,0c0.1,0,0.1,0,0.2,0c0.1,0,0.2,0,0.3,0c0.3,0,0.6-0.1,0.9-0.3c0.3-0.2,0.4-0.5,0.4-0.8c0-0.8-0.5-1.2-1.4-1.2
		c-0.2,0-0.3,0-0.4,0c-0.1,0-0.2,0-0.3,0c-0.9,0.2-1.7,0.2-2.5,0.2c-0.3,0-0.6,0-1-0.1c-0.4,0-0.9-0.1-1.4-0.2h-0.2
		c-0.1,0-0.2,0-0.3,0c-0.1,0-0.2,0-0.3,0c-0.9,0-1.4,0.4-1.4,1.2c0,0.8,0.5,1.2,1.6,1.2c0.1,0,0.2,0,0.3,0s0.2,0,0.3,0
		c0.1,0,0.2,0,0.3,0c0.1,0,0.1,0,0.2,0c0.3,0,0.5,0.1,0.7,0.3c0.1,0.2,0.2,0.5,0.2,0.9c0,1.3-0.3,2.2-0.9,2.9c-0.6,0.7-1.5,1-2.6,1
		c-1.5,0-2.7-0.6-3.5-1.8c-0.9-1.2-1.3-2.9-1.3-5.1c0-2,0.4-3.6,1.2-4.8s2-1.7,3.4-1.7c1.1,0,2,0.3,2.7,0.9c0.7,0.6,1,1.4,1,2.4v0.7
		c0,1,0.4,1.6,1.3,1.6c0.9,0,1.3-0.5,1.3-1.5v-0.2c0-0.5-0.1-0.9-0.1-1.2c0-0.3,0-0.6,0-0.7c0-0.4,0-0.7,0.1-1.1l0.2-1.1
		c0-0.1,0-0.1,0-0.2c0-0.1,0-0.2,0-0.4c0-0.9-0.4-1.4-1.3-1.4c-0.8,0-1.2,0.4-1.2,1.1v0c-1.2-0.9-2.5-1.3-3.9-1.3
		c-2.4,0-4.2,0.9-5.6,2.6c-1.4,1.7-2,3.9-2,6.7c0,1.3,0.2,2.5,0.5,3.5C145.5,55.2,146,56.1,146.7,56.9z"/>
	<path d="M169.2,56.8c-0.1,0-0.1,0-0.2,0c-0.1,0-0.2,0-0.3,0c-0.1,0-0.2,0-0.3,0c-0.1,0-0.2,0-0.2,0c-0.1,0-0.1,0-0.2,0
		c0,0-0.1,0-0.1,0c-0.8,0-1.2,0.4-1.2,1.1c0,0.8,0.5,1.2,1.5,1.2h0.2c0,0,0.1,0,0.2,0c1.5-0.1,3-0.2,4.5-0.2c0.4,0,0.9,0,1.4,0
		c0.5,0,1,0,1.6,0c0.4,0,0.7,0,1,0s0.6,0,0.9,0c0.3,0,0.5,0,0.8,0s0.5,0,0.8,0.1c0.1,0,0.1,0,0.2,0c0.1,0,0.1,0,0.2,0
		c0.1,0,0.2,0,0.3,0c0.1,0,0.2,0,0.3,0c1,0,1.5-0.5,1.5-1.5c0-0.1,0-0.2,0-0.3s0-0.3,0-0.4c0,0,0-0.1,0-0.1c0,0,0-0.1,0-0.2
		c0-0.2,0-0.4,0-0.6c0-0.2,0-0.3,0-0.4c0-0.1,0-0.2,0-0.4c0-0.1,0-0.3,0-0.5c0-0.1,0-0.2,0-0.3c0-0.1,0-0.2,0-0.3c0-0.1,0-0.1,0-0.2
		c0-0.1,0-0.2,0-0.2c0-0.2,0-0.4,0-0.5c0-0.2,0-0.3,0-0.4c0-1-0.5-1.5-1.4-1.5c-0.9,0-1.3,0.5-1.3,1.5c0,0.1,0,0.3,0,0.5
		c0,0.2,0,0.4,0,0.6c0,0.1,0,0.1,0,0.2c0,0.1,0,0.1,0,0.2c0,0.2,0,0.3,0,0.4c0,0.1,0,0.2,0,0.3c0,0.6-0.1,1.1-0.4,1.3
		c-0.3,0.2-0.8,0.4-1.6,0.4h-3.3c-0.6,0-0.9,0-1-0.1c-0.1-0.1-0.2-0.4-0.2-1c0-0.1,0-0.2,0-0.4s0-0.4,0-0.7c0-0.2,0-0.4,0-0.6
		c0-0.2,0-0.3,0-0.4v-1.5c0-0.4,0-0.6,0.1-0.8s0.2-0.2,0.5-0.2h1.1c0.6,0,0.9,0.2,1,0.7c0,0,0,0,0,0c0,0,0,0.1,0,0.2
		c0,0.1,0,0.2,0,0.3c0,0.1,0,0.2,0,0.3c0,0.1,0,0.3,0,0.4c0,0.2,0,0.3,0,0.4c0,0.9,0.4,1.4,1.3,1.4c0.9,0,1.3-0.4,1.3-1.2
		c0-0.3,0-0.6-0.1-0.9l-0.1-0.8c0-0.4-0.1-0.7-0.1-1c0-0.3,0-0.5,0-0.7c0-0.5,0.1-1.2,0.2-1.9c0.1-0.4,0.1-0.8,0.1-1
		c0-0.3,0-0.5,0-0.5c0-0.9-0.4-1.4-1.3-1.4s-1.3,0.4-1.3,1.3c0,0.3,0,0.6,0.1,0.9v0c0,0.1,0,0.3,0,0.4c0,0.2,0,0.3,0,0.3
		c0,0.4-0.4,0.7-1.1,0.7h-1c-0.2,0-0.3,0-0.5-0.1c-0.1-0.1-0.1-0.3-0.1-0.8v-0.3c0,0,0-0.1,0-0.2s0-0.2,0-0.3v-1.7
		c0-0.6,0.2-1,0.7-1.1c0.3,0,0.9-0.1,2-0.1c1.7,0,2.7,0.1,3.1,0.3h0c0.4,0.2,0.6,0.9,0.6,2.1v1.3c0,1.1,0.4,1.6,1.3,1.6
		c0.9,0,1.3-0.4,1.3-1.3c0-0.1,0-0.3,0-0.5c0-0.2,0-0.4-0.1-0.6c0-0.1,0-0.3,0-0.4c0-0.2,0-0.4,0-0.7c0-0.2,0-0.4,0-0.7
		c0-0.3,0-0.5,0.1-0.7c0-0.3,0.1-0.6,0.1-0.9s0-0.4,0-0.4c0-1-0.6-1.5-1.7-1.5c-0.1,0-0.2,0-0.4,0c-0.1,0-0.2,0-0.4,0h0
		c-0.7,0-1.2,0.1-1.3,0.1l-5.9,0.2c-0.2,0-0.5,0-0.7,0c-0.2,0-0.5-0.1-1-0.1l-2-0.2c-0.1,0-0.2,0-0.3,0c-0.1,0-0.1,0-0.2,0
		c-1,0-1.5,0.4-1.5,1.2c0,0.3,0.1,0.6,0.3,0.8c0.2,0.2,0.5,0.3,0.8,0.3c0.2,0,0.5,0,0.7-0.1c0.2,0,0.3-0.1,0.4-0.1
		c0.6,0,0.8,0.5,0.8,1.5v9.8C170.1,56.3,169.8,56.8,169.2,56.8z"/>
	<path d="M19.8,59.9h45.1c0.8,0,1.5-0.7,1.5-1.5V31c0-0.8-0.7-1.5-1.5-1.5H53.7c0-0.1-0.1-0.1-0.1-0.2l-2.2-3.4
		c-0.4-0.6-1.3-1.1-1.9-1.1H35.8c-0.7,0-1.5,0.5-1.9,1.1l-2.2,3.4c0,0.1-0.1,0.1-0.1,0.2H19.8c-0.8,0-1.5,0.7-1.5,1.5v27.4
		C18.3,59.2,19,59.9,19.8,59.9z M63.1,55.2c0,0.8-0.7,1.5-1.5,1.5h-4.4l5.9-5.9V55.2z M35.8,27.1c0,0,0.1-0.1,0.1-0.1h13.4
		c0,0,0.1,0,0.1,0.1l1.3,2H34.5L35.8,27.1z M21.7,33.9c0-0.8,0.7-1.5,1.5-1.5h38.4c0.8,0,1.5,0.7,1.5,1.5v4.9c0,0.8-0.7,1.5-1.5,1.5
		h-7.8c0.5,1.3,0.7,2.7,0.7,4.2c0,6.7-5.4,12.2-12.2,12.2s-12.2-5.5-12.2-12.2c0-1.5,0.3-2.9,0.7-4.2h-7.8c-0.8,0-1.5-0.7-1.5-1.5
		V33.9z M21.7,50.9c1.9,1.9,3.9,3.9,5.8,5.8h-4.3c-0.8,0-1.5-0.7-1.5-1.5V50.9z"/>
	<path d="M42.4,54.6c5.6,0,10.1-4.5,10.1-10.1c0-5.6-4.5-10.1-10.1-10.1c-5.6,0-10.1,4.5-10.1,10.1C32.3,50.1,36.8,54.6,42.4,54.6z
		 M42.4,52.7c-1.3,0-2.4-0.3-3.5-0.8l0-5.1l5.6,5.6C43.8,52.6,43.1,52.7,42.4,52.7z M45.1,52.2l-3.6-3.6h7.9
		C48.4,50.3,46.9,51.6,45.1,52.2z M50.5,44.5c0,1.3-0.3,2.5-0.8,3.6l-5.2,0l5.7-5.7C50.4,43.1,50.5,43.8,50.5,44.5z M46.4,37.4
		c1.7,1,3,2.5,3.7,4.4l-3.7,3.7V37.4z M42.4,36.3c1.3,0,2.4,0.3,3.5,0.8l0,5.1l-5.6-5.6C40.9,36.4,41.6,36.3,42.4,36.3z M39.6,36.8
		l3.6,3.6h-7.9C36.3,38.7,37.8,37.4,39.6,36.8z M34.2,44.5c0-1.3,0.3-2.5,0.8-3.6l5.2,0l-5.7,5.7C34.3,45.9,34.2,45.2,34.2,44.5z
		 M38.3,43.6v8c-1.7-1-3-2.5-3.7-4.4L38.3,43.6z"/>
	<path d="M53.4,37.2h6.8c0.8,0,1.5-0.7,1.5-1.5V35c0-0.8-0.7-1.5-1.5-1.5h-6.8c-0.8,0-1.5,0.7-1.5,1.5v0.7
		C51.9,36.6,52.6,37.2,53.4,37.2z"/>
	<path d="M22.4,28h6.7c0.5,0,0.8-0.5,0.8-1.1c0-0.6-0.4-1.1-0.8-1.1h-6.7c-0.5,0-0.8,0.5-0.8,1.1C21.5,27.5,21.9,28,22.4,28z"/>
	<path d="M33.5,23.2h18c0.8,0,1.4-0.6,1.4-1.4V16c0-0.8-0.6-1.4-1.4-1.4h-18c-0.8,0-1.4,0.6-1.4,1.4v5.8
		C32.1,22.6,32.7,23.2,33.5,23.2z M34.2,16.7h16.5V21H34.2V16.7z"/>
</g>
</svg>
