<?xml version="1.0" encoding="utf-8"?>
<!-- Generator: Adobe Illustrator 25.3.1, SVG Export Plug-In . SVG Version: 6.00 Build 0)  -->
<svg version="1.1" id="Layer_1" xmlns="http://www.w3.org/2000/svg" xmlns:xlink="http://www.w3.org/1999/xlink" x="0px" y="0px"
	 viewBox="0 0 53 53" style="enable-background:new 0 0 53 53;" xml:space="preserve">
<style type="text/css">
	.st0{fill:#FFC401;}
</style>
<g>
	<path class="st0" d="M52.4,19.2c-0.4-0.3-0.8-0.5-1.2-0.8c-1.1-0.7-2.2-1.4-3.3-2.1c-1.9-1.1-3.9-1.6-6-1.4c-3.2,0.2-5.2,1.6-6,4.3
		c-0.1,0-0.2-0.1-0.3-0.1c-0.4-0.1-0.7-0.3-1.1-0.4c-1.9-0.5-3.7-0.2-5.3,0.2c-0.7,0.1-1.5,0.3-2.2,0.5c-0.8,0.2-1.5,0.3-2.3,0.5
		C24.2,20,23.5,20,23,19.3c-0.3-0.5-0.5-1-0.7-1.5c-0.1-0.1-0.1-0.3-0.2-0.4l2.5,0.3v-0.5c0-0.1,0-0.2,0-0.3
		c-0.4-2.9-1.3-5.4-2.7-7.5c-2.5-3.8-6-5.7-10.4-5.7C9,3.7,6.7,4.5,4.9,6.3C3.3,7.6,2,8.8,0.8,9.9c-0.5,0.5-0.7,1-0.4,1.6
		c0.5,1.4,1.3,2.5,2.4,3.3C2.9,15,3,15.1,2.9,15.3v0.8c0,1.5,0,3,0,4.5c0,0.8,0.2,1.6,0.4,2.2c0.3,0.9,1,1.5,1.8,1.7
		s1.7-0.1,2.3-0.8c0.5-0.5,0.9-1.2,1.3-2c0.4-0.9,1-1.6,1.8-2.3c0,0.1,0,0.2,0,0.4c0,0.4-0.1,0.8-0.1,1.2c-0.1,0.7-0.1,1.4-0.1,2.1
		c-0.1,2.4,0.3,4.3,1.3,6c0.3,0.6,0.3,1.1,0,1.6L10.8,32c-0.8,1.3-1.7,2.6-2.6,3.9c-0.4,0.6-0.8,1.1-1.3,1.6
		c-0.2,0.2-0.3,0.4-0.5,0.6l-2.7-1.7L1.6,40l0.2,0.1c0.5,0.4,1.1,0.8,1.6,1.2c1.2,0.8,2.2,1.6,3.4,2.4c3.1,2.2,6.5,3.6,10.1,4.4
		c2.9,0.6,5.9,1,8.8,1.1c0.5,0,0.9,0,1.4,0c5.6,0,10.4-1.4,14.7-4.2c2-1.4,3.9-2.9,5.6-4.8l0.1-0.1L44.7,36l-2.5,2.8
		c-0.2-0.4-0.4-0.8-0.6-1.2c-0.6-1.3-1.2-2.5-1.7-3.7c-0.3-0.8-0.4-1.7-0.4-2.3c0-0.8,0-1.7,0.1-2.5c0-0.5,0.1-1.1,0.1-1.6v-0.1
		c0-1.2,0.1-2.5-0.4-3.7c-0.3-0.8,0.1-1.8,0.8-2.4c0.5-0.5,1.1-0.4,1.9,0c1.1,0.7,2.2,1.5,3.4,2.4c0.5,0.4,1,0.8,1.6,1.3
		c0.2,0.2,0.5,0.4,0.7,0.6l0.2,0.2l1.3-1.5c1.1-1.3,2.2-2.5,3.3-3.7c0.2-0.2,0.3-0.5,0.3-0.7C52.8,19.7,52.7,19.4,52.4,19.2z
		 M7.3,21.4C7,22,6.7,22.5,6.2,22.9C5.9,23,5.6,23.1,5.4,23c-0.3-0.1-0.5-0.3-0.6-0.7c-0.2-0.6-0.3-1.2-0.3-1.8c0-0.1,0-0.3-0.1-0.4
		L7.3,21.4z M38.3,21.1L38.2,21c-0.3-0.3-0.7-0.6-0.9-0.9v-0.2c0.5-1.7,1.6-2.8,3.6-3.2c1.6-0.4,3.3-0.2,5,0.5
		c1.6,0.6,3,1.5,4.4,2.5c0.2,0.2,0.5,0.3,0.7,0.5l-3.1,3.5c-0.2-0.2-0.4-0.4-0.7-0.6c-0.6-0.5-1.2-1-1.9-1.5
		c-0.8-0.6-1.7-1.2-2.7-1.7c-0.6-0.3-1.1-0.5-1.6-0.5c-0.3,0-0.5,0-0.8,0.1C39.4,19.7,38.8,20.3,38.3,21.1z M33.6,43.5
		c-4.5,1.1-9.1,1.1-14.3,0.1c-3-0.6-5.7-1.5-8-2.7c-0.1,0-0.2-0.1-0.3-0.2c0,0,0-0.1,0.1-0.1c0.1-0.2,0.3-0.4,0.4-0.6
		c1.9-2.4,3.5-4.5,5.1-6.4l0.2-0.1c4.8,1.8,9.7,1.5,14.8-1.1c0.3-0.2,0.5-0.1,0.7,0.1c1.7,1.7,3,3.8,4.3,5.8c0.3,0.6,0.7,1.1,1,1.7
		c0.2,0.4,0.4,0.7,0.7,1.1l0.2,0.3C36.9,42.4,35.3,43.1,33.6,43.5z M39.7,40.5c-0.1-0.1-0.1-0.2-0.2-0.3c-0.4-0.6-0.7-1.1-1.1-1.7
		c-0.8-1.3-1.6-2.6-2.5-3.9c-0.7-1-1.6-2-2.4-2.9l-0.4-0.5c-0.2-0.3-0.6-0.6-1.2-0.6c-0.3,0-0.7,0.1-1.1,0.3
		c-1.7,0.9-3.4,1.5-5.2,1.8c-3.5,0.6-6.4,0.2-9.4-1.2L16,31.4l-6.6,8.3l-1.9-1c1.7-1.8,3-3.9,4.3-6c0.3-0.4,0.6-0.9,0.8-1.3
		c0.7-1.1,0.7-2.1,0.1-3.2c-1.2-2.1-1.2-4.4-1.1-6.4c0-0.3,0-0.6,0.1-0.9c0-0.3,0.1-0.6,0.1-0.9c0-0.4,0-0.8,0-1.2v-0.1
		c0-0.6-0.1-1.3-0.8-1.6c-0.8-0.3-1.2,0.2-1.5,0.6l-0.1,0.1c-0.2,0.2-0.3,0.4-0.5,0.6c-0.3,0.3-0.6,0.7-0.8,1
		c-0.1,0.1-0.2,0.1-0.3,0.1c-1.2-0.2-2.3-0.8-3.3-1.7c-0.1-0.1-0.1-0.2-0.1-0.3c0-1,0-2,0-3.2c0-0.1,0-0.3,0.1-0.5l0.2-0.4
		C5,12.7,5.3,12,5.6,11.3c0.9-1.8,2.5-2.6,4.9-2.6c1.2,0,2.3,0.3,3.2,0.8c2.3,1.3,4,2.8,5.5,4.7c0.7,1,1.1,2.1,1.5,3.2l0.1,0.2
		c0.2,0.4,0.3,0.8,0.5,1.3c0.1,0.2,0.2,0.4,0.3,0.6c0.1,0.1,0.1,0.3,0.1,0.4c0.1,1.6-0.2,2.9-0.9,4.1c-0.4,0.6-0.5,1.1-0.3,1.6
		c0.2,0.4,0.5,0.8,1.2,1c0.6,0.2,1.1,0.3,1.8,0.5c0.2,0,0.4,0.1,0.6,0.1L24,29.1h-2v1.5h3.3l0.3-2.9h0.5c0.5,0,1.1-0.1,1.6-0.1
		c0.2,0,0.5-0.1,0.7-0.1c0.1,0,0.3,0,0.4-0.1c1.3-0.2,2.1-0.9,2.5-2.1c0.6-1.6,0.8-3.3,0.9-4.8v-0.4c0.1,0,0.2,0,0.3,0
		c0.4,0,0.7,0,1,0.1c3.4,0.7,4.5,2,4.7,5.5c0.1,1.6,0,3.3-0.1,5v0.6c-0.1,1.4,0.2,2.7,0.8,4c0.5,1.1,1,2.1,1.6,3.2l0.6,1.2
		L39.7,40.5z M30.7,20.2c0,0.1,0,0.2,0,0.3c0,0.4,0,0.8-0.1,1.2c-0.2,1.1-0.5,2.2-0.7,3.4c-0.1,0.5-0.4,0.7-1,0.8
		c-2.1,0.4-4.1,0.4-6,0c-0.1,0-0.2,0-0.3-0.1c-0.3-0.1-0.5-0.2-0.5-0.3c0,0,0-0.2,0.2-0.5c0.6-1,0.9-2.1,1-3.3c0-0.2,0-0.3,0-0.5
		l0,0c1,0.3,1.9,0.1,2.7-0.1h0.1c1.3-0.3,2.6-0.5,3.8-0.8l0.3-0.1C30.5,20.2,30.6,20.2,30.7,20.2z M22.7,15.9c-0.4,0-0.7-0.1-1-0.2
		c0,0-0.2-0.1-0.2-0.2c-1.5-3-3.9-5.3-7.5-7.2c-1.1-0.6-2.3-0.9-3.5-0.9C9.3,7.5,8,7.8,6.7,8.4C6.4,8.5,6.1,8.8,5.8,9
		c-1.1,1.1-1.9,2.5-2.5,4c0,0.1-0.1,0.1-0.1,0.2C2.5,12.5,2,11.8,1.7,11c0,0,0.1-0.1,0.1-0.2c0.4-0.4,0.8-0.7,1.2-1.1
		c1.1-1,2.2-2.1,3.4-3C7.5,5.8,9,5.3,10.5,5.2c4.1-0.3,7.5,1.5,9.9,5.1C21.4,11.8,22.2,13.6,22.7,15.9L22.7,15.9z M33.1,45.2
		c2.3-0.4,4.3-1.3,6.2-2.5c1.4-0.9,2.7-1.8,3.8-2.7c0.4-0.3,0.8-0.7,1.2-1.2c0.1-0.1,0.2-0.2,0.3-0.3l1,1.5l-0.2,0.2
		c-0.3,0.2-0.6,0.5-0.8,0.7c-4.9,4.7-11,7-18,6.9c-3.1-0.1-6.3-0.4-9.5-1.1c-3.6-0.8-7.1-2.4-10.7-5c-0.7-0.5-1.3-1-2-1.5l-0.8-0.6
		l0.6-1.1c0.1,0.1,0.2,0.1,0.3,0.2l0.2,0.1c2.5,1.6,5,3.2,7.8,4.3C19.3,45.8,26.2,46.5,33.1,45.2z"/>
	<path class="st0" d="M6.3,15.2c-0.3,0-0.5,0.1-0.7,0.3S5.3,16,5.3,16.2c0,0.5,0.5,1,1,1l0,0c0.6,0,1-0.5,1-1
		C7.3,15.6,6.9,15.2,6.3,15.2z"/>
</g>
</svg>
