<?xml version="1.0" encoding="utf-8"?>
<!-- Generator: Adobe Illustrator 25.2.3, SVG Export Plug-In . SVG Version: 6.00 Build 0)  -->
<svg version="1.1" id="Layer_1" xmlns="http://www.w3.org/2000/svg" xmlns:xlink="http://www.w3.org/1999/xlink" x="0px" y="0px"
	 viewBox="0 0 53 53" style="enable-background:new 0 0 53 53;" xml:space="preserve">
<style type="text/css">
	.st0{fill:#FFFFFF;}
</style>
<circle cx="26.5" cy="26.5" r="26.5"/>
<path class="st0" d="M12.4,19.7c0-1.5,0.7-2.9,1.4-4.2c1-2,2.9-2.8,5.1-2.8c0.5,0,1.1,0.4,1.3,0.8c1.1,1.7,2.1,3.5,3.2,5.3
	c0.6,1,0.3,1.9-0.5,2.6c-0.6,0.6-1.3,1-1.9,1.5c-0.6,0.5-0.7,1.1-0.3,1.8c1.9,3.3,4.4,6,7.7,7.9c1,0.6,1.6,0.5,2.3-0.4
	c2.4-3,2.4-3,5.7-1.1c0.9,0.5,1.8,1.1,2.8,1.6c1.3,0.7,1.7,1.7,1.3,3.1C40,37.6,39,39,37.2,39.7c-2.7,1.1-5.5,1.3-8.2,0.1
	c-6.9-3-12.2-7.9-15.2-15C13.1,23.3,12.5,21.2,12.4,19.7z"/>
</svg>
