<?xml version="1.0" encoding="utf-8"?>
<!-- Generator: Adobe Illustrator 25.3.1, SVG Export Plug-In . SVG Version: 6.00 Build 0)  -->
<svg version="1.1" id="Layer_1" xmlns="http://www.w3.org/2000/svg" xmlns:xlink="http://www.w3.org/1999/xlink" x="0px" y="0px"
	 viewBox="0 0 53 53" style="enable-background:new 0 0 53 53;" xml:space="preserve">
<style type="text/css">
	.st0{fill:#FFC401;}
</style>
<path class="st0" d="M26.5,0C11.9,0,0,11.9,0,26.5C0,41.1,11.9,53,26.5,53S53,41.1,53,26.5C53,11.9,41.1,0,26.5,0z M40.5,35.8
	C40,37.6,39,39,37.2,39.7c-2.7,1.1-5.5,1.3-8.2,0.1c-6.9-3-12.2-7.9-15.2-15c-0.7-1.5-1.3-3.6-1.4-5.1c0-1.5,0.7-2.9,1.4-4.2
	c1-2,2.9-2.8,5.1-2.8c0.5,0,1.1,0.4,1.3,0.8c1.1,1.7,2.1,3.5,3.2,5.3c0.6,1,0.3,1.9-0.5,2.6c-0.6,0.6-1.3,1-1.9,1.5
	s-0.7,1.1-0.3,1.8c1.9,3.3,4.4,6,7.7,7.9c1,0.6,1.6,0.5,2.3-0.4c2.4-3,2.4-3,5.7-1.1c0.9,0.5,1.8,1.1,2.8,1.6
	C40.5,33.4,40.9,34.4,40.5,35.8z"/>
</svg>
