<?xml version="1.0" encoding="utf-8"?>
<!-- Generator: Adobe Illustrator 25.3.1, SVG Export Plug-In . SVG Version: 6.00 Build 0)  -->
<svg version="1.1" id="Layer_1" xmlns="http://www.w3.org/2000/svg" xmlns:xlink="http://www.w3.org/1999/xlink" x="0px" y="0px"
	 viewBox="0 0 53 53" style="enable-background:new 0 0 53 53;" xml:space="preserve">
<style type="text/css">
	.st0{fill:#FFC401;}
</style>
<g>
	<path class="st0" d="M26.5,6.7c7.9,0,15.8,0,23.8,0c0.6,0,1.1,0.2,1.6,0.5C52.6,7.8,53,8.5,53,9.4c0,0.1,0,0.3,0,0.4
		c0,11.2,0,22.4,0,33.6c0,0.4-0.1,0.9-0.3,1.3c-0.5,1-1.3,1.5-2.3,1.6c-0.1,0-0.2,0-0.3,0c-15.8,0-31.5,0-47.3,0
		c-0.5,0-0.9,0-1.3-0.3c-1-0.5-1.6-1.3-1.6-2.5C0,37,0,30.5,0,23.9c0-4.8,0-9.7,0-14.5c0-1,0.5-1.8,1.3-2.3c0.4-0.3,0.9-0.4,1.4-0.4
		c5.4,0,10.8,0,16.2,0C21.4,6.7,24,6.7,26.5,6.7z M50.4,43.4c0.1-0.3,0-28.6,0-28.8c-15.9,0-31.8,0-47.7,0c0,9.6,0,19.2,0,28.8
		C18.6,43.4,34.5,43.4,50.4,43.4z M26.5,12c1.6,0,3.2,0,4.8,0c0.1,0,0.2,0,0.2,0c0.6,0,1.1-0.4,1.3-1s-0.1-1.2-0.6-1.5
		c-0.3-0.2-0.6-0.2-0.9-0.2c-3.3,0-6.5,0-9.8,0c-0.1,0-0.1,0-0.2,0c-0.6,0-1.1,0.4-1.3,1c-0.2,0.6,0,1.1,0.5,1.5
		c0.3,0.2,0.6,0.3,0.9,0.3C23.2,12,24.8,12,26.5,12z"/>
	<path class="st0" d="M15.1,37.4c0.4-0.2,0.7-0.4,0.9-0.7c0.5-0.6,0.9-1.2,1.1-2c0-0.1,0.1-0.2,0.1-0.2c0.6-0.7,1.3-1.3,1.9-2
		c0,0,0,0,0.1,0c0.2,0.1,0.4,0.1,0.6,0.2c1.3,0.4,2.5,0.8,3.8,1.2c0.2,0.1,0.2,0.1,0.3,0.3c0.1,1.5,0.3,3.1,0.4,4.6
		c0,0.2,0,0.5,0.1,0.7l0,0l0,0h-0.1c-6,0-12,0-18,0c0,0,0,0-0.1,0c0.2-1.9,0.3-3.7,0.5-5.6c1.6-0.5,3.2-1,4.9-1.4
		c0.1,0,0.1,0.1,0.2,0.1c0.5,0.5,1,1,1.5,1.5c0.1,0.1,0.2,0.2,0.2,0.4c0.2,0.7,0.5,1.3,0.9,1.9c0.2,0.2,0.4,0.5,0.6,0.7
		C14.8,37.3,15,37.3,15.1,37.4z"/>
	<path class="st0" d="M11.3,24.3c-0.3,2-0.1,3.9,0.9,5.6c-0.6,0.2-1.3,0.4-1.9,0.7c0-0.1-0.1-0.1-0.1-0.2c-0.6-1.5-0.9-3-0.9-4.6
		c0.1-1.6,0.6-3.1,1.7-4.4c0.9-1,2-1.6,3.3-1.9c0.4-0.1,0.8-0.1,1.2,0c0.9,0.1,1.7,0.2,2.5,0.6c1.5,0.7,2.4,1.8,2.8,3.3
		c0.5,1.8,0.6,3.6,0.1,5.5c-0.1,0.5-0.3,1-0.5,1.5c0,0.1-0.1,0.2-0.1,0.3c-0.7-0.2-1.3-0.5-2-0.7c0.4-0.7,0.8-1.3,1.1-2.1
		c0.3-0.7,0.5-1.5,0.4-2.3c-0.1,0-0.2,0-0.2,0c-1.2,0.2-2.4,0.1-3.5-0.3c-1-0.3-1.8-0.9-2.5-1.6c0,0-0.1-0.1-0.1-0.2
		C12.8,24,12.1,24.3,11.3,24.3z"/>
	<path class="st0" d="M46.6,19.5c0,1.2,0,2.3,0,3.5c-6.1,0-12.2,0-18.3,0c-0.1-0.2-0.1-3.2,0-3.5C28.5,19.4,46.4,19.4,46.6,19.5z"/>
	<path class="st0" d="M37.4,27.4c0,0.5,0,1,0,1.6c-3.1,0-6.1,0-9.2,0c0-0.5,0-1.1,0-1.6C28.4,27.3,37.2,27.3,37.4,27.4z"/>
	<path class="st0" d="M28.3,35.1c0-0.5,0-1.1,0-1.6c3.1,0,6.1,0,9.1,0c0,0.5,0,1.1,0,1.6C37.2,35.1,28.6,35.1,28.3,35.1z"/>
	<path class="st0" d="M15.2,33.5c-1,0-1.8-0.3-2.5-0.9c-0.1-0.1-0.1-0.1-0.2-0.2c-0.1-0.1,0-0.3,0.1-0.4c0.1-0.1,0.3-0.1,0.4,0
		l0.1,0.1c1.2,0.9,2.5,0.9,3.7,0.1c0.1,0,0.1-0.1,0.2-0.1c0.2-0.1,0.4-0.1,0.5,0.1s0.1,0.4-0.1,0.5c-0.5,0.4-1.1,0.7-1.8,0.8
		C15.5,33.4,15.3,33.4,15.2,33.5z"/>
</g>
</svg>
