<?xml version="1.0" encoding="utf-8"?>
<!-- Generator: Adobe Illustrator 25.3.1, SVG Export Plug-In . SVG Version: 6.00 Build 0)  -->
<svg version="1.1" id="Layer_1" xmlns="http://www.w3.org/2000/svg" xmlns:xlink="http://www.w3.org/1999/xlink" x="0px" y="0px"
	 viewBox="0 0 53 53" style="enable-background:new 0 0 53 53;" xml:space="preserve">
<style type="text/css">
	.st0{fill:#FFFFFF;}
</style>
<g>
	<path class="st0" d="M7.5,26.5c0-7.4,0-14.8,0-22.2C7.5,1.8,9.4,0,11.9,0c9.8,0.1,19.7,0,29.5,0c1.9,0,3.4,1.1,4,2.9
		c0.1,0.4,0.2,0.9,0.2,1.3c0,12.1,0,24.3,0,36.4c0,0.4-0.1,0.7-0.4,0.9c-3.3,3.1-6.6,6.3-10,9.5c-0.6,0.6-1.2,1.2-1.8,1.7
		c-0.2,0.1-0.4,0.2-0.6,0.2c-7.1,0-14.1,0-21.2,0c-2.3,0-4-1.9-4-4.1C7.6,41.4,7.5,34,7.5,26.5z M43.7,41.6c0-0.2,0-0.4,0-0.6
		c0-12.2,0-24.5,0-36.7c0-1.6-0.9-2.5-2.5-2.5c-9.8,0-19.6,0-29.4,0c-1.6,0-2.5,0.9-2.5,2.5c0,14.8,0,29.6,0,44.4
		c0,1.6,0.9,2.5,2.5,2.5c7.2,0,14.4,0,21.6,0c0.2,0,0.4,0,0.6,0c0-0.3,0-0.5,0-0.7c0-2.1,0-4.3,0-6.4c0-1.5,1-2.5,2.5-2.5
		c1.9,0,3.8,0,5.6,0C42.7,41.6,43.1,41.6,43.7,41.6z"/>
	<path class="st0" d="M19.4,4.3c0.5,0,0.9,0.1,1.3,0c1.6-0.3,2.7,1.3,2.7,2.6c0,0.9,0,1.8,0.2,2.6c0.1,0.6,0.2,1.2,0,1.8
		c-0.2,0.5-0.3,1-0.7,1.3C22.3,13,22.2,13.4,22,14c-0.5,1.5-2,2.4-3.6,2.1c-0.8-0.1-1.2-0.8-1.5-1.4c-0.2-0.3-0.3-0.7-0.4-1.1
		c-0.1-0.5-0.3-0.9-0.9-0.9c-0.4,0-0.8-0.3-0.9-0.7c-0.2-0.6-0.3-1.3-0.4-1.9c-0.1-0.3,0.1-0.6,0.5-0.7C15,9.3,15,9.1,14.9,8.8
		c-0.3-0.8-0.2-1.7-0.1-2.5c0-0.3,0.3-0.5,0.5-0.7c0.4-0.4,0.8-0.7,1.3-1C17.5,4,18.5,4.3,19.4,4.3z"/>
	<path class="st0" d="M20.4,16.9c-0.1,0.5-0.3,1-0.3,1.5c0,0.4,0.2,0.8,0.2,1.2c0.1,0,0.1,0,0.2,0c0.6-1.5,1.1-3,1.7-4.5
		c1.3,0.5,2.5,1.1,3.4,2.2c0.7,0.9,1,2,0.9,3.2c0,0.1-0.2,0.3-0.3,0.3c-1.7,0.7-3.4,1.2-5.2,1.1c-1.2-0.1-2.4,0-3.6,0
		c-1.9,0-3.6-0.5-5.2-1.3c-0.1,0-0.2-0.2-0.2-0.3c-0.1-1.5,0.3-2.8,1.5-3.7c0.7-0.5,1.4-0.9,2.1-1.4c0.2-0.1,0.5-0.2,0.7-0.3
		c0.6,1.6,1.1,3.2,1.7,4.8c0.3-0.5,0.5-0.8,0.3-1.4c-0.1-0.4-0.1-0.9-0.1-1.3C18.9,16.9,19.6,16.9,20.4,16.9z"/>
	<path class="st0" d="M41.2,37c-10,0-20,0-29.9,0c0-0.4,0-0.8,0-1.2c10,0,19.9,0,29.9,0c0,0.2,0,0.4,0,0.6
		C41.2,36.6,41.2,36.8,41.2,37z"/>
	<path class="st0" d="M41.2,24.4c0,0.4,0,0.8,0,1.2c-10,0-19.9,0-29.9,0c0-0.4,0-0.8,0-1.2C21.2,24.4,31.2,24.4,41.2,24.4z"/>
	<path class="st0" d="M11.3,32.1c10,0,19.9,0,29.9,0c0,0.4,0,0.8,0,1.2c-10,0-19.9,0-29.9,0C11.3,32.9,11.3,32.5,11.3,32.1z"/>
	<path class="st0" d="M11.2,29.6c0-0.5,0-0.8,0-1.2c9.9,0,19.9,0,29.9,0c0,0.3,0,0.7,0,1.1c0,0.1-0.2,0.1-0.3,0.2
		c-0.2,0-0.4,0-0.6,0c-9.5,0-18.9,0-28.4,0C11.7,29.6,11.5,29.6,11.2,29.6z"/>
	<path class="st0" d="M27,41.5c-5.2,0-10.5,0-15.7,0c0-0.4,0-0.8,0-1.2c5.2,0,10.5,0,15.7,0C27,40.7,27,41.1,27,41.5z"/>
	<path class="st0" d="M41.2,20.6c0,0.4,0,0.8,0,1.2c-3.9,0-7.8,0-11.8,0c0-0.4,0-0.8,0-1.2C33.3,20.6,37.2,20.6,41.2,20.6z"/>
</g>
</svg>
