<?xml version="1.0" encoding="utf-8"?>
<!-- Generator: Adobe Illustrator 25.2.3, SVG Export Plug-In . SVG Version: 6.00 Build 0)  -->
<svg version="1.1" id="Layer_1" xmlns="http://www.w3.org/2000/svg" xmlns:xlink="http://www.w3.org/1999/xlink" x="0px" y="0px"
	 viewBox="0 0 53 53" style="enable-background:new 0 0 53 53;" xml:space="preserve">
<g>
	<path d="M48.2,53c-6.2,0-12.5,0-18.7,0c-0.3-0.3-0.6-0.6-0.8-0.9c-1-2.5-1.9-4.9-2.8-7.4c-0.1-0.4-0.3-0.5-0.8-0.5
		c-6.5,0-13,0-19.5,0c-3.3,0-5.7-2.4-5.7-5.7C0,27.5,0,16.6,0,5.7C0,2.4,2.4,0,5.7,0c5.7,0,11.5,0,17.2,0c0.9,0,1.1,0.2,1.4,1
		c0.8,2.4,1.7,4.7,2.4,7.1c0.2,0.5,0.4,0.7,0.9,0.7c6.5,0,13.1,0,19.6,0c2.8,0,5,1.7,5.6,4.4c0,0.1,0.1,0.3,0.1,0.4
		c0,11.6,0,23.1,0,34.7c0,0.1-0.1,0.2-0.1,0.3c-0.5,2.3-1.9,3.7-4.2,4.3C48.6,52.9,48.4,53,48.2,53z M36,41.9
		c-0.1-0.3-0.1-0.5-0.2-0.6C31.4,28.4,27,15.6,22.6,2.7c-0.1-0.4-0.3-0.5-0.7-0.5c-5.3,0-10.7,0-16,0c-2.2,0-3.6,1.4-3.6,3.6
		c0,10.8,0,21.7,0,32.5c0,2.2,1.6,3.7,3.7,3.6c9.8,0,19.7,0,29.5,0C35.5,41.9,35.7,41.9,36,41.9z M39.7,22.1c0.3,0,0.5,0,0.7,0
		c2.3,0,4.5,0,6.8,0c0.9,0,1.3,0.4,1.3,1.1c0,0.7-0.5,1.1-1.4,1.1c-0.6,0-1.2,0-1.8,0c-0.1,0-0.4,0.2-0.4,0.3
		c-0.8,2.8-2.3,5.2-4,7.5c-0.3,0.4-0.6,0.7-0.8,1.1c0.1,0.1,0.2,0.3,0.4,0.4c1.4,1.4,2.8,2.7,4.2,4.1c0.6,0.5,0.6,1.2,0.2,1.7
		c-0.5,0.5-1.1,0.5-1.7-0.1c-0.6-0.5-1.2-1.1-1.7-1.6c-0.9-0.9-1.9-1.8-2.8-2.7c-0.6,0.6-1.2,1.1-1.9,1.7c-0.3,0.2-0.3,0.4-0.2,0.7
		c0.6,1.7,1.2,3.4,1.8,5.1c0.2,0.6,0.1,1.1-0.3,1.6c-1.9,2.1-3.7,4.2-5.6,6.3c-0.1,0.1-0.2,0.3-0.4,0.5c0.3,0,0.4,0,0.6,0
		c4.7,0,9.5,0,14.2,0c2.3,0,3.7-1.4,3.7-3.7c0-10.8,0-21.6,0-32.5c0-2.2-1.6-3.7-3.6-3.7c-6.3,0.1-12.5,0-18.8,0c-0.2,0-0.4,0-0.6,0
		c1.3,3.8,2.5,7.4,3.8,11c2.1,0,4,0,6,0c0-0.4,0-0.7,0-1.1c0-0.6,0.5-1.1,1.1-1.1c0.6,0,1.1,0.5,1.1,1.1
		C39.8,21.3,39.7,21.7,39.7,22.1z M32.3,24.3c1.2,3.5,2.3,6.9,3.6,10.4c0.5-0.6,0.9-1,1.3-1.5c-0.3-0.3-0.7-0.7-1-1.2
		c-0.6-0.9-1.3-1.8-1.8-2.7c-0.3-0.6-0.1-1.2,0.4-1.5c0.6-0.3,1.2-0.1,1.6,0.6c0.6,1.2,1.5,2.2,2.3,3.2c1.7-2.3,3.2-4.6,4.1-7.3
		C39.3,24.3,35.9,24.3,32.3,24.3z M30.2,49.8c1.6-1.9,3.2-3.7,4.9-5.6c-2.4,0-4.6,0-7,0C28.8,46.1,29.5,47.9,30.2,49.8z"/>
	<path d="M22.1,29.7c0,0.7-0.3,1.1-0.9,1.2c-0.5,0.1-1-0.1-1.2-0.6c-0.2-0.6-0.4-1.1-0.6-1.7c-0.5-1.3-0.9-2.6-1.4-3.8
		c-0.1-0.3-0.3-0.4-0.6-0.4c-1.3,0-2.6,0-3.9,0c-0.3,0-0.4,0.1-0.5,0.4c-0.6,1.8-1.3,3.6-1.9,5.4c-0.2,0.6-0.7,0.9-1.2,0.9
		c-0.7-0.1-1.1-0.8-0.8-1.6c0.5-1.4,1-2.8,1.5-4.2c1.3-3.6,2.6-7.3,3.9-10.9c0.2-0.5,0.5-0.8,1-0.9c0.6,0,1,0.2,1.2,0.8
		c1.2,3.4,2.4,6.7,3.6,10.1c0.6,1.6,1.2,3.2,1.7,4.9C22,29.4,22,29.6,22.1,29.7z M15.5,17.6c-0.5,1.5-1.1,2.9-1.6,4.4
		c1.1,0,2.1,0,3.1,0C16.5,20.6,16,19.2,15.5,17.6z"/>
</g>
</svg>
