<?xml version="1.0" encoding="utf-8"?>
<!-- Generator: Adobe Illustrator 25.3.1, SVG Export Plug-In . SVG Version: 6.00 Build 0)  -->
<svg version="1.1" id="Layer_1" xmlns="http://www.w3.org/2000/svg" xmlns:xlink="http://www.w3.org/1999/xlink" x="0px" y="0px"
	 viewBox="0 0 53 53" style="enable-background:new 0 0 53 53;" xml:space="preserve">
<style type="text/css">
	.st0{fill:#FFFFFF;}
</style>
<g>
	<path class="st0" d="M44.8,3c0-1.9-1-3-3-3c-3,0-6,0-8.9,0c-7.3,0-14.5,0-21.8,0C9.3,0,8.2,1.1,8.2,2.8c0,2-0.1,3.9-0.1,5.9
		c0,13.2,0,26.4,0,39.6c0,1.8,1.4,2.9,2.9,2.9c4.4,0,8.1,0,12.5,0c0.2,0,0.4,0,0.7,0c-0.3-0.5-0.4-1.1-1-1.6
		c-0.2-0.2-0.5-0.3-0.8-0.3c-3.7,0-7.5,0-11.3,0c-0.8,0-0.9-0.2-0.9-1c0-1.1,0-2.1,0-3.2c0-0.4,0-0.8,0-1.2c3.2,0,6,0,9.2,0
		c-0.4-0.6-0.5-1-0.8-1.5c-0.2-0.4-0.5-0.5-0.9-0.5c-2.3,0-4.5,0-6.8,0c-0.5,0-0.7-0.1-0.7-0.7c0-10.4,0-20.9,0-31.3
		c0-0.2,0-0.4,0-0.6c10.8,0,21.5,0,32.2,0c0,10.9,0,21.7,0,32.6c-0.9,0-1.7,0-2.5,0c-0.2,0-0.5,0.2-0.5,0.3c-0.1,0.5,0,1.1,0,1.7
		c1,0,2,0,3.1,0c0,1.5,0,2.9,0,4.4c0,0.8-0.2,0.9-0.9,1c-1.1,0-3.8,0-3.8,0v2c0,0,3,0,4.3,0c1.5,0,2.6-1.1,2.6-2.6
		c0-2.3,0.1-4.6,0.1-7C44.8,28.7,44.8,15.8,44.8,3z M10.4,7.1c0-1.5,0-3,0-4.5c0-0.5,0.3-0.7,0.8-0.7c0.7,0,1.4,0,2.2,0
		c9.4,0,18.8,0,28.1,0c1.1,0,1.2,0.1,1.2,1.2c0,1.3,0,2.6,0,4C31.9,7.1,21.2,7.1,10.4,7.1z"/>
	<path class="st0" d="M17.7,33.8c0,1,0.3,1.3,1.3,1.3c1.4,0,2.4,0,3.8,0c0.3,0,0.4,0,0.8,0c0-0.5,0-1,0-1.4s-0.1-0.6-0.6-0.6
		c-1,0-1.6,0-2.5,0c-0.5,0-0.7-0.1-0.7-0.7c0-3,0-6,0-8.9c0-1.1-0.7-1.5-1.7-1.1c-0.4,0.2-0.8,0.4-1.3,0.6c-0.7-1.3-1.4-2.6-2.2-4
		c1.5-0.7,2.9-1.4,4.2-2c0.1-0.1,0.3-0.1,0.5-0.1c0.9,0,1.8,0,2.8,0c0.3,0,0.5,0.1,0.6,0.4c0.8,1.7,2.2,2.6,4,2.6s3.2-0.8,4-2.6
		c0.1-0.3,0.3-0.4,0.6-0.4c2-0.1,3.8,0,5.5,1.2c0.2,0.1,0.4,0.2,0.6,0.3c0.3,0.2,0.7,0.3,1,0.5c-0.8,1.4-1.5,2.7-2.2,4
		c-0.3-0.1-0.5-0.2-0.7-0.3c-1.2-0.6-1.9-0.2-1.9,1.2c0,2.9,0,5.8,0,8.6c0,0.8,0,0.8-0.8,0.8c-1.1,0-1.7,0-2.8,0c0,0.7,0,1.3,0,2
		c1.6,0,2.7,0,4.2,0c1.3,0,1.6-0.3,1.6-1.5c0-2.6,0-5.3,0-7.9c0-0.2,0-0.5,0-0.7c1.3,0.4,1.5,0.3,2.2-0.9c0.9-1.7,1.8-3.3,2.7-5
		c0.5-0.8,0.3-1.3-0.5-1.7c-1.6-0.8-3.2-1.5-4.8-2.3C35.3,15,35,15,34.7,15c-1.5,0-3,0-4.6,0c-0.7,0-1.1,0.3-1.2,1.1
		c-0.2,1.2-1,1.9-2.1,1.9s-2-0.7-2.2-1.9c-0.1-0.9-0.4-1.1-1.3-1.1c-1.5,0-2.9,0-4.4,0c-0.2,0-0.5,0-0.7,0.1
		c-1.8,0.9-3.7,1.7-5.5,2.6c-0.6,0.3-0.8,0.8-0.5,1.4c1,1.9,2,3.8,3.1,5.6c0.4,0.6,0.9,0.8,1.6,0.5c0.2-0.1,0.4-0.2,0.8-0.3
		c0,0.3,0,0.5,0,0.8C17.7,28.4,17.7,31.1,17.7,33.8z"/>
	<path class="st0" d="M38,44.7c0.2-1.7,0.1-3.3,0-4.4c0-0.4,0-0.8,0-1c0-0.8-0.6-1.5-1.5-1.8c-0.7-0.2-1.4-0.2-2,0.1
		c-0.4-0.3-0.9-0.7-1.7-0.8c-0.6-0.1-1,0.1-1.3,0.3c0-0.1-0.1-0.1-0.2-0.2c-0.3-0.3-0.9-0.7-1.8-0.6c-0.1,0-0.3,0-0.4,0.1
		c0-1,0-2.2,0-3.2c0-0.9-0.1-3.5-2.4-3.5c-0.5,0-2.2,0.2-2.2,3.2v7.2c-0.7-0.5-1.7-1-2.8-1c-0.8,0-1.9,0.2-2.3,1s0.2,1.7,0.6,2.3
		c0.3,0.4,0.6,0.8,0.9,1.1c0.5,0.6,0.9,1.1,1.2,1.7l0.1,0.1c0.4,0.8,1.4,2.8,2.5,3.8c0.6,0.5,1.1,2.2,1.3,3.1
		c0.1,0.4,0.4,0.6,0.7,0.6h9c0.4,0,0.7-0.3,0.7-0.7c0-0.1,0.2-2,0.1-3.8c0-0.6,0.1-0.9,0.4-1.4C37.5,46.7,37.9,46,38,44.7z
		 M36.5,44.5c-0.1,1-0.4,1.4-0.7,1.9s-0.7,1.1-0.6,2.2c0.1,1.1,0,2.2,0,2.9h-7.7c-0.2-0.9-0.7-2.6-1.7-3.4c-0.9-0.8-1.8-2.6-2.1-3.3
		l-0.1-0.2c-0.4-0.8-0.9-1.4-1.5-2.1c-0.3-0.3-0.5-0.6-0.8-1s-0.4-0.7-0.4-0.7c0.1,0,0.3-0.2,1-0.2c1.6-0.1,2.8,1.7,2.9,1.7
		c0.2,0.3,0.5,0.4,0.8,0.3c0.3-0.1,0.5-0.4,0.5-0.7v-9c0-0.4,0.1-1.7,0.7-1.7c0.4,0,0.9,0,0.9,2c0,1.8,0,4.3,0,5.1
		c0,0.1,0,0.2,0,0.3c0,0.4,0.4,0.7,0.8,0.7s0.7-0.3,0.7-0.7c0,0,0-0.1,0-0.2c0-0.3,0.1-0.5,0.5-0.5s0.6,0.1,0.6,0.2
		c0.2,0.2,0.3,0.7,0.2,1c0,0.1,0,0.1,0,0.1c0,0.4,0.3,0.7,0.7,0.8c0.4,0,0.8-0.2,0.8-0.6v-0.1c0-0.2,0.1-0.5,0.3-0.7
		c0,0,0.1-0.1,0.3-0.1c0.8,0.1,1,0.5,1,0.6c0.1,0.3,0.3,0.5,0.6,0.5c0.3,0.1,0.6-0.1,0.7-0.3c0.4-0.5,1-0.3,1.1-0.3
		c0.3,0.1,0.5,0.3,0.5,0.4c0,0.3,0,0.7,0,1.1C36.6,41.5,36.7,42.9,36.5,44.5z"/>
</g>
</svg>
