<?xml version="1.0" encoding="utf-8"?>
<!-- Generator: Adobe Illustrator 25.3.1, SVG Export Plug-In . SVG Version: 6.00 Build 0)  -->
<svg version="1.1" id="Layer_1" xmlns="http://www.w3.org/2000/svg" xmlns:xlink="http://www.w3.org/1999/xlink" x="0px" y="0px"
	 viewBox="0 0 53 53" style="enable-background:new 0 0 53 53;" xml:space="preserve">
<style type="text/css">
	.st0{fill:#FFC401;}
</style>
<g>
	<path class="st0" d="M0,15.3c0.7-1.9,2.3-2.4,4.1-2.5c2.3-0.1,4.6,0,6.9,0c4.9,0,9.9,0,14.8,0c0.2,0,0.4,0,0.7,0
		c-0.2,0.2-0.3,0.3-0.4,0.4c-1.7,1.7-3.4,3.4-5.1,5.1c-0.2,0.2-0.5,0.3-0.8,0.3c-4.5,0-9.1,0-13.6,0c-0.2,0-0.4,0-0.7,0
		c0,9.4,0,18.8,0,28.2c9.4,0,18.8,0,28.2,0c0-0.2,0-0.4,0-0.6c0-4.1,0-8.2,0-12.3c0-0.4,0.1-0.7,0.4-0.9c1.7-1.7,3.3-3.3,5-5
		c0.1-0.1,0.2-0.2,0.4-0.4c0,0.2,0,0.4,0,0.5c0,6.8,0,13.6,0,20.3c0,0.4,0,0.9-0.1,1.3c-0.3,1.4-0.9,2.5-2.3,3c-11.3,0-22.6,0-34,0
		C3,52.6,2.4,52.4,1.9,52c-1-0.7-1.5-1.6-1.9-2.7C0,38,0,26.7,0,15.3z"/>
	<path class="st0" d="M53,9.5c-0.9,1-1.8,2-2.6,2.9c-3.1-3.1-6.1-6.1-9.2-9.2c0.8-0.7,1.6-1.6,2.5-2.4c1.5-1.2,3.7-1.1,5.1,0.3
		c1.1,1.1,2.2,2.2,3.3,3.3c0.4,0.4,0.6,0.9,0.9,1.4C53,7.1,53,8.3,53,9.5z"/>
	<path class="st0" d="M48.4,14.2c-6.3,6.4-12.7,12.7-19,19c-3-3-6-6-9-9c6.3-6.3,12.7-12.7,19-19C42.4,8.2,45.4,11.2,48.4,14.2z"/>
	<path class="st0" d="M18.9,35.2c0-3,0-6,0-9c2.8,3,5.6,6,8.4,9C24.5,35.2,21.7,35.2,18.9,35.2z"/>
</g>
</svg>
