<?xml version="1.0" encoding="utf-8"?>
<!-- Generator: Adobe Illustrator 25.3.1, SVG Export Plug-In . SVG Version: 6.00 Build 0)  -->
<svg version="1.1" id="Layer_1" xmlns="http://www.w3.org/2000/svg" xmlns:xlink="http://www.w3.org/1999/xlink" x="0px" y="0px"
	 viewBox="0 0 53 53" style="enable-background:new 0 0 53 53;" xml:space="preserve">
<g>
	<path d="M26.5,45.2c-7.8,0-15.7,0-23.5,0c-1,0-1.8-0.4-2.2-1.3c-0.1-0.2-0.2-0.5-0.2-0.8c0-1.2,0-2.5,0-3.7c0-0.3,0.2-0.6,0.4-0.8
		c2.9-2.9,5.8-5.7,8.6-8.6c1.4-1.4,2.8-2.8,4.2-4.2c0.3-0.3,0.5-0.3,0.8-0.1c2.6,2,5.1,3.9,7.7,5.9c1.2,0.9,2.5,1.9,3.7,2.8
		c0.3,0.2,0.6,0.2,0.9,0c3.2-2.5,6.4-4.9,9.6-7.4c0.6-0.4,1.2-0.9,1.7-1.3c0.3-0.3,0.6-0.3,0.9,0c3.7,3.6,7.3,7.2,11,10.8
		c0.7,0.7,1.4,1.3,2,2c0.2,0.2,0.3,0.5,0.4,0.8c0,1.2,0,2.4,0,3.6c0.1,1.2-1.2,2.2-2.3,2.2c-3.4,0-6.9,0-10.3,0
		C35.4,45.2,30.9,45.2,26.5,45.2C26.5,45.2,26.5,45.2,26.5,45.2z"/>
	<path d="M26.4,7.8c7.8,0,15.6,0,23.5,0c1.1,0,1.9,0.3,2.4,1.4c0.4,0.8,0.2,1.7-0.5,2.2c-3.6,2.7-7.2,5.5-10.8,8.2
		c-4.6,3.5-9.3,7.1-13.9,10.7c-0.6,0.5-0.6,0.5-1.3,0c-3.9-3-7.8-5.9-11.7-8.9c-4-3-7.9-6-11.9-9.1c-0.4-0.3-0.9-0.7-1.3-1
		c-0.3-0.2-0.4-0.5-0.4-0.9c0-1,0.3-1.9,1.3-2.3c0.4-0.2,0.9-0.2,1.4-0.2c5.6,0,11.1,0,16.7,0C22,7.8,24.2,7.8,26.4,7.8
		C26.4,7.8,26.4,7.8,26.4,7.8z"/>
	<path d="M52.5,24.2c0,2.9,0,5.8,0,8.7c0,0.2-0.1,0.3-0.2,0.5c-0.1-0.1-0.3-0.1-0.4-0.2c-2.9-2.9-5.8-5.7-8.7-8.6
		c-0.4-0.4-0.8-0.8-1.2-1.1c-0.3-0.3-0.3-0.5,0-0.8c1.7-1.3,3.5-2.6,5.2-4c1.5-1.2,3.1-2.4,4.6-3.5c0.1-0.1,0.3-0.1,0.4-0.2
		c0.1,0.1,0.2,0.3,0.2,0.4C52.5,18.4,52.5,21.3,52.5,24.2C52.5,24.2,52.5,24.2,52.5,24.2z"/>
	<path d="M0.5,24.3c0-2.9,0-5.9,0-8.8c0-0.1,0.1-0.3,0.2-0.4c0.1,0,0.3,0.1,0.4,0.1c1.9,1.4,3.7,2.8,5.6,4.3
		c1.4,1.1,2.9,2.2,4.3,3.3c0.3,0.3,0.3,0.4,0,0.8c-1.2,1.2-2.5,2.4-3.7,3.7c-2.1,2-4.1,4.1-6.2,6.1c-0.1,0.1-0.2,0.1-0.4,0.2
		c0-0.2-0.1-0.3-0.1-0.5C0.5,30.2,0.5,27.2,0.5,24.3C0.5,24.3,0.5,24.3,0.5,24.3z"/>
</g>
</svg>
