<?xml version="1.0" encoding="utf-8"?>
<!-- Generator: Adobe Illustrator 25.3.1, SVG Export Plug-In . SVG Version: 6.00 Build 0)  -->
<svg version="1.1" id="Layer_1" xmlns="http://www.w3.org/2000/svg" xmlns:xlink="http://www.w3.org/1999/xlink" x="0px" y="0px"
	 viewBox="0 0 53 53" style="enable-background:new 0 0 53 53;" xml:space="preserve">
<g>
	<path d="M53,17.8c0-3.6-1.6-5.2-5.3-5.2c-3.8,0-7.6,0-11.5,0c-2.1,0-4.3,0-6.6,0c0-1,0-1.8,0-2.7c0-2.4-0.7-3.1-3.1-3.1
		c-1.5,0-2.9,0-4.4,0c0-0.5-0.1-0.8-0.1-1.1c-0.1-2.7-0.6-3.3-3.3-3.3c-2.2,0-4.4,0-6.6,0c-3.9,0-4,0.1-4.3,4c0,0.1-0.1,0.2-0.2,0.4
		c-1.6,0-3.3-0.1-4.9,0C2,6.9,1.1,7.3,0.6,7.8c-0.9,0.9-0.6,6.1,0.1,7.3c0.4,0.6,0.7,1.4,0.7,2c0,7.8,0,15.5,0,23.3
		c0,0.5,0.1,1.1-0.1,1.4c-2.1,1.9-1,4.4-1.1,6.6c-0.1,1.4,0.9,2.2,2.3,2.2c8.3,0,16.6,0,24.9,0c1.5,0,2.3-0.9,2.3-2.4c0-1,0-2,0-3.1
		c0.3-0.1,0.5-0.2,0.6-0.2c1.7,0,3.5,0,5.2-0.1c2.6,0,3.8-1.2,4.1-3.7c0.1-0.6,0.1-1.2,0.2-1.8c0.5-3,2.4-4.8,5.4-5
		c1.1-0.1,2.3,0,3.4-0.1c3.1-0.1,4.4-1.5,4.4-4.6C53,25.7,53,21.7,53,17.8z M18.1,5.7c0.2,0,0.5,0.3,0.5,0.5c0,0.2-0.3,0.5-0.5,0.5
		c-2.2,0-4.4,0-6.6,0c-0.2,0-0.3-0.5-0.7-1.1C13.5,5.7,15.8,5.6,18.1,5.7z M26.4,47.3c-7.7,0-15.3,0-23,0c0-0.7,0-1.4,0-2.1
		c7.7,0,15.3,0,23,0C26.4,45.9,26.4,46.5,26.4,47.3z M4.8,41.5c0-8.5,0-16.9,0-25.4c6.9,0,13.6,0,20.5,0c0,8.5,0,16.9,0,25.4
		C18.4,41.5,11.7,41.5,4.8,41.5z M26.4,12.4c-7.6,0-15.2,0-23,0c0-0.8,0-1.5,0-2.3c7.7,0,15.3,0,23,0C26.4,10.9,26.4,11.6,26.4,12.4
		z M32.9,39c-1.5,0-1.5-1.2-1.5-2.4c0-1.1,0.1-2.3,1.6-2.2c1.5,0,1.5,1.2,1.5,2.4C34.6,37.9,34.4,39,32.9,39z M39,22.6
		c-1.5,0-1.6-1.1-1.6-2.2c0-1.2,0.2-2.4,1.7-2.4c1.4,0,1.6,1.2,1.5,2.3C40.6,21.4,40.5,22.6,39,22.6z M32.6,22.6
		c-1.5,0-1.6-1.1-1.6-2.2c0-1.2,0.2-2.4,1.7-2.4c1.4,0,1.6,1.2,1.5,2.3C34.1,21.4,34.1,22.6,32.6,22.6z M45,22.6
		c-1.5,0-1.5-1.2-1.6-2.3c0-1.2,0.2-2.3,1.6-2.3c1.4,0,1.6,1.2,1.5,2.3C46.7,21.5,46.5,22.6,45,22.6z"/>
	<path d="M9,18.2c-1.2,0-1.5,0.9-1.5,2c0,2.9,0,5.8,0,8.8c0,3,0,6,0,8.9c0,1.1,0.4,2.1,1.6,1.8c0.6-0.1,1.5-1.1,1.5-1.7
		c0.1-6,0.1-11.9,0.1-17.9C10.6,19.1,10.2,18.2,9,18.2z"/>
	<path d="M7.5,29c0-2.9,0-5.8,0-8.8C7.5,23.1,7.5,26.1,7.5,29c0,3,0,6,0,8.9C7.5,34.9,7.5,32,7.5,29z"/>
</g>
</svg>
