<?xml version="1.0" encoding="utf-8"?>
<!-- Generator: Adobe Illustrator 25.2.3, SVG Export Plug-In . SVG Version: 6.00 Build 0)  -->
<svg version="1.1" id="Layer_1" xmlns="http://www.w3.org/2000/svg" xmlns:xlink="http://www.w3.org/1999/xlink" x="0px" y="0px"
	 viewBox="0 0 53 53" style="enable-background:new 0 0 53 53;" xml:space="preserve">
<g>
	<path d="M26.5,53c-8.4,0-16.8,0-25.2,0c-1,0-1.3-0.3-1.3-1.3C0,39,0,26.3,0,13.6c0-1,0.3-1.3,1.3-1.3c4,0,8,0,12,0
		c0.4,0,0.6-0.1,0.9-0.4c3.1-3.1,6.3-6.3,9.4-9.4c0.2-0.2,0.3-0.5,0.4-0.7C24.3,0.8,25.3,0,26.5,0c1.2,0,2.2,0.7,2.6,1.8
		c0.1,0.3,0.2,0.5,0.4,0.7c3.1,3.2,6.3,6.3,9.4,9.4c0.2,0.2,0.5,0.3,0.8,0.3c4,0,8,0,12,0c1,0,1.2,0.3,1.2,1.2c0,12.7,0,25.4,0,38.1
		c0,1-0.3,1.3-1.3,1.3C43.3,53,34.9,53,26.5,53z M46.8,46.8c0-9.4,0-18.8,0-28.2c-13.5,0-27.1,0-40.6,0c0,9.4,0,18.8,0,28.2
		C19.7,46.8,33.2,46.8,46.8,46.8z M50,14.2c-15.7,0-31.2,0-46.9,0c0.8,0.8,1.5,1.5,2.2,2.2c0.3,0.3,0.6,0.4,1,0.4c6,0,12,0,18,0
		c7.6,0,15.1,0,22.7,0c0.2,0,0.5-0.1,0.6-0.2C48.3,15.8,49.1,15,50,14.2z M3.1,51.2c15.7,0,31.2,0,46.9,0c-0.8-0.8-1.5-1.5-2.2-2.2
		c-0.3-0.3-0.6-0.4-1.1-0.4c-6.6,0-13.2,0-19.9,0c-6.9,0-13.8,0-20.7,0c-0.2,0-0.5,0-0.6,0.2C4.7,49.5,3.9,50.3,3.1,51.2z
		 M36.6,12.3c-2.7-2.7-5.3-5.3-8-8c-0.5,0.6-1.2,1-2.1,1c-0.9,0-1.5-0.4-2-0.9c-2.7,2.7-5.3,5.3-8,8C23.1,12.3,29.9,12.3,36.6,12.3z
		 M1.8,50c0.8-0.8,1.5-1.5,2.2-2.2c0.3-0.3,0.5-0.6,0.5-1.1c0-8.8-0.1-17.7,0-26.5c0-1.5-0.3-2.7-1.5-3.6c-0.4-0.3-0.7-0.7-1.1-1.1
		C1.8,27,1.8,38.4,1.8,50z M51.2,49.9c0-11.6,0-23,0-34.5c-0.8,0.8-1.6,1.6-2.3,2.3c-0.2,0.2-0.3,0.5-0.3,0.8c0,3,0,6,0,9
		c0,6.4,0,12.8,0,19.3c0,0.2,0,0.5,0.2,0.7C49.5,48.3,50.3,49.1,51.2,49.9z M26.5,3.5c0.5,0,0.9-0.4,0.9-0.9c0-0.5-0.4-0.9-0.9-0.9
		c-0.5,0-0.9,0.4-0.9,0.9C25.6,3.1,26,3.5,26.5,3.5z"/>
	<path d="M26.5,44.2c-5.5,0-10.9,0-16.4,0c-1,0-1.2-0.3-1.2-1.2c0-6.8,0-13.7,0-20.5c0-1,0.3-1.2,1.2-1.2c10.9,0,21.9,0,32.8,0
		c1,0,1.2,0.3,1.2,1.2c0,6.8,0,13.7,0,20.5c0,1-0.3,1.2-1.2,1.2C37.4,44.2,32,44.2,26.5,44.2z M10.6,35.1c0.2-0.2,0.3-0.3,0.5-0.4
		c2.6-2.3,5.2-4.6,7.8-6.9c0.7-0.6,1-0.6,1.7,0c2.4,2.1,4.9,4.1,7.3,6.2c0.1,0.1,0.3,0.2,0.4,0.3c1.8-1.3,3.6-2.5,5.3-3.8
		c0.7-0.5,0.9-0.5,1.6,0c2.2,1.7,4.4,3.4,6.6,5.2c0.1,0.1,0.3,0.2,0.5,0.4c0-4.4,0-8.8,0-13.1c-10.6,0-21.2,0-31.7,0
		C10.6,27,10.6,31,10.6,35.1z M42.4,42.4c0-1.2,0-2.3,0-3.4c0-0.4-0.1-0.6-0.4-0.9c-2.4-1.9-4.8-3.7-7.2-5.6c-0.3-0.2-0.5-0.3-0.8,0
		c-1.6,1.2-3.3,2.3-4.9,3.5c-0.8,0.6-1,0.6-1.8-0.1c-2.3-1.9-4.5-3.8-6.8-5.7c-0.3-0.2-0.6-0.5-0.8-0.7c-2.7,2.3-5.2,4.7-7.9,6.9
		c-0.9,0.8-1.4,1.6-1.3,2.8c0.1,0.8,0,1.6,0,2.4c0,0.3,0,0.5,0,0.8C21.2,42.4,31.8,42.4,42.4,42.4z"/>
	<path d="M28.3,30.9c-1.4,0-2.6-1.2-2.7-2.6c0-1.5,1.2-2.7,2.6-2.7c1.5,0,2.7,1.2,2.7,2.7C30.9,29.7,29.7,30.9,28.3,30.9z
		 M29.1,28.2c0-0.5-0.4-0.9-0.9-0.9c-0.5,0-0.9,0.4-0.9,0.9c0,0.5,0.4,0.9,0.9,0.9C28.8,29.1,29.2,28.7,29.1,28.2z"/>
	<path d="M16.4,34.7c0.4,0.4,0.8,0.8,1.2,1.3c-1.2,1.2-2.5,2.3-3.7,3.5c-0.4-0.4-0.8-0.8-1.2-1.3C13.9,37,15.1,35.9,16.4,34.7z"/>
	<path d="M30.4,37.3c1.2-0.9,2.3-1.8,3.5-2.6c0.4,0.5,0.7,0.9,1.1,1.4c-1.2,0.9-2.3,1.7-3.5,2.6C31.1,38.2,30.8,37.8,30.4,37.3z"/>
	<path d="M18.5,35.1c-0.4-0.5-0.8-0.8-1.2-1.3c0.6-0.6,1.2-1.2,1.9-1.8c0.4,0.4,0.8,0.8,1.2,1.3C19.8,33.9,19.2,34.5,18.5,35.1z"/>
</g>
</svg>
