<?xml version="1.0" encoding="utf-8"?>
<!-- Generator: Adobe Illustrator 25.3.1, SVG Export Plug-In . SVG Version: 6.00 Build 0)  -->
<svg version="1.1" id="Layer_1" xmlns="http://www.w3.org/2000/svg" xmlns:xlink="http://www.w3.org/1999/xlink" x="0px" y="0px"
	 viewBox="0 0 53 53" style="enable-background:new 0 0 53 53;" xml:space="preserve">
<g>
	<path d="M22.1,5.5c-0.2-1.7,0.1-3.2,1.4-4.3C24.3,0.4,25.3,0,26.4,0C27.9,0,29,0.6,30,1.7c0.9,1.1,1,2.4,0.9,3.8c0.3,0,0.5,0,0.8,0
		c3,0,5.9,0,8.9,0c2.2,0,3.6,1.4,3.6,3.6c0,13.4,0,26.9,0,40.3c0,2.2-1.4,3.6-3.6,3.6c-9.4,0-18.7,0-28.1,0c-2.2,0-3.6-1.4-3.6-3.6
		c0-13.4,0-26.8,0-40.2c0-2.2,1.4-3.6,3.6-3.6c3,0,5.9,0,8.9,0C21.6,5.5,21.8,5.5,22.1,5.5z M22.1,7.7c-0.3,0-0.4,0-0.6,0
		c-3,0-6,0-9,0c-1.1,0-1.5,0.4-1.5,1.5c0,13.4,0,26.7,0,40.1c0,1.1,0.4,1.5,1.5,1.5c9.3,0,18.6,0,27.9,0c1.2,0,1.5-0.3,1.5-1.5
		c0-13.4,0-26.7,0-40.1c0-1.2-0.3-1.5-1.5-1.5c-3,0-5.9,0-8.9,0c-0.2,0-0.4,0-0.7,0c0,0.7,0,1.4,0,2c0,0.8-0.4,1.2-1.2,1.2
		c-2.2,0-4.3,0-6.5,0c-0.8,0-1.1-0.4-1.2-1.2C22.1,9.2,22.1,8.5,22.1,7.7z M28.7,8.8c0-1.5,0-3,0-4.5c0-1.2-1-2.1-2.2-2.1
		c-1.2,0-2.2,0.9-2.2,2.2c0,1.1,0,2.3,0,3.4c0,0.3,0,0.7,0,1C25.8,8.8,27.2,8.8,28.7,8.8z"/>
	<path d="M26.5,35.3c-2.8,0-5.6,0-8.4,0c-1.3,0-1.7-0.5-1.4-1.8c0.3-1.5,1.1-2.7,2.5-3.4c1-0.5,2-1,3-1.3c1.2-0.4,1.3-1.5,0.7-2.3
		c-0.5-0.7-0.7-1.6-1.2-2.3c-0.5-0.6-0.5-1.4-0.2-2.2c0.1-0.3,0.1-0.6,0-0.9c-0.2-1.2-0.3-2.3,0.1-3.5c0.5-1.8,2.1-3,4.1-3.2
		c1.2-0.1,2.3,0,3.2,0.8c0.1,0.1,0.2,0.1,0.3,0.1c2,0.5,2.7,2.2,2.7,4.1c0,0.4-0.1,0.9-0.2,1.3c-0.1,0.6-0.2,1.1,0,1.8
		c0.2,0.9,0,1.8-0.7,2.4c-0.1,0.1-0.2,0.3-0.3,0.5c-0.2,0.4-0.3,0.9-0.5,1.3c-0.6,0.9-0.4,1.9,0.7,2.3c1,0.4,2,0.8,2.9,1.3
		c1.5,0.8,2.5,2.1,2.6,3.8c0.1,1-0.3,1.4-1.3,1.4C32.2,35.3,29.4,35.3,26.5,35.3z M19.2,33.1c5,0,9.7,0,14.7,0
		c-0.3-0.3-0.4-0.5-0.6-0.7c-0.5-0.3-1.1-0.6-1.7-0.9c-0.8-0.4-1.7-0.7-2.4-1.1c-0.9-0.5-1.5-1.2-1.5-2.3c0-0.4-0.1-0.8,0-1.2
		c0.2-1.2,1.1-2.2,1.4-3.4c0-0.1,0.2-0.1,0.2-0.1c0.1-0.2,0.2-0.5,0.1-0.6c-0.3-0.5-0.2-1-0.1-1.5c0.1-0.8,0.3-1.7,0.3-2.5
		c0-0.9-0.3-1.1-1.2-1.4c-0.1,0-0.3-0.1-0.4-0.2c-0.8-0.9-1.7-0.6-2.7-0.5c-1.1,0.2-1.7,0.8-1.8,1.9c-0.1,0.9,0.1,1.9,0.1,2.8
		c0,0.4-0.1,0.8-0.1,1.2c0,0.2,0,0.4,0.1,0.6c0.5,1,1.4,2,1.5,3.1c0.3,2.2,0.3,3.2-2.3,4.5c-0.5,0.2-1.1,0.4-1.6,0.7
		c-0.5,0.3-1.1,0.5-1.6,0.8C19.6,32.5,19.4,32.8,19.2,33.1z"/>
	<path d="M26.4,40.9c-2.5,0-5,0-7.6,0c-0.8,0-1.2-0.3-1.3-0.9c-0.1-0.6,0.3-1.1,0.9-1.2c0.2,0,0.4,0,0.6,0c4.9,0,9.8,0,14.8,0
		c0.2,0,0.5,0,0.7,0.1c0.5,0.1,0.8,0.5,0.8,1.1c0,0.6-0.3,0.9-0.8,1c-0.2,0.1-0.5,0.1-0.7,0.1C31.3,40.9,28.9,40.9,26.4,40.9z"/>
	<path d="M26.5,43.1c2.5,0,5,0,7.5,0c0.6,0,1.1,0.1,1.3,0.7c0.2,0.6-0.1,1.3-0.8,1.4c-0.2,0-0.4,0.1-0.5,0.1c-5,0-10,0-15,0
		c-0.2,0-0.4,0-0.5,0c-0.6-0.1-0.9-0.6-0.8-1.2c0-0.5,0.4-0.9,1-1c0.9,0,1.7,0,2.6,0C22.9,43.1,24.7,43.1,26.5,43.1z"/>
	<path d="M26.5,5.5c-0.6,0-1.1-0.5-1.1-1.1c0-0.6,0.5-1.1,1.1-1.1c0.6,0,1.1,0.5,1.1,1.1C27.6,5,27.1,5.5,26.5,5.5z"/>
</g>
</svg>
