<?xml version="1.0" encoding="utf-8"?>
<!-- Generator: Adobe Illustrator 25.2.3, SVG Export Plug-In . SVG Version: 6.00 Build 0)  -->
<svg version="1.1" id="Layer_1" xmlns="http://www.w3.org/2000/svg" xmlns:xlink="http://www.w3.org/1999/xlink" x="0px" y="0px"
	 viewBox="0 0 53 53" style="enable-background:new 0 0 53 53;" xml:space="preserve">
<g>
	<path d="M31.2,0.6c7.9,2.1,13.5,9.5,12.9,17.4c-0.3,3.8-1.4,7.3-3.2,10.6c-2.4,4.6-5,9.2-7.7,13.7c-2,3.3-4.1,6.6-6.2,9.8
		c-0.2,0.3-0.4,0.5-0.6,0.8c-0.2-0.2-0.3-0.3-0.3-0.4c-4.4-7.3-8.9-14.5-13.1-21.8C11,27.3,9.5,23.4,9,19.2
		c-0.9-7.3,2.2-12.7,8.1-16.6c2.1-1.4,4.4-2.2,6.9-2.5C24.2,0.1,27.5-0.4,31.2,0.6z M26.5,24.3c3.6,0,6.6-3,6.6-6.6
		c0-3.6-3-6.6-6.6-6.7c-3.7,0-6.7,3-6.7,6.7C19.9,21.3,22.9,24.3,26.5,24.3z"/>
</g>
</svg>
