<?xml version="1.0" encoding="utf-8"?>
<!-- Generator: Adobe Illustrator 25.2.3, SVG Export Plug-In . SVG Version: 6.00 Build 0)  -->
<svg version="1.1" id="Layer_1" xmlns="http://www.w3.org/2000/svg" xmlns:xlink="http://www.w3.org/1999/xlink" x="0px" y="0px"
	 viewBox="0 0 53 53" style="enable-background:new 0 0 53 53;" xml:space="preserve">
<g>
	<path d="M44.8,10.6c0-2.7-0.9-3.8-3.8-4.2c0-1,0-1.9,0-2.8c0-3.1-1.2-4.1-4.1-3.4c-8.3,1.9-16.6,3.7-25,5.6
		c-2.7,0.6-3.7,1.8-3.7,4.7c0,12.8,0,25.6,0,38.4c0,3.1,1,4.2,4.2,4.2c9.4,0,18.8,0,28.2,0c3.1,0,4.2-1.1,4.2-4.2
		C44.8,36,44.8,23.3,44.8,10.6z M26.4,4.1c3.6-0.8,7.2-1.6,10.8-2.4c1.9-0.4,2.3-0.1,2.3,1.8c0,0.8,0,1.6,0,2.4
		c0,0.1-0.1,0.3-0.2,0.6c-7.5,0-14.9,0-22.4,0c0-0.1,0-0.2,0-0.2C20.1,5.5,23.3,4.8,26.4,4.1z M40.5,51.5c-9.4,0-18.8,0-28.2,0
		c-2.2,0-2.6-0.4-2.6-2.6c0-12.8,0-25.6,0-38.4c0-2,0.6-2.5,2.5-2.5c9.5,0,19,0,28.5,0c2,0,2.5,0.5,2.5,2.5c0,6.4,0,12.8,0,19.3
		c0,6.3,0,12.6,0,19C43.3,51.1,42.9,51.5,40.5,51.5z"/>
	<path d="M13.8,48.7c8.5,0,16.9,0,25.4,0c0-3.2,0-6.3,0-9.3c-8.6,0-17,0-25.4,0C13.8,42.5,13.8,45.6,13.8,48.7z M14.7,40.4
		c7.8,0,15.6,0,23.5,0c0,2.4,0,4.8,0,7.3c-7.8,0-15.6,0-23.5,0C14.7,45.2,14.7,42.8,14.7,40.4z"/>
	<path d="M32.4,41.7c0,1.6,0,3.1,0,4.6c0.1,0,0.2,0,0.3,0c0.1-0.5,0.2-1.1,0.4-2.1c0.3,0.7,0.4,1,0.5,1.3c0.1,0.3,0.3,0.6,0.4,0.8
		c0.3-0.9,0.2-1.8,0.3-2.6C34.6,42.1,34.2,41.6,32.4,41.7z"/>
	<path d="M30.4,41.7c-1.6,0-1.1,1.5-1.1,2.5c0,0.9-0.3,2.3,1.2,2.3c1.5,0,1-1.4,1.2-2.5C31.4,43.2,32.1,41.6,30.4,41.7z M30.6,45.6
		c-0.1,0-0.3,0-0.4,0c0-1.1,0-2.2,0-3.3c0.1,0,0.3,0,0.4,0C30.6,43.4,30.6,44.5,30.6,45.6z"/>
	<path d="M16.1,41.3c0,2.1,0,3.6,0,5.1c0.5-0.6,0.6-1.5,1-1.7c1.1-0.5,1.3-1.3,0.9-2.2C17.8,42,16.9,41.8,16.1,41.3z"/>
	<path d="M19.6,41.7c-0.2,0-0.6,0.1-0.6,0.2c-0.3,1.5-0.5,2.9-0.7,4.4c0.1,0,0.3,0,0.4,0.1c0.3-0.4,0.5-0.7,0.9-1.2
		c0.3,0.5,0.6,0.9,0.8,1.3c0.1,0,0.3-0.1,0.4-0.1c-0.2-1.4-0.4-2.8-0.7-4.1C20,42,19.8,41.7,19.6,41.7z"/>
	<path d="M26.9,41.4c0,2,0,3.5,0,5.3c0.5-1,0.6-1.8,1.1-2c1.2-0.5,1.2-1.5,0.8-2.2C28.6,41.9,27.6,41.8,26.9,41.4z"/>
	<path d="M23.2,42.6c0.1-0.2,0.1-0.4,0.2-0.6c-0.6-0.1-1.2-0.2-1.7-0.3c-0.1,0.6-0.3,1.2-0.2,1.8c0.1,0.4,0.6,0.6,0.9,1
		c0.2,0.3,0.2,0.8,0.4,1.6c-0.8-0.5-1.1-0.8-1.4-1c-0.1,0.1-0.2,0.2-0.3,0.3c0.4,0.4,0.7,0.8,1.1,1c0.2,0.1,0.9-0.2,1-0.4
		c0.2-0.5,0.2-1.1,0-1.5c-0.3-0.6-0.8-1-1.2-1.5c-0.1-0.1,0-0.4,0.1-0.7C22.5,42.4,22.8,42.5,23.2,42.6z"/>
	<path d="M25.9,42.7c0.1-0.2,0.1-0.4,0.2-0.6c-0.6-0.1-1.4-0.5-1.6-0.3c-0.4,0.3-0.4,1.1-0.4,1.7c0,0.4,0.6,0.6,0.8,1
		c0.2,0.3,0.3,0.8,0.4,1.1c-0.1,0.1-0.2,0.1-0.3,0.2c-0.4-0.2-0.7-0.4-1.1-0.6c-0.1,0.1-0.2,0.3-0.3,0.4c0.4,0.3,0.8,0.8,1.2,0.9
		c0.3,0.1,0.9-0.3,1-0.5c0.1-0.5,0-1.2-0.2-1.7c-0.3-0.6-0.8-1.2-1.2-1.7c0.1-0.1,0.2-0.2,0.4-0.3C25.2,42.4,25.6,42.5,25.9,42.7z"
		/>
	<path d="M35.8,46.4c0.1,0,0.2,0,0.3,0c0.2-1.5,0.4-3.1,0.6-4.7c-0.3,0-1,0-1.4,0C35.4,43.4,35.6,44.9,35.8,46.4z"/>
	<path d="M26.5,36c6.2,0,11.2-5,11.2-11.2s-5-11.2-11.2-11.2s-11.2,5-11.2,11.2S20.3,36,26.5,36z M30.2,34c0.7-0.9,1.3-2.1,1.8-3.4
		c0.7,0.2,1.3,0.5,1.8,0.9C32.8,32.6,31.6,33.4,30.2,34z M34.6,30.4c-0.7-0.4-1.4-0.8-2.3-1.1c0.3-1.2,0.4-2.4,0.5-3.8h3.5
		C36.2,27.3,35.6,29,34.6,30.4z M34.6,19.2c1,1.4,1.6,3.1,1.7,5h-3.5c0-1.4-0.2-2.7-0.5-3.9C33.1,20,33.9,19.6,34.6,19.2z
		 M33.7,18.2c-0.5,0.3-1.1,0.6-1.8,0.8c-0.4-1.3-1-2.4-1.7-3.3C31.6,16.3,32.8,17.1,33.7,18.2z M27.2,15.1c1.4,0.4,2.7,2,3.5,4.3
		c-1.1,0.3-2.3,0.4-3.5,0.5V15.1z M27.2,21.2c1.4,0,2.7-0.2,3.9-0.5c0.3,1.1,0.4,2.3,0.5,3.5h-4.4V21.2z M27.2,25.5h4.4
		c0,1.2-0.2,2.3-0.5,3.4c-1.2-0.3-2.5-0.5-3.9-0.6V25.5z M27.2,29.7c1.2,0,2.4,0.2,3.5,0.5c-0.8,2.4-2.1,4-3.5,4.4V29.7z M19.2,31.4
		c0.6-0.3,1.2-0.6,1.8-0.9c0.5,1.4,1.1,2.5,1.8,3.4C21.4,33.4,20.2,32.5,19.2,31.4z M25.8,34.6c-1.5-0.4-2.8-2.1-3.6-4.5
		c1.1-0.3,2.3-0.4,3.6-0.5V34.6z M25.8,28.4c-1.4,0-2.7,0.2-3.9,0.5c-0.2-1-0.4-2.2-0.4-3.4h4.4V28.4z M25.8,24.2h-4.4
		c0-1.2,0.2-2.4,0.5-3.5c1.2,0.3,2.5,0.5,3.9,0.5V24.2z M25.8,15.1v4.8c-1.2,0-2.4-0.2-3.5-0.5C23.1,17.1,24.4,15.5,25.8,15.1z
		 M22.8,15.7c-0.7,0.9-1.3,2-1.7,3.3c-0.6-0.2-1.2-0.5-1.8-0.8C20.2,17.1,21.4,16.3,22.8,15.7z M18.4,19.2c0.7,0.4,1.4,0.8,2.3,1.1
		c-0.3,1.2-0.5,2.5-0.5,3.9h-3.5C16.8,22.4,17.4,20.7,18.4,19.2z M16.7,25.5h3.5c0,1.3,0.2,2.6,0.5,3.8c-0.8,0.3-1.6,0.7-2.3,1.1
		C17.4,29,16.8,27.3,16.7,25.5z"/>
</g>
</svg>
