<?xml version="1.0" encoding="utf-8"?>
<!-- Generator: Adobe Illustrator 25.3.1, SVG Export Plug-In . SVG Version: 6.00 Build 0)  -->
<svg version="1.1" id="Layer_1" xmlns="http://www.w3.org/2000/svg" xmlns:xlink="http://www.w3.org/1999/xlink" x="0px" y="0px"
	 viewBox="0 0 201 70" style="enable-background:new 0 0 201 70;" xml:space="preserve">
<g>
	<path d="M32.3,52.2c0.4-0.7,0.6-1.6,0.6-2.4c0-0.5-0.1-1-0.2-1.4l-3.9,3.9L32.3,52.2z"/>
	<path d="M24.9,54.7c0.7,0.3,1.5,0.5,2.4,0.5c0.5,0,1-0.1,1.4-0.2l-3.8-3.8L24.9,54.7z"/>
	<path d="M30,45v5.4l2.5-2.5C32,46.6,31.2,45.6,30,45z"/>
	<path d="M29.1,55c1.2-0.4,2.2-1.3,2.9-2.4h-5.3L29.1,55z"/>
	<path d="M55.6,27.1c1.3,0,2.4-0.6,3.2-1.7c0.8-1.1,1.2-2.8,1.2-4.8c0-2-0.4-3.6-1.1-4.7s-1.8-1.6-3.3-1.6c-1.4,0-2.5,0.6-3.3,1.7
		c-0.8,1.1-1.1,2.7-1.1,4.7c0,2.1,0.4,3.7,1.1,4.8C53.1,26.6,54.2,27.1,55.6,27.1z"/>
	<path d="M89,27.1c1.3,0,2.4-0.6,3.2-1.7c0.8-1.1,1.2-2.8,1.2-4.8c0-2-0.4-3.6-1.1-4.7s-1.8-1.6-3.3-1.6c-1.4,0-2.5,0.6-3.3,1.7
		c-0.8,1.1-1.1,2.7-1.1,4.7c0,2.1,0.4,3.7,1.1,4.8C86.5,26.6,87.6,27.1,89,27.1z"/>
	<path d="M146,21.3L146,21.3C146,21.3,146,21.3,146,21.3C146,21.3,146,21.3,146,21.3z"/>
	<path d="M40.3,41.6H14.4c-0.6,0-1,0.5-1,1V46c0,0.6,0.5,1,1,1h5.2c-0.3,0.9-0.5,1.8-0.5,2.8c0,4.5,3.7,8.2,8.2,8.2
		c4.5,0,8.2-3.7,8.2-8.2c0-1-0.2-1.9-0.5-2.8h5.2c0.6,0,1-0.5,1-1v-3.3C41.3,42.1,40.8,41.6,40.3,41.6z M27.3,56.6
		c-3.8,0-6.8-3-6.8-6.8c0-3.8,3-6.8,6.8-6.8s6.8,3,6.8,6.8C34.1,53.5,31,56.6,27.3,56.6z M40.4,43.8c0,0.6-0.5,1-1,1h-4.6
		c-0.6,0-1-0.5-1-1v-0.5c0-0.6,0.5-1,1-1h4.6c0.6,0,1,0.5,1,1V43.8z"/>
	<path d="M149.6,21.1l-1.7-5.3c-0.3,0.9-0.6,1.8-0.9,2.7s-0.6,1.8-0.9,2.7L149.6,21.1L149.6,21.1z"/>
	<path d="M32.1,38C32,38,32,38,32.1,38L23,38c0,0-0.1,0-0.1,0L22,39.3h10.9L32.1,38z"/>
	<path d="M17.8,19.9c0.1,0,0.2,0,0.2,0c0.1,0,0.1,0,0.2,0c0.1,0,0.2,0,0.3,0c0.1,0,0.3,0,0.5,0c0.5,0,1,0,1.5-0.1
		c0.5,0,0.9-0.1,1.3-0.2c1.2-0.3,1.8-1.1,1.8-2.5c0-1.8-1.2-2.7-3.5-2.7c-1.7,0-2.7,0.1-2.9,0.4c-0.1,0.1-0.1,0.5-0.1,1.1v3.5
		C17.2,19.8,17.4,19.9,17.8,19.9z"/>
	<path d="M13.4,57c0,0.6,0.5,1,1,1h2.9c-1.3-1.3-2.6-2.6-3.9-3.9V57z"/>
	<path d="M40.3,58c0.6,0,1-0.5,1-1v-3l-4,4H40.3z"/>
	<path d="M24.6,54.5v-5.4l-2.5,2.5C22.5,52.9,23.4,53.9,24.6,54.5z"/>
	<path d="M22.3,47.3c-0.4,0.7-0.6,1.6-0.6,2.4c0,0.5,0.1,1,0.2,1.4l3.9-3.9L22.3,47.3z"/>
	<path d="M29.7,44.8c-0.7-0.3-1.5-0.5-2.4-0.5c-0.5,0-1,0.1-1.4,0.2l3.8,3.8L29.7,44.8z"/>
	<path d="M25.4,44.5c-1.2,0.4-2.2,1.3-2.9,2.4h5.3L25.4,44.5z"/>
	<path d="M200.5,5V2.6c-1.1,0-2-0.9-2-1.9h-2.3c0.1,0,0.2,0.1,0.5,0.1c-0.1,0-0.4,0-0.7,0.1c0,0,0,0,0,0.1c0.3,0,0.6,0,0.5,0
		C196,0.9,196,0.9,196,1c0,0,0,0,0,0c0,0,0,0.1,0,0.1c0.1,0,0.3,0,0.5,0c0.2,0-0.3,0.1-0.5,0.1c0,0,0,0,0,0.1c0,0,0,0,0,0
		c0,0,0,0,0,0c0,0,0,0,0,0.1c0.4,0-0.2,0.1,0,0.2c0,0,0,0-0.1,0c-0.3,0.6-1,1.1-1.8,1.1c-1.1,0-2-0.9-2-1.9h-2.5
		c0,1.1-0.9,1.9-2,1.9c-1.1,0-2-0.9-2-1.9h-2.5c0,1.1-0.9,1.9-2,1.9s-2-0.9-2-1.9h-2.5c0,1.1-0.9,1.9-2,1.9c-1.1,0-2-0.9-2-1.9h-2.5
		c0,1.1-0.9,1.9-2,1.9s-2-0.9-2-1.9h-2.5c0,1.1-0.9,1.9-2,1.9c-1.1,0-2-0.9-2-1.9h-2.5c0,1.1-0.9,1.9-2,1.9c-1.1,0-2-0.9-2-1.9h-2.5
		c0,1.1-0.9,1.9-2,1.9s-2-0.9-2-1.9h-1.2c0,0,0,0,0,0c-0.3,0-0.4,0-0.5,0h-0.9c0,1.1-0.9,1.9-2,1.9c-0.4,0-0.9-0.2-1.2-0.4
		c-1,0,0.2-0.3-0.8-0.3c0.2,0,0.3,0,0.4,0c-0.3-0.3-0.4-0.7-0.4-1.2H138c0,1.1-0.9,1.9-2,1.9c-1.1,0-2-0.9-2-1.9v0.4
		c0-0.1-0.1-0.3-0.1-0.4h-0.1h-2.4h-0.1c0,1-0.9,1.9-1.9,1.9c-1.1,0-1.9-0.9-1.9-1.9h-0.1h-2.4H125c0,1-0.9,1.9-1.9,1.9
		c-1.1,0-1.9-0.9-1.9-1.9H121h-2.4h-0.1c0,1-0.9,1.9-1.9,1.9c-1.1,0-1.9-0.9-1.9-1.9h-2.5c0,1.1-0.9,1.9-2,1.9c-1.1,0-2-0.9-2-1.9
		h-2.5c0,1.1-0.9,1.9-2,1.9s-2-0.9-2-1.9h-2.5c0,1.1-0.9,1.9-2,1.9c-1.1,0-2-0.9-2-1.9h-2.5c0,1.1-0.9,1.9-2,1.9c-1.1,0-2-0.9-2-1.9
		h-1.2c0,0,0,0,0,0c-0.3,0-0.4,0-0.5,0h-0.9c0,1.1-0.9,1.9-2,1.9c-0.4,0-0.9-0.2-1.2-0.4c-1,0,0.2-0.3-0.8-0.3c0.2,0,0.3,0,0.4,0
		c-0.3-0.3-0.4-0.7-0.4-1.2H80c0,1.1-0.9,1.9-2,1.9c-1.1,0-2-0.9-2-1.9v0.8c-0.1-0.2-0.2-0.5-0.2-0.8h-2.5c0,1.1-0.9,1.9-2,1.9
		c-1.1,0-2-0.9-2-1.9h-2.5c0,1.1-0.9,1.9-2,1.9c-1.1,0-2-0.9-2-1.9h-2.5c0,1.1-0.9,1.9-2,1.9c-1.1,0-2-0.9-2-1.9h-1.2c0,0,0,0,0,0
		c-0.3,0-0.4,0-0.5,0H54c0,1.1-0.9,1.9-2,1.9c-0.4,0-0.9-0.2-1.2-0.4c-1,0,0.2-0.3-0.8-0.3c0.2,0,0.3,0,0.4,0
		c-0.3-0.3-0.4-0.7-0.4-1.2h-2.5c0,1.1-0.9,1.9-2,1.9c-1.1,0-2-0.9-2-1.9h-2.5c0,0.1,0,0.1,0,0.1c0.6,0,1.3-0.1,2-0.1
		c-0.5,0.1-1.6,0.2-2,0.1c0,0.4-0.2,0.8-0.5,1.1c0.8,0,0.7-0.1,1.4-0.1c0,0,0.1,0.1,0.1,0.1c-0.4,0-1,0-1.2,0.1c-0.1,0-0.2,0-0.3,0
		c-0.4,0.4-0.9,0.6-1.4,0.6c-1.1,0-2-0.9-2-1.9h-2.5c0,1.1-0.9,1.9-2,1.9c-1.1,0-2-0.9-2-1.9h-2.5c0,1.1-0.9,1.9-2,1.9
		c-1.1,0-2-0.9-2-1.9h-1.4c-0.2,0-0.4,0-0.4,0.1c-0.2,0-0.3,0-0.6,0c0,0.2-0.1,0.4-0.1,0.6c0.1,0,0.2,0,0.5,0.1c-0.3,0-0.4,0-0.5,0
		c-0.3,0.7-1,1.2-1.8,1.2c-1.1,0-2-0.9-2-1.9h-2.5c0,1.1-0.9,1.9-2,1.9c-1.1,0-2-0.9-2-1.9H8.9c0,1.1-0.9,1.9-2,1.9
		c-1.1,0-2-0.9-2-1.9H2.5c0,0,0,0,0,0c0.8,0-0.3,0.1,0.1,0.1c0,0-0.1,0-0.1,0c-0.1,1-0.9,1.7-2,1.7V5c1.1,0,2,0.9,2,1.9
		c0,1.1-0.9,1.9-2,1.9v2.4c1.1,0,2,0.9,2,1.9c0,1.1-0.9,1.9-2,1.9v2.4c1.1,0,2,0.9,2,1.9c0,0.6-0.3,1.2-0.8,1.6c0,0,0,0,0,0
		c0.2,0,0.5,0,0.7,0c0,0,0-0.1-0.1-0.1c-0.1-0.4,0.1-0.2,0.2-0.2c0,0.1,0,0.2,0.1,0.3c0,0,0,0,0.1,0c0-0.1-0.1-0.2-0.1-0.3
		c0-0.2,0.2,0.1,0.3,0.3c0.2,0,0.4,0,0.4,0c0.3,0,0.4-0.1,0.6-0.1v0.1c-0.3,0-0.6,0-0.9,0c0.1,0.4,0,0.4-0.2,0c0,0-0.1,0-0.1,0
		c0,0.2,0,0.3,0,0.3c0-0.1-0.1-0.2-0.1-0.3c-0.2,0-0.5,0-0.7,0c0.2,1.1,0.1,1.3,0.4,2.6c-0.3-0.9-0.3-1.9-0.5-2.6c0,0-0.1,0-0.1,0
		c-0.3,0.1-0.6,0.2-0.9,0.2v2.4c1.1,0,2,0.9,2,1.9c0,1.1-0.9,1.9-2,1.9V30c0.9,0,1.7,0.6,1.9,1.4c0.1,0,0.1,0,0.2,0
		c0.2,0.7,0,0.5-0.1,0.5c0,1-0.9,1.9-2,1.9v2.4c1.1,0,2,0.9,2,1.9c0,0.8-0.5,1.4-1.1,1.7c0.3,0.6,0.4,0.5,0.7,1.3
		c0,0.5-0.3,0.5-0.8-1c0.1-0.1,0.4,0.6,0.5,0.9c0-0.1-0.1-0.3,0-0.3c-0.2-0.4-0.3,0-0.4-0.9C1.1,40,0.8,40,0.5,40v0.9
		c0.1,0.4,0.2,0.4,0.2,0.3c0.1,0.6,0,0.6-0.2,0.2v1.1c1.1,0,2,0.9,2,1.9c0,1.1-0.9,1.9-2,1.9v2.4c1.1,0,2,0.9,2,1.9
		c0,1.1-0.9,1.9-2,1.9v2.4c1.1,0,2,0.9,2,1.9c0,0.4-0.1,0.8-0.4,1.1c0.1,0.1,0.1,0.2,0.2,0.1c0.1,0.3,0,0.2,0,0.3
		c0,0.1,0.1,0.3,0.1,0.3c0.2,0.6-0.1,0.2-0.1,0.4c-0.1-0.4-0.2-0.6-0.4-1c-0.4,0.4-0.9,0.7-1.5,0.7v0.4c0.3,0.7-0.1,0.6,0.3,1.8
		c0.2,0.7-0.1-0.5,0.1,0.2c0,0,0.1,0,0.1,0c-0.1-0.6-0.2-1-0.2-1.4c0.1,0.6,0.4,1.5,0.4,1c0-0.1-0.2-0.7-0.3-1.1
		c0.2,0.4,0.2-0.3,0-0.7c-0.2-1.2,0.6,1.3,0.4,0.3c0.3,0.9,0.2,1.4,0.7,2.4c-0.1-0.1-0.2-0.2-0.3-0.2c0.4,0.4,0.7,0.9,0.7,1.5
		c0,1.1-0.9,1.9-2,1.9v2c0.2-0.1,0.4-0.1,0.6,0.2c0,0,0,0,0,0c0,0,0,0,0,0c0.1,0.1,0.2,0.2,0.3,0.4c-0.2-1.9,0.6-0.3,0.7-1
		c0.1,1.2-0.4,0.3-0.2,1.5c0.3,0.3,0.5,0.8,0.5,1.3H5c0-0.7,0.4-1.3,1-1.7c-0.1-0.1-0.2-0.5-0.3-0.8c-0.2-0.1,0.1,1.3-0.2,0.6
		c-0.2-1.4,0.2-1.1,0.5-0.8c0.2,0.8-0.3,0,0,1c0.2-0.1,0.5-0.2,0.8-0.2c0-0.1-0.1-0.2-0.1-0.4c0.1,0.2,0.1,0.3,0.2,0.4
		c0,0,0.1,0,0.1,0c0.7,0,1.3,0.3,1.7,0.9C8.5,67.7,8.8,68.1,9,69c-0.1-0.2-0.1-0.2-0.2-0.2c0.1,0.2,0.1,0.4,0.1,0.6h2.5
		c0-1.1,0.9-1.9,2-1.9c1.1,0,2,0.9,2,1.9h2.5c0-1.1,0.9-1.9,2-1.9c1.1,0,2,0.9,2,1.9h2.5c0-1.1,0.9-1.9,2-1.9c1.1,0,2,0.9,2,1.9h2.5
		c0-1.1,0.9-1.9,2-1.9c1.1,0,2,0.9,2,1.9h2.5c0-1.1,0.9-1.9,2-1.9c1.1,0,2,0.9,2,1.9h2.5c0-1.1,0.9-1.9,2-1.9c0.2,0,0.4,0,0.6,0.1
		c0.1,0,0.1,0,0.2,0c0.1,0,0,0-0.1,0.1c0.3,0.1,0.5,0.3,0.7,0.5c0.9-0.3-0.1-0.3,1.3-0.7c-0.2,0-0.6,0.1-0.9,0.1
		c0.3-0.1,0.5-0.2,0.1-0.2c0.5-0.1,0.5-0.1,0.8-0.2c-0.8,0.1,0.5-0.3-1.1,0c0.1-0.1,0.7-0.2,0.1-0.1c0.9-0.2,1.6-0.3,1.9-0.4
		c-0.2,0-1,0.2-1.5,0.2c0.2,0,0.3-0.1,0.2-0.1c0.4-0.1,1.5-0.2,1.1-0.2c0.7-0.1,0.7,0,0.6,0.1c-1.5,0.2,0,0.1-1.6,0.3
		c0.3,0,1.1-0.1,1.5-0.2c0.2,0.4-0.7,0.7-1.3,1.1c0,0-0.3,0.1-0.5,0.1c-0.2,0-0.4,0.1-0.6,0.1c0,0,0.1,0.1,0.1,0.1
		C47.7,68.1,48,68,48,68c0.9-0.1,0.1,0.1-0.8,0.3c0.1,0.1,0.1,0.2,0.2,0.3c0.2,0,0.3-0.1,0.3-0.1c0.3,0,0.3,0,0.9-0.1
		c0.1,0-0.8,0.2,0.2,0.1c-0.2,0.1-1.1,0.2-1.4,0.2c0,0,0,0,0,0.1c0.1,0,0.4-0.1,0.9-0.2c-0.6,0.2,0.7,0.1-0.8,0.3c0,0,0,0.1,0,0.1
		c0.1,0,0.4-0.1,0.9-0.2c-0.5,0.2-0.2,0.2,0.3,0.2c-1.3,0.2-1,0.2-1.2,0.3c0,0,0,0,0,0h2.5c0-1.1,0.9-1.9,2-1.9
		c0.7,0,1.3,0.4,1.7,0.9c0,0,0,0,0.1,0c0,0,0,0-0.1,0c0.1,0.2,0.2,0.5,0.3,0.8c0,0,0,0,0.1,0c0,0,0,0-0.1,0c0,0,0,0.1,0,0.1
		c0.1,0,0.1,0,0.2,0c-0.1,0-0.1,0-0.2,0c0,0,0,0,0,0h0.6c0.2,0,0.4-0.1,0.6-0.1c0.1,0-0.1,0.1-0.3,0.1h0.2c0.4-0.1,0.5-0.1,0.3,0h0
		c1.1-0.1,0.6-0.2,1-0.2c0,0-0.3,0.1-0.7,0.2h0.6c0,0,0.1,0,0.2,0c0-0.3,0.1-0.6,0.3-0.9c-0.3,0-0.5,0.1-0.5,0.1c-0.4,0,0,0,0.5-0.1
		c0.3-0.6,1-1,1.7-1c1.1,0,2,0.9,2,1.9H63c0-1.1,0.9-1.9,2-1.9c1.1,0,2,0.9,2,1.9h2.5c0-1.1,0.9-1.9,2-1.9c1.1,0,2,0.9,2,1.9h2.5
		c0-0.3,0.1-0.5,0.2-0.8v0.8c0-1.1,0.9-1.9,2-1.9c0.2,0,0.4,0,0.6,0.1c0.1,0,0.1,0,0.2,0c0.1,0,0,0-0.1,0.1c0.3,0.1,0.5,0.3,0.7,0.5
		c0.9-0.3-0.1-0.3,1.3-0.7c-0.2,0-0.6,0.1-0.9,0.1c0.3-0.1,0.5-0.2,0.1-0.2c0.5-0.1,0.5-0.1,0.8-0.2c-0.8,0.1,0.5-0.3-1.1,0
		c0.1-0.1,0.7-0.2,0.1-0.1c0.9-0.2,1.6-0.3,1.9-0.4c-0.2,0-1,0.2-1.5,0.2c0.2,0,0.3-0.1,0.2-0.1c0.4-0.1,1.5-0.2,1.1-0.2
		c0.7-0.1,0.7,0,0.6,0.1c-1.5,0.2,0,0.1-1.6,0.3c0.3,0,1.1-0.1,1.5-0.2c0.2,0.4-0.7,0.7-1.3,1.1c0,0-0.3,0.1-0.5,0.1
		c-0.2,0-0.4,0.1-0.6,0.1c0,0,0.1,0.1,0.1,0.1c0.5-0.1,0.8-0.2,0.8-0.2c0.9-0.1,0.1,0.1-0.8,0.3c0.1,0.1,0.1,0.2,0.2,0.3
		c0.2,0,0.3-0.1,0.3-0.1c0.3,0,0.3,0,0.9-0.1c0.1,0-0.8,0.2,0.2,0.1c-0.2,0.1-1.1,0.2-1.4,0.2c0,0,0,0,0,0.1c0.1,0,0.4-0.1,0.9-0.2
		c-0.6,0.2,0.7,0.1-0.8,0.3c0,0,0,0.1,0,0.1c0.1,0,0.4-0.1,0.9-0.2c-0.5,0.2-0.2,0.2,0.3,0.2c-1.3,0.2-1,0.2-1.2,0.3c0,0,0,0,0,0
		h2.5c0-1.1,0.9-1.9,2-1.9c0.7,0,1.3,0.4,1.7,0.9c0,0,0,0,0.1,0c0,0,0,0-0.1,0c0.1,0.2,0.2,0.5,0.3,0.8c0,0,0,0,0.1,0c0,0,0,0-0.1,0
		c0,0,0,0.1,0,0.1c0.1,0,0.1,0,0.2,0c-0.1,0-0.1,0-0.2,0c0,0,0,0,0,0h0.6c0.2,0,0.4-0.1,0.6-0.1c0.1,0-0.1,0.1-0.3,0.1h0.2
		c0.4-0.1,0.5-0.1,0.3,0h0c1.1-0.1,0.6-0.2,1-0.2c0,0-0.3,0.1-0.7,0.2h0.6c0,0,0.1,0,0.2,0c0-0.3,0.1-0.6,0.3-0.9
		c-0.3,0-0.5,0.1-0.5,0.1c-0.4,0,0,0,0.5-0.1c0.3-0.6,1-1,1.7-1c1.1,0,2,0.9,2,1.9h2.5c0-1.1,0.9-1.9,2-1.9c1.1,0,2,0.9,2,1.9h2.5
		c0-1.1,0.9-1.9,2-1.9s2,0.9,2,1.9h2.5c0-1.1,0.9-1.9,2-1.9c1,0,1.8,0.7,1.9,1.6c0.1,0,0.3,0,0.6-0.1c-0.1,0.1,0,0.1,0.2,0.1
		c0.8-0.1,1-0.1,0.8-0.2c0.5,0,0.6,0.1-0.1,0.2c0.2,0,0.6,0,0.9-0.1c-0.1,0-0.9,0.1-0.5,0.1c-0.4,0.1-0.8,0.1-0.8,0.1
		c-0.9,0.1,0.7-0.2,0.4-0.2c-0.8,0.1-1.2,0.1-1.4,0.1c0,0.1,0,0.2,0,0.2h0.8c1.1-0.2,1-0.1,1.7-0.2c0.1-0.9,0.9-1.7,1.9-1.7
		c0.1,0,0.1,0,0.2,0c0.1,0,0.2,0,0.3,0.1c0.8,0.2,1.4,1,1.4,1.8h0.1h1h0h1.4h0.1c0-1,0.9-1.9,1.9-1.9c0.1,0,0.2,0,0.2,0
		c0,0,0.1,0,0.1,0c0.9,0.2,1.5,1,1.5,1.9h0.1h2.4h0.1c0,0,0,0,0,0c0,0,0,0,0,0c0,0,0,0,0.1,0c0-0.3,0.1-0.6,0.3-0.9c0,0-0.1,0-0.1,0
		c0,0,0-0.1,0-0.1c0,0,0.1,0,0.1,0c0.3-0.5,0.9-0.9,1.6-0.9c0.1,0,0.1,0,0.2,0c0.1,0,0.2,0,0.3,0.1c0.8,0.2,1.5,1,1.5,1.8h0.1h0.1
		h1.2h1.1h0.1c0-0.1,0-0.2,0-0.3c0,0-0.1,0-0.1,0c0,0,0,0,0,0c0,0,0,0,0,0c0,0,0.1,0,0.1,0c0,0,0,0,0-0.1v0.4c0-0.7,0.3-1.2,0.9-1.6
		c0,0,0,0,0,0c0.2-0.1,0.3-0.2,0.5-0.2c0.1,0,0.3-0.1,0.5-0.1c0,0,0.1,0,0.1,0c0.2,0,0.4,0,0.6,0.1c0.1,0,0.1,0,0.2,0
		c0.1,0,0,0-0.1,0.1c0.3,0.1,0.5,0.3,0.7,0.5c0.9-0.3-0.1-0.3,1.3-0.7c-0.2,0-0.6,0.1-0.9,0.1c0.3-0.1,0.5-0.2,0.1-0.2
		c0.5-0.1,0.5-0.1,0.8-0.2c-0.8,0.1,0.5-0.3-1.1,0c0.1-0.1,0.7-0.2,0.1-0.1c0.9-0.2,1.6-0.3,1.9-0.4c-0.2,0-1,0.2-1.5,0.2
		c0.2,0,0.3-0.1,0.2-0.1c0.4-0.1,1.5-0.2,1.1-0.2c0.7-0.1,0.7,0,0.6,0.1c-1.5,0.2,0,0.1-1.6,0.3c0.3,0,1.1-0.1,1.5-0.2
		c0.2,0.4-0.7,0.7-1.3,1.1c0,0-0.3,0.1-0.5,0.1c-0.2,0-0.4,0.1-0.6,0.1c0,0,0.1,0.1,0.1,0.1c0.5-0.1,0.8-0.2,0.8-0.2
		c0.9-0.1,0.1,0.1-0.8,0.3c0.1,0.1,0.1,0.2,0.2,0.3c0.2,0,0.3-0.1,0.3-0.1c0.3,0,0.3,0,0.9-0.1c0.1,0-0.8,0.2,0.2,0.1
		c-0.2,0.1-1.1,0.2-1.4,0.2c0,0,0,0,0,0.1c0.1,0,0.4-0.1,0.9-0.2c-0.6,0.2,0.7,0.1-0.8,0.3c0,0,0,0.1,0,0.1c0.1,0,0.4-0.1,0.9-0.2
		c-0.5,0.2-0.2,0.2,0.3,0.2c-1.3,0.2-1,0.2-1.2,0.3c0,0,0,0,0,0h2.5c0-1.1,0.9-1.9,2-1.9c0.7,0,1.3,0.4,1.7,0.9c0,0,0,0,0.1,0
		c0,0,0,0-0.1,0c0.1,0.2,0.2,0.5,0.3,0.8c0,0,0,0,0.1,0c0,0,0,0-0.1,0c0,0,0,0.1,0,0.1c0.1,0,0.1,0,0.2,0c-0.1,0-0.1,0-0.2,0
		c0,0,0,0,0,0h0.6c0.2,0,0.4-0.1,0.6-0.1c0.1,0-0.1,0.1-0.3,0.1h0.2c0.4-0.1,0.5-0.1,0.3,0h0c1.1-0.1,0.6-0.2,1-0.2
		c0,0-0.3,0.1-0.7,0.2h0.6c0,0,0.1,0,0.2,0c0-0.3,0.1-0.6,0.3-0.9c-0.3,0-0.5,0.1-0.5,0.1c-0.4,0,0,0,0.5-0.1c0.3-0.6,1-1,1.7-1
		c1.1,0,2,0.9,2,1.9h2.5c0-1.1,0.9-1.9,2-1.9c1.1,0,2,0.9,2,1.9h2.5c0-1.1,0.9-1.9,2-1.9c1.1,0,2,0.9,2,1.9h2.5c0-1.1,0.9-1.9,2-1.9
		c1,0,1.8,0.7,1.9,1.6c0.1,0,0.3,0,0.6-0.1c-0.1,0.1,0,0.1,0.2,0.1c0.8-0.1,1-0.1,0.8-0.2c0.5,0,0.6,0.1-0.1,0.2
		c0.2,0,0.6,0,0.9-0.1c-0.1,0-0.9,0.1-0.5,0.1c-0.4,0.1-0.8,0.1-0.8,0.1c-0.9,0.1,0.7-0.2,0.4-0.2c-0.8,0.1-1.2,0.1-1.4,0.1
		c0,0.1,0,0.2,0,0.2h0.8c1.1-0.2,1-0.1,1.7-0.2c0.1-1,0.9-1.7,2-1.7c1,0,1.9,0.8,2,1.8c0.1,0,0.2,0,0.3,0c0.3,0,0.2,0.1,0.4,0.1
		c0.1,0-0.5,0.1-0.7,0.1c0,0,0,0,0,0h1c-0.2,0,0.9-0.2-0.5,0c0.7-0.1,0.8-0.2,0.6-0.3c1.1-0.1-0.7,0.3,0.9,0.1
		c-0.2,0-0.6,0.1-0.5,0.1c-0.3,0-0.4,0-0.5,0h1.5c0-1.1,0.9-1.9,2-1.9c0.8,0,1.6,0.5,1.8,1.3c0.2,0,0.5-0.1,0.7-0.1
		c-0.7,0-0.4-0.2-0.4-0.3c1-0.1,0.5,0.1,1.5,0.1c-1,0.2-0.3,0.2-0.2,0.4c-0.5,0.1-0.6,0.1-1.2,0.1c1.2-0.2-0.8,0,0.4-0.2
		c0,0-0.5,0-0.8,0.1c0.1,0.2,0.1,0.3,0.1,0.5h2.5c0,0,0,0,0,0c0,0,0,0,0,0c0,0,0,0,0.1,0c0-0.3,0.1-0.6,0.3-0.9c-0.3,0-0.4,0-0.5,0
		c0.2,0,0.4,0,0.5-0.1c0.4-0.5,1-0.9,1.7-0.9c0.5,0,0.9,0.2,1.3,0.5c0.4,0,0.6,0,0.6,0c-0.3,0-0.4,0.1-0.5,0.1
		c0.3,0.3,0.6,0.8,0.6,1.3h0.1c0.7,0,1,0,2.2-0.1c-0.2,0-0.6,0.1-1,0.1h1.2c0-0.1,0-0.2,0-0.3c0,0-0.1,0-0.1,0c-0.1,0,0,0,0.1,0
		c0.1-0.9,1-1.6,1.9-1.6c1.1,0,2,0.9,2,1.9h1.1l0,0c0,0,0,0,0,0h1.4c0-1,0.8-1.9,1.9-1.9c0-0.1,0-0.2,0.1-0.5c0,0,0,0,0,0v-2
		c0,0-0.1,0-0.1,0c0,0.1,0,0.2-0.1,0.4c0,0-0.1,0.1-0.1,0.1c0-0.3,0.1-0.4,0.1-0.5c-0.4,0-0.8-0.2-1.1-0.4c0,0.2-0.1,0.5-0.1,0.8
		c0-0.2,0-0.3,0-0.2c0.1-0.3,0.1-0.5,0.1-0.6c-0.4-0.4-0.7-0.9-0.7-1.4c0-0.5,0.2-0.9,0.4-1.2c0.1-0.2,0.2-0.4,0.2-0.4
		c0,0.1,0,0.2-0.1,0.2c0.4-0.3,0.8-0.5,1.4-0.5v-2.4c-1.1,0-2-0.9-2-1.9c0-1.1,0.9-1.9,2-1.9v-2.4c-1.1,0-2-0.8-2-1.9
		c-0.1,0.1-0.1,0-0.1-0.1c0.1-0.3,0.1-0.5,0.2-0.6c0.1-0.2,0.2-0.5,0.4-0.6c0,0,0-0.1,0-0.1c0.1-0.4,0.2-1.1,0.3-0.9
		c-0.1,0.5-0.2,0.8-0.2,1c0.1-0.1,0.2-0.2,0.3-0.2c0.1-0.3,0.2-0.6,0.3-1c-0.1,0.3-0.1,0.7-0.2,1c0.3-0.2,0.7-0.3,1.1-0.3v-2.4
		c-1.1,0-2-0.9-2-1.9c0-0.6,0.3-1.2,0.8-1.5c0-0.4,0.1-0.7-0.1,0c0-0.4-0.1,0,0.2-1.3c0,0.6,0.1,0.3,0.3-0.2
		c-0.4,1.4-0.1,0.8-0.2,1.4c0.3-0.2,0.6-0.3,1-0.3V40c-0.5,0-1-0.2-1.3-0.5c-0.1,0.5-0.1,0.1-0.2,0.3c0-0.1,0.1-0.3,0.1-0.3
		c-0.4-0.3-0.6-0.8-0.6-1.3c0-1.1,0.9-1.9,2-1.9v-2.4c-1.1,0-2-0.9-2-1.9c0-1.1,0.9-1.9,2-1.9v-2.4c-1.1,0-2-0.9-2-1.9
		c0-1.1,0.9-1.9,2-1.9v-2.4c-1.1,0-2-0.9-2-1.9c0-1.1,0.9-1.9,2-1.9v-2.4c-1.1,0-2-0.9-2-1.9c0-1.1,0.9-1.9,2-1.9V8.8
		c-1.1,0-2-0.9-2-1.9C198.5,5.8,199.4,5,200.5,5z M3.7,32.1c-0.1-0.1-0.1-0.2,0,0.2c0,0,0,0,0,0v0.3C3.4,32,3.2,32,3.2,32.6
		c-0.1-0.3,0-0.3-0.3-1.1c0.4,0.5,0.6,0.3,0.9,0.4V32.1z M3.7,31.9c0-0.1,0-0.1-0.1-0.2c0,0,0,0,0.1,0.1V31.9z M12.7,12.3
		c0.1,0,0.2,0,0.2,0c0.1,0,0.1,0,0.2,0h0l1.2,0.1c0.4,0,0.9,0.1,1.4,0.1c0.4,0,0.8,0,1.4-0.1h0c0.6-0.1,1.2-0.1,1.7-0.1
		c0.5,0,0.9,0,1.3,0c1.1,0,2,0.1,2.7,0.2c0.5,0.1,1,0.4,1.5,0.7c0.5,0.3,0.8,0.6,1.2,1c0.3,0.4,0.6,0.8,0.8,1.3
		c0.2,0.5,0.3,1,0.3,1.6c0,1.6-0.5,2.8-1.6,3.7c-1.1,0.9-2.7,1.3-4.8,1.3h-1.7c-0.2,0-0.5,0-0.6,0c-0.2,0-0.3,0-0.4,0
		c-0.1,0-0.1,0-0.1,0.1c0,0,0,0.1,0,0.3V23c0,2,0,3.2,0.1,3.6c0.1,0.3,0.3,0.4,0.7,0.4c0.1,0,0.2,0,0.2,0c0.1,0,0.1,0,0.2,0
		c0.1,0,0.2,0,0.3,0c0.1,0,0.2,0,0.2,0s0.1,0,0.1,0c0,0,0.1,0,0.1,0c0.8,0,1.1,0.4,1.1,1.1c0,0.8-0.5,1.2-1.5,1.2c0,0-0.1,0-0.1,0
		c0,0-0.1,0-0.1,0s-0.1,0-0.1,0l-1.2-0.2c-0.3,0-0.8-0.1-1.4-0.1c-0.5,0-1,0-1.3,0.1l-1.4,0.2c0,0-0.1,0-0.1,0h-0.2
		c-1,0-1.5-0.4-1.5-1.2c0-0.3,0.1-0.6,0.3-0.8c0.2-0.2,0.5-0.3,0.8-0.3c0.2,0,0.5,0,0.7,0.1c0.1,0,0.1,0,0.2,0c0.1,0,0.1,0,0.2,0
		c0.5,0,0.8-0.5,0.8-1.4v-9.6c0-1-0.3-1.4-0.8-1.4c0,0-0.1,0-0.1,0s-0.1,0-0.2,0c0,0-0.1,0-0.1,0s-0.1,0-0.1,0h0
		c-0.3,0-0.5,0.1-0.7,0.1c-0.8,0-1.2-0.4-1.2-1.1C11.3,12.7,11.8,12.3,12.7,12.3z M18.9,37.9c0,0.4-0.3,0.7-0.6,0.7h-4.5
		c-0.3,0-0.6-0.3-0.6-0.7c0-0.4,0.3-0.7,0.6-0.7h4.5C18.6,37.2,18.9,37.5,18.9,37.9z M43.5,59.1c0,0.6-0.5,1-1,1H12.1
		c-0.6,0-1-0.5-1-1V40.6c0-0.6,0.5-1,1-1H20c0,0,0.1-0.1,0.1-0.2l1.5-2.3c0.3-0.4,0.8-0.7,1.3-0.7H32c0.5,0,1,0.3,1.3,0.7l1.5,2.3
		c0,0.1,0.1,0.1,0.1,0.2h7.6c0.6,0,1,0.5,1,1V59.1z M44.1,26.9c0,0,0.1,0,0.2,0c0.1,0,0.2,0,0.3,0l0.6-0.1c0.8,0,1.2,0.4,1.2,1.1
		c0,0.8-0.5,1.2-1.5,1.2c-0.2,0-0.6,0-1-0.1c-0.5-0.1-1.1-0.2-1.7-0.2c-0.9,0-1.6,0-2.2,0.1c-0.3,0.1-0.6,0.1-0.8,0.1
		c-0.2,0-0.3,0-0.4,0c-1,0-1.4-0.4-1.4-1.2c0-0.7,0.4-1.1,1.2-1.1c0,0,0,0,0.2,0c0.2,0,0.3,0,0.4,0c0.1,0,0.2,0,0.3,0
		c0.1,0,0.2,0,0.2,0c0.4,0,0.7-0.3,0.8-1c0-0.1,0-0.8,0-2.1v-2.4h-6.8v2.4c0,1.3,0,2,0,2.1c0.1,0.7,0.4,1,0.8,1c0,0,0.1,0,0.2,0
		c0.1,0,0.2,0,0.3,0l0.6-0.1c0.8,0,1.1,0.4,1.1,1.1c0,0.8-0.5,1.2-1.5,1.2c-0.2,0-0.5,0-1.1-0.1c-0.4-0.1-0.7-0.1-1.1-0.1
		c-0.3,0-0.6,0-0.9,0c-0.3,0-0.7,0-1,0s-0.7,0.1-1.1,0.1l-0.6,0.1c-0.1,0-0.1,0-0.1,0c0,0-0.1,0-0.2,0c-1,0-1.5-0.4-1.5-1.2
		c0-0.3,0.1-0.5,0.3-0.8c0.2-0.2,0.5-0.3,0.8-0.3c0.1,0,0.2,0,0.3,0c0.1,0,0.2,0,0.3,0c0.2,0,0.4,0.1,0.5,0.1c0.5,0,0.8-0.5,0.8-1.4
		v-9.6c0-1-0.3-1.5-0.8-1.5c0,0-0.1,0-0.1,0c0,0-0.1,0-0.2,0c-0.1,0-0.3,0.1-0.4,0.1c-0.1,0-0.3,0-0.4,0c-0.3,0-0.6-0.1-0.8-0.3
		c-0.2-0.2-0.3-0.5-0.3-0.8c0-0.8,0.5-1.2,1.5-1.2c0.1,0,0.2,0,0.3,0c0.1,0,0.3,0,0.5,0.1c0,0,0.1,0,0.1,0s0,0,0.1,0
		c0.6,0.1,1.3,0.2,2.1,0.2c0.3,0,0.8,0,1.4-0.1c0.7-0.1,1.2-0.1,1.5-0.1c1,0,1.5,0.4,1.5,1.2c0,0.3-0.1,0.6-0.3,0.8
		s-0.5,0.3-0.8,0.3c-0.1,0-0.3,0-0.4,0c-0.1,0-0.3,0-0.4-0.1c0,0-0.1,0-0.1,0c0,0-0.1,0-0.1,0c0,0-0.1,0-0.1,0
		c-0.3,0-0.5,0.1-0.6,0.4c-0.1,0.2-0.2,0.6-0.2,1.1l0,3.2h6.8V16c0-1-0.3-1.5-0.8-1.5c0,0-0.1,0-0.1,0s-0.2,0-0.2,0h0
		c-0.1,0-0.2,0.1-0.4,0.1c-0.1,0-0.3,0-0.4,0c-0.8,0-1.2-0.4-1.2-1.1c0-0.8,0.5-1.2,1.4-1.2c0.3,0,0.7,0,1.3,0.1
		c0.3,0,0.6,0.1,0.8,0.1c0.3,0,0.5,0,0.7,0c0.3,0,0.7,0,1.1,0c0.4,0,0.8-0.1,1.2-0.1c0.2,0,0.4-0.1,0.6-0.1c0.2,0,0.3,0,0.4,0
		c1,0,1.5,0.4,1.5,1.2c0,0.7-0.4,1.1-1.2,1.1c-0.1,0-0.2,0-0.3,0c-0.1,0-0.2,0-0.3,0c-0.1,0-0.2,0-0.4,0c-0.1,0-0.2,0-0.2,0
		c-0.5,0-0.7,0.5-0.7,1.5v9.5C43.3,26.5,43.5,26.9,44.1,26.9z M178.3,14.5c-0.1,0-0.3,0-0.4,0c-0.2,0-0.5,0.1-0.7,0.1
		c-0.3,0-0.6-0.1-0.8-0.3c-0.2-0.2-0.3-0.5-0.3-0.8c0-0.8,0.5-1.2,1.4-1.2c0,0,0.1,0,0.1,0c0.1,0,0.2,0,0.2,0l1.9,0.1
		c0.4,0,0.7,0.1,1,0.1c0.2,0,0.4,0,0.7,0l5.8-0.2c0.1,0,0.5,0,1.2-0.1h0c0.1,0,0.3,0,0.4,0s0.2,0,0.3,0c1.1,0,1.7,0.5,1.7,1.4
		c0,0,0,0.2,0,0.4s0,0.5-0.1,0.8c0,0.2-0.1,0.5-0.1,0.7c0,0.2,0,0.5,0,0.6c0,0.3,0,0.5,0,0.7c0,0.2,0,0.3,0,0.4
		c0,0.2,0.1,0.4,0.1,0.6c0,0.2,0,0.3,0,0.5c0,0.8-0.4,1.2-1.3,1.2c-0.8,0-1.3-0.5-1.3-1.6V17c0-1.2-0.2-1.9-0.6-2h0
		c-0.4-0.2-1.4-0.2-3.1-0.2c-1,0-1.7,0-1.9,0.1c-0.5,0.2-0.7,0.5-0.7,1.1v1.6c0,0.1,0,0.2,0,0.3c0,0.1,0,0.1,0,0.2v0.3
		c0,0.4,0,0.7,0.1,0.8c0.2,0,0.3,0,0.5,0h1c0.7,0,1.1-0.2,1.1-0.6c0,0,0-0.1,0-0.3c0-0.2,0-0.3,0-0.4v0c0-0.3-0.1-0.6-0.1-0.9
		c0-0.8,0.4-1.3,1.3-1.3c0.8,0,1.3,0.4,1.3,1.3c0,0.1,0,0.3,0,0.5c0,0.3-0.1,0.6-0.1,1c-0.1,0.7-0.1,1.4-0.1,1.9c0,0.1,0,0.4,0,0.7
		c0,0.3,0,0.6,0.1,1l0.1,0.8c0,0.3,0.1,0.6,0.1,0.9c0,0.8-0.4,1.2-1.3,1.2c-0.8,0-1.2-0.4-1.2-1.3c0-0.1,0-0.2,0-0.3
		c0-0.1,0-0.3,0-0.4c0-0.1,0-0.2,0-0.3c0-0.1,0-0.2,0-0.3c0-0.1,0-0.2,0-0.2c0,0,0,0,0,0c0-0.4-0.3-0.7-0.9-0.7h-1.1
		c-0.3,0-0.5,0.1-0.5,0.2c-0.1,0.1-0.1,0.4-0.1,0.7v1.5c0,0.1,0,0.3,0,0.4c0,0.2,0,0.3,0,0.6c0,0.3,0,0.5,0,0.7c0,0.2,0,0.3,0,0.4
		c0,0.6,0.1,0.9,0.2,1c0.1,0.1,0.4,0.1,1,0.1h3.3c0.8,0,1.3-0.1,1.6-0.4s0.4-0.7,0.4-1.3c0-0.1,0-0.2,0-0.3c0-0.1,0-0.2,0-0.4
		c0,0,0-0.1,0-0.2c0-0.1,0-0.1,0-0.2c0-0.2,0-0.4,0-0.6c0-0.2,0-0.4,0-0.5c0-0.9,0.4-1.4,1.3-1.4c0.9,0,1.3,0.5,1.3,1.4
		c0,0.1,0,0.2,0,0.4c0,0.1,0,0.3,0,0.5c0,0,0,0.1,0,0.2c0,0.1,0,0.2,0,0.2c0,0.1,0,0.2,0,0.2c0,0.1,0,0.2,0,0.2c0,0.2,0,0.3,0,0.5
		s0,0.2,0,0.3c0,0.1,0,0.2,0,0.4c0,0.2,0,0.4,0,0.6c0,0.1,0,0.1,0,0.2c0,0,0,0.1,0,0.1c0,0.1,0,0.3,0,0.4c0,0.1,0,0.2,0,0.3
		c0,1-0.5,1.5-1.5,1.5c-0.1,0-0.2,0-0.3,0s-0.2,0-0.3,0c0,0-0.1,0-0.2,0c-0.1,0-0.1,0-0.2,0c-0.3,0-0.6-0.1-0.8-0.1
		c-0.2,0-0.5,0-0.8,0c-0.3,0-0.5,0-0.8,0c-0.3,0-0.6,0-1,0c-0.6,0-1.1,0-1.6,0c-0.5,0-0.9,0-1.4,0c-1.5,0-3,0-4.4,0.1
		c-0.1,0-0.1,0-0.1,0h-0.2c-0.9,0-1.4-0.4-1.4-1.2c0-0.7,0.4-1.1,1.1-1.1c0,0,0,0,0.1,0c0,0,0.1,0,0.1,0c0,0,0.1,0,0.2,0
		c0.1,0,0.2,0,0.2,0c0.1,0,0.2,0,0.2,0c0.1,0,0.2,0,0.2,0c0.5,0,0.8-0.5,0.8-1.4v-9.6C179.1,15,178.8,14.5,178.3,14.5z M160.2,14.4
		c1.4-1.7,3.2-2.5,5.5-2.5c1.4,0,2.7,0.4,3.8,1.2v0c0-0.7,0.4-1.1,1.2-1.1c0.8,0,1.2,0.4,1.2,1.3c0,0.1,0,0.2,0,0.3s0,0.2,0,0.2
		l-0.1,1.1c0,0.3-0.1,0.7-0.1,1c0,0.1,0,0.4,0,0.7s0,0.7,0.1,1.2v0.2c0,0.9-0.4,1.4-1.3,1.4c-0.8,0-1.2-0.5-1.2-1.5v-0.7
		c0-1-0.3-1.8-1-2.3s-1.5-0.9-2.6-0.9c-1.4,0-2.5,0.6-3.3,1.7c-0.8,1.1-1.2,2.7-1.2,4.7c0,2.1,0.4,3.8,1.2,4.9s2,1.8,3.4,1.8
		c1.1,0,1.9-0.3,2.5-1c0.6-0.7,0.9-1.6,0.9-2.8c0-0.4-0.1-0.7-0.2-0.9c-0.1-0.2-0.3-0.2-0.7-0.2c-0.1,0-0.1,0-0.2,0s-0.2,0-0.3,0
		c-0.1,0-0.2,0-0.3,0s-0.2,0-0.3,0c-1,0-1.5-0.4-1.5-1.1c0-0.8,0.5-1.2,1.4-1.2c0.1,0,0.2,0,0.3,0c0.1,0,0.2,0,0.3,0h0.1
		c0.5,0.1,1,0.1,1.4,0.1s0.7,0,1,0c0.8,0,1.6-0.1,2.4-0.2c0.1,0,0.2,0,0.3,0c0.1,0,0.2,0,0.4,0c0.9,0,1.4,0.4,1.4,1.1
		c0,0.3-0.1,0.6-0.4,0.8s-0.5,0.3-0.9,0.3c-0.1,0-0.2,0-0.3,0c-0.1,0-0.2,0-0.2,0c0,0-0.1,0-0.1,0h-0.1c-0.4,0-0.6,0.7-0.6,2v1.9
		c0,0.2,0,0.5,0,0.7c0,0.2,0,0.4,0,0.6c0,0.1,0,0.2,0,0.3c0,0.1,0,0.2,0,0.3c0,0.9-0.4,1.3-1.3,1.3c-0.8,0-1.2-0.4-1.2-1.2v0
		c0,0,0-0.1,0-0.1l-0.1,0.1c-1,0.9-2.4,1.3-4.1,1.3c-2.2,0-3.9-0.8-5.3-2.4c-0.7-0.8-1.2-1.7-1.5-2.7c-0.3-1-0.5-2.2-0.5-3.4
		C158.2,18.2,158.9,16,160.2,14.4z M139.9,26.8c0.1,0,0.1,0,0.2,0c0,0,0.1,0,0.2,0h0.2c0.3,0,0.5-0.1,0.6-0.3
		c0.1-0.1,0.2-0.5,0.4-1.1l4.5-12c0.3-0.8,0.9-1.2,1.9-1.2c0.9,0,1.5,0.4,1.8,1.2l4.3,11.8c0.2,0.6,0.4,1.1,0.6,1.3
		c0.2,0.2,0.4,0.3,0.7,0.3c0.1,0,0.2,0,0.2,0c0.1,0,0.2,0,0.3,0c0.1,0,0.1,0,0.2,0c0.1,0,0.1,0,0.2,0c0.9,0,1.4,0.4,1.4,1.1
		c0,0.8-0.4,1.1-1.3,1.1c-0.1,0-0.2,0-0.3,0c-0.1,0-0.2,0-0.3,0c0,0-0.1,0-0.1,0s-0.1,0-0.1,0c-0.5-0.1-0.9-0.1-1.3-0.1
		c-0.4,0-0.7,0-0.9,0c-0.3,0-0.7,0-1.1,0c-0.5,0-1,0.1-1.7,0.1c0,0-0.1,0-0.1,0c0,0-0.1,0-0.1,0c-0.1,0-0.2,0-0.3,0
		c-0.1,0-0.2,0-0.3,0c-0.9,0-1.4-0.4-1.4-1.1c0-0.8,0.5-1.1,1.5-1.1c0.1,0,0.2,0,0.3,0c0.1,0,0.2,0,0.4,0c0.1,0,0.2,0,0.3,0
		c0.1,0,0.2,0,0.2,0c0.2,0,0.4-0.1,0.4-0.3c0,0,0,0,0-0.1s0-0.1-0.1-0.2l-0.1-0.2v0l-0.8-2.3c-0.1-0.2-0.1-0.3-0.2-0.3
		c-0.1,0-0.2-0.1-0.4-0.1h-4.3c-0.2,0-0.3,0-0.4,0.1c-0.1,0.1-0.2,0.3-0.3,0.7l-0.7,1.9c0,0.1-0.1,0.2-0.1,0.3
		c0,0.3,0.2,0.4,0.5,0.4c0.1,0,0.2,0,0.3,0c0.1,0,0.2,0,0.4,0s0.3,0,0.4,0c0.1,0,0.2,0,0.3,0c0.9,0,1.4,0.4,1.4,1.2
		c0,0.7-0.5,1.1-1.5,1.1c-0.1,0-0.1,0-0.2,0s-0.2,0-0.2,0h-0.1l-1.2-0.2c-0.1,0-0.2,0-0.4,0c-0.2,0-0.4,0-0.6,0c-0.2,0-0.5,0-0.7,0
		c-0.2,0-0.4,0-0.5,0l-1,0.1c-0.2,0-0.4,0.1-0.6,0.1c-0.2,0-0.3,0-0.5,0c-0.9,0-1.3-0.4-1.3-1.1C138.6,27.2,139.1,26.8,139.9,26.8z
		 M117.5,14.5c0,0-0.1,0-0.2,0c-0.1,0-0.3,0-0.3,0c-0.1,0-0.2,0-0.3,0s-0.2,0-0.3,0c-0.8,0-1.1-0.4-1.1-1.1c0-0.8,0.5-1.2,1.5-1.2
		c0,0,0.1,0,0.2,0s0.1,0,0.2,0l0.8,0.1c0.4,0,0.8,0.1,1.1,0.1c0.1,0,0.3,0,0.5,0c0.2,0,0.4,0,0.7-0.1c0.3,0,0.5-0.1,0.7-0.1
		c0.2,0,0.4,0,0.5,0c0.8,0,1.4,0.5,1.6,1.4l0.2,0.6v0l3.3,10.8l3.6-11.6c0.3-0.8,0.8-1.2,1.5-1.2h0.1c0.2,0,0.4,0,0.7,0.1
		c0.3,0.1,0.5,0.1,0.6,0.1c0.1,0,0.3,0,0.4,0c0.2,0,0.3,0,0.5,0c0.4,0,0.8,0,1-0.1l0.7-0.1c0.1,0,0.2,0,0.5,0c1,0,1.5,0.4,1.5,1.2
		c0,0.7-0.4,1.1-1.2,1.1c-0.1,0-0.2,0-0.3,0s-0.2,0-0.3,0c-0.1,0-0.2,0-0.4,0c-0.1,0-0.2,0-0.2,0c-0.5,0-0.8,0.5-0.8,1.5v1.7l0,2.1
		v2l0,3.8c0,1,0.3,1.4,0.8,1.4c0.1,0,0.1,0,0.2,0c0.1,0,0.1,0,0.2,0c0.2,0,0.3,0,0.4,0c0.1,0,0.1,0,0.2,0c0,0,0.1,0,0.1,0
		c0,0,0.1,0,0.1,0c0.8,0,1.2,0.4,1.2,1.1c0,0.4-0.1,0.7-0.4,0.9c-0.3,0.2-0.6,0.3-1,0.2c-0.3,0-0.6,0-0.7,0c-0.2,0-0.4,0-0.6-0.1
		c-0.4,0-0.7-0.1-1-0.1c-0.3,0-0.5,0-0.8,0c-0.3,0-0.7,0-1,0s-0.7,0.1-1,0.1c-0.3,0-0.6,0.1-0.8,0.1c-0.9,0-1.3-0.4-1.3-1.1
		c0-0.8,0.5-1.1,1.4-1.1c0.1,0,0.2,0,0.2,0c0.1,0,0.1,0,0.2,0c0.1,0,0.2,0,0.2,0s0.1,0,0.1,0h0.2c0.3,0,0.5-0.5,0.6-1.5
		c0-0.2,0-0.5,0-0.9c0-0.4,0-0.9,0-1.5c0-0.3,0-0.6,0-1c0-0.4,0-0.8,0-1.3c0-0.3,0-0.7,0-1.1c0-0.4,0-0.8,0-1.1v-2.5l-3.9,12
		c-0.1,0.3-0.3,0.6-0.6,0.8c-0.3,0.2-0.7,0.3-1.1,0.3c-0.5,0-0.9-0.1-1.2-0.2c-0.3-0.2-0.5-0.5-0.6-0.9c-0.6-1.9-1.3-3.9-1.9-5.9
		c-0.6-2-1.3-4-1.9-6l0.1,9.2c0,0.9,0.2,1.4,0.5,1.4c0.1,0,0.3,0,0.6-0.1h0.4c0.9,0,1.3,0.4,1.3,1.2c0,0.8-0.5,1.2-1.4,1.2
		c-0.1,0-0.1,0-0.2,0s-0.1,0-0.2,0h0c0,0-0.1,0-0.1,0l-1.1-0.2c-0.3,0-0.7-0.1-1.1-0.1c-0.8,0-1.4,0-1.6,0.1l-1,0.2c0,0-0.1,0-0.1,0
		h-0.2c-1,0-1.5-0.4-1.5-1.2c0-0.3,0.1-0.6,0.3-0.8c0.2-0.2,0.5-0.3,0.8-0.3c0.1,0,0.2,0,0.4,0s0.3,0,0.4,0c0.1,0,0.2,0,0.2,0
		c0,0,0.1,0,0.1,0c0.5,0,0.8-0.5,0.8-1.4v-9.6C118.3,15,118,14.5,117.5,14.5z M107.2,14.5c-0.1,0-0.3,0-0.4,0
		c-0.3,0-0.5,0.1-0.7,0.1c-0.3,0-0.6-0.1-0.8-0.3c-0.2-0.2-0.3-0.5-0.3-0.8c0-0.8,0.5-1.2,1.4-1.2c0,0,0.1,0,0.2,0s0.2,0,0.2,0
		l1.2,0.2c0.2,0,0.5,0.1,0.7,0.1c0.2,0,0.5,0,0.7,0c0.2,0,0.5,0,0.7,0s0.6-0.1,0.8-0.1l1.1-0.1c0.1,0,0.1,0,0.2,0c0.1,0,0.1,0,0.2,0
		c1,0,1.5,0.4,1.5,1.2c0,0.3-0.1,0.6-0.3,0.8c-0.2,0.2-0.5,0.3-0.8,0.3c-0.2,0-0.5,0-0.7-0.1c-0.2,0-0.3,0-0.4,0
		c-0.5,0-0.8,0.5-0.8,1.4v9.6c0,1,0.3,1.4,0.8,1.4c0,0,0.1,0,0.1,0c0,0,0.1,0,0.2,0h0.1c0.3,0,0.5-0.1,0.7-0.1
		c0.8,0,1.1,0.4,1.1,1.1c0,0.8-0.5,1.2-1.5,1.2h-0.2c0,0-0.1,0-0.1,0l-1.3-0.2c-0.2,0-0.4-0.1-0.6-0.1c-0.2,0-0.4,0-0.6,0
		c-0.3,0-0.6,0-0.9,0s-0.6,0.1-0.8,0.1l-1.1,0.2c-0.1,0-0.1,0-0.2,0h-0.2c-0.9,0-1.4-0.4-1.4-1.2c0-0.7,0.4-1.1,1.1-1.1
		c0,0,0,0,0.1,0c0,0,0.1,0,0.1,0s0.1,0,0.2,0c0.1,0,0.2,0,0.3,0c0.1,0,0.2,0,0.2,0c0.1,0,0.2,0,0.2,0c0.5,0,0.8-0.5,0.8-1.4v-9.6
		C108,15,107.7,14.5,107.2,14.5z M83.6,14.3c1.3-1.6,3.1-2.4,5.4-2.4c2.2,0,4,0.8,5.3,2.3c1.3,1.5,2,3.6,2,6.2c0,2.8-0.7,5-2,6.6
		c-1.3,1.7-3,2.5-5.4,2.5c-2.2,0-4-0.8-5.3-2.4c-1.3-1.6-1.9-3.7-1.9-6.4C81.7,18,82.3,15.9,83.6,14.3z M66.2,12.3
		c0.1,0,0.3,0,0.6,0c0.3,0,0.6,0,1,0.1H68c0.1,0,0.4,0,0.7,0s0.7,0,1.1,0c0.4,0,0.9,0,1.4,0c0.5,0,0.9,0,1.4,0c0.1,0,0.2,0,0.4,0
		s0.4,0,0.6,0c0.2,0,0.4,0,0.7,0s0.6,0,0.9,0c0.3,0,0.8,0,1.5-0.1c0.3,0,0.6-0.1,0.8-0.1c0.3,0,0.5,0,0.7,0c1.1,0,1.6,0.5,1.6,1.4
		c0,0.2,0,0.5-0.1,0.9c0,0.4-0.1,0.9-0.1,1.4v0.2c0,0.1,0,0.2,0,0.4c0,0.2,0,0.4,0,0.7c0,0.3,0.1,0.6,0.1,0.8c0,0.2,0,0.4,0,0.4
		c0,0.9-0.4,1.3-1.3,1.3c-0.9,0-1.3-0.5-1.3-1.5c0-0.3,0-0.7,0.1-1.3c0-0.3,0-0.5,0-0.7s0-0.4,0-0.5c0-0.9-0.5-1.3-1.5-1.3H75
		c-0.4,0-0.7,0.1-0.9,0.3c-0.2,0.2-0.3,0.5-0.3,1l-0.1,1.7l0,8.1c0,1,0.3,1.4,0.8,1.4c0,0,0.1,0,0.2,0c0.1,0,0.2,0,0.3,0
		c0.1,0,0.3,0,0.4,0c0.2,0,0.2,0,0.2,0c0.3,0,0.6,0.1,0.8,0.3c0.2,0.2,0.3,0.5,0.3,0.8c0,0.8-0.5,1.2-1.5,1.2h-0.2c0,0-0.1,0-0.2,0
		l-1.2-0.2c-0.2,0-0.5-0.1-0.7-0.1c-0.2,0-0.5,0-0.7,0c-0.3,0-0.6,0-0.8,0c-0.3,0-0.5,0-0.7,0.1l-1.2,0.2c-0.1,0-0.1,0-0.1,0h-0.2
		c-1,0-1.5-0.4-1.5-1.2c0-0.7,0.4-1.1,1.2-1.1c0,0,0,0,0.2,0c0.2,0,0.3,0,0.4,0c0.1,0,0.2,0,0.3,0c0.1,0,0.2,0,0.2,0
		c0.5,0,0.8-0.5,0.8-1.4v-1.7l0-2.1v-2l0-3.9c0-0.9-0.4-1.4-1.3-1.4h-0.7c-0.9,0-1.3,0.4-1.3,1.3c0,0.2,0,0.4,0,0.5
		c0,0.1,0,0.2,0,0.3l0.1,0.8c0,0.1,0,0.2,0,0.3c0,0.1,0,0.2,0,0.3c0,1.2-0.4,1.8-1.3,1.8c-0.9,0-1.3-0.5-1.3-1.4c0-0.1,0-0.2,0-0.3
		s0-0.3,0-0.4c0,0,0-0.1,0-0.2s0-0.2,0-0.2c0-0.7,0.1-1.2,0.1-1.4c0-0.2,0-0.4,0-0.6c0-0.2,0-0.4,0-0.6L64.9,14c0-0.1,0-0.1,0-0.1
		c0,0,0-0.1,0-0.2C64.9,12.8,65.4,12.3,66.2,12.3z M50.3,14.3c1.3-1.6,3.1-2.4,5.4-2.4c2.2,0,4,0.8,5.3,2.3c1.3,1.5,2,3.6,2,6.2
		c0,2.8-0.7,5-2,6.6c-1.3,1.7-3,2.5-5.4,2.5c-2.2,0-4-0.8-5.3-2.4c-1.3-1.6-1.9-3.7-1.9-6.4C48.3,18,49,15.9,50.3,14.3z M192.6,60.3
		c0,0-13.2,0-30.2,0c-0.1,0-0.3,0-0.4,0c-1,0.8-2.5,0.3-3.5,0.3c0,0,0-0.6-0.2-0.3c-0.1,0-0.3,0-0.4,0c-0.6,0-1.1,0-1.7,0
		c-0.1,0-0.3,0-0.4,0c-2.9,0.8-6.5,0.8-9.6,0c-0.1,0-0.3,0-0.4,0c-4.4,0-8.7,0-13.1,0v0.1c-12,0-28,0-33.4,0
		c-0.7,0.1-1.4,0.1-2.1,0.2c-0.5,0.3-1.1,0.1-1.6,0.1c-0.8,0-1.6-0.1-2.3-0.2c-1.9,0.6-4.2,0.6-6.2,0c-0.1,0-0.2,0-0.3,0
		c-3.4,0-6.9,0-10.2,0c-0.1,0-0.2,0-0.3,0c-1-0.2-2.3-0.2-3.2,0c-0.1,0-0.2,0-0.3,0c-5.3,0-10.2,0-14.3,0c-0.1,0-0.2,0-0.2,0
		c-2.2-0.2-4.5,0.6-6.5,0c-0.1,0-0.2,0-0.4,0c-2.3,0-3.6,0-3.6,0V35.6c6.1,0,57.4,0,72.2,0c0.1,0,0.3,0,0.4,0c1.5,0.4,3.4,0.4,4.7,0
		c0.1,0,0.3,0,0.4,0c0.1,0,0.3,0,0.4,0c0.1,0,0.3,0,0.4,0c3.3,0.4,6.7,0.4,9.8,0c0.1,0,0.3,0,0.4,0c4.9,0,9.8,0,14.6,0
		c0.1,0,0.3,0,0.4,0c1.6,0.4,2.5,0.4,3.8,0.1c0.1,0,0.3-0.1,0.4-0.1c8,0,15.5,0,21.5,0c0.1,0,0.2,0,0.3,0c2.9,0.4,5.8,0.4,8.7,0
		c0.1,0,0.3,0,0.4,0c2.8,0,5.3,0,5.9,0V60.3z M195.4,10.7c0.2,1.2,0.1,1.4,0,1.6c-0.1-0.6-0.1-0.8-0.2-1.4
		C195.3,10.7,195.3,10.7,195.4,10.7z M195.2,10.9c0,0.1,0,0.2,0,0.3C195.2,11.1,195.1,11,195.2,10.9
		C195.1,10.9,195.1,10.9,195.2,10.9z M195,11.2c0,0.1,0,0.1,0.1,0.2c-0.1,0,0,0.7,0,0.8C195,11.7,195,11.4,195,11.2z M194.9,13
		c0,0.1-0.1,0.3-0.1,0.4C194.7,12.7,194.7,12.4,194.9,13z M195.6,15c-0.3-0.1-0.6-0.3-0.5,0c-0.1-0.5-0.2-1.1-0.3-1.5
		c0.1-0.1,0.1-0.1,0.1,0.1c0,0,0-0.1,0-0.1c0,0.1,0,0.1,0,0.2c0.3,1,0.5,1,0.7,0.8V15z M195.6,10.6c0,0.1,0,0.1,0,0.2
		c0,0-0.1-0.1-0.1-0.2C195.5,10.6,195.5,10.6,195.6,10.6L195.6,10.6z"/>
	<path d="M1.1,67.6c0,0,0.1,0,0.1,0c0-0.2-0.1-0.3-0.1-0.4c0,0,0,0,0,0C1.1,67.3,1.1,67.4,1.1,67.6z"/>
	<path d="M47.6,69.2C47.6,69.2,47.6,69.2,47.6,69.2C47.6,69.2,47.7,69.2,47.6,69.2z"/>
	<path d="M47.5,68.6c0,0-0.1,0-0.1,0C47.4,68.6,47.4,68.6,47.5,68.6C47.5,68.6,47.7,68.6,47.5,68.6z"/>
	<path d="M47.5,68.8C47.5,68.8,47.5,68.9,47.5,68.8C47.7,68.8,47.6,68.8,47.5,68.8z"/>
	<path d="M0.7,61.2C0.7,61.2,0.7,61.2,0.7,61.2c0.1,0,0-0.1,0-0.2c-0.1-0.3-0.2-0.4-0.2-0.4v0.6C0.5,61.2,0.6,61.2,0.7,61.2
		C0.6,61,0.7,61.2,0.7,61.2z"/>
	<path d="M1.7,67.9c0,0,0.1,0.1,0.1,0.1c-0.1-0.3-0.1-0.6-0.3-0.9C1.7,67.5,1.7,67.7,1.7,67.9z"/>
	<path d="M0.5,59.2v0.5C0.5,59.6,0.5,59.4,0.5,59.2z"/>
	<path d="M1.1,61c0,0,0,0.1,0,0.3c0,0,0.1,0,0.1,0C1.1,61.2,1.1,61.2,1.1,61z"/>
	<path d="M1.5,61c-0.1-0.2-0.2-0.5-0.2-0.5c0,0.3,0.1,0.7,0.1,0.9c0,0,0.1,0,0.1,0.1C1.4,61.2,1.5,61.3,1.5,61z"/>
	<path d="M57.1,41.9c-1.5,0-2.8,0.5-3.6,1.6c-0.9,1.1-1.3,2.5-1.3,4.3c0,1.8,0.4,3.2,1.3,4.3c0.9,1.1,2.1,1.6,3.6,1.6
		c1.5,0,2.7-0.6,3.6-1.7c0.9-1.1,1.3-2.6,1.3-4.4c0-1.7-0.4-3.1-1.3-4.1C59.7,42.5,58.5,41.9,57.1,41.9z M59.1,51
		c-0.5,0.8-1.2,1.1-2.1,1.1c-0.9,0-1.6-0.4-2.2-1.1c-0.5-0.7-0.8-1.8-0.8-3.2c0-1.4,0.3-2.4,0.8-3.1s1.2-1.1,2.2-1.1
		c1,0,1.7,0.4,2.2,1.1c0.5,0.7,0.8,1.8,0.8,3.1C59.9,49.1,59.7,50.2,59.1,51z"/>
	<path d="M74.5,48.6c-0.4,0-0.6,0.1-0.7,0.4c0,0.1-0.1,0.2-0.1,0.3c0,0.1,0,0.3,0,0.4v0.2l0,0.4v0.5c0,0.8-0.2,1.2-0.5,1.2
		c-0.3,0-0.5-0.3-0.5-0.9c0-0.1,0-0.1,0-0.2v-0.7c0-0.4,0-0.8-0.1-1.1c-0.1-0.3-0.2-0.6-0.3-0.8c-0.1-0.1-0.2-0.2-0.3-0.3
		c-0.1-0.1-0.2-0.2-0.4-0.2c0.1,0,0.2-0.1,0.2-0.1c0.1,0,0.1-0.1,0.2-0.1c0.9-0.4,1.4-1.2,1.4-2.4c0-1.9-1.3-2.9-3.8-2.9
		c-0.2,0-0.3,0-0.5,0s-0.4,0-0.6,0l-1.2,0.1h-0.1c-0.2,0-0.4,0-0.5,0c-0.2,0-0.3,0-0.5,0c-0.2,0-0.3,0-0.4,0c-0.1,0-0.2,0-0.4,0
		c-0.1,0-0.3,0-0.4,0c-0.1,0-0.3,0-0.4,0c0,0-0.1,0-0.1,0s-0.1,0-0.1,0c-0.7,0-1,0.3-1,0.8c0,0.2,0.1,0.4,0.2,0.5
		c0.2,0.1,0.3,0.2,0.5,0.2c0.1,0,0.1,0,0.2,0c0.1,0,0.1,0,0.2,0c0.1,0,0.1,0,0.2,0c0.1,0,0.1,0,0.1,0c0.3,0,0.5,0.4,0.5,1V51
		c0,0.6-0.2,1-0.5,1c-0.1,0-0.1,0-0.2,0c-0.1,0-0.1,0-0.2,0c-0.1,0-0.1,0-0.2,0c-0.1,0-0.1,0-0.1,0c0,0-0.1,0-0.1,0c0,0,0,0,0,0
		c-0.5,0-0.8,0.2-0.8,0.7c0,0.5,0.3,0.8,1,0.8c0.2,0,0.3,0,0.4,0c0.1,0,0.2,0,0.3,0c0.1,0,0.2,0,0.4-0.1c0.1,0,0.3-0.1,0.4-0.1
		c0.1,0,0.3,0,0.4-0.1c0.1,0,0.2,0,0.3,0c0.1,0,0.2,0,0.4,0c0.1,0,0.3,0,0.5,0l0.8,0.1c0,0,0.1,0,0.2,0c0,0,0,0,0.1,0
		c0.7,0,1-0.3,1-0.8c0-0.5-0.3-0.8-0.8-0.8c-0.1,0-0.3,0-0.5,0c-0.1,0-0.2,0-0.3,0c-0.3,0-0.4-0.2-0.5-0.6v0c0-0.1,0-0.2,0-0.4
		c0-0.2,0-0.5,0-0.9v-1.2c0-0.3,0.1-0.4,0.2-0.4h1.5c0.8,0,1.3,0.1,1.5,0.3c0.2,0.2,0.3,0.6,0.3,1.2v0.3l0,0.5v0.5
		c0,1.4,0.7,2.1,2.1,2.1c0.7,0,1.3-0.2,1.6-0.6c0.4-0.4,0.6-0.9,0.6-1.6c0,0,0-0.1,0-0.1s0-0.1,0-0.1v-0.4c0,0,0-0.1,0-0.1
		c0-0.1,0-0.2,0-0.3c0,0,0-0.1,0-0.2c0-0.1,0-0.1,0-0.2c0-0.1,0-0.2,0-0.2c0-0.1,0-0.1,0-0.1C75.4,48.9,75.1,48.6,74.5,48.6z
		 M71,46.6c-0.2,0.1-0.5,0.2-0.8,0.3s-0.7,0.1-1.1,0.1h-1.5c-0.1,0-0.1,0-0.2,0s0-0.1,0-0.2v-1.8c0-0.1,0-0.1,0-0.2
		c0-0.1,0-0.2,0-0.2c0-0.3,0.1-0.5,0.3-0.6c0.3-0.1,0.8-0.2,1.7-0.2c1.5,0,2.2,0.5,2.2,1.6C71.7,45.9,71.5,46.3,71,46.6z"/>
	<path d="M84.7,42.7c-0.7-0.3-1.5-0.4-2.5-0.4c-0.2,0-0.3,0-0.5,0s-0.3,0-0.4,0l-1,0.1c-0.3,0-0.6,0-0.9,0c-0.2,0-0.3,0-0.5,0
		c-0.2,0-0.3,0-0.5,0l-0.8-0.1c0,0-0.1,0-0.1,0s-0.1,0-0.1,0c-0.7,0-1,0.3-1,0.8c0,0.5,0.3,0.7,0.8,0.7c0.1,0,0.3,0,0.5,0h0
		c0.1,0,0.1,0,0.2,0c0.1,0,0.1,0,0.1,0c0.4,0,0.5,0.3,0.5,1V51c0,0.6-0.2,1-0.5,1c-0.1,0-0.1,0-0.1,0c0,0-0.1,0-0.1,0
		c-0.2,0-0.3,0-0.5,0c-0.2,0-0.4,0.1-0.5,0.2c-0.1,0.1-0.2,0.3-0.2,0.5c0,0.5,0.3,0.8,1,0.8h0.1c0,0,0.1,0,0.1,0l0.8-0.1
		c0.2,0,0.5,0,0.8,0c0.4,0,0.8,0,1.1,0l1.1,0.1c0.1,0,0.2,0,0.4,0c0.1,0,0.2,0,0.4,0c0.6,0,1.2-0.1,1.7-0.2c0.5-0.1,1-0.3,1.4-0.5
		c0.4-0.2,0.7-0.5,1-0.8c0.3-0.3,0.5-0.7,0.7-1.1c0.4-0.9,0.6-1.9,0.6-2.9c0-1.2-0.3-2.3-0.8-3.2C86.3,43.7,85.6,43,84.7,42.7z
		 M85.4,49.6c-0.2,0.5-0.4,1-0.7,1.4c-0.3,0.3-0.6,0.5-1,0.7c-0.4,0.2-0.9,0.3-1.5,0.3c-0.7,0-1.2,0-1.3,0c-0.3-0.1-0.5-0.3-0.5-0.7
		v-6.7c0-0.4,0-0.6,0.1-0.6v0c0.2-0.1,0.6-0.1,1.4-0.1c0.6,0,1.2,0.1,1.6,0.2c0.7,0.2,1.2,0.6,1.6,1.3c0.4,0.7,0.6,1.6,0.6,2.6
		C85.7,48.5,85.6,49.1,85.4,49.6z"/>
	<path d="M98.4,48.4c-0.6,0-0.8,0.3-0.8,0.9c0,0.1,0,0.2,0,0.3s0,0.3,0,0.4c0,0,0,0.1,0,0.1c0,0,0,0.1,0,0.1c0,0.1,0,0.2,0,0.3
		s0,0.1,0,0.2c0,0.4-0.1,0.7-0.3,0.9c-0.2,0.2-0.5,0.2-1.1,0.2H94c-0.4,0-0.6,0-0.7-0.1c-0.1,0-0.1-0.3-0.1-0.6c0-0.1,0-0.1,0-0.3
		c0-0.1,0-0.3,0-0.4c0-0.1,0-0.3,0-0.4c0-0.1,0-0.2,0-0.3v-1c0-0.3,0-0.4,0.1-0.5c0-0.1,0.2-0.1,0.3-0.1h0.7c0.4,0,0.6,0.2,0.6,0.5
		c0,0,0-0.1,0,0c0,0,0,0.1,0,0.1c0,0.1,0,0.1,0,0.2c0,0.1,0,0.1,0,0.2c0,0.1,0,0.2,0,0.3c0,0.1,0,0.2,0,0.2c0,0.6,0.3,0.9,0.8,0.9
		c0.6,0,0.8-0.3,0.8-0.8c0-0.2,0-0.4,0-0.6l-0.1-0.5c0-0.3,0-0.5,0-0.7c0-0.2,0-0.3,0-0.4c0-0.4,0-0.8,0.1-1.3
		c0-0.3,0.1-0.5,0.1-0.7s0-0.3,0-0.3c0-0.6-0.3-0.9-0.8-0.9s-0.8,0.3-0.8,0.8c0,0.2,0,0.4,0,0.6v0c0,0.1,0,0.2,0,0.3
		c0,0.1,0,0.2,0,0.2c0,0.3-0.3,0.4-0.7,0.4h-0.7c-0.1,0-0.2,0-0.3,0c0,0-0.1-0.2-0.1-0.5V46c0,0,0-0.1,0-0.1s0-0.1,0-0.2v-1.1
		c0-0.4,0.2-0.6,0.5-0.7c0.2,0,0.6,0,1.3,0c1.1,0,1.8,0.1,2,0.2h0c0.3,0.1,0.4,0.6,0.4,1.4v0.8c0,0.7,0.3,1.1,0.8,1.1
		s0.8-0.3,0.8-0.8c0-0.1,0-0.2,0-0.3c0-0.1,0-0.3,0-0.4c0-0.1,0-0.2,0-0.3c0-0.1,0-0.3,0-0.5c0-0.1,0-0.3,0-0.4c0-0.2,0-0.3,0-0.5
		c0-0.2,0-0.4,0-0.6c0-0.1,0-0.2,0-0.3c0-0.6-0.4-1-1.1-1c-0.1,0-0.2,0-0.2,0c-0.1,0-0.2,0-0.2,0h0c-0.5,0-0.8,0-0.8,0l-3.8,0.1
		c-0.2,0-0.3,0-0.4,0c-0.1,0-0.4,0-0.6-0.1l-1.3-0.1c-0.1,0-0.1,0-0.2,0s-0.1,0-0.1,0c-0.6,0-0.9,0.3-0.9,0.8c0,0.2,0.1,0.4,0.2,0.5
		c0.1,0.1,0.3,0.2,0.5,0.2c0.2,0,0.3,0,0.5,0c0.1,0,0.2,0,0.3,0c0.4,0,0.5,0.3,0.5,1V51c0,0.6-0.2,1-0.5,1c0,0-0.1,0-0.1,0
		c-0.1,0-0.1,0-0.2,0c-0.1,0-0.1,0-0.2,0c-0.1,0-0.1,0-0.1,0c0,0-0.1,0-0.1,0c0,0,0,0,0,0c-0.5,0-0.8,0.2-0.8,0.7
		c0,0.5,0.3,0.8,0.9,0.8h0.1c0,0,0.1,0,0.1,0c1-0.1,1.9-0.1,2.9-0.1c0.3,0,0.6,0,0.9,0c0.3,0,0.7,0,1.1,0c0.3,0,0.5,0,0.7,0
		c0.2,0,0.4,0,0.6,0s0.3,0,0.5,0c0.2,0,0.3,0,0.5,0.1c0,0,0.1,0,0.1,0c0,0,0.1,0,0.1,0c0.1,0,0.1,0,0.2,0s0.1,0,0.2,0
		c0.7,0,1-0.3,1-1c0-0.1,0-0.1,0-0.2c0-0.1,0-0.2,0-0.3c0,0,0,0,0-0.1c0,0,0-0.1,0-0.1c0-0.2,0-0.3,0-0.4c0-0.1,0-0.2,0-0.3
		s0-0.1,0-0.2s0-0.2,0-0.3c0-0.1,0-0.1,0-0.2c0-0.1,0-0.1,0-0.2c0,0,0-0.1,0-0.2c0-0.1,0-0.1,0-0.1c0-0.1,0-0.2,0-0.3s0-0.2,0-0.2
		C99.3,48.7,99,48.4,98.4,48.4z"/>
	<path d="M112.3,48.6c-0.4,0-0.6,0.1-0.7,0.4c0,0.1-0.1,0.2-0.1,0.3c0,0.1,0,0.3,0,0.4v0.2l0,0.4v0.5c0,0.8-0.2,1.2-0.5,1.2
		c-0.3,0-0.5-0.3-0.5-0.9c0-0.1,0-0.1,0-0.2v-0.7c0-0.4,0-0.8-0.1-1.1c-0.1-0.3-0.2-0.6-0.3-0.8c-0.1-0.1-0.2-0.2-0.3-0.3
		c-0.1-0.1-0.2-0.2-0.4-0.2c0.1,0,0.2-0.1,0.2-0.1c0.1,0,0.1-0.1,0.2-0.1c0.9-0.4,1.4-1.2,1.4-2.4c0-1.9-1.3-2.9-3.8-2.9
		c-0.2,0-0.3,0-0.5,0s-0.4,0-0.6,0l-1.2,0.1h-0.1c-0.2,0-0.4,0-0.5,0c-0.2,0-0.3,0-0.5,0c-0.2,0-0.3,0-0.4,0c-0.1,0-0.2,0-0.4,0
		c-0.1,0-0.3,0-0.4,0c-0.1,0-0.3,0-0.4,0c0,0-0.1,0-0.1,0s-0.1,0-0.1,0c-0.7,0-1,0.3-1,0.8c0,0.2,0.1,0.4,0.2,0.5
		c0.2,0.1,0.3,0.2,0.5,0.2c0.1,0,0.1,0,0.2,0c0.1,0,0.1,0,0.2,0c0.1,0,0.1,0,0.2,0c0.1,0,0.1,0,0.1,0c0.3,0,0.5,0.4,0.5,1V51
		c0,0.6-0.2,1-0.5,1c-0.1,0-0.1,0-0.2,0c-0.1,0-0.1,0-0.2,0c-0.1,0-0.1,0-0.2,0c-0.1,0-0.1,0-0.1,0c0,0-0.1,0-0.1,0c0,0,0,0,0,0
		c-0.5,0-0.8,0.2-0.8,0.7c0,0.5,0.3,0.8,1,0.8c0.2,0,0.3,0,0.4,0c0.1,0,0.2,0,0.3,0c0.1,0,0.2,0,0.4-0.1c0.1,0,0.3-0.1,0.4-0.1
		c0.1,0,0.3,0,0.4-0.1c0.1,0,0.2,0,0.3,0c0.1,0,0.2,0,0.4,0c0.1,0,0.3,0,0.5,0l0.8,0.1c0,0,0.1,0,0.2,0c0,0,0,0,0.1,0
		c0.7,0,1-0.3,1-0.8c0-0.5-0.3-0.8-0.8-0.8c-0.1,0-0.3,0-0.5,0c-0.1,0-0.2,0-0.3,0c-0.3,0-0.4-0.2-0.5-0.6v0c0-0.1,0-0.2,0-0.4
		c0-0.2,0-0.5,0-0.9v-1.2c0-0.3,0.1-0.4,0.2-0.4h1.5c0.8,0,1.3,0.1,1.5,0.3c0.2,0.2,0.3,0.6,0.3,1.2v0.3l0,0.5v0.5
		c0,1.4,0.7,2.1,2.1,2.1c0.7,0,1.3-0.2,1.6-0.6c0.4-0.4,0.6-0.9,0.6-1.6c0,0,0-0.1,0-0.1s0-0.1,0-0.1v-0.4c0,0,0-0.1,0-0.1
		c0-0.1,0-0.2,0-0.3c0,0,0-0.1,0-0.2c0-0.1,0-0.1,0-0.2c0-0.1,0-0.2,0-0.2c0-0.1,0-0.1,0-0.1C113.1,48.9,112.9,48.6,112.3,48.6z
		 M108.8,46.6c-0.2,0.1-0.5,0.2-0.8,0.3s-0.7,0.1-1.1,0.1h-1.5c-0.1,0-0.1,0-0.2,0s0-0.1,0-0.2v-1.8c0-0.1,0-0.1,0-0.2
		c0-0.1,0-0.2,0-0.2c0-0.3,0.1-0.5,0.3-0.6c0.3-0.1,0.8-0.2,1.7-0.2c1.5,0,2.2,0.5,2.2,1.6C109.4,45.9,109.2,46.3,108.8,46.6z"/>
	<path d="M124.4,41.9c-1.5,0-2.8,0.5-3.6,1.6c-0.9,1.1-1.3,2.5-1.3,4.3c0,1.8,0.4,3.2,1.3,4.3c0.9,1.1,2.1,1.6,3.6,1.6
		c1.5,0,2.7-0.6,3.6-1.7c0.9-1.1,1.3-2.6,1.3-4.4c0-1.7-0.4-3.1-1.3-4.1C127,42.5,125.9,41.9,124.4,41.9z M126.4,51
		c-0.5,0.8-1.2,1.1-2.1,1.1c-0.9,0-1.6-0.4-2.2-1.1c-0.5-0.7-0.8-1.8-0.8-3.2c0-1.4,0.3-2.4,0.8-3.1c0.5-0.7,1.2-1.1,2.2-1.1
		c1,0,1.7,0.4,2.2,1.1c0.5,0.7,0.8,1.8,0.8,3.1C127.3,49.1,127,50.2,126.4,51z"/>
	<path d="M142.1,42.2H142c0,0-0.1,0-0.1,0l-0.6,0.1c-0.5,0.1-0.8,0.1-1.1,0.1c-0.1,0-0.3,0-0.4,0c-0.1,0-0.3,0-0.5,0l-0.7-0.1
		c-0.1,0-0.1,0-0.1,0c0,0-0.1,0-0.1,0c-0.7,0-1,0.3-1,0.8c0,0.2,0.1,0.4,0.2,0.5c0.2,0.1,0.3,0.2,0.5,0.2c0.1,0,0.1,0,0.2,0
		c0.1,0,0.1,0,0.2,0c0.1,0,0.1,0,0.2,0c0.1,0,0.1,0,0.2,0c0.3,0,0.4,0.3,0.5,0.7c0,0.1,0,0.5,0,1.3v5.2c-0.4-0.7-0.7-1.4-1-2.1
		s-0.6-1.2-0.9-1.8c-0.3-0.6-0.6-1.2-0.9-1.8c-0.3-0.6-0.6-1.3-1-2.1l0,0l-0.2-0.4c-0.1-0.2-0.2-0.3-0.3-0.3
		c-0.1-0.1-0.3-0.1-0.6-0.1c-0.2,0-0.4,0-0.7,0c-0.3,0-0.5,0-0.7,0s-0.3,0-0.5,0c-0.2,0-0.4,0-0.7-0.1c-0.1,0-0.1,0-0.2,0
		s-0.1,0-0.1,0c-0.6,0-0.9,0.3-0.9,0.8c0,0.5,0.3,0.7,0.8,0.7c0.1,0,0.1,0,0.2,0c0.1,0,0.2,0,0.3,0c0,0,0,0,0.1,0c0,0,0,0,0.1,0
		c0.1,0,0.1,0,0.2,0c0.4,0,0.5,0.3,0.5,1l0,2.5v1.4l0,1.4V51c0,0.6-0.2,1-0.5,1c-0.1,0-0.2,0-0.3,0h-0.3c0,0-0.1,0-0.1,0
		c0,0,0,0,0,0c-0.5,0-0.8,0.2-0.8,0.7c0,0.5,0.3,0.8,0.9,0.8h0.2c0,0,0.1,0,0.1,0l0.8-0.1c0.2,0,0.4,0,0.6-0.1s0.3,0,0.4,0
		c0.1,0,0.3,0,0.5,0s0.3,0,0.5,0.1h0l0.6,0.1c0,0,0,0,0.1,0c0,0,0.1,0,0.1,0h0.1c0.7,0,1-0.3,1-0.8c0-0.5-0.3-0.7-0.8-0.7
		c0,0,0,0-0.1,0c-0.1,0-0.2,0-0.3,0c-0.1,0-0.1,0-0.2,0c-0.1,0-0.1,0-0.1,0c-0.4,0-0.5-0.3-0.5-1v-6.2l3.7,7.6
		c0.4,0.8,0.9,1.2,1.6,1.2c0.5,0,0.9-0.2,1.1-0.5c0.2-0.3,0.3-0.9,0.3-1.7v-4.2l0-1.6c0-0.2,0-0.3,0-0.5c0-0.1,0-0.3,0-0.5
		c0-0.4,0.1-0.6,0.1-0.7c0.1-0.1,0.2-0.2,0.4-0.2h0.1c0,0,0.1,0,0.1,0s0.1,0,0.1,0c0.6,0,0.9-0.3,0.9-0.8
		C143.1,42.5,142.8,42.2,142.1,42.2z"/>
	<path d="M153.4,48.4c-0.6,0-0.8,0.3-0.8,0.9c0,0,0,0.1,0,0.1c0,0,0,0.1,0,0.1c0,0.1,0,0.1,0,0.2c0,0.1,0,0.2,0,0.3v0.5
		c0,0.5-0.1,0.9-0.3,1c-0.2,0.2-0.6,0.2-1.3,0.2h-1.4c-0.2,0-0.5,0-0.6,0c-0.2,0-0.3,0-0.4,0c-0.1,0-0.2,0-0.2-0.1
		c-0.1,0-0.1-0.4-0.1-1v-6.2c0-0.6,0.2-1,0.5-1c0.1,0,0.1,0,0.1,0c0,0,0.1,0,0.1,0c0.2,0,0.3,0,0.5,0c0.2,0,0.4-0.1,0.5-0.2
		c0.1-0.1,0.2-0.3,0.2-0.5c0-0.5-0.3-0.8-1-0.8c0,0-0.1,0-0.1,0s-0.1,0-0.1,0h0l-0.7,0.1c-0.2,0-0.4,0-0.6,0.1c-0.2,0-0.3,0-0.4,0
		c-0.1,0-0.2,0-0.4,0c-0.2,0-0.4,0-0.6-0.1l-0.8-0.1h0c-0.1,0-0.1,0-0.1,0s-0.1,0-0.1,0c-0.6,0-1,0.3-1,0.8c0,0.2,0.1,0.4,0.2,0.5
		c0.1,0.1,0.3,0.2,0.5,0.2c0.2,0,0.3,0,0.5,0c0.1,0,0.2,0,0.3,0c0.4,0,0.5,0.3,0.5,1V51c0,0.6-0.2,1-0.5,1c0,0-0.1,0-0.1,0
		c-0.1,0-0.1,0-0.2,0c-0.1,0-0.2,0-0.3,0c-0.1,0-0.2,0-0.1,0c-0.5,0-0.8,0.2-0.8,0.7c0,0.5,0.3,0.8,0.9,0.8c0.1,0,0.2,0,0.3,0
		c0.1,0,0.2,0,0.3,0c0.1,0,0.2,0,0.2,0c0.1,0,0.1,0,0.2,0c0.1,0,0.2,0,0.3,0c0.1,0,0.2,0,0.2,0c0.2,0,0.3,0,0.4,0c0.1,0,0.2,0,0.3,0
		h2.6l1.2,0c0.1,0,0.2,0,0.3,0c0.1,0,0.2,0,0.3,0c0.1,0,0.2,0,0.3,0c0.1,0,0.2,0,0.2,0c0.1,0,0.2,0,0.2,0c0.1,0,0.1,0,0.2,0
		c0.1,0,0.2,0,0.2,0c0,0,0.1,0,0.1,0c0.7,0,1.1-0.3,1.1-0.9c0-0.1,0-0.2,0-0.3c0-0.1,0-0.3,0-0.4c0,0,0-0.1,0-0.1c0,0,0-0.1,0-0.1
		c0-0.1,0-0.2,0-0.2c0-0.1,0-0.1,0-0.2c0-0.1,0-0.2,0-0.4c0-0.1,0-0.2,0-0.4l0.1-0.8c0-0.1,0-0.2,0-0.3
		C154.3,48.7,154,48.4,153.4,48.4z"/>
	<path d="M160.2,43.7c0.1,0,0.2,0,0.3,0c0.2,0,0.3,0,0.5,0c0.2,0,0.4-0.1,0.5-0.2c0.2-0.1,0.2-0.3,0.2-0.5c0-0.5-0.3-0.8-1-0.8
		c0,0-0.1,0-0.1,0c0,0-0.1,0-0.1,0l-0.7,0.1c-0.2,0-0.4,0-0.6,0.1c-0.2,0-0.3,0-0.5,0c-0.2,0-0.3,0-0.5,0c-0.2,0-0.3,0-0.5,0
		l-0.8-0.1c0,0-0.1,0-0.1,0s-0.1,0-0.1,0c-0.6,0-1,0.3-1,0.8c0,0.2,0.1,0.4,0.2,0.5c0.1,0.1,0.3,0.2,0.5,0.2c0.1,0,0.3,0,0.5,0
		c0.1,0,0.2,0,0.3,0c0.4,0,0.5,0.3,0.5,1V51c0,0.6-0.2,1-0.5,1c-0.1,0-0.1,0-0.2,0c0,0-0.1,0-0.2,0c-0.1,0-0.1,0-0.2,0
		c-0.1,0-0.1,0-0.1,0s-0.1,0-0.1,0c0,0,0,0,0,0c-0.5,0-0.8,0.2-0.8,0.7c0,0.5,0.3,0.8,0.9,0.8h0.2c0,0,0.1,0,0.1,0l0.7-0.1
		c0.2,0,0.4,0,0.5-0.1c0.2,0,0.4,0,0.6,0c0.1,0,0.3,0,0.4,0c0.1,0,0.3,0,0.4,0l0.8,0.1c0,0,0.1,0,0.1,0h0.1c0.7,0,1-0.3,1-0.8
		c0-0.5-0.3-0.7-0.8-0.7c-0.1,0-0.3,0-0.5,0h-0.1c-0.1,0-0.1,0-0.1,0s-0.1,0-0.1,0c-0.4,0-0.5-0.3-0.5-1v-6.4
		C159.6,44,159.8,43.7,160.2,43.7z"/>
	<path d="M174.2,42.2H174c0,0-0.1,0-0.1,0l-0.6,0.1c-0.5,0.1-0.8,0.1-1.1,0.1c-0.1,0-0.3,0-0.4,0c-0.1,0-0.3,0-0.5,0l-0.7-0.1
		c-0.1,0-0.1,0-0.1,0c0,0-0.1,0-0.1,0c-0.7,0-1,0.3-1,0.8c0,0.2,0.1,0.4,0.2,0.5c0.2,0.1,0.3,0.2,0.5,0.2c0.1,0,0.1,0,0.2,0
		c0.1,0,0.1,0,0.2,0c0.1,0,0.1,0,0.2,0c0.1,0,0.1,0,0.2,0c0.3,0,0.4,0.3,0.5,0.7c0,0.1,0,0.5,0,1.3v5.2c-0.4-0.7-0.7-1.4-1-2.1
		s-0.6-1.2-0.9-1.8c-0.3-0.6-0.6-1.2-0.9-1.8c-0.3-0.6-0.6-1.3-1-2.1l0,0l-0.2-0.4c-0.1-0.2-0.2-0.3-0.3-0.3
		c-0.1-0.1-0.3-0.1-0.6-0.1c-0.2,0-0.4,0-0.7,0c-0.3,0-0.5,0-0.7,0s-0.3,0-0.5,0c-0.2,0-0.4,0-0.7-0.1c-0.1,0-0.1,0-0.2,0
		s-0.1,0-0.1,0c-0.6,0-0.9,0.3-0.9,0.8c0,0.5,0.3,0.7,0.8,0.7c0.1,0,0.1,0,0.2,0c0.1,0,0.2,0,0.3,0c0,0,0,0,0.1,0c0,0,0,0,0.1,0
		c0.1,0,0.1,0,0.2,0c0.4,0,0.5,0.3,0.5,1l0,2.5v1.4l0,1.4V51c0,0.6-0.2,1-0.5,1c-0.1,0-0.2,0-0.3,0h-0.3c0,0-0.1,0-0.1,0
		c0,0,0,0,0,0c-0.5,0-0.8,0.2-0.8,0.7c0,0.5,0.3,0.8,0.9,0.8h0.2c0,0,0.1,0,0.1,0l0.8-0.1c0.2,0,0.4,0,0.6-0.1s0.3,0,0.4,0
		c0.1,0,0.3,0,0.5,0s0.3,0,0.5,0.1h0l0.6,0.1c0,0,0,0,0.1,0c0,0,0.1,0,0.1,0h0.1c0.7,0,1-0.3,1-0.8c0-0.5-0.3-0.7-0.8-0.7
		c0,0,0,0-0.1,0c-0.1,0-0.2,0-0.3,0c-0.1,0-0.1,0-0.2,0c-0.1,0-0.1,0-0.1,0c-0.4,0-0.5-0.3-0.5-1v-6.2l3.7,7.6
		c0.4,0.8,0.9,1.2,1.6,1.2c0.5,0,0.9-0.2,1.1-0.5c0.2-0.3,0.3-0.9,0.3-1.7v-4.2l0-1.6c0-0.2,0-0.3,0-0.5c0-0.1,0-0.3,0-0.5
		c0-0.4,0.1-0.6,0.1-0.7c0.1-0.1,0.2-0.2,0.4-0.2h0.1c0,0,0.1,0,0.1,0s0.1,0,0.1,0c0.6,0,0.9-0.3,0.9-0.8
		C175.1,42.5,174.8,42.2,174.2,42.2z"/>
	<path d="M185.4,48.4c-0.6,0-0.8,0.3-0.8,0.9c0,0.1,0,0.2,0,0.3s0,0.3,0,0.4c0,0,0,0.1,0,0.1c0,0,0,0.1,0,0.1c0,0.1,0,0.2,0,0.3
		s0,0.1,0,0.2c0,0.4-0.1,0.7-0.3,0.9c-0.2,0.2-0.5,0.2-1.1,0.2h-2.2c-0.4,0-0.6,0-0.7-0.1c-0.1,0-0.1-0.3-0.1-0.6c0-0.1,0-0.1,0-0.3
		c0-0.1,0-0.3,0-0.4c0-0.1,0-0.3,0-0.4c0-0.1,0-0.2,0-0.3v-1c0-0.3,0-0.4,0.1-0.5c0-0.1,0.2-0.1,0.3-0.1h0.7c0.4,0,0.6,0.2,0.6,0.5
		c0,0,0-0.1,0,0c0,0,0,0.1,0,0.1s0,0.1,0,0.2c0,0.1,0,0.1,0,0.2c0,0.1,0,0.2,0,0.3c0,0.1,0,0.2,0,0.2c0,0.6,0.3,0.9,0.8,0.9
		c0.6,0,0.8-0.3,0.8-0.8c0-0.2,0-0.4,0-0.6l-0.1-0.5c0-0.3,0-0.5,0-0.7c0-0.2,0-0.3,0-0.4c0-0.4,0-0.8,0.1-1.3
		c0-0.3,0.1-0.5,0.1-0.7s0-0.3,0-0.3c0-0.6-0.3-0.9-0.8-0.9c-0.6,0-0.8,0.3-0.8,0.8c0,0.2,0,0.4,0,0.6v0c0,0.1,0,0.2,0,0.3
		c0,0.1,0,0.2,0,0.2c0,0.3-0.3,0.4-0.7,0.4h-0.7c-0.1,0-0.2,0-0.3,0c0,0-0.1-0.2-0.1-0.5V46c0,0,0-0.1,0-0.1s0-0.1,0-0.2v-1.1
		c0-0.4,0.2-0.6,0.5-0.7c0.2,0,0.6,0,1.3,0c1.1,0,1.8,0.1,2,0.2h0c0.3,0.1,0.4,0.6,0.4,1.4v0.8c0,0.7,0.3,1.1,0.8,1.1
		c0.6,0,0.8-0.3,0.8-0.8c0-0.1,0-0.2,0-0.3c0-0.1,0-0.3,0-0.4c0-0.1,0-0.2,0-0.3c0-0.1,0-0.3,0-0.5c0-0.1,0-0.3,0-0.4
		c0-0.2,0-0.3,0-0.5c0-0.2,0-0.4,0-0.6c0-0.1,0-0.2,0-0.3c0-0.6-0.4-1-1.1-1c-0.1,0-0.2,0-0.2,0s-0.2,0-0.2,0h0c-0.5,0-0.8,0-0.8,0
		l-3.8,0.1c-0.2,0-0.3,0-0.4,0c-0.1,0-0.4,0-0.6-0.1l-1.3-0.1c-0.1,0-0.1,0-0.2,0s-0.1,0-0.1,0c-0.6,0-0.9,0.3-0.9,0.8
		c0,0.2,0.1,0.4,0.2,0.5c0.1,0.1,0.3,0.2,0.5,0.2c0.2,0,0.3,0,0.5,0c0.1,0,0.2,0,0.3,0c0.4,0,0.5,0.3,0.5,1V51c0,0.6-0.2,1-0.5,1
		c0,0-0.1,0-0.1,0c-0.1,0-0.1,0-0.2,0c-0.1,0-0.1,0-0.2,0c-0.1,0-0.1,0-0.1,0c0,0-0.1,0-0.1,0c0,0,0,0,0,0c-0.5,0-0.8,0.2-0.8,0.7
		c0,0.5,0.3,0.8,0.9,0.8h0.1c0,0,0.1,0,0.1,0c1-0.1,1.9-0.1,2.9-0.1c0.3,0,0.6,0,0.9,0c0.3,0,0.7,0,1.1,0c0.3,0,0.5,0,0.7,0
		c0.2,0,0.4,0,0.6,0c0.2,0,0.3,0,0.5,0c0.2,0,0.3,0,0.5,0.1c0,0,0.1,0,0.1,0c0,0,0.1,0,0.1,0c0.1,0,0.1,0,0.2,0c0.1,0,0.1,0,0.2,0
		c0.7,0,1-0.3,1-1c0-0.1,0-0.1,0-0.2c0-0.1,0-0.2,0-0.3c0,0,0,0,0-0.1c0,0,0-0.1,0-0.1c0-0.2,0-0.3,0-0.4c0-0.1,0-0.2,0-0.3
		s0-0.1,0-0.2s0-0.2,0-0.3c0-0.1,0-0.1,0-0.2c0-0.1,0-0.1,0-0.2c0,0,0-0.1,0-0.2c0-0.1,0-0.1,0-0.1c0-0.1,0-0.2,0-0.3s0-0.2,0-0.2
		C186.3,48.7,186,48.4,185.4,48.4z"/>
	<path d="M143.4,21L143.4,21C143.4,21.1,143.4,21,143.4,21C143.4,21,143.4,21,143.4,21z"/>
</g>
</svg>
