<?xml version="1.0" encoding="utf-8"?>
<!-- Generator: Adobe Illustrator 25.2.3, SVG Export Plug-In . SVG Version: 6.00 Build 0)  -->
<svg version="1.1" id="Layer_1" xmlns="http://www.w3.org/2000/svg" xmlns:xlink="http://www.w3.org/1999/xlink" x="0px" y="0px"
	 viewBox="0 0 53 53" style="enable-background:new 0 0 53 53;" xml:space="preserve">
<g>
	<path d="M15.7,13.4c0.1-1.2,0.3-2.3,0.4-3.4c0.1-1.8,1.5-3.1,3.3-3.1c4.7,0,9.3,0,14,0c1.8,0,3.2,1.3,3.3,3.2
		c0.1,1.1,0.3,2.2,0.4,3.3c0.2,0,0.4,0,0.6,0c4.3,0,8.6,0,12.9,0c1.5,0,2.3,0.9,2.3,2.3c0,9.3,0,18.7,0,28c0,1.5-0.9,2.4-2.4,2.4
		c-16.1,0-32.1,0-48.2,0c-1.5,0-2.4-0.9-2.4-2.4C0,34.3,0,25,0,15.6c0-1.3,0.9-2.2,2.2-2.2c4.3,0,8.6,0,12.8,0
		C15.2,13.4,15.4,13.4,15.7,13.4z M26.5,43.2C34,43.2,40,37.1,40,29.7c0-7.5-6.1-13.4-13.7-13.4C19,16.2,13,22.3,13,29.8
		C13,37.1,19.1,43.2,26.5,43.2z M39,15.8c0,1.2,0,2.3,0,3.3c3.8,0,7.7,0,11.4,0c0-1.1,0-2.2,0-3.3C46.6,15.8,42.8,15.8,39,15.8z"/>
	<path d="M34.8,29.7c0,4.6-3.8,8.3-8.3,8.3c-4.6-0.1-8.3-3.8-8.2-8.4c0-4.6,3.8-8.2,8.5-8.2C31.2,21.4,34.8,25.2,34.8,29.7z"/>
</g>
</svg>
