<?xml version="1.0" encoding="utf-8"?>
<!-- Generator: Adobe Illustrator 25.3.1, SVG Export Plug-In . SVG Version: 6.00 Build 0)  -->
<svg version="1.1" id="Layer_1" xmlns="http://www.w3.org/2000/svg" xmlns:xlink="http://www.w3.org/1999/xlink" x="0px" y="0px"
	 viewBox="0 0 292 100" style="enable-background:new 0 0 292 100;" xml:space="preserve">
<g>
	<path d="M26.8,28.3c0.1,0,0.3,0,0.4,0c0.1,0,0.2,0,0.3,0s0.3,0,0.4,0c0.2,0,0.4,0,0.7,0c0.7,0,1.4-0.1,2.1-0.1s1.3-0.1,1.8-0.3
		c1.7-0.5,2.6-1.6,2.6-3.5c0-2.6-1.7-3.9-5-3.9c-2.5,0-3.9,0.2-4.1,0.5c0,0.1,0,0.7,0,1.6v5.1C26,28,26.3,28.2,26.8,28.3z"/>
	<path d="M214.2,22.3c-0.5,1.3-0.9,2.6-1.3,3.9c-0.4,1.3-0.9,2.6-1.3,3.9l5.1-0.1L214.2,22.3z"/>
	<path d="M24.3,81.1c0,0.6,0.5,1.1,1.1,1.1h3.2c-1.5-1.5-2.9-2.9-4.4-4.4V81.1z"/>
	<path d="M45.2,60C45.1,60,45.1,59.9,45.2,60L35,59.9c0,0-0.1,0-0.1,0.1l-1,1.5h12.1L45.2,60z"/>
	<path d="M54.3,82.2c0.6,0,1.1-0.5,1.1-1.1v-3.3L51,82.2H54.3z"/>
	<path d="M255.8,100.3h0.7C256.2,100.3,257.7,100,255.8,100.3z"/>
	<path d="M290.1,6.7V3.3c-1.6,0-2.8-1.2-2.8-2.8h-3.4c0.1,0.1,0.3,0.1,0.8,0.1c-0.2,0.1-0.6,0.1-1,0.1v0.1c0.4,0,0.9,0,0.8,0
		c-0.7,0-0.8,0.1-0.8,0.1c0,0.1,0,0.1,0,0.2c0.2,0,0.4,0,0.7,0c0.3,0.1-0.4,0.1-0.7,0.1c0,0,0,0,0,0.1c0,0,0,0,0,0.1
		c0.6,0-0.3,0.2,0,0.3h-0.1c-0.5,0.9-1.4,1.6-2.6,1.6c-1.6,0-2.8-1.2-2.8-2.8h-3.6c0,1.5-1.3,2.8-2.8,2.8c-1.6,0-2.8-1.2-2.8-2.8
		h-3.6c0,1.5-1.3,2.8-2.8,2.8s-2.8-1.2-2.8-2.8h-3.6c0,1.5-1.3,2.8-2.8,2.8c-1.6,0-2.8-1.2-2.8-2.8H247c0,1.5-1.3,2.8-2.8,2.8
		s-2.8-1.2-2.8-2.8h-3.6c0,1.5-1.3,2.8-2.8,2.8c-1.6,0-2.8-1.2-2.8-2.8h-3.6c0,1.5-1.3,2.8-2.8,2.8c-1.6,0-2.8-1.2-2.8-2.8h-3.6
		c0,1.5-1.3,2.8-2.8,2.8c-1.6,0-2.8-1.2-2.8-2.8h-1.7c-0.4,0-0.5,0-0.7,0h-1.3c0,1.5-1.3,2.8-2.8,2.8c-0.6,0-1.2-0.2-1.7-0.6
		c-1.5,0,0.4-0.4-1.2-0.4c0.3,0,0.5,0,0.6-0.1c-0.4-0.5-0.6-1-0.6-1.7h-3.6c0,1.5-1.3,2.8-2.8,2.8s-2.8-1.2-2.8-2.8v0.6
		c0-0.2-0.1-0.4-0.1-0.6h-0.2h-3.4h-0.2c0,1.5-1.2,2.7-2.8,2.7c-1.5,0-2.8-1.3-2.8-2.7h-0.2h-3.4h-0.2c0,1.5-1.2,2.7-2.8,2.7
		c-1.5,0-2.8-1.3-2.8-2.7h-0.2h-3.4H172c0,1.5-1.2,2.7-2.8,2.7c-1.5,0-2.8-1.3-2.8-2.7h-3.6c0,1.5-1.3,2.8-2.8,2.8
		c-1.6,0-2.8-1.2-2.8-2.8h-3.6c0,1.5-1.3,2.8-2.8,2.8S148,2.1,148,0.5h-3.6c0,1.5-1.3,2.8-2.8,2.8c-1.6,0-2.8-1.2-2.8-2.8H135
		c0,1.5-1.3,2.8-2.8,2.8c-1.6,0-2.8-1.2-2.8-2.8h-1.7c-0.4,0-0.5,0-0.7,0h-1.3c0,1.5-1.3,2.8-2.8,2.8c-0.6,0-1.2-0.2-1.7-0.6
		c-1.5,0,0.4-0.4-1.2-0.4c0.3,0,0.5,0,0.6-0.1c-0.4-0.5-0.6-1-0.6-1.7h-3.6c0,1.5-1.3,2.8-2.8,2.8c-1.6,0-2.8-1.2-2.8-2.8v1.1
		c-0.2-0.3-0.2-0.7-0.2-1.1H107c0,1.5-1.3,2.8-2.8,2.8c-1.6,0-2.8-1.2-2.8-2.8h-3.6c0,1.5-1.3,2.8-2.8,2.8S91.9,2,91.9,0.5h-3.6
		c0,1.5-1.3,2.8-2.8,2.8c-1.6,0-2.8-1.2-2.8-2.8H81c-0.4,0-0.5,0-0.7,0H79c0,1.5-1.3,2.8-2.8,2.8c-0.6,0-1.2-0.2-1.7-0.6
		c-1.5,0,0.4-0.4-1.2-0.4c0.3,0,0.5,0,0.6-0.1c-0.4-0.5-0.6-1-0.6-1.7h-3.6c0,1.5-1.3,2.8-2.8,2.8c-1.6,0-2.8-1.2-2.8-2.8h-0.8
		c-0.7,0.1-2.3,0.2-2.8,0.2c-0.1,0.6-0.3,1.1-0.7,1.6c0.2,0,0.4,0,0.6-0.1c-0.1,0-0.1,0-0.2,0.1c-0.2,0-0.3,0-0.4,0
		c-0.5,0.5-1.3,0.9-2.1,0.9c-1.6,0-2.8-1.2-2.8-2.8h-3.6c0,1.5-1.3,2.8-2.8,2.8c-1.6,0-2.8-1.2-2.8-2.8h-3.6c0,1.5-1.3,2.8-2.8,2.8
		c-1.6,0-2.8-1.2-2.8-2.8h-2.1c-0.3,0-0.6,0.1-0.6,0.1c-0.4,0-0.5,0-0.9,0c0,0.3-0.1,0.6-0.2,0.9c0.1,0,0.3,0.1,0.7,0.1
		c-0.4,0-0.6,0-0.8,0c-0.4,1-1.4,1.7-2.6,1.7c-1.6,0-2.8-1.2-2.8-2.8h-3.6c0,1.5-1.3,2.8-2.8,2.8C19.2,3.2,18,2,18,0.4h-4
		c0,1.5-1.3,2.8-2.8,2.8C9.6,3.3,8.4,2,8.4,0.5H4.8c0,0,0,0,0,0.1c1.1,0-0.4,0.1,0.1,0.2H4.8C4.6,2.2,3.4,3.3,1.9,3.3v3.5
		c1.6,0,2.8,1.2,2.8,2.8c0,1.5-1.3,2.8-2.8,2.8v3.5c1.6,0,2.8,1.2,2.8,2.8c0,1.5-1.3,2.8-2.8,2.8V25c1.6,0,2.8,1.2,2.8,2.8
		c0,0.9-0.5,1.7-1.2,2.2c0,0,0,0,0,0.1c0.3,0,0.7,0,1,0.1c0-0.1-0.1-0.1-0.1-0.1c-0.1-0.6,0.1-0.3,0.2-0.2c0,0.1,0.1,0.3,0.1,0.4
		h0.1c0-0.1-0.1-0.3-0.1-0.4c0-0.3,0.2,0.2,0.4,0.4c0.3,0,0.5,0,0.6,0.1c0.4-0.1,0.6-0.1,0.8-0.1v0.2c-0.4,0-0.8,0-1.3-0.1
		c0.2,0.6,0,0.5-0.3,0H4.8c0,0.2,0,0.4,0,0.4c-0.1-0.2-0.1-0.3-0.2-0.5c-0.3,0-0.7,0-1,0c0.4,1.6,0.1,1.9,0.6,3.8
		c-0.5-1.2-0.5-2.7-0.7-3.8c-0.1,0-0.1,0-0.2,0c-0.4,0.2-0.9,0.3-1.4,0.3v3.5c1.6,0,2.8,1.2,2.8,2.8c0,1.5-1.3,2.8-2.8,2.8v3.5
		c1.3,0,2.4,0.9,2.7,2.1c0.1,0,0.2,0,0.3,0c0.3,1,0,0.8-0.2,0.7c0,1.5-1.3,2.7-2.8,2.7v3.5c1.6,0,2.8,1.2,2.8,2.8
		c0,1.1-0.7,2-1.6,2.5c0,0,0-0.1,0-0.1c-0.4,0.2-0.8,0.3-1.2,0.3v1.2c0.2,0.5,0.3,0.6,0.3,0.4c0.2,0.8,0,0.8-0.3,0.3v1.5
		c1.6,0,2.8,1.2,2.8,2.8c0,1.5-1.3,2.8-2.8,2.8v3.5c1.6,0,2.8,1.2,2.8,2.8c0,1.5-1.3,2.8-2.8,2.8v3.5c1.6,0,2.8,1.2,2.8,2.8
		c0,0.6-0.2,1.1-0.5,1.6c0.1,0.2,0.2,0.3,0.3,0.2c0.1,0.4,0,0.4,0,0.5c0,0.1,0.1,0.4,0.1,0.4c0.3,0.8-0.1,0.3-0.1,0.6
		C4.3,84.9,4.2,84.5,4,84c-0.3,0.4-0.8,0.6-1.3,0.8c0.2,0.3,0.7,1.9,0.5,0.9c0.5,1.3,0.3,2,1,3.5C4,89.1,3.9,89,3.8,88.9
		c0.6,0.5,1,1.3,1,2.1c0,1.5-1.3,2.8-2.8,2.8v2.9C2.2,96,2.4,96,2.8,96.4c0.1,0.1,0.3,0.3,0.4,0.5c-0.3-2.7,0.9-0.4,1-1.5
		c0.1,1.7-0.5,0.4-0.3,2.2c0.5,0.5,0.7,1.1,0.7,1.8h3.6c0-1,0.6-1.9,1.4-2.4c0,0,0-0.1,0-0.2c0,0.1,0,0.2,0.1,0.3
		c0.3-0.2,0.7-0.3,1.1-0.3c0-0.1-0.1-0.3-0.1-0.5c0.1,0.2,0.2,0.4,0.3,0.5c0.1,0,0.1,0,0.2,0c1,0,1.9,0.5,2.4,1.3
		c-0.2-0.9,0.3-0.2,0.6,0.9c-0.1-0.3-0.2-0.3-0.3-0.3c0.1,0.3,0.2,0.6,0.2,0.9h3.6c0-1.5,1.3-2.8,2.8-2.8c1.6,0,2.8,1.2,2.8,2.8h3.6
		c0-1.5,1.3-2.8,2.8-2.8c1.6,0,2.8,1.2,2.8,2.8h3.6c0-1.5,1.3-2.8,2.8-2.8c1.6,0,2.8,1.2,2.8,2.8h3.6c0-1.5,1.3-2.8,2.8-2.8
		c1.6,0,2.8,1.2,2.8,2.8h3.6c0-1.5,1.3-2.8,2.8-2.8c1.6,0,2.8,1.2,2.8,2.8h3.6c0-1.5,1.3-2.8,2.8-2.8c0.3,0,0.6,0.1,0.9,0.2
		c0.1,0,0.2,0,0.2,0c0.1,0,0,0-0.1,0.1c0.4,0.2,0.8,0.4,1.1,0.8c1.3-0.4-0.1-0.4,1.8-1c-0.3,0-0.8,0.1-1.3,0.2
		c0.4-0.1,0.7-0.3,0.1-0.3c0.7-0.1,0.7-0.1,1.2-0.2c-1.2,0.1,0.8-0.4-1.6,0c0.1-0.1,1.1-0.3,0.1-0.2c1.3-0.3,2.3-0.4,2.7-0.6
		c-0.4,0-1.4,0.2-2.1,0.3c0.3-0.1,0.4-0.1,0.3-0.1c0.6-0.1,2.1-0.3,1.6-0.3c1-0.1,1,0,0.8,0.2c-2.1,0.2-0.1,0.2-2.3,0.5
		c0.4,0,1.5-0.2,2.2-0.3c0.3,0.5-1,1-1.9,1.6c0,0-0.5,0.1-0.8,0.2c-0.3,0-0.5,0.1-0.8,0.1c0,0.1,0.1,0.1,0.1,0.2
		c0.7-0.1,1.2-0.3,1.2-0.3c1.3-0.2,0.2,0.2-1.1,0.4c0.1,0.1,0.2,0.3,0.3,0.4c0.3,0,0.5-0.1,0.5-0.1c0.4-0.1,0.5,0,1.3-0.2
		c0.2,0-1.1,0.4,0.3,0.2c-0.3,0.1-1.6,0.3-2,0.3V99c0.2,0,0.6-0.1,1.3-0.2c-0.8,0.2,1,0.1-1.2,0.4c0,0.1,0,0.1,0,0.2
		c0.2-0.1,0.5-0.1,1.3-0.2c-0.8,0.3-0.3,0.2,0.5,0.3c-1.8,0.2-1.4,0.3-1.8,0.4h3.6c0-1.5,1.3-2.8,2.8-2.8c1,0,1.9,0.5,2.4,1.3
		c0.2,0.3,0.3,0.7,0.4,1.1v0.1c0.1,0,0.2,0,0.3,0c-0.1,0-0.2,0-0.3,0.1c0,0,0,0,0,0.1H80c0.3,0,0.6-0.1,0.9-0.1
		c0.2,0-0.1,0.1-0.4,0.1h0.3c0.6-0.1,0.7-0.1,0.4,0c1.6-0.2,0.9-0.2,1.5-0.3c0,0.1-0.4,0.2-1,0.3h0.8c0.1,0,0.1,0,0.2,0
		c0-0.5,0.1-0.9,0.4-1.3c0.5-0.8,1.4-1.4,2.5-1.4c1.6,0,2.8,1.2,2.8,2.8H92c0-1.5,1.3-2.8,2.8-2.8s2.8,1.2,2.8,2.8h3.6
		c0-1.5,1.3-2.8,2.8-2.8c1.6,0,2.8,1.2,2.8,2.8h3.6c0-0.4,0.1-0.8,0.2-1.1v1.1c0-1.5,1.3-2.8,2.8-2.8c0.3,0,0.6,0.1,0.9,0.2
		c0.1,0,0.2,0,0.2,0c0.1,0,0,0-0.1,0.1c0.4,0.2,0.8,0.4,1.1,0.8c1.3-0.4-0.1-0.4,1.8-1c-0.3,0-0.8,0.1-1.3,0.2
		c0.4-0.1,0.7-0.3,0.1-0.3c0.7-0.1,0.7-0.1,1.2-0.2c-1.2,0.1,0.8-0.4-1.6,0c0.1-0.1,1.1-0.3,0.1-0.2c1.3-0.3,2.3-0.4,2.7-0.6
		c-0.4,0-1.4,0.2-2.1,0.3c0.3-0.1,0.4-0.1,0.3-0.1c0.6-0.1,2.1-0.3,1.6-0.3c1-0.1,1,0,0.8,0.2c-2.1,0.2-0.1,0.2-2.3,0.5
		c0.4,0,1.5-0.2,2.2-0.3c0.3,0.5-1,1-1.9,1.6c0,0-0.5,0.1-0.8,0.2c-0.3,0-0.5,0.1-0.8,0.1c0,0.1,0.1,0.1,0.1,0.2
		c0.7-0.1,1.2-0.3,1.2-0.3c1.3-0.2,0.2,0.2-1.1,0.4c0.1,0.1,0.2,0.3,0.3,0.4c0.3,0,0.5-0.1,0.5-0.1c0.4-0.1,0.5,0,1.3-0.2
		c0.2,0-1.1,0.4,0.3,0.2c-0.3,0.1-1.6,0.3-2,0.3v0.1c0.2,0,0.6-0.1,1.3-0.2c-0.8,0.2,1,0.1-1.2,0.4c0,0.1,0,0.1,0,0.2
		c0.2-0.1,0.5-0.1,1.3-0.2c-0.8,0.3-0.3,0.2,0.5,0.3c-1.8,0.2-1.4,0.3-1.8,0.4h3.6c0-1.5,1.3-2.8,2.8-2.8c1,0,1.9,0.5,2.4,1.3
		c0.2,0.3,0.3,0.7,0.4,1.1v0.1c0.1,0,0.2,0,0.3,0c-0.1,0-0.2,0-0.3,0.1c0,0,0,0,0,0.1h0.9c0.3,0,0.6-0.1,0.9-0.1
		c0.2,0-0.1,0.1-0.4,0.1h0.3c0.6-0.1,0.7-0.1,0.4,0c1.6-0.2,0.9-0.2,1.5-0.3c0,0.1-0.4,0.2-1,0.3h0.8c0.1,0,0.1,0,0.2,0
		c0-0.5,0.1-0.9,0.4-1.3c0.5-0.8,1.4-1.4,2.5-1.4c1.6,0,2.8,1.2,2.8,2.8h3.6c0-1.5,1.3-2.8,2.8-2.8c1.6,0,2.8,1.2,2.8,2.8h3.6
		c0-1.5,1.3-2.8,2.8-2.8s2.8,1.2,2.8,2.8h3.6c0-1.5,1.3-2.8,2.8-2.8c1.4,0,2.5,1,2.8,2.2c0.2,0,0.4,0,0.9-0.1
		c-0.2,0.1,0,0.1,0.3,0.2c1.1-0.1,1.5-0.2,1.1-0.2c0.7,0,0.9,0.1-0.2,0.2c0.3,0,0.8-0.1,1.3-0.1c-0.1,0.1-1.2,0.1-0.7,0.2
		c-0.6,0.1-1.2,0.2-1.2,0.2c-1.4,0.1,1.1-0.3,0.6-0.3c-1.1,0.1-1.7,0.2-2,0.1c0,0.1,0,0.2,0,0.3h1.1c1.5-0.2,1.5-0.2,2.5-0.3
		c0.2-1.4,1.3-2.4,2.8-2.4c0.1,0,0.1,0,0.2,0c0.2,0,0.3,0.1,0.4,0.1c1.2,0.3,2.1,1.4,2.1,2.6h0.2h1.4h2h0.2c0-1.5,1.2-2.7,2.8-2.7
		c0.1,0,0.2,0,0.4,0c0.1,0,0.1,0,0.2,0c1.3,0.3,2.2,1.4,2.2,2.7h0.2h3.4h0.2c0,0,0,0-0.1-0.1h0.1c0-0.4,0.1-0.9,0.4-1.2
		c-0.1,0-0.1,0-0.2,0c0,0,0-0.1,0.1-0.1c0.1,0,0.1,0,0.2,0c0.5-0.8,1.3-1.3,2.3-1.3c0.1,0,0.2,0,0.2,0c0.1,0,0.3,0,0.4,0.1
		c1.2,0.3,2.1,1.4,2.1,2.6h0.2h0.1h1.8h1.5h0.2c0-0.1,0-0.3,0-0.4c0,0,0.1,0,0.1,0v0.4c0-0.9,0.5-1.8,1.2-2.3
		c0.2-0.1,0.5-0.2,0.7-0.3c0.2-0.1,0.4-0.1,0.7-0.1c0.1,0,0.1,0,0.2,0c0.3,0,0.6,0.1,0.9,0.2c0.1,0,0.2,0,0.2,0c0.1,0,0,0-0.1,0.1
		c0.4,0.2,0.8,0.4,1.1,0.8c1.3-0.4-0.1-0.4,1.8-1c-0.3,0-0.8,0.1-1.3,0.2c0.4-0.1,0.7-0.3,0.1-0.3c0.7-0.1,0.7-0.1,1.2-0.2
		c-1.2,0.1,0.8-0.4-1.6,0c0.1-0.1,1.1-0.3,0.1-0.2c1.3-0.3,2.3-0.4,2.7-0.6c-0.4,0-1.4,0.2-2.1,0.3c0.3-0.1,0.4-0.1,0.3-0.1
		c0.6-0.1,2.1-0.3,1.6-0.3c1-0.1,1,0,0.8,0.2c-2.1,0.2-0.1,0.2-2.3,0.5c0.4,0,1.5-0.2,2.2-0.3c0.3,0.5-1,1-1.9,1.6
		c0,0-0.5,0.1-0.8,0.2c-0.3,0-0.5,0.1-0.8,0.1c0,0.1,0.1,0.1,0.1,0.2c0.7-0.1,1.2-0.3,1.2-0.3c1.3-0.2,0.2,0.2-1.1,0.4
		c0.1,0.1,0.2,0.3,0.3,0.4c0.3,0,0.5-0.1,0.5-0.1c0.4-0.1,0.5,0,1.3-0.2c0.2,0-1.1,0.4,0.3,0.2c-0.3,0.1-1.6,0.3-2,0.3v0.1
		c0.2,0,0.6-0.1,1.3-0.2c-0.8,0.2,1,0.1-1.2,0.4c0,0.1,0,0.1,0,0.2c0.2-0.1,0.5-0.1,1.3-0.2c-0.8,0.3-0.3,0.2,0.5,0.3
		c-1.8,0.2-1.4,0.3-1.8,0.4h3.6c0-1.5,1.3-2.8,2.8-2.8c1,0,1.9,0.5,2.4,1.3c0.2,0.3,0.3,0.7,0.4,1.1v0.1c0.1,0,0.2,0,0.3,0
		c-0.1,0-0.2,0-0.3,0.1c0,0,0,0,0,0.1h0.9c0.3,0,0.6-0.1,0.9-0.1c0.2,0-0.1,0.1-0.4,0.1h0.3c0.6-0.1,0.7-0.1,0.4,0
		c1.6-0.2,0.9-0.2,1.5-0.3c0,0.1-0.4,0.2-1,0.3h0.8c0.1,0,0.1,0,0.2,0c0-0.5,0.1-0.9,0.4-1.3c0.5-0.8,1.4-1.4,2.5-1.4
		c1.6,0,2.8,1.2,2.8,2.8h3.6c0-1.5,1.3-2.8,2.8-2.8c1.6,0,2.8,1.2,2.8,2.8h3.6c0-1.5,1.3-2.8,2.8-2.8c1.6,0,2.8,1.2,2.8,2.8h3.6
		c0-1.5,1.3-2.8,2.8-2.8c1.4,0,2.5,1,2.8,2.2c0.2,0,0.4,0,0.9-0.1c-0.2,0.1,0,0.1,0.3,0.2c1.1-0.1,1.5-0.2,1.1-0.2
		c0.7,0,0.9,0.1-0.2,0.2c0.3,0,0.8-0.1,1.3-0.1c-0.1,0.1-1.2,0.1-0.7,0.2c-0.6,0.1-1.2,0.2-1.2,0.2c-1.4,0.1,1.1-0.3,0.6-0.3
		c-1.1,0.1-1.7,0.2-2,0.1c0,0.1,0,0.2,0,0.3h1.1c1.5-0.2,1.5-0.2,2.5-0.3c0.2-1.4,1.3-2.5,2.8-2.5s2.7,1.1,2.8,2.6
		c0.2,0,0.3,0,0.5-0.1c0.4,0,0.2,0.1,0.6,0.1c0.2,0-0.7,0.1-1.1,0.1h0.7c1-0.2,1.1-0.3,0.9-0.4c1.6-0.1-1,0.5,1.3,0.2
		c-0.2,0.1-0.9,0.1-0.7,0.2c-0.4,0-0.6,0.1-0.7,0.1h2.1c0-1.5,1.3-2.8,2.8-2.8c1.2,0,2.3,0.8,2.7,1.8c0.4,0,0.8-0.1,0.9-0.1
		c-0.9,0-0.5-0.3-0.5-0.4c1.5-0.1,0.8,0.2,2.1,0.1c-1.4,0.3-0.4,0.4-0.2,0.6c-0.7,0.1-0.9,0.1-1.7,0.2c1.7-0.3-1.2,0,0.6-0.3
		c0.1-0.1-0.7,0.1-1.1,0.1c0.1,0.2,0.1,0.5,0.1,0.8h3.6c0,0,0,0-0.1-0.1h0.1c0-0.4,0.1-0.9,0.4-1.2c-0.4,0-0.6,0-0.7,0
		c0.3,0,0.6-0.1,0.8-0.1c0.5-0.8,1.4-1.3,2.4-1.3c0.7,0,1.4,0.3,1.9,0.7c0.6,0,0.9,0,0.9,0c-0.4,0-0.6,0.1-0.7,0.1
		c0.5,0.5,0.8,1.2,0.8,1.9h0.1c1-0.1,1.5,0,3.2-0.2c-0.3,0.1-0.8,0.1-1.4,0.2h1.7c0-0.1,0-0.3,0-0.4c0.2-1.3,1.4-2.3,2.8-2.3
		c1.6,0,2.8,1.2,2.8,2.8h1.5h2.1c0-1.5,1.2-2.7,2.7-2.7c0-0.1,0-0.3,0.1-0.7v-2.8h-0.1c0,0.1-0.1,0.3-0.1,0.6
		c-0.1,0-0.1,0.1-0.2,0.1c0.1-0.4,0.1-0.6,0.1-0.7c-0.6-0.1-1.1-0.3-1.6-0.6c0,0.3-0.1,0.7-0.2,1.1c0-0.3,0-0.4-0.1-0.3
		c0.1-0.4,0.1-0.6,0.2-0.8c-0.6-0.5-1-1.2-1-2.1c0-0.7,0.2-1.2,0.6-1.7c0.1-0.3,0.2-0.6,0.3-0.6c0,0.1-0.1,0.3-0.1,0.4
		c0.5-0.5,1.2-0.8,2-0.8v-3.5c-1.6,0-2.8-1.2-2.8-2.8c0-1.5,1.3-2.8,2.8-2.8v-3.5c-1.6,0-2.8-1.2-2.8-2.7c-0.1,0.2-0.1-0.1-0.1-0.1
		c0.1-0.5,0.2-0.7,0.3-0.8c0.1-0.3,0.3-0.7,0.6-0.9c0,0,0-0.1,0-0.2c0.1-0.6,0.3-1.6,0.4-1.3c-0.1,0.8-0.2,1.2-0.3,1.4
		c0.1-0.1,0.3-0.2,0.4-0.3c0.1-0.4,0.2-0.8,0.4-1.4c-0.1,0.5-0.2,0.9-0.3,1.4c0.4-0.3,1-0.4,1.5-0.4v-3.5c-1.6,0-2.8-1.2-2.8-2.8
		c0-0.9,0.5-1.7,1.2-2.2c0-0.5,0.1-1-0.2,0c0.1-0.5-0.2,0,0.2-1.8c0,0.8,0.1,0.4,0.4-0.3c-0.5,2-0.2,1.2-0.3,2
		c0.4-0.2,0.9-0.4,1.4-0.4v-3.5c-0.7,0-1.4-0.3-1.9-0.7c-0.2,0.7-0.1,0.2-0.2,0.4c0.1-0.2,0.1-0.4,0.1-0.5c-0.5-0.5-0.8-1.2-0.8-1.9
		c0-1.5,1.3-2.8,2.8-2.8v-3.5c-1.6,0-2.8-1.2-2.8-2.8c0-1.5,1.3-2.8,2.8-2.8v-3.5c-1.6,0-2.8-1.2-2.8-2.8c0-1.5,1.3-2.8,2.8-2.8
		v-3.5c-1.6,0-2.8-1.2-2.8-2.8c0-1.5,1.3-2.8,2.8-2.8v-3.5c-1.6,0-2.8-1.2-2.8-2.8c0-1.5,1.3-2.8,2.8-2.8v-3.5
		c-1.6,0-2.8-1.2-2.8-2.8C287.2,8,288.5,6.7,290.1,6.7z M3,58c0.1-0.1,0.5,0.9,0.7,1.3c0-0.1-0.1-0.4,0-0.5
		c-0.2-0.6-0.4-0.1-0.6-1.3c0.4,0.7,0.6,0.7,1,1.9C4.1,60.1,3.7,60.1,3,58z M6.5,45.5v0.3c-0.1-0.1-0.2-0.3,0,0.3c0,0,0,0,0,0.1v0.4
		c-0.5-1-0.7-0.9-0.8-0.1c-0.2-0.4,0-0.4-0.5-1.6C5.8,45.6,6,45.3,6.5,45.5c0-0.1,0-0.2-0.1-0.3l0.1,0.1V45.5z M9.6,96.6
		c0-0.2-0.1-0.4-0.2-0.6c-0.2-0.1,0.2,1.9-0.3,0.8c-0.3-2,0.3-1.6,0.7-1.2C10.1,96.5,9.5,95.9,9.6,96.6z M258.1,20.5
		c-0.2,0-0.4,0-0.6,0.1c-0.4,0.1-0.7,0.1-1,0.1c-0.5,0-0.8-0.1-1.2-0.4c-0.3-0.3-0.5-0.7-0.5-1.2c0-1.1,0.7-1.7,2-1.7
		c0,0,0.1,0,0.2,0c0.1,0,0.2,0,0.4,0l2.8,0.2c0.6,0,1.1,0.1,1.4,0.1s0.6,0,0.9,0l8.3-0.3c0.1,0,0.7,0,1.8-0.1c0.2,0,0.4,0,0.5,0
		c0.2,0,0.3,0,0.5,0c1.6,0,2.4,0.7,2.4,2.1c0,0.1,0,0.3,0,0.6s-0.1,0.7-0.1,1.2c0,0.3-0.1,0.7-0.1,1c0,0.4,0,0.7,0,0.9
		c0,0.4,0,0.7,0,1c0,0.3,0,0.5,0.1,0.6c0,0.3,0.1,0.6,0.1,0.9c0,0.3,0,0.5,0,0.7c0,1.2-0.6,1.8-1.8,1.8s-1.8-0.8-1.8-2.3V24
		c0-1.7-0.3-2.7-0.9-2.9c-0.6-0.2-2.1-0.4-4.4-0.4c-1.5,0-2.4,0-2.8,0.1c-0.7,0.2-1,0.8-1,1.6v2.4c0,0.2,0,0.3,0,0.4
		c0,0.1,0,0.2,0,0.2v0.4c0,0.6,0,1,0.1,1.1c0.2,0,0.5,0.1,0.7,0.1h1.4c1,0,1.6-0.3,1.6-0.9c0,0,0-0.2-0.1-0.4c0-0.2,0-0.4-0.1-0.6
		c-0.1-0.4-0.1-0.9-0.1-1.3c0-1.2,0.6-1.8,1.8-1.8c1.2,0,1.8,0.6,1.8,1.9c0,0.1,0,0.4-0.1,0.8c0,0.4-0.1,0.9-0.2,1.5
		c-0.1,1.1-0.2,2-0.2,2.7c0,0.2,0,0.5,0,0.9c0,0.4,0.1,0.9,0.1,1.5l0.2,1.1c0.1,0.5,0.1,0.9,0.1,1.3c0,1.1-0.6,1.7-1.8,1.7
		c-1.2,0-1.8-0.6-1.8-1.9c0-0.1,0-0.3,0-0.5s0-0.4,0.1-0.6c0-0.1,0-0.2,0-0.4s0-0.3,0-0.4c0-0.1,0-0.2,0-0.3c0-0.6-0.5-0.9-1.3-0.9
		h-1.6c-0.4,0-0.7,0.1-0.7,0.3c-0.1,0.2-0.1,0.5-0.1,1.1v2.1c0,0.2,0,0.4,0,0.6s0,0.5,0,0.8c0,0.4,0,0.7,0,1s0,0.4,0,0.6
		c0,0.8,0.1,1.3,0.3,1.4c0.1,0.1,0.6,0.1,1.4,0.1h4.7c1.1,0,1.9-0.2,2.3-0.5c0.4-0.3,0.6-1,0.6-1.9c0-0.1,0-0.3,0-0.4
		c0-0.2,0-0.4,0-0.6c0-0.1,0-0.1,0-0.2c0-0.1,0-0.2,0-0.2c0-0.3,0-0.6,0-0.9c0-0.3,0-0.5,0-0.7c0-1.4,0.6-2,1.8-2
		c1.3,0,1.9,0.7,1.9,2.1c0,0.1,0,0.3,0,0.5s0,0.5,0,0.7c0,0.1,0,0.2,0,0.3c0,0.1,0,0.2,0,0.3c0,0.1,0,0.2,0,0.4c0,0.1,0,0.2,0,0.4
		c0,0.3,0,0.5,0,0.7c0,0.2,0,0.4,0,0.5c0,0.1,0,0.3,0,0.6c0,0.2,0,0.5,0,0.9c0,0.1,0,0.2,0,0.2c0,0.1,0,0.1,0,0.2c0,0.2,0,0.4,0,0.6
		c0,0.2,0,0.3,0,0.4c0,1.4-0.7,2.1-2.1,2.1c-0.1,0-0.2,0-0.4,0c-0.2,0-0.3,0-0.4,0c-0.1,0-0.1,0-0.2,0c-0.1,0-0.2,0-0.2,0
		c-0.4-0.1-0.8-0.1-1.2-0.1c-0.4,0-0.7,0-1.1,0c-0.4,0-0.8,0-1.2,0s-0.9,0-1.5,0c-0.8,0-1.6,0-2.3-0.1c-0.7,0-1.4,0-2,0
		c-2.1,0-4.3,0.1-6.3,0.2c-0.1,0-0.2,0-0.2,0h-0.3c-1.4,0-2-0.6-2-1.7c0-1,0.6-1.6,1.6-1.6h0.1c0,0,0.1,0,0.2,0c0.1,0,0.2,0,0.3,0
		s0.2,0,0.4,0c0.1,0,0.2,0,0.4,0.1c0.1,0,0.2,0,0.3,0c0.8,0,1.2-0.7,1.2-2.1V22.5C259.3,21.1,258.9,20.5,258.1,20.5z M232,20.3
		c2-2.4,4.6-3.6,7.9-3.6c2,0,3.8,0.6,5.5,1.8c0-1.1,0.6-1.6,1.7-1.6c1.2,0,1.8,0.6,1.8,1.9c0,0.2,0,0.4,0,0.5c0,0.1,0,0.3,0,0.3
		l-0.2,1.6c-0.1,0.5-0.1,1-0.1,1.5c0,0.2,0,0.6,0,1c0,0.5,0.1,1,0.1,1.7v0.3c0,1.4-0.6,2-1.9,2c-1.2,0-1.8-0.7-1.8-2.2v-1
		c0-1.4-0.5-2.6-1.4-3.4c-0.9-0.8-2.2-1.2-3.8-1.2c-2,0-3.6,0.8-4.8,2.4c-1.2,1.6-1.7,3.9-1.7,6.7c0,3,0.6,5.4,1.8,7.1
		c1.2,1.7,2.8,2.6,4.9,2.6c1.6,0,2.8-0.5,3.7-1.4c0.9-0.9,1.3-2.3,1.3-4.1c0-0.6-0.1-1-0.3-1.3c-0.2-0.2-0.5-0.4-1-0.4
		c-0.1,0-0.2,0-0.3,0c-0.1,0-0.2,0-0.4,0c-0.1,0-0.3,0-0.4,0c-0.2,0-0.3,0-0.4,0c-1.5,0-2.2-0.5-2.2-1.6c0-1.1,0.7-1.7,2-1.7
		c0.2,0,0.3,0,0.5,0c0.1,0,0.3,0,0.4,0.1h0.2c0.7,0.1,1.4,0.2,2,0.2c0.6,0,1,0.1,1.4,0.1c1.1,0,2.3-0.1,3.5-0.3c0.1,0,0.3,0,0.5-0.1
		c0.2,0,0.4,0,0.6,0c1.3,0,2,0.5,2,1.6c0,0.5-0.2,0.9-0.5,1.2c-0.4,0.3-0.8,0.5-1.3,0.5c-0.2,0-0.3,0-0.4,0c-0.1,0-0.2,0-0.3,0
		c-0.1,0-0.1,0-0.2,0h-0.2c-0.6,0-0.9,1-0.9,2.9v2.8c0,0.4,0,0.7,0,1s0,0.6,0.1,0.9c0,0.1,0,0.3,0,0.5c0,0.2,0,0.3,0,0.4
		c0,1.2-0.6,1.9-1.8,1.9s-1.8-0.6-1.8-1.8V40l-0.2,0.1c-1.5,1.3-3.5,1.9-5.9,1.9c-3.1,0-5.7-1.2-7.6-3.5c-1-1.1-1.7-2.5-2.1-4
		c-0.5-1.5-0.7-3.1-0.7-5C229.2,25.8,230.1,22.6,232,20.3z M202.8,38.3c0.1,0,0.2,0,0.3,0c0.1,0,0.1,0,0.3,0.1h0.3
		c0.4,0,0.7-0.2,0.9-0.5c0.1-0.2,0.4-0.7,0.6-1.5l6.4-17.3c0.4-1.2,1.3-1.8,2.7-1.8c1.3,0,2.2,0.6,2.7,1.8l6.2,17.1
		c0.3,0.9,0.6,1.6,0.9,1.9c0.3,0.3,0.6,0.5,1,0.5c0.2,0,0.3,0,0.4,0c0.2,0,0.3,0,0.4,0c0.1,0,0.2,0,0.3,0c0.1,0,0.2,0,0.3,0
		c1.3,0,2,0.5,2,1.6c0,1.1-0.6,1.6-1.9,1.6c-0.1,0-0.3,0-0.4,0c-0.2,0-0.3,0-0.4,0h-0.1h-0.1c-0.7-0.1-1.3-0.2-1.9-0.2
		c-0.5,0-1-0.1-1.3-0.1c-0.4,0-0.9,0-1.6,0.1c-0.7,0-1.5,0.1-2.5,0.2c0,0-0.1,0-0.2,0c-0.1,0-0.1,0-0.2,0c-0.1,0-0.3,0-0.4,0
		c-0.2,0-0.3,0-0.4,0c-1.3,0-2-0.6-2-1.6c0-1.1,0.7-1.6,2.1-1.6c0.1,0,0.3,0,0.4,0c0.2,0,0.3,0,0.5,0.1c0.2,0,0.3,0,0.5,0.1
		c0.2,0,0.3,0,0.4,0c0.4,0,0.5-0.2,0.5-0.5v-0.1c0-0.1-0.1-0.2-0.1-0.3l-0.1-0.3l-1.2-3.4c-0.1-0.2-0.2-0.4-0.3-0.4
		c-0.1-0.1-0.3-0.1-0.5-0.1h-6.1c-0.3,0-0.5,0.1-0.6,0.2c-0.1,0.1-0.3,0.5-0.5,1.1l-1,2.7c-0.1,0.2-0.1,0.4-0.1,0.5
		c0,0.4,0.3,0.6,0.8,0.6c0.1,0,0.2,0,0.4,0c0.2,0,0.3,0,0.5-0.1c0.2,0,0.4,0,0.5-0.1c0.2,0,0.3,0,0.5,0c1.3,0,2,0.6,2,1.7
		c0,1.1-0.7,1.6-2.1,1.6c-0.1,0-0.2,0-0.3,0c-0.1,0-0.2,0-0.4-0.1h-0.1l-1.7-0.3c-0.1,0-0.4,0-0.6-0.1c-0.3,0-0.6,0-0.9,0
		s-0.7,0-1,0s-0.5,0-0.7,0.1l-1.4,0.2c-0.3,0-0.6,0.1-0.8,0.1c-0.3,0-0.5,0-0.7,0c-1.3,0-1.9-0.5-1.9-1.6
		C200.9,38.8,201.5,38.3,202.8,38.3z M170.5,20.4c0,0-0.1,0-0.3,0.1c-0.2,0-0.4,0-0.5,0.1c-0.1,0-0.3,0-0.5,0.1c-0.2,0-0.3,0-0.4,0
		c-1.1,0-1.6-0.5-1.6-1.6c0-1.1,0.7-1.7,2.1-1.7c0,0,0.1,0,0.2,0c0.1,0,0.2,0,0.3,0l1.2,0.1c0.6,0.1,1.1,0.1,1.6,0.1
		c0.2,0,0.5,0,0.7,0c0.3,0,0.6-0.1,0.9-0.1c0.4,0,0.7-0.1,1-0.1s0.5,0,0.7,0c1.2,0,2,0.7,2.3,2l0.3,0.9l4.8,15.6l5.2-16.7
		c0.4-1.2,1.1-1.8,2.1-1.8h0.2c0.2,0,0.6,0,1,0.1c0.5,0.1,0.8,0.2,0.9,0.2c0.2,0,0.4,0,0.6,0.1c0.2,0,0.5,0,0.8,0
		c0.6,0,1.1,0,1.5-0.1l1-0.2c0.1,0,0.3-0.1,0.7-0.1c1.5,0,2.2,0.6,2.2,1.7c0,1.1-0.6,1.6-1.7,1.6c-0.1,0-0.3,0-0.4,0
		c-0.2,0-0.3,0-0.4-0.1c-0.1,0-0.3,0-0.5-0.1c-0.2,0-0.3,0-0.3-0.1c-0.7,0-1.1,0.7-1.1,2.1v2.4v3v2.9v5.4c0,1.4,0.4,2.1,1.1,2.1
		c0.1,0,0.2,0,0.3,0c0.1,0,0.2,0,0.3,0c0.3,0,0.5-0.1,0.6-0.1c0.1,0,0.2,0,0.3,0c0.1,0,0.1,0,0.2,0h0.1c1.1,0,1.7,0.5,1.7,1.6
		c0,0.6-0.2,1-0.6,1.4c-0.4,0.4-0.9,0.5-1.5,0.4c-0.5,0-0.8-0.1-1.1-0.1c-0.2,0-0.5,0-0.9-0.1c-0.6,0-1.1-0.1-1.4-0.1
		c-0.4,0-0.8-0.1-1.2-0.1c-0.5,0-1,0-1.5,0.1c-0.5,0-1,0.1-1.5,0.2c-0.4,0.1-0.8,0.1-1.2,0.1c-1.3,0-1.9-0.5-1.9-1.6s0.7-1.6,2-1.6
		c0.1,0,0.3,0,0.3,0c0.1,0,0.2,0,0.3,0.1c0.1,0,0.2,0,0.3,0c0.1,0,0.2,0,0.2,0h0.3c0.5,0,0.8-0.7,0.9-2.1c0-0.2,0-0.7,0.1-1.3
		c0-0.6,0-1.3,0-2.2c0-0.4,0-0.8,0-1.4c0-0.5,0-1.2,0-1.9c0-0.4,0-1,0-1.6c0-0.6,0-1.1,0-1.6v-3.5l-5.6,17.3
		c-0.2,0.5-0.5,0.9-0.9,1.2c-0.4,0.3-0.9,0.4-1.6,0.4c-0.8,0-1.3-0.1-1.7-0.4c-0.4-0.2-0.6-0.7-0.8-1.3c-0.9-2.8-1.8-5.6-2.7-8.5
		c-0.9-2.9-1.8-5.8-2.7-8.6l0.2,13.3c0,1.4,0.3,2,0.8,2c0.2,0,0.5,0,0.9-0.1h0.5c1.3,0,1.9,0.6,1.9,1.7c0,1.1-0.7,1.7-2,1.7
		c-0.1,0-0.2,0-0.3,0c-0.1,0-0.2,0-0.3,0c0,0-0.1,0-0.2,0l-1.6-0.3c-0.5-0.1-1-0.1-1.6-0.1c-1.2,0-2,0-2.4,0.1l-1.5,0.3
		c-0.1,0-0.1,0-0.2,0h-0.3c-1.5,0-2.2-0.6-2.2-1.7c0-0.5,0.2-0.9,0.5-1.2c0.3-0.3,0.7-0.4,1.1-0.4c0.2,0,0.4,0,0.6,0
		c0.2,0,0.4,0,0.6,0.1c0.1,0,0.2,0,0.4,0c0.1,0,0.1,0,0.2,0c0.8,0,1.1-0.7,1.1-2.1V22.5C171.6,21.2,171.2,20.5,170.5,20.4z
		 M154.4,17.4c0.1,0,0.2,0,0.3,0c0.1,0,0.2,0,0.3,0l1.8,0.3c0.3,0,0.7,0.1,1,0.1c0.3,0,0.7,0,1,0c0.3,0,0.7,0,1.1-0.1
		c0.4,0,0.8-0.1,1.2-0.1l1.5-0.2c0.1,0,0.2,0,0.3,0c0.1,0,0.2,0,0.3,0c1.4,0,2.1,0.6,2.1,1.7c0,0.5-0.2,0.9-0.5,1.2
		s-0.7,0.4-1.1,0.4c-0.3,0-0.7,0-1-0.1c-0.2,0-0.5-0.1-0.6-0.1c-0.8,0-1.1,0.7-1.1,2.1v13.8c0,1.4,0.4,2.1,1.1,2.1c0,0,0.1,0,0.2,0
		c0.1,0,0.1,0,0.3,0h0.2c0.4-0.1,0.8-0.1,1-0.1c1.1,0,1.6,0.5,1.6,1.6s-0.7,1.7-2.1,1.7H163c0,0-0.1,0-0.2,0l-1.8-0.3
		c-0.3,0-0.6-0.1-0.9-0.1s-0.6,0-0.9,0c-0.5,0-0.9,0-1.3,0.1c-0.4,0-0.8,0.1-1.2,0.1l-1.6,0.3c-0.1,0-0.2,0-0.3,0h-0.4
		c-1.4,0-2-0.6-2-1.7c0-1,0.5-1.6,1.6-1.6h0.1c0,0,0.1,0,0.2,0s0.2,0,0.3,0c0.1,0,0.3,0,0.4,0c0.1,0,0.2,0,0.3,0.1
		c0.1,0,0.2,0,0.3,0c0.8,0,1.2-0.7,1.2-2.1v-14c0-1.4-0.4-2-1.2-2c-0.2,0-0.4,0-0.6,0.1c-0.4,0.1-0.8,0.1-1,0.1
		c-0.5,0-0.8-0.1-1.2-0.4c-0.3-0.3-0.5-0.7-0.5-1.2C152.3,18,153,17.4,154.4,17.4z M121.7,20.2c1.9-2.3,4.5-3.4,7.8-3.4
		c3.2,0,5.8,1.1,7.6,3.3c1.9,2.2,2.8,5.2,2.8,8.9c0,4-1,7.2-2.9,9.6c-1.8,2.4-4.4,3.6-7.7,3.6c-3.2,0-5.8-1.2-7.7-3.5
		c-1.8-2.3-2.8-5.4-2.8-9.2C118.9,25.5,119.8,22.5,121.7,20.2z M94.7,19.7c0,0,0-0.1,0-0.3c0-1.4,0.7-2.1,1.9-2.1c0.1,0,0.4,0,0.8,0
		c0.4,0,0.9,0,1.5,0.1h0.3c0.2,0,0.5,0,0.9,0c0.4,0,0.9,0,1.6,0.1c0.6,0,1.3,0,2,0s1.3,0,2,0c0.1,0,0.3,0,0.5,0s0.5,0,0.9,0
		c0.3,0,0.6,0,1,0c0.4,0,0.8,0,1.3,0c0.4,0,1.1,0,2.2-0.1c0.4,0,0.8-0.1,1.2-0.1c0.4,0,0.7,0,1,0c1.5,0,2.3,0.7,2.3,2
		c0,0.2,0,0.7-0.1,1.3c-0.1,0.6-0.1,1.3-0.2,2V23c0,0.1,0,0.4,0,0.6c0,0.3,0,0.6,0.1,1c0,0.5,0.1,0.9,0.1,1.2s0,0.5,0,0.6
		c0,1.2-0.6,1.9-1.9,1.9c-1.2,0-1.9-0.7-1.9-2.2c0-0.4,0-1,0.1-1.9c0-0.4,0-0.8,0.1-1.1c0-0.3,0-0.6,0-0.8c0-1.3-0.7-1.9-2.1-1.9h-1
		c-0.6,0-1.1,0.2-1.4,0.5c-0.3,0.3-0.5,0.8-0.5,1.4l-0.1,2.4v11.7c0,1.4,0.4,2.1,1.2,2.1c0,0,0.1,0,0.3,0s0.3,0,0.4-0.1
		c0.2,0,0.4,0,0.6,0c0.2,0,0.3,0,0.3,0c0.5,0,0.8,0.2,1.2,0.5c0.3,0.3,0.5,0.7,0.5,1.1c0,1.1-0.7,1.7-2.1,1.7h-0.3
		c-0.1,0-0.2,0-0.3,0l-1.7-0.3c-0.3,0-0.7-0.1-1-0.1c-0.3,0-0.7,0-1,0c-0.4,0-0.8,0-1.2,0c-0.4,0-0.7,0.1-1.1,0.1l-1.7,0.3
		c-0.1,0-0.2,0-0.2,0h-0.3c-1.4,0-2.1-0.6-2.1-1.7s0.6-1.6,1.7-1.6c0,0,0.1,0,0.3,0c0.3,0,0.4,0,0.6,0s0.3,0,0.5,0.1
		c0.1,0,0.2,0,0.3,0c0.8,0,1.1-0.7,1.1-2.1V34v-3v-3v-5.6c0-1.3-0.6-2-1.9-2h-1c-1.3,0-1.9,0.6-1.9,1.9c0,0.3,0,0.5,0,0.7
		s0,0.3,0,0.4l0.1,1.2c0,0.1,0,0.3,0,0.4c0,0.2,0,0.3,0,0.5c0,1.8-0.6,2.7-1.9,2.7c-1.2,0-1.9-0.7-1.9-2c0-0.1,0-0.2,0-0.4
		s0-0.4,0-0.5c0-0.1,0-0.2,0-0.3s0-0.2,0-0.3c0.1-1.1,0.1-1.8,0.1-2.1c0-0.3,0-0.5,0-0.8s0-0.6-0.1-0.9l-0.1-1
		C94.7,19.8,94.7,19.7,94.7,19.7z M73.6,20.2c1.9-2.3,4.5-3.4,7.8-3.4c3.2,0,5.8,1.1,7.6,3.3c1.9,2.2,2.8,5.2,2.8,8.9
		c0,4-1,7.2-2.9,9.6c-1.8,2.4-4.4,3.6-7.7,3.6c-3.2,0-5.8-1.2-7.7-3.5c-1.8-2.3-2.8-5.4-2.8-9.2C70.8,25.5,71.7,22.5,73.6,20.2z
		 M61.8,2.1l0.1,0.1c-0.3,0-0.6,0-0.9,0C61.2,2.2,61.4,2.1,61.8,2.1z M19.9,41.5c-0.1,0-0.1,0-0.2,0h-0.3c-1.4,0-2.1-0.6-2.1-1.7
		c0-0.5,0.2-0.9,0.5-1.2c0.3-0.3,0.7-0.4,1.2-0.4c0.3,0,0.7,0,1,0.1c0.1,0,0.2,0,0.3,0c0.1,0,0.2,0,0.3,0c0.8,0,1.2-0.7,1.2-2.1
		V22.5c0-1.4-0.4-2.1-1.2-2.1h-0.1c0,0-0.1,0-0.3,0h-0.1c-0.4,0.1-0.8,0.1-1,0.1c-1.1,0-1.7-0.5-1.7-1.6c0-1,0.7-1.6,2.1-1.6
		c0.1,0,0.2,0,0.3,0c0.1,0,0.2,0,0.3,0l1.7,0.2c0.6,0.1,1.2,0.1,2,0.1c0.5,0,1.2,0,2-0.1c0.9-0.1,1.8-0.2,2.5-0.2s1.3-0.1,1.8-0.1
		c1.6,0,2.9,0.1,3.9,0.4c0.7,0.2,1.4,0.5,2.1,1c0.7,0.4,1.2,0.9,1.7,1.5c0.5,0.6,0.8,1.2,1.1,1.9c0.3,0.7,0.4,1.4,0.4,2.2
		c0,2.3-0.8,4.1-2.3,5.3c-1.6,1.2-3.9,1.8-6.9,1.8h-2.5c-0.4,0-0.7,0-0.9,0c-0.3,0-0.5,0-0.6,0c-0.1,0-0.1,0.1-0.2,0.1
		c0,0.1,0,0.2,0,0.4v0.7c0,2.9,0.1,4.6,0.2,5.2c0.1,0.4,0.4,0.6,1,0.6c0.1,0,0.2,0,0.3,0c0.1,0,0.2,0,0.3-0.1c0.1,0,0.2,0,0.4,0
		c0.1,0,0.2,0,0.3,0c0.1,0,0.1,0,0.2,0h0.1c1.1,0,1.6,0.5,1.6,1.6c0,1.1-0.7,1.7-2.2,1.7H28c0,0-0.1,0-0.2,0c-0.1,0-0.1,0-0.2,0
		l-1.7-0.3c-0.5-0.1-1.2-0.1-2.1-0.1c-0.8,0-1.4,0-1.9,0.1L19.9,41.5z M46.7,50.6c0.6,0,1.1,0.5,1.1,1.1V56c0,0.6-0.5,1.1-1.1,1.1
		H33.2c-0.6,0-1.1-0.5-1.1-1.1v-4.3c0-0.6,0.5-1.1,1.1-1.1H46.7z M30.5,59.9c0,0.4-0.3,0.8-0.6,0.8h-5c-0.3,0-0.6-0.4-0.6-0.8
		s0.3-0.8,0.6-0.8h5C30.2,59.1,30.5,59.4,30.5,59.9z M57.9,83.5c0,0.6-0.5,1.1-1.1,1.1H22.9c-0.6,0-1.1-0.5-1.1-1.1V62.9
		c0-0.6,0.5-1.1,1.1-1.1h8.8c0-0.1,0.1-0.1,0.1-0.2l1.7-2.6c0.3-0.5,0.9-0.8,1.5-0.8h10.2c0.5,0,1.1,0.3,1.5,0.8l1.7,2.6
		c0,0.1,0.1,0.1,0.1,0.2h8.4c0.6,0,1.1,0.5,1.1,1.1V83.5z M66,41.6c-0.3,0-0.8-0.1-1.5-0.2c-0.7-0.2-1.6-0.3-2.5-0.3
		c-1.3,0-2.3,0.1-3.1,0.2c-0.5,0.1-0.9,0.2-1.2,0.2s-0.5,0.1-0.6,0.1c-1.4,0-2.1-0.6-2.1-1.7c0-1.1,0.6-1.6,1.7-1.6c0,0,0,0,0.3,0
		c0.2,0,0.4,0,0.6,0.1c0.1,0,0.3,0,0.4,0s0.3,0,0.3,0c0.6,0,1-0.5,1.1-1.5c0-0.1,0-1.1,0-3v-3.4h-9.8v3.4c0,1.9,0,2.9,0,3
		c0.1,1,0.5,1.5,1.1,1.5c0,0,0.1,0,0.3,0s0.3,0,0.5,0l0.9-0.1c1.1,0,1.6,0.5,1.6,1.6c0,1.1-0.7,1.7-2.1,1.7c-0.3,0-0.8-0.1-1.6-0.2
		c-0.6-0.1-1.1-0.2-1.5-0.2c-0.5,0-0.9-0.1-1.3-0.1c-0.5,0-1,0-1.5,0.1c-0.5,0-1,0.1-1.6,0.2l-0.8,0.1c-0.1,0-0.2,0-0.2,0.1
		c0,0-0.2,0-0.3,0c-1.4,0-2.1-0.6-2.1-1.7c0-0.4,0.2-0.8,0.5-1.1s0.7-0.5,1.2-0.5c0.1,0,0.3,0,0.4,0c0.2,0,0.3,0,0.4,0.1
		c0.3,0.1,0.6,0.1,0.8,0.1c0.8,0,1.2-0.7,1.2-2.1V22.5c0-1.4-0.4-2.1-1.2-2.1c-0.1,0-0.1,0-0.2,0c-0.1,0-0.2,0-0.3,0.1
		c-0.2,0-0.4,0.1-0.6,0.1s-0.4,0-0.5,0c-0.5,0-0.8-0.2-1.2-0.5C41.2,19.8,41,19.4,41,19c0-1.1,0.7-1.7,2.1-1.7c0.1,0,0.3,0,0.5,0
		c0.2,0,0.5,0.1,0.7,0.1h0.1c0,0,0,0,0.1,0c0.8,0.2,1.8,0.3,3.1,0.3c0.5,0,1.1-0.1,2.1-0.2s1.7-0.2,2.2-0.2c1.4,0,2.1,0.6,2.1,1.7
		c0,0.5-0.2,0.9-0.5,1.2s-0.7,0.4-1.2,0.4c-0.2,0-0.4,0-0.6,0s-0.4-0.1-0.6-0.1c-0.1,0-0.1,0-0.2,0c-0.1,0-0.1,0-0.2,0s-0.1,0-0.1,0
		c-0.4,0-0.7,0.2-0.9,0.5c-0.2,0.4-0.3,0.9-0.3,1.6v4.6h9.8v-4.6c0-1.4-0.4-2.1-1.1-2.1c0,0-0.1,0-0.2,0c-0.1,0-0.2,0-0.3,0.1
		c-0.2,0-0.4,0.1-0.6,0.1s-0.4,0-0.6,0c-1.1,0-1.7-0.5-1.7-1.6c0-1.1,0.7-1.7,2-1.7c0.4,0,1,0.1,1.9,0.2c0.4,0.1,0.8,0.1,1.2,0.1
		c0.4,0,0.7,0,1.1,0c0.5,0,1,0,1.6,0c0.6,0,1.2-0.1,1.7-0.2c0.3,0,0.6-0.1,0.8-0.1c0.3,0,0.4,0,0.6,0c1.4,0,2.1,0.6,2.1,1.7
		c0,1.1-0.6,1.6-1.7,1.6c-0.1,0-0.3,0-0.4,0c-0.2,0-0.3,0-0.4-0.1c-0.1,0-0.3,0-0.5-0.1c-0.2,0-0.3,0-0.3-0.1
		c-0.7,0-1.1,0.7-1.1,2.1v13.7c0.3,1.5,0.6,2.2,1.4,2.2c0,0,0.1,0,0.3,0s0.3,0,0.5,0l0.9-0.1c1.1,0,1.7,0.5,1.7,1.6
		C68.1,41,67.4,41.6,66,41.6z M82.3,98.7C81.9,98.8,82,98.7,82.3,98.7C82.3,98.7,82.3,98.7,82.3,98.7z M128.6,99
		C128.2,99.1,128.3,99,128.6,99C128.6,99,128.6,99,128.6,99z M212.1,99.3C211.7,99.4,211.8,99.3,212.1,99.3
		C212.1,99.3,212.1,99.3,212.1,99.3z M278.6,85.9L278.6,85.9c0,0-19.2,0-44.1,0c-0.2,0-0.4,0-0.6,0c-1.5,1.1-3.7,0.4-5.1,0.4
		c0,0,0-0.8-0.3-0.4c-0.2,0-0.4,0-0.6,0c-0.8,0-1.7,0-2.5,0c-0.2,0-0.4,0-0.6,0c-4.2,1.1-9.4,1.1-14,0c-0.2,0-0.4,0-0.6,0
		c-6.4,0-12.7,0-19.1,0V86c-17.5,0-40.9,0-48.9,0c-1,0.1-2.1,0.2-3.1,0.2c-0.7,0.4-1.6,0.2-2.4,0.1c-1.1,0-2.3-0.1-3.4-0.3
		c-2.7,0.8-6.2,0.8-9.1,0c-0.1,0-0.3,0-0.4,0c-5,0-10,0-14.9,0c-0.1,0-0.3,0-0.4,0c-1.5-0.3-3.3-0.3-4.6,0c-0.2,0-0.3,0-0.5,0
		c-7.7,0-14.9,0-20.9,0c-0.1,0-0.2,0-0.3,0c-3.1-0.3-6.6,0.8-9.5,0c-0.1,0-0.3,0-0.5,0c-3.3,0-5.2,0-5.2,0V52.9c9,0,83.8,0,105.5,0
		c0.2,0,0.4,0,0.5,0c2.2,0.5,5,0.5,6.8,0c0.2,0,0.4,0,0.6,0c0.2,0,0.4,0,0.6,0c0.2,0,0.4,0,0.6,0c4.9,0.5,9.8,0.5,14.4,0
		c0.2,0,0.4,0,0.6,0c7.1,0,14.3,0,21.4,0c0.2,0,0.4,0,0.6,0c2.3,0.5,3.8,0.5,5.5,0.1c0.2,0,0.4-0.1,0.6-0.1c11.7,0,22.7,0,31.4,0
		c0.2,0,0.3,0,0.5,0c4.3,0.5,8.5,0.5,12.7,0c0.2,0,0.4,0,0.6,0c4.2,0,7.8,0,8.7,0V85.9z M282.7,14.9c0.3,1.7,0.2,2,0.1,2.2
		c-0.2-0.9-0.2-1.2-0.3-2C282.6,15,282.7,15,282.7,14.9z M282.2,15.7c0,0.1,0,0.2,0.1,0.3c-0.1,0,0,1.1-0.1,1.1
		C282.1,16.4,282.2,16,282.2,15.7z M282,18.2c0,0.2-0.1,0.4-0.1,0.6C281.7,17.9,281.8,17.5,282,18.2z M283.1,21.1H283
		c-0.3-0.1-0.8-0.4-0.8-0.2c-0.2-0.7-0.3-1.4-0.3-2c0.1-0.2,0.1-0.1,0.1,0.2V19c0,0.1,0,0.2,0.1,0.3c0.5,1.4,0.8,1.5,1,1.2V21.1z
		 M283.1,14.8H283c0,0.1,0,0.2,0,0.3c0-0.1-0.1-0.1-0.1-0.3C283,14.8,283,14.7,283.1,14.8L283.1,14.8z"/>
	<rect x="33.8" y="52.2" width="12.4" height="3.2"/>
	<path d="M42.9,67.7v6l2.8-2.8C45.1,69.6,44.2,68.4,42.9,67.7z"/>
	<path d="M42.5,67.5c-0.8-0.4-1.7-0.6-2.6-0.6c-0.5,0-1.1,0.1-1.6,0.2l4.2,4.2L42.5,67.5z"/>
	<path d="M54.3,64H25.5c-0.6,0-1.1,0.5-1.1,1.1v3.7c0,0.6,0.5,1.1,1.1,1.1h5.8c-0.4,1-0.6,2-0.6,3.1c0,5,4.1,9.1,9.1,9.1
		c5,0,9.1-4.1,9.1-9.1c0-1.1-0.2-2.2-0.6-3.1h5.8c0.6,0,1.1-0.5,1.1-1.1v-3.7C55.4,64.5,54.9,64,54.3,64z M39.9,80.7
		c-4.2,0-7.6-3.4-7.6-7.6c0-4.2,3.4-7.6,7.6-7.6c4.2,0,7.6,3.4,7.6,7.6C47.4,77.3,44,80.7,39.9,80.7z M54.4,66.5
		c0,0.6-0.5,1.1-1.1,1.1h-5.1c-0.6,0-1.1-0.5-1.1-1.1V66c0-0.6,0.5-1.1,1.1-1.1h5.1c0.6,0,1.1,0.5,1.1,1.1V66.5z"/>
	<path d="M45.4,75.8c0.4-0.8,0.6-1.7,0.6-2.7c0-0.5-0.1-1.1-0.2-1.6l-4.3,4.3L45.4,75.8z"/>
	<path d="M2.6,84.8C2.7,84.8,2.7,84.8,2.6,84.8C2.7,84.7,2.6,84.7,2.6,84.8z"/>
	<path d="M60.5,0.5c0,0.1,0,0.1,0,0.2c0.9,0,1.8-0.2,2.8-0.2H60.5z"/>
	<path d="M1.9,85.5c0.4,1-0.2,0.9,0.4,2.6c0.3,1-0.1-0.7,0.2,0.3c0.1,0,0.1,0,0.2,0.1c-0.2-0.8-0.2-1.4-0.3-2
		c0.1,0.8,0.5,2.1,0.6,1.4c0.1-0.2-0.4-1-0.4-1.6c0.3,0.6,0.3-0.5,0.1-1.1c0-0.2-0.1-0.3-0.1-0.4c-0.2,0.1-0.5,0.1-0.7,0.1V85.5z"/>
	<path d="M34.3,70.4c-0.4,0.8-0.6,1.7-0.6,2.7c0,0.5,0.1,1.1,0.2,1.6l4.3-4.3L34.3,70.4z"/>
	<path d="M37.8,67.3c-1.4,0.5-2.5,1.4-3.2,2.7h5.9L37.8,67.3z"/>
	<path d="M41.9,78.8c1.4-0.5,2.5-1.4,3.2-2.7h-5.9L41.9,78.8z"/>
	<path d="M36.8,78.4v-6l-2.8,2.8C34.6,76.5,35.6,77.7,36.8,78.4z"/>
	<path d="M37.2,78.6c0.8,0.4,1.7,0.6,2.6,0.6c0.5,0,1.1-0.1,1.6-0.2l-4.2-4.2L37.2,78.6z"/>
	<path d="M81.3,38.7c1.9,0,3.4-0.8,4.6-2.4c1.2-1.6,1.8-4,1.8-7c0-2.9-0.5-5.2-1.6-6.8c-1.1-1.6-2.7-2.3-4.7-2.3s-3.6,0.8-4.7,2.4
		c-1.1,1.6-1.6,3.9-1.6,6.8c0,3,0.6,5.3,1.6,6.9C77.7,37.9,79.3,38.7,81.3,38.7z"/>
	<path d="M129.4,38.7c1.9,0,3.4-0.8,4.6-2.4c1.2-1.6,1.8-4,1.8-7c0-2.9-0.5-5.2-1.6-6.8c-1.1-1.6-2.7-2.3-4.7-2.3s-3.6,0.8-4.7,2.4
		c-1.1,1.6-1.6,3.9-1.6,6.8c0,3,0.5,5.3,1.6,6.9C125.8,37.9,127.4,38.7,129.4,38.7z"/>
	<path d="M3,96.9c-0.1-0.2-0.1-0.4-0.2-0.5c0,0.1,0,0.3,0,0.5C2.9,96.9,2.9,96.9,3,96.9z"/>
	<path d="M69.6,98.7L69.6,98.7C70,98.8,69.8,98.7,69.6,98.7z"/>
	<path d="M3.7,97.4c0.1,0.1,0.1,0.1,0.2,0.2c-0.1-0.5-0.2-0.9-0.4-1.3C3.6,96.8,3.7,97.1,3.7,97.4z"/>
	<path d="M3.3,87.5c-0.1-0.3-0.2-0.7-0.3-0.7c0,0.4,0.1,1,0.1,1.2c0.1,0,0.1,0.1,0.2,0.1C3.2,87.8,3.4,87.9,3.3,87.5z"/>
	<path d="M91,75.7c0,0-0.1,0-0.2,0c-0.1,0-0.1,0-0.2,0s-0.1,0-0.3,0c0,0-0.1,0-0.2,0c-0.2,0-0.4-0.1-0.6-0.3
		c-0.2-0.2-0.3-0.6-0.5-1.1l-4-10.8c-0.3-0.7-0.8-1.1-1.7-1.1s-1.5,0.4-1.8,1.1l-4.1,11c-0.2,0.5-0.3,0.8-0.4,0.9
		c-0.1,0.2-0.3,0.3-0.5,0.3h-0.2c-0.1,0-0.1,0-0.2,0c0,0-0.1,0-0.2,0c-0.8,0-1.3,0.3-1.3,1s0.4,1,1.3,1c0.1,0,0.3,0,0.4,0
		c0.2,0,0.3,0,0.5-0.1l0.9-0.1c0.1,0,0.2,0,0.4,0c0.2,0,0.4,0,0.6,0s0.3,0,0.5,0c0.2,0,0.3,0,0.4,0l1.1,0.2H81c0.1,0,0.1,0,0.2,0
		s0.1,0,0.2,0c0.9,0,1.4-0.3,1.4-1s-0.4-1-1.3-1c-0.1,0-0.2,0-0.3,0s-0.2,0-0.3,0c-0.1,0-0.2,0-0.3,0s-0.2,0-0.2,0
		c-0.3,0-0.5-0.1-0.5-0.4c0-0.1,0-0.2,0.1-0.3l0.6-1.7c0.1-0.3,0.2-0.6,0.3-0.6c0.1-0.1,0.2-0.1,0.4-0.1h3.9c0.2,0,0.3,0,0.3,0.1
		c0.1,0,0.1,0.1,0.2,0.3l0.7,2.2l0.1,0.2c0,0.1,0.1,0.1,0.1,0.2v0.1c0,0.2-0.1,0.3-0.3,0.3c0,0-0.1,0-0.2,0s-0.2,0-0.3,0
		s-0.2,0-0.3,0s-0.2,0-0.3,0c-0.9,0-1.4,0.3-1.4,1c0,0.7,0.4,1,1.3,1c0.1,0,0.1,0,0.2,0s0.2,0,0.3,0h0.1h0.1
		c0.6-0.1,1.1-0.1,1.6-0.1c0.4,0,0.7,0,1,0c0.2,0,0.5,0,0.8,0c0.3,0,0.7,0.1,1.1,0.1c0,0,0,0,0.1,0h0.1c0.1,0,0.2,0,0.3,0
		s0.2,0,0.3,0c0.8,0,1.3-0.3,1.3-1C92.2,76.1,91.8,75.7,91,75.7z M81.5,70.4c0.2-0.8,0.5-1.6,0.8-2.4c0.3-0.8,0.5-1.7,0.8-2.5
		l1.6,4.9H81.5z"/>
	<path d="M107.1,62.4c-0.2,0-0.3,0-0.6,0.1l-0.9,0.2c-0.2,0-0.5,0.1-0.9,0.1c-0.4,0-0.7,0-1-0.1l-1.3-0.2c0,0-0.1,0-0.2,0
		s-0.1,0-0.2,0c-0.9,0-1.4,0.3-1.4,1.1c0,0.2,0.1,0.5,0.3,0.7c0.2,0.2,0.4,0.3,0.7,0.3c0.1,0,0.2,0,0.3,0s0.2,0,0.4-0.1h0.1
		c0,0,0,0,0.1,0s0.1,0,0.2,0c0.3,0,0.6,0.3,0.7,0.8c0,0.1,0,0.3,0,0.5c0,0.3,0,0.7,0,1.3c0,0.9,0,1.9,0,2.8s0,1.9,0,2.8
		c0,0.4,0,0.7-0.1,1c0,0.3-0.1,0.6-0.2,0.8c-0.1,0.4-0.5,0.8-0.9,1c-0.5,0.3-1.1,0.4-1.9,0.4c-0.3,0-0.5,0-0.8-0.1
		C99.2,76,99,76,98.7,75.9c-0.5-0.2-0.8-0.5-1.1-0.9c-0.2-0.4-0.3-1-0.3-2.1v-3.3l0.1-1.8v-1.5c0-0.3,0-0.6,0-0.8
		c0-0.2,0-0.3,0.1-0.4c0.1-0.3,0.3-0.5,0.5-0.5c0,0,0,0,0.2,0c0.1,0,0.2,0,0.3,0c0.1,0,0.2,0,0.3,0s0.2,0,0.3,0c0.7,0,1.1-0.3,1.1-1
		s-0.4-1-1.3-1c-0.1,0-0.2,0-0.3,0s-0.2,0-0.3,0c-0.7,0.1-1.5,0.2-2.1,0.2c-0.3,0-0.6,0-0.9,0c-0.3,0-0.6-0.1-1-0.1
		c-0.3,0-0.5-0.1-0.8-0.1c-0.8,0-1.3,0.3-1.3,1s0.4,1,1.3,1c0.1,0,0.1,0,0.2,0s0.2,0,0.2,0h0.2c0.2,0,0.4,0.3,0.5,0.9
		c0,0.1,0,0.6,0,1.8v1.1c0,0.5,0,1.4-0.1,2.3c0,1-0.1,1.8-0.1,2.4c0,0.5,0,1,0.1,1.5c0.1,0.4,0.2,0.7,0.3,1c0.7,1.8,2.5,2.7,5.3,2.7
		c2.2,0,3.8-0.6,4.8-2c0.4-0.6,0.7-1.3,0.8-2c0-0.2,0-0.5,0.1-0.8c0-0.3,0-0.8,0-1.3v-3.9c0-1.8,0-2.9,0.1-3.3
		c0.1-0.3,0.2-0.4,0.4-0.4h0.1h0.4c0.8,0,1.3-0.3,1.3-1C108.4,62.7,108,62.4,107.1,62.4z"/>
	<path d="M122.1,71.3c-0.8,0-1.3,0.4-1.3,1.3c0,0.3,0,0.6-0.1,0.9c0,0.2-0.1,0.5-0.2,0.7c-0.2,0.6-0.6,1-1.3,1.5
		c-0.6,0.3-1.3,0.5-2,0.5c-1.4,0-2.5-0.5-3.2-1.6c-0.7-1-1.1-2.5-1.1-4.5c0-1.9,0.4-3.3,1.1-4.4s1.8-1.6,3.1-1.6
		c1,0,1.8,0.3,2.4,0.9c0.6,0.6,0.9,1.4,0.8,2.4c0,0.1,0,0.2,0,0.4c0,0.1,0,0.3,0,0.4c0,0.8,0.4,1.3,1.3,1.3c0.7,0,1.1-0.4,1.1-1.3
		v-0.2l-0.1-0.8c0-0.4-0.1-0.8-0.1-1.1c0-0.1,0-0.3,0-0.6c0-0.2,0-0.5,0.1-0.9c0-0.6,0.1-0.9,0.1-1.1c0-0.8-0.4-1.3-1.1-1.3
		c-0.3,0-0.6,0.1-0.8,0.3s-0.3,0.5-0.3,0.8c0-0.1-0.2-0.3-0.4-0.4c-0.2-0.1-0.5-0.3-0.8-0.4c-0.3-0.1-0.7-0.2-1-0.3
		c-0.4-0.1-0.7-0.1-1-0.1c-2.1,0-3.8,0.7-5.1,2.3c-0.6,0.7-1.1,1.7-1.5,2.6c-0.3,0.9-0.4,2.1-0.4,3.3c0,1.1,0.1,2.3,0.4,3.2
		c0.3,0.9,0.7,1.8,1.4,2.5c1.3,1.5,2.9,2.2,5,2.2c1.8,0,3.3-0.5,4.4-1.6c1.1-1,1.8-2.4,1.8-4.1C123.4,71.7,123,71.3,122.1,71.3z"/>
	<path d="M142,75.7c-0.1,0-0.4,0-0.7,0.1h-0.1h-0.1c-0.1,0-0.4-0.2-0.7-0.5c-0.3-0.3-0.7-0.7-1-1.3l-3.5-4.8l-0.3-0.5
		c-0.1-0.1-0.2-0.2-0.2-0.2s0-0.1,0.1-0.2l4.2-3.4c0.4-0.3,0.8-0.5,1.3-0.5c0.1,0,0.2,0,0.3,0h0.2c0,0,0.1,0,0.2,0s0.1,0,0.1,0
		c0.7,0,1.1-0.3,1.1-1s-0.4-1-1.3-1c-0.3,0-0.6,0-0.9,0.1c-0.4,0.1-0.7,0.1-1,0.1c-0.3,0-0.6,0-0.8,0c-0.1,0-0.3,0-0.4,0
		c-0.2,0-0.4,0-0.6-0.1l-1.1-0.1c-0.1,0-0.3,0-0.4,0c-0.2,0-0.3,0-0.5,0c-0.8,0-1.4,0.3-1.4,1s0.4,1,1.1,1c0.1,0,0.3,0,0.5,0
		s0.5,0,0.8-0.1h0.1l-5.5,4.8v-2c0-0.6,0-1.3,0-1.7c0-0.4,0.1-0.7,0.1-0.8c0.1-0.2,0.3-0.3,0.6-0.3c0.1,0,0.2,0,0.4,0
		c0.2,0,0.4,0.1,0.6,0.1c0.3,0,0.5-0.1,0.7-0.3c0.2-0.2,0.3-0.4,0.3-0.7c0-0.7-0.4-1-1.3-1c-0.1,0-0.6,0-1.4,0.1
		c-0.8,0.1-1.4,0.1-1.8,0.1c-0.2,0-0.3,0-0.5,0c-0.2,0-0.4,0-0.6-0.1l-1-0.1c-0.1,0-0.1,0-0.2,0s-0.1,0-0.1,0c-0.9,0-1.4,0.3-1.4,1
		s0.3,1,1,1c0.1,0,0.2,0,0.3,0s0.2,0,0.3,0c0.2-0.1,0.3-0.1,0.5-0.1c0.5,0,0.7,0.4,0.7,1.4v1.6v5.7c0,0.2,0,0.4,0,0.6s0,0.3,0,0.4
		s0,0.2,0,0.3s0,0.2,0,0.2c0,0.8-0.2,1.4-0.7,1.4H128c-0.1,0-0.1,0-0.2,0c-0.2,0-0.3,0-0.4,0s-0.2,0-0.3,0c-0.7,0-1,0.3-1,1
		c0,0.7,0.4,1,1.4,1h0.2h0.1l1.3-0.2c0.3,0,0.6-0.1,1.1-0.1c0.6,0,1,0,1.4,0.1l1.3,0.2c0.1,0,0.1,0,0.2,0h0.2c0.9,0,1.4-0.3,1.4-1
		c0-0.3-0.1-0.5-0.3-0.7c-0.2-0.2-0.4-0.3-0.7-0.3c-0.1,0-0.2,0-0.4,0c-0.1,0-0.2,0-0.4,0c-0.1,0-0.2,0-0.2,0h-0.1
		c-0.4,0-0.6-0.3-0.7-0.8c0-0.1,0-0.3,0-0.6c0-0.3,0-0.8,0-1.5c0-0.1,0-0.3,0-0.4s0-0.2,0-0.3c0.4-0.3,0.7-0.6,1.1-0.9
		c0.3-0.3,0.7-0.6,1-0.9l4.1,5.5l0.1,0.2h-0.1c-0.1,0-0.4,0-0.9-0.1h-0.1c0,0,0,0-0.1,0c-0.1,0-0.2,0-0.3,0s-0.2,0-0.3,0
		c-0.8,0-1.3,0.3-1.3,1.1c0,0.7,0.4,1,1.1,1c0,0,0.2,0,0.3,0c0.2,0,0.4,0,0.6-0.1c0.4,0,0.8-0.1,1.3-0.1c0.4,0,0.8,0,1.1,0
		s0.6,0,0.9,0c0.3,0,0.6,0,0.8,0.1c0.2,0,0.3,0.1,0.5,0.1c0.1,0,0.2,0,0.3,0s0.2,0,0.3,0c0.8,0,1.3-0.3,1.3-1
		C143.2,76.1,142.8,75.7,142,75.7z"/>
	<path d="M157,71c-0.7,0-1.1,0.4-1.1,1.3v0.1c0,0.1,0,0.1,0,0.2s0,0.2,0,0.3s0,0.2,0,0.4V74c0,0.7-0.1,1.1-0.4,1.4
		c-0.2,0.2-0.8,0.3-1.8,0.3h-1.9c-0.3,0-0.6,0-0.8,0c-0.2,0-0.4,0-0.5,0c-0.1,0-0.2-0.1-0.3-0.2c-0.1-0.1-0.1-0.5-0.1-1.4v-8.5
		c0-0.8,0.2-1.4,0.7-1.4c0.1,0,0.1,0,0.2,0s0.1,0,0.2,0c0.2,0,0.4,0.1,0.6,0.1c0.3,0,0.5-0.1,0.7-0.3c0.2-0.2,0.3-0.4,0.3-0.7
		c0-0.7-0.4-1-1.4-1c0,0-0.1,0-0.2,0s-0.1,0-0.2,0l-1,0.1c-0.3,0-0.5,0.1-0.7,0.1s-0.4,0-0.6,0c-0.1,0-0.3,0-0.5,0
		c-0.2,0-0.5,0-0.8-0.1l-1.1-0.1c-0.1,0-0.1,0-0.2,0s-0.1,0-0.2,0c-0.8,0-1.4,0.3-1.4,1c0,0.3,0.1,0.5,0.3,0.7
		c0.2,0.2,0.4,0.3,0.7,0.3c0.2,0,0.4,0,0.6-0.1c0.1,0,0.3,0,0.4,0c0.5,0,0.7,0.4,0.7,1.4v9c0,0.8-0.2,1.4-0.7,1.4c0,0-0.1,0-0.2,0
		s-0.2,0-0.3,0s-0.2,0-0.4,0c-0.2,0-0.2,0-0.2,0c-0.7,0-1,0.3-1,1c0,0.7,0.4,1.1,1.3,1.1c0.1,0,0.2,0,0.3,0s0.3,0,0.4,0
		c0.1,0,0.2,0,0.3,0s0.2,0,0.2,0c0.1,0,0.2,0,0.3,0c0.1,0,0.2,0,0.3,0c0.2,0,0.4,0,0.6,0c0.2,0,0.3,0,0.4,0h3.5h1.7
		c0.1,0,0.3,0,0.4,0s0.2,0,0.4,0s0.3,0,0.4,0s0.2,0,0.3,0s0.2,0,0.3,0c0.1,0,0.2,0,0.3,0s0.2,0,0.3,0c0.1,0,0.1,0,0.2,0
		c0.9,0,1.5-0.4,1.5-1.3c0-0.1,0-0.2,0-0.4s0-0.3,0-0.5c0-0.1,0-0.1,0-0.2c0,0,0-0.1,0-0.2s0-0.2,0-0.3s0-0.2,0-0.2
		c0-0.2,0-0.3,0-0.5c0-0.2,0-0.3,0-0.5l0.2-1.1c0-0.1,0-0.2,0-0.5C158.3,71.4,157.9,71,157,71z"/>
	<path d="M176.5,75.7c0,0-0.1,0-0.2,0s-0.1,0-0.2,0s-0.1,0-0.3,0c0,0-0.1,0-0.2,0c-0.2,0-0.4-0.1-0.6-0.3c-0.2-0.2-0.3-0.6-0.5-1.1
		l-4-10.8c-0.3-0.7-0.8-1.1-1.7-1.1s-1.5,0.4-1.8,1.1l-4,11c-0.2,0.5-0.3,0.8-0.4,0.9c-0.1,0.2-0.3,0.3-0.5,0.3h-0.2
		c-0.1,0-0.1,0-0.2,0c0,0-0.1,0-0.2,0c-0.8,0-1.3,0.3-1.3,1s0.4,1,1.3,1c0.1,0,0.3,0,0.4,0c0.2,0,0.3,0,0.5-0.1l0.9-0.1
		c0.1,0,0.2,0,0.4,0c0.2,0,0.4,0,0.6,0c0.2,0,0.3,0,0.5,0s0.3,0,0.4,0l1.1,0.2h0.1c0.1,0,0.1,0,0.2,0c0.1,0,0.1,0,0.2,0
		c0.9,0,1.4-0.3,1.4-1s-0.4-1-1.3-1c-0.1,0-0.2,0-0.3,0c-0.1,0-0.2,0-0.3,0s-0.2,0-0.3,0c-0.1,0-0.2,0-0.2,0c-0.3,0-0.5-0.1-0.5-0.4
		c0-0.1,0-0.2,0.1-0.3l0.6-1.7c0.1-0.3,0.2-0.6,0.3-0.6c0.1-0.1,0.2-0.1,0.4-0.1h3.9c0.2,0,0.3,0,0.3,0.1c0.1,0,0.1,0.1,0.2,0.3
		l0.7,2.2l0.1,0.2c0,0.1,0.1,0.1,0.1,0.2v0.1c0,0.2-0.1,0.3-0.3,0.3c0,0-0.1,0-0.2,0c-0.1,0-0.2,0-0.3,0s-0.2,0-0.3,0
		c-0.1,0-0.2,0-0.3,0c-0.9,0-1.4,0.3-1.4,1c0,0.7,0.4,1,1.3,1c0.1,0,0.1,0,0.2,0s0.2,0,0.3,0h0.1h0.1C172,78,172.6,78,173,78
		s0.7,0,1,0c0.2,0,0.5,0,0.8,0c0.3,0,0.7,0.1,1.1,0.1c0,0,0,0,0.1,0h0.1c0.1,0,0.2,0,0.3,0c0.1,0,0.2,0,0.3,0c0.8,0,1.3-0.3,1.3-1
		C177.8,76.1,177.4,75.7,176.5,75.7z M167.2,70.4c0.2-0.8,0.5-1.6,0.8-2.4c0.3-0.8,0.5-1.7,0.8-2.5l1.6,4.9H167.2z"/>
	<path d="M194.5,62.4h-0.2c0,0-0.1,0-0.2,0l-0.7,0.1c-0.6,0.1-1.1,0.1-1.5,0.1c-0.2,0-0.3,0-0.5,0c-0.2,0-0.4,0-0.6-0.1l-0.9-0.1
		c-0.1,0-0.1,0-0.2,0c0,0-0.1,0-0.2,0c-0.9,0-1.4,0.3-1.4,1.1c0,0.2,0.1,0.5,0.3,0.7s0.4,0.3,0.7,0.3c0.1,0,0.2,0,0.3,0s0.2,0,0.3,0
		c0.1,0,0.2,0,0.3,0s0.2,0,0.2,0c0.3,0,0.6,0.3,0.7,0.9c0,0.1,0,0.6,0,1.8v7.2c-0.5-1-0.9-2-1.4-2.8c-0.4-0.8-0.8-1.7-1.3-2.5
		s-0.8-1.7-1.3-2.5c-0.4-0.8-0.8-1.8-1.4-2.8l-0.2-0.8c-0.1-0.2-0.3-0.4-0.4-0.5c-0.2-0.1-0.4-0.2-0.7-0.2c-0.2,0-0.6,0-1,0.1
		c-0.4,0-0.7,0.1-0.9,0.1c-0.2,0-0.4,0-0.7,0c-0.3,0-0.6,0-0.9-0.1c-0.1,0-0.1,0-0.2,0c-0.1,0-0.1,0-0.2,0c-0.8,0-1.3,0.3-1.3,1
		s0.3,1,1,1c0.1,0,0.2,0,0.3,0c0.1,0,0.2,0,0.4-0.1h0.1c0,0,0,0,0.1,0c0.1,0,0.1,0,0.2,0c0.5,0,0.7,0.4,0.7,1.4v3.4v1.9v2v1.5
		c0,0.8-0.2,1.4-0.7,1.4c-0.1,0-0.3,0-0.4-0.1h-0.5h-0.1h-0.1c-0.7,0-1,0.3-1,0.9c0,0.7,0.4,1,1.3,1h0.2c0,0,0.1,0,0.2,0l1-0.1
		c0.3,0,0.5-0.1,0.8-0.1c0.2,0,0.4,0,0.6,0s0.4,0,0.6,0s0.5,0,0.7,0.1l0.9,0.1c0,0,0,0,0.1,0h0.1h0.2c0.9,0,1.4-0.3,1.4-1
		s-0.3-1-1-1c0,0,0,0-0.2,0s-0.3,0-0.4,0s-0.2,0-0.3,0s-0.1,0-0.2,0c-0.5,0-0.7-0.4-0.7-1.4v-8.5l5,10.4c0.5,1.1,1.3,1.7,2.2,1.7
		c0.7,0,1.1-0.2,1.5-0.6c0.3-0.4,0.4-1.3,0.4-2.4V69v-2.2c0-0.2,0-0.4,0-0.6c0-0.2,0-0.4,0-0.6c0-0.5,0.1-0.8,0.2-1
		c0.1-0.1,0.3-0.2,0.5-0.2h0.2h0.1c0,0,0.1,0,0.2,0c0.8,0,1.3-0.3,1.3-1C195.9,62.7,195.5,62.4,194.5,62.4z"/>
	<path d="M209,63c-0.9-0.4-2.1-0.6-3.4-0.6c-0.2,0-0.4,0-0.6,0c-0.2,0-0.3,0-0.5,0l-1.5,0.2c-0.4,0-0.8,0.1-1.1,0.1
		c-0.2,0-0.5,0-0.7,0s-0.4,0-0.6-0.1l-1.1-0.2c-0.1,0-0.1,0-0.2,0s-0.1,0-0.1,0c-0.9,0-1.4,0.3-1.4,1c0,0.6,0.3,1,1,1
		c0.2,0,0.4,0,0.6-0.1c0.1,0,0.2,0,0.3,0s0.1,0,0.2,0c0.5,0,0.7,0.5,0.7,1.4v8.8c0,0.8-0.2,1.4-0.7,1.4c-0.1,0-0.1,0-0.2,0
		s-0.1,0-0.2,0c-0.2,0-0.5-0.1-0.6-0.1c-0.3,0-0.5,0.1-0.7,0.3c-0.2,0.2-0.3,0.4-0.3,0.7c0,0.7,0.4,1,1.4,1h0.2c0,0,0.1,0,0.2,0
		l1-0.2c0.3,0,0.6-0.1,1.1-0.1c0.5,0,1,0,1.6,0.1l1.5,0.1c0.2,0,0.3,0,0.5,0c0.2,0,0.3,0,0.5,0c0.8,0,1.6-0.1,2.3-0.3s1.4-0.4,2-0.7
		c0.5-0.3,0.9-0.6,1.4-1.1c0.4-0.4,0.7-0.9,1-1.6c0.6-1.3,0.8-2.6,0.8-4.1c0-1.7-0.3-3.2-1-4.5C211.3,64.4,210.3,63.6,209,63z
		 M210,72.5c-0.2,0.7-0.5,1.4-1,1.9c-0.3,0.4-0.8,0.7-1.5,0.9c-0.6,0.2-1.3,0.3-2.1,0.3c-1,0-1.6,0-1.8-0.1
		c-0.5-0.1-0.7-0.4-0.7-0.9v-9.3c0-0.5,0.1-0.7,0.2-0.8c0.2-0.1,0.9-0.2,2-0.2c0.8,0,1.7,0.1,2.2,0.3c0.9,0.3,1.7,0.9,2.2,1.9
		s0.8,2.2,0.8,3.5C210.4,71.1,210.3,71.8,210,72.5z"/>
	<path d="M234.3,71.3c-0.8,0-1.3,0.4-1.3,1.3c0,0.3,0,0.6-0.1,0.9c0,0.2-0.1,0.5-0.2,0.7c-0.2,0.6-0.6,1-1.3,1.5
		c-0.6,0.3-1.3,0.5-2,0.5c-1.4,0-2.5-0.5-3.2-1.6c-0.7-1-1.1-2.5-1.1-4.5c0-1.9,0.4-3.3,1.1-4.4s1.8-1.6,3.1-1.6
		c1,0,1.8,0.3,2.4,0.9s0.9,1.4,0.8,2.4c0,0.1,0,0.2,0,0.4c0,0.1,0,0.3,0,0.4c0,0.8,0.4,1.3,1.3,1.3c0.7,0,1.1-0.4,1.1-1.3v-0.2
		l-0.1-0.8c0-0.4-0.1-0.8-0.1-1.1c0-0.1,0-0.3,0-0.6c0-0.2,0-0.5,0.1-0.9c0-0.6,0.1-0.9,0.1-1.1c0-0.8-0.4-1.3-1.1-1.3
		c-0.3,0-0.6,0.1-0.8,0.3c-0.2,0.2-0.3,0.5-0.3,0.8c0-0.1-0.2-0.3-0.4-0.4c-0.2-0.1-0.5-0.3-0.8-0.4c-0.3-0.1-0.7-0.2-1-0.3
		c-0.4-0.1-0.7-0.1-1-0.1c-2.1,0-3.8,0.7-5.1,2.3c-0.6,0.7-1.1,1.7-1.5,2.6c-0.3,0.9-0.4,2.1-0.4,3.3c0,1.1,0.1,2.3,0.4,3.2
		c0.3,0.9,0.7,1.8,1.4,2.5c1.3,1.5,2.9,2.2,5,2.2c1.8,0,3.3-0.5,4.4-1.6c1.1-1,1.8-2.4,1.8-4.1C235.6,71.7,235.2,71.3,234.3,71.3z"
		/>
	<path d="M250.3,69.8c-0.2-0.1-0.4-0.3-0.8-0.4c0.7-0.3,1.3-0.7,1.6-1.3c0.3-0.5,0.5-1.1,0.5-1.9c0-1.3-0.4-2.2-1.4-2.8
		c-0.8-0.6-2.1-1-3.8-1c-0.4,0-0.8,0-1.1,0c-0.4,0-0.7,0-1,0.1c-1,0.1-1.8,0.1-2.4,0.1c-0.5,0-0.9,0-1.3-0.1l-1-0.2h-0.3
		c-0.9,0-1.4,0.3-1.4,1c0,0.6,0.3,1,1,1c0.2,0,0.4,0,0.6-0.1c0.1,0,0.2,0,0.3,0c0.1,0,0.1,0,0.2,0c0.5,0,0.7,0.4,0.7,1.4v8.9
		c0,0.8-0.2,1.3-0.7,1.3H240c0,0-0.1,0-0.2,0h-0.1c-0.1,0-0.2,0-0.3-0.1c-0.1,0-0.2,0-0.3,0c-0.7,0-1,0.3-1,1s0.4,1,1.3,1.1h0.2
		l1-0.1c0.3,0,0.6-0.1,1-0.1c0.2,0,0.5,0,0.8,0c0.3,0,0.7,0,1.3,0.1c0.5,0,0.9,0.1,1.4,0.1c0.4,0,0.7,0,1,0c1.9,0,3.3-0.4,4.4-1.3
		c1.1-0.8,1.7-2,1.7-3.4C252.3,71.7,251.5,70.5,250.3,69.8z M243.1,65.9c0-0.6,0.1-1,0.3-1.3c0.3-0.2,1.1-0.2,2.6-0.2
		c1.9,0,2.8,0.6,2.8,2c0,1.5-1.1,2.2-3.5,2.2H244c-0.4,0-0.7-0.1-0.8-0.2c-0.1-0.2-0.1-0.6-0.1-1.3V65.9z M245.8,75.9
		c-0.7,0-1.3,0-1.7-0.1c-0.4,0-0.6-0.1-0.8-0.2s-0.3-0.6-0.3-1.5v-2.4c0-0.3,0-0.6,0.1-0.7c0.1-0.2,0.4-0.3,1-0.3h1.9
		c2.4,0,3.5,0.8,3.5,2.5C249.6,74.9,248.3,75.9,245.8,75.9z"/>
	<path d="M266.2,63c-0.9-0.4-2.1-0.6-3.5-0.6c-0.2,0-0.4,0-0.6,0c-0.2,0-0.3,0-0.5,0l-1.5,0.2c-0.4,0-0.8,0.1-1.1,0.1
		c-0.2,0-0.5,0-0.7,0c-0.2,0-0.4,0-0.6-0.1l-1.1-0.2c-0.1,0-0.1,0-0.2,0s-0.1,0-0.1,0c-0.9,0-1.4,0.3-1.4,1c0,0.6,0.3,1,1,1
		c0.2,0,0.4,0,0.6-0.1c0.1,0,0.2,0,0.3,0c0.1,0,0.1,0,0.2,0c0.5,0,0.7,0.5,0.7,1.4v8.8c0,0.8-0.2,1.4-0.7,1.4c-0.1,0-0.1,0-0.2,0
		c-0.1,0-0.1,0-0.2,0c-0.2,0-0.5-0.1-0.6-0.1c-0.3,0-0.5,0.1-0.7,0.3c-0.2,0.2-0.3,0.4-0.3,0.7c0,0.7,0.4,1,1.4,1h0.2
		c0,0,0.1,0,0.2,0l1-0.2c0.3,0,0.6-0.1,1.1-0.1s1,0,1.6,0.1l1.5,0.1c0.2,0,0.3,0,0.5,0c0.2,0,0.3,0,0.5,0c0.8,0,1.6-0.1,2.3-0.3
		s1.4-0.4,2-0.7c0.5-0.3,0.9-0.6,1.4-1.1c0.4-0.4,0.7-0.9,1-1.6c0.6-1.3,0.8-2.6,0.8-4.1c0-1.7-0.3-3.2-1-4.5
		C268.4,64.4,267.5,63.6,266.2,63z M267.2,72.5c-0.2,0.7-0.5,1.4-1,1.9c-0.3,0.4-0.8,0.7-1.5,0.9c-0.6,0.2-1.3,0.3-2.1,0.3
		c-1,0-1.6,0-1.8-0.1c-0.5-0.1-0.7-0.4-0.7-0.9v-9.3c0-0.5,0.1-0.7,0.2-0.8c0.2-0.1,0.9-0.2,2-0.2c0.8,0,1.7,0.1,2.2,0.3
		c0.9,0.3,1.7,0.9,2.2,1.9s0.8,2.2,0.8,3.5C267.6,71.1,267.5,71.8,267.2,72.5z"/>
</g>
</svg>
