<?xml version="1.0" encoding="utf-8"?>
<!-- Generator: Adobe Illustrator 25.2.3, SVG Export Plug-In . SVG Version: 6.00 Build 0)  -->
<svg version="1.1" id="Layer_1" xmlns="http://www.w3.org/2000/svg" xmlns:xlink="http://www.w3.org/1999/xlink" x="0px" y="0px"
	 viewBox="0 0 53 53" style="enable-background:new 0 0 53 53;" xml:space="preserve">
<g>
	<path d="M50.2,24.7c-2.2-2.3-4.7-2.2-6.9,0C38,29.9,32.8,35.2,27.7,40.5c-0.4,0.4-0.7,1-0.8,1.5c-0.8,3.1-1.5,6.2-2.2,9.2
		c0.3,0,0.7,0,1,0c2.7-0.7,5.3-1.3,8-2c0.8-0.2,1.6-0.7,2.2-1.2c5-4.9,10.1-9.8,15-14.8c0.9-0.9,1.5-2.1,2.2-3.1c0-0.6,0-1.2,0-1.8
		C52.1,27.1,51.2,25.8,50.2,24.7z M47.9,31.2C43.6,35.5,39.2,39.7,35,44c-1.6,1.7-3.4,2.2-5.6,2.5c0.2-2.4,1.1-4.2,2.8-5.8
		c4.5-4.4,8.8-8.9,13.2-13.4c1.2-1.2,1.4-1.2,2.5-0.1C49.9,29.3,49.9,29.3,47.9,31.2z"/>
	<path d="M5.9,40.6c-0.6,0-1.4-0.3-1.9-0.7c-0.8-0.7-0.6-4.1,0.1-4.9c2.5-2.9,5-5.7,7.6-8.5c1.5-1.7,2.9-3.3,4.5-5
		c1.6,1.7,3.2,3.4,4.8,5l-5.2,6.9l6.2-5.9c2.3,2.4,4.5,4.7,6.7,7.1c0.8-0.9,1.6-1.6,2.4-2.5c-0.6-0.7-1.3-1.4-2-2.1
		c1.6-1.7,3-3.4,4.7-5.2c0.8,0.9,1.5,1.7,2.1,2.4c0.9-0.8,1.7-1.5,2.6-2.3c-1.6-1.7-3.2-3.4-4.9-5.1c-2.3,2.6-4.6,5.2-6.9,7.7
		c-0.8-0.8-1.6-1.6-2.3-2.5l3.9-10.5l-3.4-2.9l5.7-6.3c4.3,0,8.7,0,13,0c1,0,1.9,0.2,2.2,1.2C46,6.9,46,7.4,46,7.8
		c0,3.8,0,7.7,0,11.5c1.2,0.2,2.3,0.3,3.5,0.5c0-4.1,0-8.2,0-12.3c0-3.5-2.3-5.7-5.8-5.7c-12.6,0-25.3,0-37.9,0C2.2,1.8,0,4,0,7.6
		C0,17.8,0,28,0,38.2c0,3.8,2.2,5.9,5.9,5.9c5.2,0,10.5,0,15.7,0c0.3,0,0.6,0,1-0.1c0.3-1.1,0.5-2.2,0.8-3.4c-0.6,0-1,0-1.5,0
		C16.6,40.7,11.2,40.7,5.9,40.6z M3.5,7.8c0-2,0.5-2.5,2.5-2.5c4.7,0,9.5,0,14.2,0c1.6,0,3.2,0,4.8,0l-4.1,7.3l3.8,2.7L22.4,23
		c-2.1-2.3-4.3-4.5-6.4-6.7c-4.1,4.7-8.2,9.2-12.5,14.1C3.5,22.5,3.5,15.2,3.5,7.8z"/>
	<path d="M31.9,12.3c0,2,1.4,3.5,3.4,3.5c2,0,3.5-1.5,3.6-3.4c0-1.9-1.5-3.5-3.5-3.6C33.5,8.8,31.9,10.4,31.9,12.3z"/>
</g>
</svg>
