<?xml version="1.0" encoding="utf-8"?>
<!-- Generator: Adobe Illustrator 25.3.1, SVG Export Plug-In . SVG Version: 6.00 Build 0)  -->
<svg version="1.1" id="Layer_1" xmlns="http://www.w3.org/2000/svg" xmlns:xlink="http://www.w3.org/1999/xlink" x="0px" y="0px"
	 viewBox="0 0 53 53" style="enable-background:new 0 0 53 53;" xml:space="preserve">
<g>
	<path d="M53,34c0,1.2,0,2.4,0,3.5c-0.6,1.2-1.4,2.2-2.7,2.7c-8.7,3.6-17.3,7.2-26,10.9c-2,0.8-3.7,0.5-5.3-0.9
		C14.4,46.6,9.8,43,5.3,39.2C3.4,37.7,1.1,36.5,0,34c0-1.2,0-2.4,0-3.5c0.8-1.2,1.6-2.3,3.1-2.8c6.2-1.8,12.3-3.7,18.5-5.5
		c2.3-0.7,4.6-1.4,7.1-2.2c-3.1-3.4-6-6.7-9-10c-1.5-1.7-3-3.3-4.5-5c-1.2-1.4-0.9-3.3,0.8-3.7c0.6-0.1,1.3,0,1.8,0.2
		c5.5,2,10.9,4,16.4,6.1C34.8,8,35.5,8.5,36,9.1c5.3,7,10.6,14.1,15.9,21.2c0.6,0.8,1.2,1.7,0.8,2.8C52.6,33.3,52.9,33.7,53,34z
		 M33.7,37.8c-4.8-3.1-9.5-6-13.9-9.1c-2.1-1.5-4.1-1.9-6.3-0.6c-0.1,0.1-0.3,0.1-0.5,0.1c-2.1,0.7-4.1,1.3-6.4,2
		c0.5,0.4,0.7,0.6,1,0.8c4,2.9,8.1,5.7,11.9,8.8c2.2,1.8,4.2,2.3,6.8,0.9C28.6,39.5,31.1,38.8,33.7,37.8z M46.2,33.1
		c-0.2-0.2-0.2-0.3-0.3-0.4c-5.3-3.1-10.7-6.3-16-9.4c-0.2-0.1-0.6-0.2-0.9-0.1c-3.1,0.9-6.1,1.9-9.2,2.8c0.1,0.2,0.1,0.3,0.2,0.3
		c5.2,3.4,10.5,6.9,15.7,10.3c0.2,0.1,0.5,0.2,0.7,0.2C39.7,35.6,43,34.4,46.2,33.1z M18.6,44.8c0-0.9-0.1-1.8-1.1-2
		c-0.6-0.1-1.3,0.9-1.2,2c0,0.3,0,0.6,0.2,0.8c0.3,0.4,0.7,0.7,1.1,1c0.3-0.4,0.7-0.8,1-1.2C18.7,45.2,18.6,45,18.6,44.8z"/>
</g>
</svg>
