<?xml version="1.0" encoding="utf-8"?>
<!-- Generator: Adobe Illustrator 25.2.3, SVG Export Plug-In . SVG Version: 6.00 Build 0)  -->
<svg version="1.1" id="Layer_1" xmlns="http://www.w3.org/2000/svg" xmlns:xlink="http://www.w3.org/1999/xlink" x="0px" y="0px"
	 viewBox="0 0 53 53" style="enable-background:new 0 0 53 53;" xml:space="preserve">
<style type="text/css">
	.st0{fill:#FFFFFF;}
</style>
<path class="st0" d="M12.4,19.7c0-1.5,0.7-2.9,1.4-4.2c1-2,2.9-2.8,5.1-2.8c0.5,0,1.1,0.4,1.3,0.8c1.1,1.7,2.1,3.5,3.2,5.3
	c0.6,1,0.3,1.9-0.5,2.6c-0.6,0.6-1.3,1-1.9,1.5c-0.6,0.5-0.7,1.1-0.3,1.8c1.9,3.3,4.4,6,7.7,7.9c1,0.6,1.6,0.5,2.3-0.4
	c2.4-3,2.4-3,5.7-1.1c0.9,0.5,1.8,1.1,2.8,1.6c1.3,0.7,1.7,1.7,1.3,3.1C40,37.6,39,39,37.2,39.7c-2.7,1.1-5.5,1.3-8.2,0.1
	c-6.9-3-12.2-7.9-15.2-15C13.1,23.3,12.5,21.2,12.4,19.7z"/>
<g>
	<path d="M34.2,36.5c-1.5-1.5-3-2.9-4.4-4.4c-4.7,3.6-10,5-16,3.6c-4.3-1-7.8-3.5-10.4-7.1c-5.3-7.3-4.2-17.7,2.5-23.8
		C12.8-1.5,23-1.6,30.1,4.6c6.5,5.6,8.9,16.3,2.1,25.1c1.5,1.4,2.9,2.9,4.4,4.4c1.2-1.2,2.1-0.4,3.2,0.7c4,4,8,7.9,11.9,11.9
		c2.2,2.2,1.3,5.5-1.6,6.2c-1.2,0.3-2.4,0-3.3-0.9c-4.3-4.2-8.5-8.5-12.8-12.8C33,38.2,33.4,37.3,34.2,36.5z M33.2,18.2
		c0-8.3-6.8-15.1-15-15.1c-8.2,0-15,6.7-15,14.9c-0.1,8.3,6.8,15.1,15,15.1C26.4,33.1,33.2,26.4,33.2,18.2z"/>
	<path d="M5.9,18.1c0.1-3,1.1-5.5,3-7.8c0.7-0.8,1.5-1.2,2.4-0.5c0.9,0.7,0.7,1.6,0,2.4c-2.1,2.5-2.7,5.4-1.8,8.5c0.3,1,0,1.7-0.9,2
		c-1,0.3-1.8-0.1-2.1-1.2C6.3,20.5,6.1,19.3,5.9,18.1z"/>
</g>
</svg>
