<?xml version="1.0" encoding="utf-8"?>
<!-- Generator: Adobe Illustrator 25.3.1, SVG Export Plug-In . SVG Version: 6.00 Build 0)  -->
<svg version="1.1" id="Layer_1" xmlns="http://www.w3.org/2000/svg" xmlns:xlink="http://www.w3.org/1999/xlink" x="0px" y="0px"
	 viewBox="0 0 53 53" style="enable-background:new 0 0 53 53;" xml:space="preserve">
<style type="text/css">
	.st0{fill:#FFC401;}
</style>
<g>
	<path class="st0" d="M48.9,44.8c1,0,1.9,0,2.9,0c0,2.5,0,5.1,0,7.6c-16.9,0-33.7,0-50.5,0c0-2.5,0-5,0-7.6c1,0,1.9,0,2.9,0
		c0-0.2,0-0.4,0-0.6c0-8.1,0-16.2,0-24.3c0-0.4-0.1-0.6-0.5-0.9c-2.3-1.6-3.4-3.8-3.1-6.5c0.1-0.8,0.4-1.6,0.7-2.4
		c1.1-3,2.2-6,3.3-8.9c0.1-0.4,0.3-0.5,0.7-0.5c14.1,0,28.3,0,42.4,0c0.4,0,0.6,0.1,0.7,0.5c1.2,3.3,2.2,6.6,3.6,9.8
		c1.4,3.2-0.4,6.9-2.7,8.2c-0.3,0.2-0.4,0.4-0.4,0.7c0,8.2,0,16.3,0,24.5C48.8,44.4,48.8,44.6,48.9,44.8z M13.9,16.6
		c-1.5,2.4-3.5,3.5-6.3,3.6c0,8.2,0,16.4,0,24.6c1.1,0,2.1,0,3.2,0c0-0.2,0-0.5,0-0.7c0-4.2,0-8.4,0-12.6c0-4.5,4-7.8,8.4-7
		c3.3,0.6,5.9,3.5,5.9,6.9c0,4.3,0,8.5,0,12.8c0,0.2,0,0.4,0,0.6c6.8,0,13.5,0,20.2,0c0-8.2,0-16.4,0-24.6c-2.7-0.1-4.8-1.3-6.3-3.6
		c-2.8,4.8-10,4.8-12.6,0.1C23.9,21.4,16.7,21.5,13.9,16.6z M31.3,4.1c0,3,0,5.9,0,8.8c0.6,0,1.1,0,1.7,0c0-1.2,0-2.4,0-3.6
		c0.9-0.1,1.6,0,2.1,0.9c0.5,0.9,1,1.7,1.6,2.6c0.1,0.1,0.2,0.3,0.4,0.3c0.6,0,1.2,0,1.8,0c-0.9-1.4-1.5-2.9-2.8-4
		c0.2,0,0.3-0.1,0.4-0.1c1-0.2,1.5-0.8,1.7-1.8c0.2-1,0-1.9-0.7-2.6c-0.2-0.2-0.4-0.3-0.6-0.3C34.9,4.3,33.1,4.2,31.3,4.1z
		 M29.9,8.8c0-0.5-0.1-0.9-0.1-1.4c-0.3-1.7-1.6-3-3.3-3.2c-2.1-0.3-3.5,0.4-4.3,2.2c-0.3,0.7-0.4,1.4-0.5,2.2
		c-0.2,1.9,0.5,3.4,2,4.3c1.4,0.8,3.4,0.7,4.7-0.3C29.5,11.5,29.8,10.2,29.9,8.8z M46,5.7c0-0.6,0-1,0-1.5c-2.1,0-4.2,0-6.2,0
		c0,3,0,6,0,9c2.2,0,4.3,0,6.5,0c0-0.5,0-1,0-1.5c-1.6,0-3.1,0-4.7,0c0-0.8,0-1.6,0-2.4c1.3,0,2.5,0,3.7,0c0.2,0,0.4-0.2,0.4-0.3
		c0.1-0.4,0-0.8,0-1.3c-1.4,0-2.8,0-4.2,0c0-0.7,0-1.3,0-2C43.1,5.7,44.5,5.7,46,5.7z M13.4,6.8c-0.1-1.3-0.7-2.3-1.9-2.6
		C10.5,4,9.4,4,8.4,4.5C7.1,5,6.7,6.5,7.4,7.7c0.4,0.6,0.9,1,1.6,1.2c0.7,0.3,1.5,0.5,2.3,0.8c0.8,0.3,0.9,1.1,0.3,1.7
		c-0.8,0.7-2.3,0.4-2.8-0.6c-0.1-0.3-0.2-0.5-0.3-0.8c-0.6,0.1-1.1,0.2-1.6,0.3C7.1,12,7.9,13,9.5,13.2c0.7,0.1,1.4,0,2.1-0.1
		c1.1-0.2,2-1.2,2.1-2.3C13.8,9.3,13.3,8.5,12,8c-0.4-0.2-0.8-0.3-1.2-0.4c-0.5-0.1-1-0.2-1.4-0.5C9.1,7,8.8,6.6,8.8,6.4
		c0-0.2,0.3-0.5,0.6-0.7c0.1-0.1,0.2-0.1,0.3-0.1c1.1-0.3,1.7,0.1,2.3,1.4C12.4,6.9,12.9,6.9,13.4,6.8z M18.6,13.1
		c0-2.5,0-4.9,0-7.4c0.9,0,1.7,0,2.5,0c0-0.5,0-1,0-1.5c-2.2,0-4.5,0-6.7,0c0,0.5,0,0.9,0,1.4c0.8,0,1.6,0,2.5,0c0,2.5,0,5,0,7.5
		C17.6,13.1,18.1,13.1,18.6,13.1z"/>
	<path class="st0" d="M30.2,25.8c3.7,0,7.4,0,11.1,0c0,4.6,0,9.1,0,13.7c-3.7,0-7.4,0-11.1,0C30.2,34.9,30.2,30.3,30.2,25.8z"/>
	<path class="st0" d="M33.1,5.6c0.9,0,1.8,0,2.6,0c0.5,0,0.8,0.5,0.8,1.1c0,0.6-0.4,1.1-0.9,1.1c-0.8,0-1.6,0-2.5,0
		C33.1,7.1,33.1,6.4,33.1,5.6z"/>
	<path class="st0" d="M28.2,8.5c0,0.8-0.2,1.5-0.6,2.2c-0.5,0.7-1.2,1-2.1,0.9c-0.8-0.1-1.4-0.5-1.7-1.3c-0.4-1.1-0.4-2.2-0.1-3.3
		c0.4-1,1.2-1.6,2.2-1.5c1.1,0.1,1.7,0.6,2.1,1.7C28.1,7.6,28.1,8.1,28.2,8.5z"/>
</g>
</svg>
