<?xml version="1.0" encoding="utf-8"?>
<!-- Generator: Adobe Illustrator 25.3.1, SVG Export Plug-In . SVG Version: 6.00 Build 0)  -->
<svg version="1.1" id="Layer_1" xmlns="http://www.w3.org/2000/svg" xmlns:xlink="http://www.w3.org/1999/xlink" x="0px" y="0px"
	 viewBox="0 0 53 53" style="enable-background:new 0 0 53 53;" xml:space="preserve">
<style type="text/css">
	.st0{fill:#FFFFFF;}
</style>
<g>
	<path class="st0" d="M26.5,53C11.8,53,0,41.2,0,26.5C0,11.9,11.8,0,26.5,0S53,11.8,53,26.5S41.2,53,26.5,53z M26.5,47.7
		c11.8,0,21.2-9.4,21.2-21.1c0.1-11.7-9.5-21.2-21.2-21.2c-11.8,0-21.2,9.4-21.2,21.2C5.3,38.3,14.7,47.7,26.5,47.7z"/>
	<path class="st0" d="M36.3,32.5c-1.3,1.3-2.5,2.5-3.7,3.7c-0.1-0.1-0.2-0.2-0.3-0.3c-2.7-2.7-5.4-5.3-8-8c-0.2-0.2-0.3-0.5-0.3-0.7
		c0-4.5,0-9,0-13.5c0-0.1,0-0.2,0-0.4c1.7,0,3.4,0,5.2,0c0,0.3,0,0.5,0,0.8c0,3.6,0,7.1,0,10.7c0,0.4,0.1,0.7,0.4,1
		C31.8,28,34,30.3,36.3,32.5z"/>
</g>
</svg>
