<?xml version="1.0" encoding="utf-8"?>
<!-- Generator: Adobe Illustrator 25.2.3, SVG Export Plug-In . SVG Version: 6.00 Build 0)  -->
<svg version="1.1" id="Layer_1" xmlns="http://www.w3.org/2000/svg" xmlns:xlink="http://www.w3.org/1999/xlink" x="0px" y="0px"
	 viewBox="0 0 53 53" style="enable-background:new 0 0 53 53;" xml:space="preserve">
<g>
	<path d="M4.6,43.4c-0.5,0-1,0-1.5-0.1C1.8,43,0.9,41.8,1,40.5c0.1-1.4,1.2-2.4,2.6-2.4c0.3,0,0.6,0,1,0c0-0.4,0-0.7,0-1
		c0-0.3,0-0.6,0-1c-0.3,0-0.7,0-1,0c-1.5,0-2.7-1.2-2.6-2.7c0-1.4,1.2-2.5,2.5-2.5c0.3,0,0.7,0,1.1,0c0-0.3,0-0.7,0-1
		c0-0.3,0-0.6,0-1c-0.3,0-0.6,0-0.9,0c-1.4,0-2.5-1-2.7-2.4c-0.1-1.3,0.8-2.5,2.1-2.8c0.3,0,0.5,0,0.8,0c0.2,0,0.4,0,0.7,0
		c0-0.7,0-1.3,0-2c-0.3,0-0.6,0-0.8,0c-1.7,0-2.9-1.3-2.7-3c0.1-1.2,1.3-2.2,2.5-2.2c0.3,0,0.6,0,1,0c0-0.7,0-1.3,0-2
		c-0.4,0-0.9,0-1.3-0.1C1.9,14.2,0.9,13,1,11.6c0.1-1.4,1.2-2.5,2.5-2.5c0.3,0,0.7,0,1,0c0-0.1,0-0.2,0-0.3c0-2.6,0-5.3,0-7.9
		C4.6,0.2,4.8,0,5.5,0c4.5,0,8.9,0,13.4,0c4,0,7.9,0,11.9,0c3.3,0,6.5,0,9.8,0c1.2,0,5.2,0,6.4,0c0.5,0,0.8,0.2,0.8,0.8
		c0,1.1,0,2.3,0,3.4c0,0.2,0.1,0.3,0.3,0.3c1.1,0,2.2,0,3.3,0c0.6,0,0.8,0.2,0.8,0.8c0,6,0,11.9,0,17.9c0,7,0,13.9,0,20.9
		c0,2.7,0,5.4,0,8.1c0,0.6-0.2,0.8-0.8,0.8c-5.8,0-14.4,0-20.2,0c-3.5,0-7,0-10.6,0c-3.5,0-7,0-10.6,0C9.2,53,9,52.8,9,52.2
		c0-1.1,0-2.2,0-3.3c0-0.4,0-0.4-0.4-0.4c-1,0-2.1,0-3.1,0c-0.7,0-0.9-0.2-0.9-0.9c0-1.3,0-2.6,0-3.9C4.6,43.6,4.6,43.5,4.6,43.4z
		 M10.3,28.9c0,2,0,3.9,0,5.9c0.5,0,1,0,1.5,0c0.2,0,0.2-0.1,0.3-0.2c0.5-1.4,1.9-2.2,3.4-1.8c1.4,0.4,2.3,1.8,2,3.2
		c-0.3,1.5-1.8,2.5-3.3,2.2c-0.9-0.2-1.6-0.7-1.9-1.6c-0.2-0.4-0.4-0.5-0.8-0.5c-0.4,0-0.7,0-1.1,0c0,2,0,3.9,0,5.9
		c0.5,0,0.9,0,1.4,0c0.2,0,0.3-0.1,0.4-0.3c0.5-1.4,1.9-2.1,3.3-1.8c1.3,0.3,2.2,1.6,2.1,3c-0.2,1.4-1.3,2.4-2.7,2.4
		c-1.2,0-2.3-0.7-2.7-1.9c0-0.1-0.1-0.2-0.2-0.2c-0.5,0-1,0-1.6,0c0,2.8,0,5.6,0,8.3c12.5,0,27.8,0,40.3,0c0-15.3,0-30.5,0-45.8
		c-12.5,0-27.8,0-40.3,0c0,2.4,0,4.8,0,7.2c0.5,0,1,0,1.4,0c0.2,0,0.3-0.1,0.3-0.2c0.5-1.5,2.1-2.2,3.5-1.7c1.4,0.5,2.2,2.1,1.6,3.6
		c-0.4,1.1-1.5,1.8-2.6,1.8c-1.2,0-2.2-0.7-2.6-1.8c0-0.1-0.1-0.2-0.1-0.2c-0.6,0-1.1,0-1.7,0c0,2,0,3.9,0,5.9c0.5,0,1,0,1.5,0
		c0.2,0,0.2-0.1,0.3-0.2c0.4-1.2,1.4-1.9,2.7-1.9c1.3,0,2.5,1,2.7,2.4c0.2,1.4-0.6,2.6-1.9,3.1c-1.3,0.4-2.7-0.2-3.3-1.4
		c-0.1-0.2-0.2-0.4-0.2-0.6c-0.6,0-1.1,0-1.7,0c0,2,0,3.9,0,5.9c0.5,0,1,0,1.5,0c0.2,0,0.2-0.1,0.3-0.2c0.5-1.3,1.7-2.1,3.1-1.8
		c1.6,0.3,2.6,1.9,2.2,3.4c-0.4,1.6-2.1,2.5-3.6,1.9c-0.9-0.3-1.4-0.9-1.7-1.7c0-0.1-0.1-0.2-0.2-0.2C11.4,28.9,10.9,28.9,10.3,28.9
		z M46.3,1.3c-12.5,0-27.9,0-40.3,0C6,5.3,6,9.2,6,13c1,0,2,0,3,0c0-0.1,0-0.2,0-0.3c0-2.5,0-4.9,0-7.4c0-0.7,0.2-0.9,0.9-0.9
		c5.7,0,11.3,0,17,0c4.2,0,8.5,0,12.7,0c1.2,0,5.3,0,6.5,0c0.2,0,0.3-0.1,0.3-0.3c0-0.5,0-1,0-1.5C46.3,2.3,46.3,1.8,46.3,1.3z
		 M9,21.7c-1,0-2,0-3,0c0,2,0,3.9,0,5.9c1,0,2,0,3,0C9,25.5,9,23.6,9,21.7z M5.9,34.7c0.1,0,0.1,0,0.1,0c0.9,0,1.8,0,2.7,0
		C9,34.8,9,34.6,9,34.5c0-1.8,0-3.6,0-5.4c0-0.2-0.1-0.3-0.3-0.3c-0.8,0-1.7,0-2.5,0c-0.2,0-0.3,0-0.3,0.3c0,1.1,0,2.3,0,3.4
		C5.9,33.3,5.9,34,5.9,34.7z M6,20.3c1,0,2,0,3,0c0-2,0-3.9,0-5.9c-1,0-2,0-3,0C6,16.4,6,18.3,6,20.3z M9,42c0-2,0-3.9,0-5.9
		c-1,0-2,0-3,0c0,0,0,0,0,0c0,1.9,0,3.8,0,5.6C5.9,42,6,42,6.2,42c0.6,0,1.2,0,1.9,0C8.3,42,8.6,42,9,42z M9,47.1c0-1.3,0-2.5,0-3.8
		c-1,0-2,0-3,0c0,1.3,0,2.5,0,3.8C7,47.1,8,47.1,9,47.1z M14.7,36.9c0.8,0,1.4-0.7,1.4-1.5c0-0.8-0.7-1.4-1.4-1.4
		c-0.8,0-1.4,0.7-1.4,1.5C13.3,36.2,14,36.9,14.7,36.9z M13.3,13.7c0,0.8,0.6,1.5,1.4,1.5c0.8,0,1.4-0.6,1.4-1.3
		c0-0.9-0.6-1.5-1.4-1.5C13.9,12.3,13.3,12.9,13.3,13.7z M14.7,26.8c-0.8,0-1.4,0.7-1.4,1.4c0,0.8,0.7,1.4,1.4,1.4
		c0.8,0,1.4-0.7,1.4-1.4C16.2,27.4,15.5,26.8,14.7,26.8z M14.7,22.4c0.8,0,1.5-0.7,1.4-1.4c0-0.8-0.7-1.4-1.4-1.4
		c-0.8,0-1.4,0.7-1.4,1.5C13.3,21.8,13.9,22.4,14.7,22.4z M14.7,44.1c0.8,0,1.4-0.6,1.4-1.4c0-0.8-0.7-1.4-1.5-1.4
		c-0.8,0-1.4,0.7-1.4,1.4C13.3,43.5,13.9,44.1,14.7,44.1z M4.6,25c-0.4,0-0.7,0-1,0c-0.6,0-1.2,0.5-1.2,1.1c-0.1,0.7,0.3,1.3,1,1.4
		c0.4,0.1,0.8,0.1,1.3,0.1C4.6,26.7,4.6,25.8,4.6,25z M4.6,34.8c0-0.9,0-1.7,0-2.6c-0.3,0-0.6,0-0.9,0c-0.1,0-0.2,0-0.3,0
		c-0.7,0.1-1.1,0.7-1,1.4c0,0.6,0.5,1.1,1.1,1.2C3.9,34.8,4.2,34.8,4.6,34.8z M4.6,17.7c-0.4,0-0.7,0-1,0c-0.5,0-1,0.4-1.2,0.9
		c-0.2,0.5,0,1.1,0.5,1.4c0.5,0.4,1.1,0.2,1.7,0.3C4.6,19.4,4.6,18.6,4.6,17.7z M4.6,39.4c-0.4,0-0.7,0-1,0c-0.5,0-1,0.3-1.2,0.8
		c-0.2,0.5,0,1,0.4,1.4C3.3,42.1,4,42,4.6,42C4.6,41.1,4.6,40.3,4.6,39.4z M4.6,10.5c-0.4,0-0.8,0-1.2,0c-0.6,0.1-1,0.6-1,1.2
		c0,0.6,0.3,1.2,0.9,1.3c0.4,0.1,0.9,0.1,1.3,0.1C4.6,12.2,4.6,11.4,4.6,10.5z"/>
	<path d="M33.6,12.3c3.9,0,7.8,0,11.8,0c0.2,0,0.5,0.1,0.7,0.2c0.2,0.1,0.2,0.4,0.2,0.7c0,2.8,0,5.7,0,8.5c0,2.1,0,4.2,0,6.3
		c0,0.5-0.3,0.7-0.7,0.7c-5.6,0-11.2,0-16.8,0c-2.3,0-4.6,0-6.9,0c-0.7,0-1-0.2-1-0.9c0-4.9,0-9.8,0-14.6c0-0.6,0.2-0.8,0.8-0.8
		C25.7,12.3,29.7,12.3,33.6,12.3C33.6,12.3,33.6,12.3,33.6,12.3z M22.3,25.7c0.1-0.1,0.1-0.2,0.2-0.2c0.6-1,1.2-1.9,1.8-2.9
		c0.9-1.4,1.8-2.8,2.7-4.3c0.4-0.6,0.9-0.6,1.3,0c0.7,1.3,1.5,2.5,2.2,3.8c0.2,0.3,0.3,0.5,0.5,0.8c0.5-0.9,1-1.8,1.5-2.7
		c0.3-0.6,0.8-0.6,1.2-0.1c0.4,0.5,0.9,1.1,1.3,1.6c0.1,0.1,0.1,0.1,0.2,0.2c0.1-0.1,0.1-0.2,0.1-0.2c0.5-1.1,1-2.2,1.6-3.2
		c0.3-0.6,0.9-0.7,1.3-0.1c2,2.9,4.1,5.8,6.1,8.7c0.2,0.2,0.4,0.3,0.6,0.2c0-2.9,0-5.9,0-8.8c-1.5,0.2-2.7-0.1-3.8-1.1
		c-1.1-1-1.5-2.3-1.4-3.7c-5.8,0-11.6,0-17.5,0c0,0.9,0,1.7,0,2.6c0.4,0,0.7,0,1.1,0c0.2,0,0.4,0.1,0.5,0.2c0.2,0.2,0.3,0.4,0.2,0.7
		c-0.1,0.3-0.3,0.5-0.7,0.5c-0.4,0-0.8,0-1.2,0C22.3,20.3,22.3,23,22.3,25.7z M27.7,19.9c-1.6,2.5-3.2,5-4.8,7.5c3.1,0,6.1,0,9.1,0
		C30.5,24.9,29.1,22.4,27.7,19.9z M37.7,20C37.7,20.1,37.6,20.1,37.7,20c-0.5,1.1-1,2.1-1.5,3.1c0,0.1,0,0.2,0.1,0.3
		c1,1.3,1.9,2.5,2.9,3.8c0.1,0.1,0.2,0.2,0.3,0.2c1,0,2.1,0,3.1,0c0.1,0,0.1,0,0.2,0C41.1,24.9,39.4,22.5,37.7,20z M37.6,27.4
		c-1.5-1.9-2.9-3.8-4.3-5.6c0,0-0.1,0-0.1,0c-0.4,0.8-0.9,1.6-1.3,2.5c0,0.1,0,0.2,0,0.3c0.5,0.9,1,1.7,1.5,2.6
		c0.1,0.2,0.2,0.2,0.4,0.2c1.1,0,2.1,0,3.2,0C37.2,27.4,37.4,27.4,37.6,27.4z M41.1,13.6c0,0,0,0.1,0,0.1c-0.3,2,1.6,3.8,3.6,3.4
		c0.2,0,0.3-0.1,0.3-0.3c0-0.8,0-1.7,0-2.5c0-0.2,0-0.5,0-0.7C43.7,13.6,42.4,13.6,41.1,13.6z"/>
	<path d="M33.5,48.5c-4,0-8,0-11.9,0c-0.7,0-0.9-0.2-0.9-0.9c0-2.2,0-4.3,0-6.5c0-0.6,0.2-0.8,0.8-0.8c3.9,0,7.9,0,11.8,0
		c4,0,8.1,0,12.1,0c0.6,0,0.9,0.2,0.9,0.9c0,2.2,0,4.3,0,6.5c0,0.6-0.2,0.8-0.8,0.9C41.5,48.5,37.5,48.5,33.5,48.5z M22,41.6
		c0,1.8,0,3.7,0,5.5c7.6,0,15.3,0,22.9,0c0-1.9,0-3.7,0-5.5C37.3,41.6,29.7,41.6,22,41.6z"/>
	<path d="M33.5,31.8c-4,0-8,0-12,0c-0.4,0-0.7-0.2-0.8-0.5c-0.1-0.5,0.2-0.8,0.7-0.8c0.4,0,0.8,0,1.3,0c6.8,0,13.7,0,20.5,0
		c0.8,0,1.6,0,2.4,0c0.4,0,0.6,0.2,0.7,0.5c0.1,0.3-0.1,0.6-0.3,0.7c-0.1,0.1-0.3,0.1-0.5,0.1C41.5,31.8,37.5,31.8,33.5,31.8z"/>
	<path d="M41.2,38.2c-1.4,0-2.9,0-4.3,0c-5.1,0-10.2,0-15.3,0c-0.1,0-0.3,0-0.4,0c-0.3-0.1-0.5-0.3-0.5-0.6c0-0.3,0.2-0.6,0.5-0.6
		c0.1,0,0.2,0,0.4,0c5.1,0,10.1,0,15.2,0c2.9,0,5.8,0,8.8,0c0.2,0,0.4,0,0.6,0.1c0.3,0.1,0.3,0.4,0.3,0.7c-0.1,0.3-0.3,0.5-0.6,0.5
		c-0.1,0-0.2,0-0.2,0C44.1,38.2,42.7,38.2,41.2,38.2C41.2,38.2,41.2,38.2,41.2,38.2z"/>
	<path d="M33.5,33.7c4,0,7.9,0,11.9,0c0.1,0,0.2,0,0.2,0c0.4,0,0.7,0.3,0.7,0.7c0,0.4-0.3,0.6-0.7,0.6c-0.7,0-1.4,0-2.2,0
		c-1.3,0-2.5,0-3.8,0c-6,0-11.9,0-17.9,0c-0.1,0-0.3,0-0.4,0c-0.4,0-0.6-0.3-0.6-0.6c0-0.4,0.2-0.6,0.6-0.7c0.1,0,0.2,0,0.3,0
		C25.6,33.7,29.5,33.7,33.5,33.7z"/>
	<path d="M33.7,16.6c-0.9,0-1.8,0-2.7,0c-0.5,0-0.8-0.3-0.8-0.7c0-0.4,0.3-0.7,0.8-0.7c1.8,0,3.7,0,5.5,0c0.4,0,0.8,0.3,0.8,0.6
		c0,0.4-0.3,0.7-0.8,0.7C35.5,16.6,34.6,16.6,33.7,16.6C33.7,16.6,33.7,16.6,33.7,16.6z"/>
</g>
</svg>
