<?xml version="1.0" encoding="utf-8"?>
<!-- Generator: Adobe Illustrator 25.3.1, SVG Export Plug-In . SVG Version: 6.00 Build 0)  -->
<svg version="1.1" id="Layer_1" xmlns="http://www.w3.org/2000/svg" xmlns:xlink="http://www.w3.org/1999/xlink" x="0px" y="0px"
	 viewBox="0 0 53 53" style="enable-background:new 0 0 53 53;" xml:space="preserve">
<style type="text/css">
	.st0{fill:#FFC401;}
</style>
<g>
	<path class="st0" d="M5,26.5c0-6.4,0-12.8,0-19.2c0-4.2,2.7-7,6.9-7c6.3,0,12.7,0,19,0c0.7,0,1.3,0.3,1.8,0.8
		c4.8,4.9,9.7,9.7,14.5,14.5c0.5,0.5,0.7,1,0.7,1.7c0,9.6,0,19.3,0,28.9c0,3.7-2.9,6.6-6.6,6.6c-9.9,0-19.8,0-29.7,0
		c-3.7,0-6.5-2.8-6.6-6.5C5,39.6,5,33.1,5,26.5z M29.2,4.2c-0.2,0-0.3,0-0.4,0c-5.7,0-11.3,0-17,0C10,4.2,9,5.3,9,7.1
		C9,20,9,33,9,45.9c0,1.9,1.1,2.9,2.9,2.9c9.7,0,19.5,0,29.2,0c1.9,0,2.9-1,2.9-2.9c0-8.7,0-17.4,0-26.1c0-0.2,0-0.5,0-0.7
		c-2.8,0-5.4,0-8.1,0c-3.9,0-6.8-2.8-6.8-6.7c0-2.5,0-4.9,0-7.4C29.2,4.7,29.2,4.5,29.2,4.2z M33.1,7.1c0,1.9-0.1,3.7,0,5.6
		c0.1,1.4,1.2,2.4,2.6,2.4c1.7,0,3.3,0,5,0c0.1,0,0.3,0,0.4,0C38.4,12.4,35.8,9.8,33.1,7.1z"/>
	<path class="st0" d="M24.4,29.1c-1.1,1.1-2.3,2.3-3.4,3.4c-0.5,0.5-1.1,0.9-1.9,0.7c-1.5-0.3-2.1-1.9-1.2-3.1
		c0.1-0.2,0.3-0.4,0.5-0.5c2.2-2.2,4.3-4.3,6.5-6.5c1.2-1.2,2.2-1.2,3.4,0c2.2,2.2,4.4,4.4,6.6,6.6c0.5,0.5,0.9,1.1,0.8,1.9
		c-0.1,0.7-0.6,1.3-1.3,1.5c-0.8,0.3-1.5,0.1-2-0.5c-1.1-1-2.1-2.1-3.1-3.1c-0.1-0.1-0.3-0.3-0.6-0.6c0,0.4,0,0.6,0,0.8
		c0,3.7,0,7.3,0,11c0,1.4-0.8,2.2-2,2.2c-0.9,0-1.7-0.7-1.9-1.6c0-0.3,0-0.6,0-0.9c0-3.5,0-7.1,0-10.6c0-0.2,0-0.5,0-0.7
		C24.5,29.1,24.4,29.1,24.4,29.1z"/>
</g>
</svg>
