<?xml version="1.0" encoding="utf-8"?>
<!-- Generator: Adobe Illustrator 25.3.1, SVG Export Plug-In . SVG Version: 6.00 Build 0)  -->
<svg version="1.1" id="Layer_1" xmlns="http://www.w3.org/2000/svg" xmlns:xlink="http://www.w3.org/1999/xlink" x="0px" y="0px"
	 viewBox="0 0 53 53" style="enable-background:new 0 0 53 53;" xml:space="preserve">
<style type="text/css">
	.st0{fill:#FFC401;}
</style>
<g>
	<path class="st0" d="M43.6,0C32.2,0,20.8,0,9.4,0C3.9,0,0,4,0,9.5c0,11.3,0,22.7,0,34C0,49,3.9,53,9.4,53c5.7,0,11.4,0,17.1,0
		s11.4,0,17.1,0c5.4,0,9.4-4,9.4-9.4V9.5C53,4.1,49,0,43.6,0z M50.8,43.4c0,3.1-1.3,5.3-3.9,6.7c-0.9,0.5-2,0.7-3.2,0.7l0,0H33.2
		c-8,0-15.9,0-23.9,0c-4,0-7.1-3-7.1-7c0-4.5,0-8.9,0-13.4V25v-0.1h48.6c0,0.1,0,0.2,0,0.3v6C50.8,35.2,50.8,39.3,50.8,43.4z
		 M2.2,18.5c0-3,0-6,0-9c0-4.3,3-7.3,7.3-7.3c11.4,0,22.8,0,34.1,0c3.6,0,6.4,2.3,7.1,5.8c0.1,0.4,0.1,0.8,0.1,1.3c0,4,0,8.1,0,12.1
		v1.1c0,0.1,0,0.1,0,0.2H2.2V18.5z"/>
	<path class="st0" d="M41.8,33.9L41.8,33.9c-1.8,0-3.4,0.7-4.7,1.9c-1.2,1.2-1.9,2.9-1.9,4.7s0.7,3.4,1.9,4.7
		c1.2,1.2,2.9,1.9,4.6,1.9l0,0c1.8,0,3.5-0.7,4.7-2c1.2-1.2,1.9-2.9,1.9-4.7C48.3,36.8,45.4,33.9,41.8,33.9z M41.7,35.7L41.7,35.7
		c2.6,0,4.7,2.1,4.8,4.7c0,1.3-0.5,2.4-1.4,3.3c-0.9,0.9-2.1,1.4-3.4,1.4l0,0c-2.6,0-4.7-2.1-4.7-4.7c0-1.3,0.5-2.4,1.4-3.3
		C39.3,36.2,40.5,35.7,41.7,35.7z"/>
	<path class="st0" d="M18.7,38.4c-3.3-1.6-6.4-1.2-9.2,1c-2.1,1.6-3.2,3.9-3.3,6.7v0.3h2v-0.2c0.9-4.3,2.9-6.4,6.3-6.5
		c1.6-0.1,2.9,0.4,4.2,1.3c1.7,1.2,2.6,3,2.7,5.3v0.2h2v-0.2C23.6,42.9,21.6,39.8,18.7,38.4z"/>
	<path class="st0" d="M14.8,36.6c2.6,0,4.7-2,4.7-4.6c0-1.3-0.5-2.5-1.4-3.4s-2-1.4-3.3-1.4l0,0c-2.6,0-4.7,2.1-4.7,4.7
		c0,1.3,0.5,2.4,1.4,3.3C12.4,36.1,13.6,36.6,14.8,36.6z M14.9,34.5C14.9,34.5,14.8,34.5,14.9,34.5c-0.7,0-1.3-0.3-1.8-0.8
		s-0.8-1.1-0.7-1.7c0-0.8,0.3-1.4,0.8-1.9s1.1-0.7,1.8-0.7c1.4,0,2.6,1.2,2.6,2.6c0,0.7-0.3,1.4-0.8,1.8
		C16.2,34.2,15.5,34.5,14.9,34.5z"/>
	<rect x="25.2" y="40.1" class="st0" width="8.2" height="2.2"/>
	<rect x="25.1" y="35" class="st0" width="8.2" height="2.2"/>
	<rect x="25.2" y="29.9" class="st0" width="17.8" height="2.1"/>
	<path class="st0" d="M16.4,6.1V4.3L16.3,4H16c-0.1,0-0.1-0.1-0.2-0.1c-0.6,0-1.2,0-1.7,0c-1.3,0-2.7,0-4.1,0C6.8,4,4.3,6.4,4,9.5
		c-0.1,0.7-0.1,1.4-0.1,2c0,0.2,0,0.5,0,0.7c0,0.9,0,1.7,0,2.6v1.5h2.2v-2.7c0-1.1,0-2.2,0-3.2C6.1,7.8,7.9,6,10.5,6
		c1.2,0,2.3,0,3.5,0L16.4,6.1z"/>
	<path class="st0" d="M43.4,4c-0.7-0.1-1.4-0.1-2.1-0.1c-0.3,0-0.5,0-0.8,0c-0.8,0-1.6,0-2.5,0h-1.5V6h0.6c0.1,0,0.3,0,0.4,0h4.8
		c2.7,0,4.5,1.8,4.5,4.5v4.8c0,0.1,0,0.3,0,0.4v0.6h1.7l0.3-0.1l0.1-0.2c0-0.1,0.1-0.1,0.1-0.3c0-0.6,0-1.2,0-1.7c0-1.3,0-2.7,0-4.1
		C49,6.8,46.6,4.3,43.4,4z"/>
	<path class="st0" d="M39.4,18.4l-0.7-2.1c-0.7-2-1.4-4-2-6c-0.2-0.7-0.7-0.7-1.1-0.7c-0.1,0-0.2,0-0.2,0c-0.3,0-0.8,0-1,0.7
		c-0.6,2-1.3,3.9-2,5.8c-0.3,0.8-0.5,1.6-0.8,2.4c0,0.1-0.1,0.2-0.1,0.4l-0.1,0.5h0.3c1.4,0.1,1.5,0.1,1.9-1.2l0.2-0.6
		c0.3-1,0.3-1,1.4-1c0.2,0,0.4,0,0.6,0c0.4,0,0.8-0.1,1.1,0.1c0.2,0.2,0.4,0.6,0.5,1.1c0,0.2,0.1,0.4,0.2,0.5c0.3,1,0.5,1.2,1.2,1.2
		c0.2,0,0.4,0,0.6,0l0.4-0.2l-0.1-0.4C39.5,18.7,39.4,18.5,39.4,18.4z M36.3,15h-1.8l0.9-2.8L36.3,15z"/>
	<path class="st0" d="M19.4,10.8l-2,5.9l-1.8-5.8c-0.4-1.3-0.5-1.4-1.8-1.3c-0.1,0-0.2,0.1-0.3,0.1l-0.1,0.1l0.1,0.3
		c0,0.1,0.1,0.3,0.1,0.4l2.6,8.1c0.1,0.3,0.2,0.7,0.8,0.7h0.1c0.1,0,0.2,0,0.3,0c0.4,0,0.9,0,1.1-0.7c0.5-1.6,1.1-3.3,1.7-4.9
		c0.2-0.6,0.5-1.3,0.7-1.9l0.8-2.2l-0.3-0.1C20,9.4,19.8,9.5,19.4,10.8z"/>
	<path class="st0" d="M29.4,14.1c-0.3-0.2-0.6-0.3-1-0.5c-0.3-0.1-0.6-0.3-0.9-0.5c-0.6-0.3-0.8-0.7-0.7-1.2
		c0.1-0.5,0.5-0.8,1.1-0.8l0,0c0.4,0,0.9,0.1,1.4,0.2c0.2,0,0.4,0.1,0.7,0.1h0.2l0.1-0.2v-0.1c0.1-0.1,0.2-0.3,0.2-0.6
		c0-0.2-0.1-0.6-0.4-0.7c-1.4-0.5-2.6-0.5-3.7,0.1c-0.8,0.4-1.4,1.3-1.4,2.2c-0.1,0.9,0.4,1.8,1.1,2.3c0.3,0.2,0.7,0.4,1,0.5
		c0.2,0.1,0.3,0.1,0.5,0.2c0.1,0.1,0.2,0.1,0.3,0.2c0.3,0.1,0.5,0.3,0.8,0.4c0.4,0.3,0.5,0.7,0.4,1.3c-0.1,0.4-0.4,0.7-0.8,0.8
		c-0.5,0.1-0.9,0.1-1.3,0.1c-0.4-0.1-0.7-0.2-1.1-0.3c-0.2-0.1-0.3-0.1-0.5-0.2l-0.2-0.1l-0.1,0.3c0,0.1-0.1,0.2-0.1,0.3
		c-0.2,0.3-0.2,0.6-0.1,0.8c0.1,0.3,0.5,0.4,0.7,0.5c0.7,0.2,1.3,0.3,1.9,0.3c0.4,0,0.9-0.1,1.3-0.2c1.2-0.3,1.9-1,2.1-2.1
		C31.2,15.9,30.7,14.8,29.4,14.1z"/>
	<rect x="22" y="9.7" class="st0" width="1.8" height="9.7"/>
	<polygon class="st0" points="41.3,44.4 45.6,39.2 44.2,38 41.1,41.8 39.2,40.3 38,41.7 	"/>
</g>
</svg>
